<svg xmlns="http://www.w3.org/2000/svg" width="1920" height="1080" viewBox="0 0 1920 1080">
  <defs>
    <linearGradient id="bgGrad" x1="0%" y1="0%" x2="100%" y2="100%">
      <stop offset="0%" style="stop-color:#0D2137;stop-opacity:1" />
      <stop offset="100%" style="stop-color:#0A1A2E;stop-opacity:1" />
    </linearGradient>
    <linearGradient id="cardGrad" x1="0%" y1="0%" x2="0%" y2="100%">
      <stop offset="0%" style="stop-color:#1E3A5F;stop-opacity:1" />
      <stop offset="100%" style="stop-color:#162E4A;stop-opacity:1" />
    </linearGradient>
    <filter id="shadow">
      <feDropShadow dx="0" dy="4" stdDeviation="8" flood-color="#000000" flood-opacity="0.4"/>
    </filter>
    <filter id="panelShadow">
      <feDropShadow dx="-4" dy="0" stdDeviation="12" flood-color="#000000" flood-opacity="0.5"/>
    </filter>
  </defs>

  <!-- Chrome OS Desktop -->
  <rect width="1920" height="1080" fill="#1A2035"/>
  <rect width="1920" height="1080" fill="url(#bgGrad)" opacity="0.5"/>

  <!-- App Window -->
  <rect x="40" y="20" width="1840" height="1000" rx="10" fill="#0D1B2A" filter="url(#shadow)"/>

  <!-- Window Title Bar -->
  <rect x="40" y="20" width="1840" height="36" rx="10" fill="#0A1520"/>
  <rect x="40" y="44" width="1840" height="12" fill="#0A1520"/>
  <circle cx="64" cy="38" r="6" fill="#FF5F57"/>
  <circle cx="84" cy="38" r="6" fill="#FFBD2E"/>
  <circle cx="104" cy="38" r="6" fill="#28CA41"/>
  <text x="960" y="42" font-family="Arial, sans-serif" font-size="13" fill="#8B9EC8" text-anchor="middle">HaulWallet — Load Management</text>

  <!-- Sidebar -->
  <rect x="40" y="56" width="240" height="964" fill="#1A2B4A"/>
  <rect x="40" y="56" width="240" height="70" fill="#142038"/>
  <rect x="60" y="73" width="36" height="36" rx="8" fill="#2B6CB0"/>
  <text x="78" y="97" font-family="Arial, sans-serif" font-size="20" fill="white" text-anchor="middle" font-weight="bold">H</text>
  <text x="110" y="88" font-family="Arial, sans-serif" font-size="15" fill="white" font-weight="bold">HaulWallet</text>
  <text x="110" y="104" font-family="Arial, sans-serif" font-size="10" fill="#8B9EC8">Fleet Management</text>

  <!-- Nav -->
  <rect x="48" y="145" width="224" height="44" rx="8" fill="transparent"/>
  <text x="98" y="172" font-family="Arial, sans-serif" font-size="13" fill="#8B9EC8">Dashboard</text>
  <rect x="48" y="197" width="224" height="44" rx="8" fill="transparent"/>
  <text x="98" y="223" font-family="Arial, sans-serif" font-size="13" fill="#8B9EC8">My Routes</text>
  <!-- Loads (active) -->
  <rect x="48" y="249" width="224" height="44" rx="8" fill="#2B6CB0"/>
  <text x="98" y="271" font-family="Arial, sans-serif" font-size="13" fill="white" font-weight="600">Loads</text>
  <rect x="206" y="257" width="28" height="16" rx="8" fill="#F5A623"/>
  <text x="220" y="269" font-family="Arial, sans-serif" font-size="10" fill="white" text-anchor="middle" font-weight="bold">3</text>
  <rect x="48" y="301" width="224" height="44" rx="8" fill="transparent"/>
  <text x="98" y="323" font-family="Arial, sans-serif" font-size="13" fill="#8B9EC8">Earnings</text>
  <rect x="48" y="353" width="224" height="44" rx="8" fill="transparent"/>
  <text x="98" y="379" font-family="Arial, sans-serif" font-size="13" fill="#8B9EC8">Analytics</text>
  <rect x="48" y="405" width="224" height="44" rx="8" fill="transparent"/>
  <text x="98" y="431" font-family="Arial, sans-serif" font-size="13" fill="#8B9EC8">Documents</text>
  <rect x="48" y="457" width="224" height="44" rx="8" fill="transparent"/>
  <text x="98" y="483" font-family="Arial, sans-serif" font-size="13" fill="#8B9EC8">Expenses</text>
  <line x1="68" y1="540" x2="252" y2="540" stroke="#2B3F5E" stroke-width="1"/>
  <rect x="48" y="556" width="224" height="44" rx="8" fill="transparent"/>
  <text x="98" y="582" font-family="Arial, sans-serif" font-size="13" fill="#8B9EC8">Settings</text>

  <!-- Quick stats in sidebar -->
  <rect x="56" y="640" width="208" height="88" rx="8" fill="#0F2035" stroke="#2B3F5E" stroke-width="1"/>
  <text x="76" y="664" font-family="Arial, sans-serif" font-size="11" fill="#5A7090">Active Loads</text>
  <text x="76" y="686" font-family="Arial, sans-serif" font-size="22" fill="white" font-weight="700">7</text>
  <text x="76" y="706" font-family="Arial, sans-serif" font-size="11" fill="#F5A623">3 need attention</text>

  <rect x="56" y="740" width="208" height="88" rx="8" fill="#0F2035" stroke="#2B3F5E" stroke-width="1"/>
  <text x="76" y="764" font-family="Arial, sans-serif" font-size="11" fill="#5A7090">Pending Invoices</text>
  <text x="76" y="786" font-family="Arial, sans-serif" font-size="22" fill="white" font-weight="700">$8,420</text>
  <text x="76" y="806" font-family="Arial, sans-serif" font-size="11" fill="#48BB78">2 ready to send</text>

  <!-- User -->
  <rect x="40" y="960" width="240" height="60" fill="#142038"/>
  <circle cx="72" cy="990" r="18" fill="#2B6CB0"/>
  <text x="72" y="996" font-family="Arial, sans-serif" font-size="14" fill="white" text-anchor="middle" font-weight="bold">MJ</text>
  <text x="100" y="985" font-family="Arial, sans-serif" font-size="12" fill="white" font-weight="600">Mike Johnson</text>
  <text x="100" y="1001" font-family="Arial, sans-serif" font-size="11" fill="#8B9EC8">CDL-A Driver</text>

  <!-- Main Content Area -->
  <!-- Top Toolbar -->
  <rect x="280" y="56" width="1600" height="64" fill="#0F2035" opacity="0.9"/>
  <line x1="280" y1="120" x2="1880" y2="120" stroke="#1E3A5F" stroke-width="1"/>
  <text x="308" y="85" font-family="Arial, sans-serif" font-size="20" fill="white" font-weight="bold">Load Management</text>
  <text x="308" y="105" font-family="Arial, sans-serif" font-size="12" fill="#8B9EC8">All Loads · 47 total</text>

  <!-- Search -->
  <rect x="700" y="68" width="280" height="36" rx="18" fill="#1A2B4A" stroke="#2B3F5E" stroke-width="1"/>
  <text x="724" y="91" font-family="Arial, sans-serif" font-size="13" fill="#5A7090">Search loads...</text>
  <circle cx="716" cy="86" r="6" fill="none" stroke="#5A7090" stroke-width="1.5"/>
  <line x1="720" y1="90" x2="724" y2="94" stroke="#5A7090" stroke-width="1.5"/>

  <!-- New Load button -->
  <rect x="1740" y="68" width="130" height="36" rx="8" fill="#2B6CB0"/>
  <text x="1805" y="91" font-family="Arial, sans-serif" font-size="13" fill="white" text-anchor="middle" font-weight="600">+ New Load</text>

  <!-- Filter bar -->
  <rect x="280" y="120" width="1600" height="52" fill="#0D1B2A"/>
  <line x1="280" y1="172" x2="1880" y2="172" stroke="#1E3A5F" stroke-width="1"/>

  <!-- Filter tabs -->
  <rect x="300" y="132" width="60" height="28" rx="6" fill="#2B6CB0"/>
  <text x="330" y="151" font-family="Arial, sans-serif" font-size="12" fill="white" text-anchor="middle">All</text>
  <text x="375" y="151" font-family="Arial, sans-serif" font-size="12" fill="#8B9EC8" text-anchor="middle">Active</text>
  <rect x="393" y="145" width="12" height="12" rx="6" fill="#F5A623"/>
  <text x="399" y="154" font-family="Arial, sans-serif" font-size="8" fill="white" text-anchor="middle">7</text>
  <text x="448" y="151" font-family="Arial, sans-serif" font-size="12" fill="#8B9EC8" text-anchor="middle">Pending</text>
  <text x="510" y="151" font-family="Arial, sans-serif" font-size="12" fill="#8B9EC8" text-anchor="middle">Completed</text>
  <text x="574" y="151" font-family="Arial, sans-serif" font-size="12" fill="#8B9EC8" text-anchor="middle">Invoiced</text>
  <text x="630" y="151" font-family="Arial, sans-serif" font-size="12" fill="#8B9EC8" text-anchor="middle">Cancelled</text>

  <!-- Right filter controls -->
  <rect x="1560" y="132" width="100" height="28" rx="6" fill="#1A2B4A" stroke="#2B3F5E" stroke-width="1"/>
  <text x="1610" y="151" font-family="Arial, sans-serif" font-size="12" fill="#8B9EC8" text-anchor="middle">Filter ▼</text>
  <rect x="1672" y="132" width="100" height="28" rx="6" fill="#1A2B4A" stroke="#2B3F5E" stroke-width="1"/>
  <text x="1722" y="151" font-family="Arial, sans-serif" font-size="12" fill="#8B9EC8" text-anchor="middle">Sort ↕</text>
  <rect x="1784" y="132" width="88" height="28" rx="6" fill="#1A2B4A" stroke="#2B3F5E" stroke-width="1"/>
  <text x="1828" y="151" font-family="Arial, sans-serif" font-size="12" fill="#8B9EC8" text-anchor="middle">Export</text>

  <!-- TABLE AREA (left 65%, detail panel right 35%) -->
  <!-- Table header -->
  <rect x="280" y="172" width="1040" height="40" fill="#0A1520"/>
  <line x1="280" y1="212" x2="1320" y2="212" stroke="#1E3A5F" stroke-width="1"/>

  <!-- Column headers with sort indicators -->
  <text x="310" y="196" font-family="Arial, sans-serif" font-size="11" fill="#5A7090" font-weight="700" letter-spacing="0.5">DATE ↕</text>
  <text x="410" y="196" font-family="Arial, sans-serif" font-size="11" fill="#2B6CB0" font-weight="700" letter-spacing="0.5">ROUTE ↓</text>
  <text x="650" y="196" font-family="Arial, sans-serif" font-size="11" fill="#5A7090" font-weight="700" letter-spacing="0.5">LOAD TYPE ↕</text>
  <text x="800" y="196" font-family="Arial, sans-serif" font-size="11" fill="#5A7090" font-weight="700" letter-spacing="0.5">DISTANCE ↕</text>
  <text x="920" y="196" font-family="Arial, sans-serif" font-size="11" fill="#5A7090" font-weight="700" letter-spacing="0.5">EARNINGS ↕</text>
  <text x="1060" y="196" font-family="Arial, sans-serif" font-size="11" fill="#5A7090" font-weight="700" letter-spacing="0.5">BROKER ↕</text>
  <text x="1210" y="196" font-family="Arial, sans-serif" font-size="11" fill="#5A7090" font-weight="700" letter-spacing="0.5">STATUS ↕</text>

  <!-- Checkbox column header -->
  <rect x="290" y="184" width="14" height="14" rx="3" fill="none" stroke="#2B3F5E" stroke-width="1.5"/>

  <!-- ROW 1 (selected / highlighted) -->
  <rect x="280" y="212" width="1040" height="52" fill="#1A2B4A"/>
  <rect x="280" y="212" width="4" height="52" fill="#2B6CB0"/>
  <!-- Checkbox checked -->
  <rect x="290" y="224" width="14" height="14" rx="3" fill="#2B6CB0"/>
  <path d="M 293 231 L 297 235 L 303 227" stroke="white" stroke-width="2" fill="none" stroke-linecap="round"/>

  <text x="310" y="234" font-family="Arial, sans-serif" font-size="12" fill="#8B9EC8">Apr 17, 2026</text>
  <text x="310" y="252" font-family="Arial, sans-serif" font-size="11" fill="#5A7090">Today</text>
  <text x="410" y="234" font-family="Arial, sans-serif" font-size="13" fill="white" font-weight="600">Chicago, IL</text>
  <text x="410" y="252" font-family="Arial, sans-serif" font-size="11" fill="#8B9EC8">→ Dallas, TX</text>
  <rect x="650" y="224" width="80" height="20" rx="10" fill="#1A3A5A"/>
  <text x="690" y="238" font-family="Arial, sans-serif" font-size="11" fill="#63B3ED" text-anchor="middle">Reefer</text>
  <text x="800" y="234" font-family="Arial, sans-serif" font-size="13" fill="white">920 mi</text>
  <text x="920" y="234" font-family="Arial, sans-serif" font-size="13" fill="#48BB78" font-weight="700">$2,847</text>
  <text x="920" y="252" font-family="Arial, sans-serif" font-size="11" fill="#5A7090">$3.09/mi</text>
  <text x="1060" y="234" font-family="Arial, sans-serif" font-size="12" fill="#8B9EC8">Coyote</text>
  <rect x="1210" y="222" width="84" height="24" rx="12" fill="#1A3A1A"/>
  <circle cx="1223" cy="234" r="4" fill="#48BB78"/>
  <text x="1255" y="238" font-family="Arial, sans-serif" font-size="11" fill="#48BB78" text-anchor="middle">In Transit</text>

  <!-- ROW 2 -->
  <line x1="280" y1="264" x2="1320" y2="264" stroke="#1E3A5F" stroke-width="0.5"/>
  <rect x="280" y="264" width="1040" height="52" fill="transparent"/>
  <rect x="290" y="276" width="14" height="14" rx="3" fill="none" stroke="#2B3F5E" stroke-width="1.5"/>
  <text x="310" y="286" font-family="Arial, sans-serif" font-size="12" fill="#8B9EC8">Apr 19, 2026</text>
  <text x="310" y="304" font-family="Arial, sans-serif" font-size="11" fill="#5A7090">Sat</text>
  <text x="410" y="286" font-family="Arial, sans-serif" font-size="13" fill="white">Atlanta, GA</text>
  <text x="410" y="304" font-family="Arial, sans-serif" font-size="11" fill="#8B9EC8">→ Miami, FL</text>
  <rect x="650" y="276" width="74" height="20" rx="10" fill="#2A1A00"/>
  <text x="687" y="290" font-family="Arial, sans-serif" font-size="11" fill="#F5A623" text-anchor="middle">Dry Van</text>
  <text x="800" y="286" font-family="Arial, sans-serif" font-size="13" fill="white">662 mi</text>
  <text x="920" y="286" font-family="Arial, sans-serif" font-size="13" fill="#48BB78" font-weight="700">$1,840</text>
  <text x="920" y="304" font-family="Arial, sans-serif" font-size="11" fill="#5A7090">$2.78/mi</text>
  <text x="1060" y="286" font-family="Arial, sans-serif" font-size="12" fill="#8B9EC8">Echo Global</text>
  <rect x="1210" y="274" width="80" height="24" rx="12" fill="#2A1A00"/>
  <circle cx="1223" cy="286" r="4" fill="#F5A623"/>
  <text x="1255" y="290" font-family="Arial, sans-serif" font-size="11" fill="#F5A623" text-anchor="middle">Pending</text>

  <!-- ROW 3 -->
  <line x1="280" y1="316" x2="1320" y2="316" stroke="#1E3A5F" stroke-width="0.5"/>
  <rect x="280" y="316" width="1040" height="52" fill="transparent"/>
  <rect x="290" y="328" width="14" height="14" rx="3" fill="none" stroke="#2B3F5E" stroke-width="1.5"/>
  <text x="310" y="338" font-family="Arial, sans-serif" font-size="12" fill="#8B9EC8">Apr 21, 2026</text>
  <text x="310" y="356" font-family="Arial, sans-serif" font-size="11" fill="#5A7090">Mon</text>
  <text x="410" y="338" font-family="Arial, sans-serif" font-size="13" fill="white">Houston, TX</text>
  <text x="410" y="356" font-family="Arial, sans-serif" font-size="11" fill="#8B9EC8">→ Phoenix, AZ</text>
  <rect x="650" y="328" width="72" height="20" rx="10" fill="#1A1A3A"/>
  <text x="686" y="342" font-family="Arial, sans-serif" font-size="11" fill="#9B8CFF" text-anchor="middle">Flatbed</text>
  <text x="800" y="338" font-family="Arial, sans-serif" font-size="13" fill="white">1,178 mi</text>
  <text x="920" y="338" font-family="Arial, sans-serif" font-size="13" fill="#48BB78" font-weight="700">$2,650</text>
  <text x="920" y="356" font-family="Arial, sans-serif" font-size="11" fill="#5A7090">$2.25/mi</text>
  <text x="1060" y="338" font-family="Arial, sans-serif" font-size="12" fill="#8B9EC8">CH Robinson</text>
  <rect x="1210" y="326" width="80" height="24" rx="12" fill="#2A1A00"/>
  <circle cx="1223" cy="338" r="4" fill="#F5A623"/>
  <text x="1255" y="342" font-family="Arial, sans-serif" font-size="11" fill="#F5A623" text-anchor="middle">Pending</text>

  <!-- ROW 4 -->
  <line x1="280" y1="368" x2="1320" y2="368" stroke="#1E3A5F" stroke-width="0.5"/>
  <rect x="280" y="368" width="1040" height="52" fill="transparent"/>
  <rect x="290" y="380" width="14" height="14" rx="3" fill="none" stroke="#2B3F5E" stroke-width="1.5"/>
  <text x="310" y="390" font-family="Arial, sans-serif" font-size="12" fill="#8B9EC8">Apr 24, 2026</text>
  <text x="410" y="390" font-family="Arial, sans-serif" font-size="13" fill="white">Denver, CO</text>
  <text x="410" y="408" font-family="Arial, sans-serif" font-size="11" fill="#8B9EC8">→ Seattle, WA</text>
  <rect x="650" y="380" width="68" height="20" rx="10" fill="#1A3A1A"/>
  <text x="684" y="394" font-family="Arial, sans-serif" font-size="11" fill="#48BB78" text-anchor="middle">Reefer</text>
  <text x="800" y="390" font-family="Arial, sans-serif" font-size="13" fill="white">1,321 mi</text>
  <text x="920" y="390" font-family="Arial, sans-serif" font-size="13" fill="#48BB78" font-weight="700">$3,200</text>
  <text x="920" y="408" font-family="Arial, sans-serif" font-size="11" fill="#5A7090">$2.42/mi</text>
  <text x="1060" y="390" font-family="Arial, sans-serif" font-size="12" fill="#8B9EC8">Uber Freight</text>
  <rect x="1210" y="378" width="80" height="24" rx="12" fill="#2A1A00"/>
  <circle cx="1223" cy="390" r="4" fill="#F5A623"/>
  <text x="1255" y="394" font-family="Arial, sans-serif" font-size="11" fill="#F5A623" text-anchor="middle">Pending</text>

  <!-- ROW 5 (completed) -->
  <line x1="280" y1="420" x2="1320" y2="420" stroke="#1E3A5F" stroke-width="0.5"/>
  <rect x="280" y="420" width="1040" height="52" fill="transparent"/>
  <rect x="290" y="432" width="14" height="14" rx="3" fill="none" stroke="#2B3F5E" stroke-width="1.5"/>
  <text x="310" y="442" font-family="Arial, sans-serif" font-size="12" fill="#8B9EC8">Apr 16, 2026</text>
  <text x="410" y="442" font-family="Arial, sans-serif" font-size="13" fill="#8B9EC8">Memphis, TN</text>
  <text x="410" y="460" font-family="Arial, sans-serif" font-size="11" fill="#5A7090">→ Nashville, TN</text>
  <rect x="650" y="432" width="74" height="20" rx="10" fill="#2A1A00"/>
  <text x="687" y="446" font-family="Arial, sans-serif" font-size="11" fill="#F5A623" text-anchor="middle">Dry Van</text>
  <text x="800" y="442" font-family="Arial, sans-serif" font-size="13" fill="#8B9EC8">213 mi</text>
  <text x="920" y="442" font-family="Arial, sans-serif" font-size="13" fill="#8B9EC8">$1,240</text>
  <text x="920" y="460" font-family="Arial, sans-serif" font-size="11" fill="#5A7090">$5.82/mi</text>
  <text x="1060" y="442" font-family="Arial, sans-serif" font-size="12" fill="#5A7090">Echo Global</text>
  <rect x="1210" y="430" width="80" height="24" rx="12" fill="#1A3A1A"/>
  <circle cx="1223" cy="442" r="4" fill="#48BB78"/>
  <text x="1255" y="446" font-family="Arial, sans-serif" font-size="11" fill="#48BB78" text-anchor="middle">Paid</text>

  <!-- ROW 6 -->
  <line x1="280" y1="472" x2="1320" y2="472" stroke="#1E3A5F" stroke-width="0.5"/>
  <rect x="280" y="472" width="1040" height="52" fill="transparent"/>
  <rect x="290" y="484" width="14" height="14" rx="3" fill="none" stroke="#2B3F5E" stroke-width="1.5"/>
  <text x="310" y="494" font-family="Arial, sans-serif" font-size="12" fill="#8B9EC8">Apr 14, 2026</text>
  <text x="410" y="494" font-family="Arial, sans-serif" font-size="13" fill="#8B9EC8">Chicago, IL</text>
  <text x="410" y="512" font-family="Arial, sans-serif" font-size="11" fill="#5A7090">→ Atlanta, GA</text>
  <rect x="650" y="484" width="68" height="20" rx="10" fill="#1A3A1A"/>
  <text x="684" y="498" font-family="Arial, sans-serif" font-size="11" fill="#48BB78" text-anchor="middle">Reefer</text>
  <text x="800" y="494" font-family="Arial, sans-serif" font-size="13" fill="#8B9EC8">727 mi</text>
  <text x="920" y="494" font-family="Arial, sans-serif" font-size="13" fill="#8B9EC8">$2,840</text>
  <text x="920" y="512" font-family="Arial, sans-serif" font-size="11" fill="#5A7090">$3.91/mi</text>
  <text x="1060" y="494" font-family="Arial, sans-serif" font-size="12" fill="#5A7090">Coyote</text>
  <rect x="1210" y="482" width="80" height="24" rx="12" fill="#1A3A1A"/>
  <circle cx="1223" cy="494" r="4" fill="#48BB78"/>
  <text x="1255" y="498" font-family="Arial, sans-serif" font-size="11" fill="#48BB78" text-anchor="middle">Paid</text>

  <!-- ROW 7 -->
  <line x1="280" y1="524" x2="1320" y2="524" stroke="#1E3A5F" stroke-width="0.5"/>
  <rect x="280" y="524" width="1040" height="52" fill="transparent"/>
  <rect x="290" y="536" width="14" height="14" rx="3" fill="none" stroke="#2B3F5E" stroke-width="1.5"/>
  <text x="310" y="546" font-family="Arial, sans-serif" font-size="12" fill="#8B9EC8">Apr 11, 2026</text>
  <text x="410" y="546" font-family="Arial, sans-serif" font-size="13" fill="#8B9EC8">Dallas, TX</text>
  <text x="410" y="564" font-family="Arial, sans-serif" font-size="11" fill="#5A7090">→ Houston, TX</text>
  <rect x="650" y="536" width="72" height="20" rx="10" fill="#1A1A3A"/>
  <text x="686" y="550" font-family="Arial, sans-serif" font-size="11" fill="#9B8CFF" text-anchor="middle">Flatbed</text>
  <text x="800" y="546" font-family="Arial, sans-serif" font-size="13" fill="#8B9EC8">239 mi</text>
  <text x="920" y="546" font-family="Arial, sans-serif" font-size="13" fill="#8B9EC8">$980</text>
  <text x="920" y="564" font-family="Arial, sans-serif" font-size="11" fill="#5A7090">$4.10/mi</text>
  <text x="1060" y="546" font-family="Arial, sans-serif" font-size="12" fill="#5A7090">CH Robinson</text>
  <rect x="1210" y="534" width="80" height="24" rx="12" fill="#1A3A1A"/>
  <circle cx="1223" cy="546" r="4" fill="#48BB78"/>
  <text x="1255" y="550" font-family="Arial, sans-serif" font-size="11" fill="#48BB78" text-anchor="middle">Paid</text>

  <!-- ROW 8 -->
  <line x1="280" y1="576" x2="1320" y2="576" stroke="#1E3A5F" stroke-width="0.5"/>
  <rect x="280" y="576" width="1040" height="52" fill="transparent"/>
  <rect x="290" y="588" width="14" height="14" rx="3" fill="none" stroke="#2B3F5E" stroke-width="1.5"/>
  <text x="310" y="598" font-family="Arial, sans-serif" font-size="12" fill="#8B9EC8">Apr 8, 2026</text>
  <text x="410" y="598" font-family="Arial, sans-serif" font-size="13" fill="#8B9EC8">Phoenix, AZ</text>
  <text x="410" y="616" font-family="Arial, sans-serif" font-size="11" fill="#5A7090">→ Los Angeles, CA</text>
  <rect x="650" y="588" width="74" height="20" rx="10" fill="#2A1A00"/>
  <text x="687" y="602" font-family="Arial, sans-serif" font-size="11" fill="#F5A623" text-anchor="middle">Dry Van</text>
  <text x="800" y="598" font-family="Arial, sans-serif" font-size="13" fill="#8B9EC8">370 mi</text>
  <text x="920" y="598" font-family="Arial, sans-serif" font-size="13" fill="#8B9EC8">$1,560</text>
  <text x="920" y="616" font-family="Arial, sans-serif" font-size="11" fill="#5A7090">$4.22/mi</text>
  <text x="1060" y="598" font-family="Arial, sans-serif" font-size="12" fill="#5A7090">TQL</text>
  <rect x="1210" y="586" width="90" height="24" rx="12" fill="#1A2A3A"/>
  <circle cx="1223" cy="598" r="4" fill="#63B3ED"/>
  <text x="1260" y="602" font-family="Arial, sans-serif" font-size="11" fill="#63B3ED" text-anchor="middle">Invoiced</text>

  <!-- ROW 9 -->
  <line x1="280" y1="628" x2="1320" y2="628" stroke="#1E3A5F" stroke-width="0.5"/>
  <rect x="280" y="628" width="1040" height="52" fill="transparent"/>
  <rect x="290" y="640" width="14" height="14" rx="3" fill="none" stroke="#2B3F5E" stroke-width="1.5"/>
  <text x="310" y="650" font-family="Arial, sans-serif" font-size="12" fill="#8B9EC8">Apr 5, 2026</text>
  <text x="410" y="650" font-family="Arial, sans-serif" font-size="13" fill="#8B9EC8">Seattle, WA</text>
  <text x="410" y="668" font-family="Arial, sans-serif" font-size="11" fill="#5A7090">→ Portland, OR</text>
  <rect x="650" y="640" width="68" height="20" rx="10" fill="#1A3A1A"/>
  <text x="684" y="654" font-family="Arial, sans-serif" font-size="11" fill="#48BB78" text-anchor="middle">Reefer</text>
  <text x="800" y="650" font-family="Arial, sans-serif" font-size="13" fill="#8B9EC8">174 mi</text>
  <text x="920" y="650" font-family="Arial, sans-serif" font-size="13" fill="#8B9EC8">$840</text>
  <text x="920" y="668" font-family="Arial, sans-serif" font-size="11" fill="#5A7090">$4.83/mi</text>
  <text x="1060" y="650" font-family="Arial, sans-serif" font-size="12" fill="#5A7090">Convoy</text>
  <rect x="1210" y="638" width="80" height="24" rx="12" fill="#1A3A1A"/>
  <circle cx="1223" cy="650" r="4" fill="#48BB78"/>
  <text x="1255" y="654" font-family="Arial, sans-serif" font-size="11" fill="#48BB78" text-anchor="middle">Paid</text>

  <!-- ROW 10 -->
  <line x1="280" y1="680" x2="1320" y2="680" stroke="#1E3A5F" stroke-width="0.5"/>
  <rect x="280" y="680" width="1040" height="52" fill="transparent"/>
  <rect x="290" y="692" width="14" height="14" rx="3" fill="none" stroke="#2B3F5E" stroke-width="1.5"/>
  <text x="310" y="702" font-family="Arial, sans-serif" font-size="12" fill="#8B9EC8">Apr 2, 2026</text>
  <text x="410" y="702" font-family="Arial, sans-serif" font-size="13" fill="#8B9EC8">Denver, CO</text>
  <text x="410" y="720" font-family="Arial, sans-serif" font-size="11" fill="#5A7090">→ Salt Lake City, UT</text>
  <rect x="650" y="692" width="72" height="20" rx="10" fill="#1A1A3A"/>
  <text x="686" y="706" font-family="Arial, sans-serif" font-size="11" fill="#9B8CFF" text-anchor="middle">Flatbed</text>
  <text x="800" y="702" font-family="Arial, sans-serif" font-size="13" fill="#8B9EC8">525 mi</text>
  <text x="920" y="702" font-family="Arial, sans-serif" font-size="13" fill="#8B9EC8">$2,100</text>
  <text x="920" y="720" font-family="Arial, sans-serif" font-size="11" fill="#5A7090">$4.00/mi</text>
  <text x="1060" y="702" font-family="Arial, sans-serif" font-size="12" fill="#5A7090">Uber Freight</text>
  <rect x="1210" y="690" width="90" height="24" rx="12" fill="#1A2A3A"/>
  <circle cx="1223" cy="702" r="4" fill="#63B3ED"/>
  <text x="1260" y="706" font-family="Arial, sans-serif" font-size="11" fill="#63B3ED" text-anchor="middle">Invoiced</text>

  <!-- Row separator and more rows indicator -->
  <line x1="280" y1="732" x2="1320" y2="732" stroke="#1E3A5F" stroke-width="0.5"/>
  <rect x="280" y="732" width="1040" height="52" fill="transparent" opacity="0.5"/>
  <text x="310" y="760" font-family="Arial, sans-serif" font-size="12" fill="#5A7090">Mar 30, 2026</text>
  <text x="410" y="760" font-family="Arial, sans-serif" font-size="12" fill="#5A7090">Kansas City, MO → Denver, CO</text>
  <text x="800" y="760" font-family="Arial, sans-serif" font-size="12" fill="#5A7090">603 mi</text>
  <text x="920" y="760" font-family="Arial, sans-serif" font-size="12" fill="#5A7090">$2,340</text>
  <text x="1060" y="760" font-family="Arial, sans-serif" font-size="12" fill="#5A7090">Echo Global</text>

  <line x1="280" y1="784" x2="1320" y2="784" stroke="#1E3A5F" stroke-width="0.5"/>
  <rect x="280" y="784" width="1040" height="52" fill="transparent" opacity="0.3"/>
  <text x="310" y="812" font-family="Arial, sans-serif" font-size="12" fill="#3A5070">Mar 27, 2026</text>
  <text x="410" y="812" font-family="Arial, sans-serif" font-size="12" fill="#3A5070">Miami, FL → Charlotte, NC</text>
  <text x="800" y="812" font-family="Arial, sans-serif" font-size="12" fill="#3A5070">656 mi</text>
  <text x="920" y="812" font-family="Arial, sans-serif" font-size="12" fill="#3A5070">$1,980</text>
  <text x="1060" y="812" font-family="Arial, sans-serif" font-size="12" fill="#3A5070">Coyote</text>

  <!-- Pagination -->
  <rect x="280" y="840" width="1040" height="52" fill="#0A1520"/>
  <text x="308" y="870" font-family="Arial, sans-serif" font-size="12" fill="#5A7090">Showing 1–11 of 47 loads</text>
  <rect x="1180" y="852" width="32" height="28" rx="6" fill="#1A2B4A" stroke="#2B3F5E" stroke-width="1"/>
  <text x="1196" y="871" font-family="Arial, sans-serif" font-size="13" fill="#8B9EC8" text-anchor="middle">‹</text>
  <rect x="1218" y="852" width="32" height="28" rx="6" fill="#2B6CB0"/>
  <text x="1234" y="871" font-family="Arial, sans-serif" font-size="13" fill="white" text-anchor="middle">1</text>
  <rect x="1256" y="852" width="32" height="28" rx="6" fill="#1A2B4A" stroke="#2B3F5E" stroke-width="1"/>
  <text x="1272" y="871" font-family="Arial, sans-serif" font-size="13" fill="#8B9EC8" text-anchor="middle">2</text>
  <rect x="1294" y="852" width="32" height="28" rx="6" fill="#1A2B4A" stroke="#2B3F5E" stroke-width="1"/>
  <text x="1310" y="871" font-family="Arial, sans-serif" font-size="13" fill="#8B9EC8" text-anchor="middle">›</text>

  <!-- DETAIL PANEL (RIGHT SIDE) -->
  <rect x="1320" y="172" width="560" height="720" fill="#0F1E30" filter="url(#panelShadow)"/>
  <rect x="1320" y="172" width="4" height="720" fill="#2B6CB0"/>

  <!-- Detail Panel Header -->
  <rect x="1324" y="172" width="556" height="56" fill="#0A1828"/>
  <text x="1344" y="198" font-family="Arial, sans-serif" font-size="16" fill="white" font-weight="700">Load #HL-2847</text>
  <text x="1344" y="216" font-family="Arial, sans-serif" font-size="12" fill="#8B9EC8">Chicago, IL → Dallas, TX</text>
  <rect x="1788" y="178" width="80" height="24" rx="12" fill="#1A3A1A"/>
  <circle cx="1801" cy="190" r="4" fill="#48BB78"/>
  <text x="1828" y="194" font-family="Arial, sans-serif" font-size="11" fill="#48BB78" text-anchor="middle">In Transit</text>

  <!-- Close button -->
  <circle cx="1858" cy="190" r="10" fill="#1A2B4A"/>
  <text x="1858" y="195" font-family="Arial, sans-serif" font-size="14" fill="#8B9EC8" text-anchor="middle">×</text>

  <!-- Load details sections -->
  <text x="1344" y="252" font-family="Arial, sans-serif" font-size="12" fill="#5A7090" font-weight="700" letter-spacing="0.5">LOAD DETAILS</text>

  <!-- Mini route viz -->
  <circle cx="1360" cy="280" r="8" fill="#48BB78"/>
  <text x="1376" y="284" font-family="Arial, sans-serif" font-size="13" fill="white">Chicago, IL</text>
  <text x="1376" y="298" font-family="Arial, sans-serif" font-size="11" fill="#5A7090">2847 W. Lake Shore Dr</text>
  <line x1="1360" y1="288" x2="1360" y2="320" stroke="#2B3F5E" stroke-width="1.5" stroke-dasharray="4,3"/>
  <circle cx="1360" cy="328" r="8" fill="#2B6CB0"/>
  <text x="1376" y="332" font-family="Arial, sans-serif" font-size="13" fill="white">Dallas, TX</text>
  <text x="1376" y="346" font-family="Arial, sans-serif" font-size="11" fill="#5A7090">1414 Commerce St</text>

  <!-- Progress bar -->
  <rect x="1344" y="365" width="510" height="8" rx="4" fill="#1A2B4A"/>
  <rect x="1344" y="365" width="280" height="8" rx="4" fill="#2B6CB0"/>
  <circle cx="1624" cy="369" r="7" fill="#2B6CB0" stroke="white" stroke-width="2"/>
  <text x="1344" y="388" font-family="Arial, sans-serif" font-size="11" fill="#8B9EC8">Springfield, IL</text>
  <text x="1624" y="388" font-family="Arial, sans-serif" font-size="11" fill="#2B6CB0" text-anchor="middle">55% Complete</text>
  <text x="1854" y="388" font-family="Arial, sans-serif" font-size="11" fill="#8B9EC8" text-anchor="end">Dallas, TX</text>

  <!-- Stats grid -->
  <line x1="1344" y1="400" x2="1854" y2="400" stroke="#1E3A5F" stroke-width="1"/>

  <rect x="1344" y="412" width="152" height="64" rx="8" fill="#0D1B2A"/>
  <text x="1364" y="434" font-family="Arial, sans-serif" font-size="11" fill="#5A7090">Distance</text>
  <text x="1364" y="456" font-family="Arial, sans-serif" font-size="20" fill="white" font-weight="700">920 mi</text>
  <text x="1364" y="470" font-family="Arial, sans-serif" font-size="11" fill="#5A7090">505 mi remaining</text>

  <rect x="1508" y="412" width="152" height="64" rx="8" fill="#0D1B2A"/>
  <text x="1528" y="434" font-family="Arial, sans-serif" font-size="11" fill="#5A7090">Earnings</text>
  <text x="1528" y="456" font-family="Arial, sans-serif" font-size="20" fill="#48BB78" font-weight="700">$2,847</text>
  <text x="1528" y="470" font-family="Arial, sans-serif" font-size="11" fill="#5A7090">$3.09 per mile</text>

  <rect x="1672" y="412" width="182" height="64" rx="8" fill="#0D1B2A"/>
  <text x="1692" y="434" font-family="Arial, sans-serif" font-size="11" fill="#5A7090">ETA</text>
  <text x="1692" y="456" font-family="Arial, sans-serif" font-size="20" fill="white" font-weight="700">6h 20m</text>
  <text x="1692" y="470" font-family="Arial, sans-serif" font-size="11" fill="#5A7090">Apr 17, 7:10 PM</text>

  <!-- Load specs -->
  <line x1="1344" y1="488" x2="1854" y2="488" stroke="#1E3A5F" stroke-width="1"/>
  <text x="1344" y="508" font-family="Arial, sans-serif" font-size="12" fill="#5A7090" font-weight="700" letter-spacing="0.5">CARGO DETAILS</text>

  <text x="1344" y="528" font-family="Arial, sans-serif" font-size="12" fill="#8B9EC8">Type</text>
  <text x="1554" y="528" font-family="Arial, sans-serif" font-size="12" fill="white" text-anchor="end">Refrigerated (Reefer)</text>
  <text x="1344" y="548" font-family="Arial, sans-serif" font-size="12" fill="#8B9EC8">Commodity</text>
  <text x="1554" y="548" font-family="Arial, sans-serif" font-size="12" fill="white" text-anchor="end">Fresh Produce</text>
  <text x="1344" y="568" font-family="Arial, sans-serif" font-size="12" fill="#8B9EC8">Weight</text>
  <text x="1554" y="568" font-family="Arial, sans-serif" font-size="12" fill="white" text-anchor="end">38,500 lbs</text>
  <text x="1344" y="588" font-family="Arial, sans-serif" font-size="12" fill="#8B9EC8">Temp Req</text>
  <text x="1554" y="588" font-family="Arial, sans-serif" font-size="12" fill="#63B3ED" text-anchor="end">34-36°F</text>
  <text x="1344" y="608" font-family="Arial, sans-serif" font-size="12" fill="#8B9EC8">Broker</text>
  <text x="1554" y="608" font-family="Arial, sans-serif" font-size="12" fill="white" text-anchor="end">Coyote Logistics</text>
  <text x="1344" y="628" font-family="Arial, sans-serif" font-size="12" fill="#8B9EC8">Contact</text>
  <text x="1554" y="628" font-family="Arial, sans-serif" font-size="12" fill="#2B6CB0" text-anchor="end">Sarah Miller · (312) 555-0182</text>

  <!-- Action buttons -->
  <line x1="1344" y1="648" x2="1854" y2="648" stroke="#1E3A5F" stroke-width="1"/>

  <rect x="1344" y="660" width="158" height="40" rx="8" fill="#2B6CB0"/>
  <text x="1423" y="685" font-family="Arial, sans-serif" font-size="13" fill="white" text-anchor="middle">Update Status</text>

  <rect x="1514" y="660" width="158" height="40" rx="8" fill="#1A2B4A" stroke="#2B3F5E" stroke-width="1"/>
  <text x="1593" y="685" font-family="Arial, sans-serif" font-size="13" fill="#8B9EC8" text-anchor="middle">Log Expense</text>

  <rect x="1684" y="660" width="170" height="40" rx="8" fill="#1A4A1A" stroke="#48BB78" stroke-width="1"/>
  <text x="1769" y="685" font-family="Arial, sans-serif" font-size="13" fill="#48BB78" text-anchor="middle">Create Invoice</text>

  <!-- Documents section -->
  <line x1="1344" y1="712" x2="1854" y2="712" stroke="#1E3A5F" stroke-width="1"/>
  <text x="1344" y="732" font-family="Arial, sans-serif" font-size="12" fill="#5A7090" font-weight="700" letter-spacing="0.5">DOCUMENTS</text>

  <rect x="1344" y="744" width="244" height="44" rx="8" fill="#0D1B2A" stroke="#2B3F5E" stroke-width="1"/>
  <rect x="1352" y="752" width="28" height="28" rx="4" fill="#1A3A5A"/>
  <text x="1366" y="771" font-family="Arial, sans-serif" font-size="10" fill="#63B3ED" text-anchor="middle">PDF</text>
  <text x="1390" y="762" font-family="Arial, sans-serif" font-size="12" fill="white">Rate Confirmation</text>
  <text x="1390" y="778" font-family="Arial, sans-serif" font-size="11" fill="#5A7090">RC-2847.pdf · 84 KB</text>

  <rect x="1604" y="744" width="244" height="44" rx="8" fill="#0D1B2A" stroke="#2B3F5E" stroke-width="1"/>
  <rect x="1612" y="752" width="28" height="28" rx="4" fill="#1A3A2A"/>
  <text x="1626" y="771" font-family="Arial, sans-serif" font-size="10" fill="#48BB78" text-anchor="middle">BOL</text>
  <text x="1650" y="762" font-family="Arial, sans-serif" font-size="12" fill="white">Bill of Lading</text>
  <text x="1650" y="778" font-family="Arial, sans-serif" font-size="11" fill="#5A7090">BOL-2847.pdf · 56 KB</text>

  <!-- Bottom summary bar for whole table -->
  <rect x="280" y="892" width="1600" height="68" rx="0" fill="#0A1520"/>
  <line x1="280" y1="892" x2="1880" y2="892" stroke="#1E3A5F" stroke-width="1"/>

  <text x="308" y="920" font-family="Arial, sans-serif" font-size="12" fill="#8B9EC8">Selected: 1 load</text>
  <text x="308" y="940" font-family="Arial, sans-serif" font-size="11" fill="#5A7090">Subtotal: $2,847</text>

  <!-- Summary totals -->
  <text x="700" y="920" font-family="Arial, sans-serif" font-size="12" fill="#5A7090">All loaded (visible):</text>
  <text x="700" y="940" font-family="Arial, sans-serif" font-size="11" fill="#8B9EC8">11 loads · 7,382 mi</text>

  <text x="960" y="916" font-family="Arial, sans-serif" font-size="11" fill="#5A7090">Gross (visible)</text>
  <text x="960" y="936" font-family="Arial, sans-serif" font-size="16" fill="white" font-weight="700">$24,617</text>

  <text x="1140" y="916" font-family="Arial, sans-serif" font-size="11" fill="#5A7090">Avg $/mi</text>
  <text x="1140" y="936" font-family="Arial, sans-serif" font-size="16" fill="#48BB78" font-weight="700">$3.34</text>

  <!-- Action bar right -->
  <rect x="1600" y="906" width="130" height="36" rx="8" fill="#1A2B4A" stroke="#2B3F5E" stroke-width="1"/>
  <text x="1665" y="929" font-family="Arial, sans-serif" font-size="12" fill="#8B9EC8" text-anchor="middle">Bulk Invoice</text>

  <rect x="1742" y="906" width="130" height="36" rx="8" fill="#2B6CB0"/>
  <text x="1807" y="929" font-family="Arial, sans-serif" font-size="12" fill="white" text-anchor="middle">Export CSV</text>

  <!-- Chrome OS Taskbar -->
  <rect x="0" y="1040" width="1920" height="40" fill="#1A2035"/>
  <rect x="8" y="1048" width="24" height="24" rx="6" fill="#2B6CB0"/>
  <text x="20" y="1065" font-family="Arial, sans-serif" font-size="12" fill="white" text-anchor="middle" font-weight="bold">H</text>
  <circle cx="56" cy="1060" r="10" fill="#4285F4"/>
  <circle cx="84" cy="1060" r="10" fill="#34A853"/>
  <circle cx="112" cy="1060" r="10" fill="#EA4335"/>
  <text x="1750" y="1063" font-family="Arial, sans-serif" font-size="11" fill="#C8D8E8">WiFi</text>
  <text x="1800" y="1063" font-family="Arial, sans-serif" font-size="11" fill="#C8D8E8">100%</text>
  <text x="1856" y="1063" font-family="Arial, sans-serif" font-size="11" fill="#C8D8E8">12:47</text>
  <line x1="940" y1="1050" x2="980" y2="1050" stroke="#5A7090" stroke-width="2" stroke-linecap="round"/>
</svg>
