<svg xmlns="http://www.w3.org/2000/svg" width="1920" height="1200" viewBox="0 0 1920 1200">
  <defs>
    <linearGradient id="bgGrad" x1="0%" y1="0%" x2="100%" y2="100%">
      <stop offset="0%" style="stop-color:#0f1729;stop-opacity:1" />
      <stop offset="100%" style="stop-color:#111e38;stop-opacity:1" />
    </linearGradient>
    <linearGradient id="sidebarGrad" x1="0%" y1="0%" x2="0%" y2="100%">
      <stop offset="0%" style="stop-color:#1a2744;stop-opacity:1" />
      <stop offset="100%" style="stop-color:#152035;stop-opacity:1" />
    </linearGradient>
    <linearGradient id="cardGrad1" x1="0%" y1="0%" x2="100%" y2="100%">
      <stop offset="0%" style="stop-color:#1e3a5f;stop-opacity:1" />
      <stop offset="100%" style="stop-color:#1a3254;stop-opacity:1" />
    </linearGradient>
    <linearGradient id="mapGrad" x1="0%" y1="0%" x2="0%" y2="100%">
      <stop offset="0%" style="stop-color:#0d1f3c;stop-opacity:1" />
      <stop offset="100%" style="stop-color:#0a1830;stop-opacity:1" />
    </linearGradient>
    <linearGradient id="btnGrad" x1="0%" y1="0%" x2="100%" y2="0%">
      <stop offset="0%" style="stop-color:#3b82f6;stop-opacity:1" />
      <stop offset="100%" style="stop-color:#2563eb;stop-opacity:1" />
    </linearGradient>
    <linearGradient id="earningsGrad" x1="0%" y1="0%" x2="100%" y2="100%">
      <stop offset="0%" style="stop-color:#1e4a3f;stop-opacity:1" />
      <stop offset="100%" style="stop-color:#163a30;stop-opacity:1" />
    </linearGradient>
    <filter id="cardShadow">
      <feDropShadow dx="0" dy="4" stdDeviation="8" flood-color="#000000" flood-opacity="0.4"/>
    </filter>
    <filter id="glowBlue">
      <feDropShadow dx="0" dy="0" stdDeviation="6" flood-color="#3b82f6" flood-opacity="0.5"/>
    </filter>
    <filter id="glowGreen">
      <feDropShadow dx="0" dy="0" stdDeviation="4" flood-color="#10b981" flood-opacity="0.6"/>
    </filter>
    <clipPath id="mapClip">
      <rect x="270" y="195" width="1130" height="480" rx="12"/>
    </clipPath>
    <clipPath id="screenClip">
      <rect x="60" y="30" width="1800" height="1060" rx="16"/>
    </clipPath>
  </defs>

  <!-- Chromebook body outer -->
  <rect x="0" y="0" width="1920" height="1200" fill="#1a1a1a"/>

  <!-- Chromebook lid (screen area) -->
  <rect x="40" y="10" width="1840" height="1090" rx="20" fill="#2a2a2a"/>
  <rect x="50" y="18" width="1820" height="1074" rx="16" fill="#1e1e1e"/>

  <!-- Screen bezel top/sides -->
  <rect x="60" y="30" width="1800" height="1060" rx="14" fill="url(#bgGrad)" clip-path="url(#screenClip)"/>

  <!-- ======= SIDEBAR ======= -->
  <rect x="60" y="30" width="220" height="1060" fill="url(#sidebarGrad)"/>

  <!-- Logo area -->
  <rect x="75" y="50" width="190" height="64" rx="10" fill="#243358"/>
  <!-- Truck icon simplified -->
  <rect x="88" y="66" width="28" height="16" rx="3" fill="#3b82f6"/>
  <rect x="98" y="60" width="18" height="10" rx="2" fill="#60a5fa"/>
  <circle cx="96" cy="84" r="4" fill="#1e3a5f" stroke="#3b82f6" stroke-width="1.5"/>
  <circle cx="110" cy="84" r="4" fill="#1e3a5f" stroke="#3b82f6" stroke-width="1.5"/>
  <!-- Logo text -->
  <text x="122" y="76" font-family="Arial, sans-serif" font-size="13" font-weight="700" fill="#f0f6ff">Haul</text>
  <text x="122" y="90" font-family="Arial, sans-serif" font-size="13" font-weight="700" fill="#3b82f6">Wallet</text>

  <!-- Nav items -->
  <!-- Dashboard (active) -->
  <rect x="75" y="140" width="190" height="44" rx="8" fill="#3b82f6" filter="url(#glowBlue)"/>
  <!-- Dashboard icon -->
  <rect x="92" y="152" width="8" height="8" rx="1" fill="white"/>
  <rect x="102" y="152" width="8" height="3" rx="1" fill="white" opacity="0.7"/>
  <rect x="102" y="157" width="8" height="3" rx="1" fill="white" opacity="0.7"/>
  <rect x="92" y="162" width="18" height="3" rx="1" fill="white" opacity="0.5"/>
  <text x="118" y="167" font-family="Arial, sans-serif" font-size="13" font-weight="600" fill="white">Dashboard</text>

  <!-- Loads -->
  <rect x="75" y="196" width="190" height="44" rx="8" fill="transparent"/>
  <rect x="88" y="210" width="18" height="12" rx="2" fill="#64748b"/>
  <rect x="92" y="207" width="10" height="4" rx="1" fill="#64748b"/>
  <line x1="91" y1="214" x2="100" y2="214" stroke="#64748b" stroke-width="1.5"/>
  <line x1="91" y1="217" x2="98" y2="217" stroke="#64748b" stroke-width="1.5"/>
  <text x="118" y="224" font-family="Arial, sans-serif" font-size="13" fill="#64748b">Loads</text>

  <!-- Routes -->
  <rect x="75" y="252" width="190" height="44" rx="8" fill="transparent"/>
  <circle cx="95" cy="272" r="5" fill="none" stroke="#64748b" stroke-width="2"/>
  <circle cx="95" cy="272" r="2" fill="#64748b"/>
  <path d="M95 277 L95 284" stroke="#64748b" stroke-width="2"/>
  <text x="118" y="278" font-family="Arial, sans-serif" font-size="13" fill="#64748b">Routes</text>

  <!-- Earnings -->
  <rect x="75" y="308" width="190" height="44" rx="8" fill="transparent"/>
  <text x="90" y="332" font-family="Arial, sans-serif" font-size="14" fill="#64748b">$</text>
  <circle cx="95" cy="328" r="7" fill="none" stroke="#64748b" stroke-width="1.5"/>
  <text x="118" y="334" font-family="Arial, sans-serif" font-size="13" fill="#64748b">Earnings</text>

  <!-- Settings -->
  <rect x="75" y="364" width="190" height="44" rx="8" fill="transparent"/>
  <circle cx="95" cy="384" r="6" fill="none" stroke="#64748b" stroke-width="2"/>
  <circle cx="95" cy="384" r="2.5" fill="#64748b"/>
  <text x="118" y="390" font-family="Arial, sans-serif" font-size="13" fill="#64748b">Settings</text>

  <!-- Divider -->
  <line x1="85" y1="430" x2="255" y2="430" stroke="#243358" stroke-width="1"/>

  <!-- Vehicle status sidebar widget -->
  <rect x="80" y="450" width="180" height="110" rx="10" fill="#0d1f3c"/>
  <text x="95" y="470" font-family="Arial, sans-serif" font-size="11" fill="#64748b">VEHICLE STATUS</text>
  <text x="95" y="490" font-family="Arial, sans-serif" font-size="12" font-weight="600" fill="#f0f6ff">Truck #TR-4821</text>
  <!-- Fuel bar -->
  <text x="95" y="510" font-family="Arial, sans-serif" font-size="11" fill="#64748b">Fuel</text>
  <rect x="95" y="515" width="150" height="6" rx="3" fill="#1e3a5f"/>
  <rect x="95" y="515" width="112" height="6" rx="3" fill="#3b82f6"/>
  <text x="215" y="524" font-family="Arial, sans-serif" font-size="10" fill="#60a5fa">75%</text>
  <!-- Engine temp -->
  <text x="95" y="540" font-family="Arial, sans-serif" font-size="11" fill="#64748b">Engine</text>
  <rect x="95" y="545" width="150" height="6" rx="3" fill="#1e3a5f"/>
  <rect x="95" y="545" width="90" height="6" rx="3" fill="#10b981"/>
  <text x="215" y="554" font-family="Arial, sans-serif" font-size="10" fill="#10b981">OK</text>

  <!-- Driver profile at bottom -->
  <rect x="80" y="960" width="180" height="100" rx="10" fill="#111e38"/>
  <circle cx="113" cy="995" r="18" fill="#1e3a5f" stroke="#3b82f6" stroke-width="2"/>
  <text x="107" y="1000" font-family="Arial, sans-serif" font-size="16" font-weight="700" fill="#60a5fa">JD</text>
  <text x="136" y="990" font-family="Arial, sans-serif" font-size="12" font-weight="600" fill="#f0f6ff">John D.</text>
  <text x="136" y="1006" font-family="Arial, sans-serif" font-size="11" fill="#64748b">CDL Driver</text>
  <text x="136" y="1020" font-family="Arial, sans-serif" font-size="10" fill="#10b981">● Online</text>

  <!-- ======= MAIN AREA ======= -->

  <!-- Top bar -->
  <rect x="280" y="30" width="1580" height="64" fill="#111e38" opacity="0.8"/>
  <text x="306" y="55" font-family="Arial, sans-serif" font-size="20" font-weight="700" fill="#f0f6ff">Dashboard</text>
  <text x="306" y="75" font-family="Arial, sans-serif" font-size="12" fill="#64748b">Thursday, April 17, 2026  •  Route: I-90 West  •  Chicago, IL</text>

  <!-- Search bar -->
  <rect x="820" y="44" width="280" height="36" rx="8" fill="#1a2744" stroke="#2a3f6a" stroke-width="1"/>
  <text x="840" y="67" font-family="Arial, sans-serif" font-size="13" fill="#3d5480">Search loads, routes...</text>
  <text x="1076" y="66" font-family="Arial, sans-serif" font-size="14" fill="#3d5480">⌕</text>

  <!-- Notification + avatar -->
  <rect x="1700" y="42" width="38" height="38" rx="8" fill="#1a2744" stroke="#2a3f6a" stroke-width="1"/>
  <text x="1714" y="67" font-family="Arial, sans-serif" font-size="18" fill="#64748b">🔔</text>
  <circle cx="1729" cy="44" r="6" fill="#ef4444"/>
  <text x="1726" y="48" font-family="Arial, sans-serif" font-size="9" fill="white">3</text>
  <circle cx="1784" cy="61" r="18" fill="#1e3a5f" stroke="#3b82f6" stroke-width="2"/>
  <text x="1776" y="67" font-family="Arial, sans-serif" font-size="14" font-weight="700" fill="#60a5fa">JD</text>

  <!-- ======= STAT CARDS ======= -->

  <!-- Card 1: Today's Miles -->
  <rect x="290" y="110" width="295" height="110" rx="12" fill="url(#cardGrad1)" filter="url(#cardShadow)" stroke="#2a4a7a" stroke-width="1"/>
  <rect x="290" y="110" width="295" height="4" rx="2" fill="#3b82f6"/>
  <!-- Icon -->
  <rect x="314" y="134" width="36" height="36" rx="8" fill="#0f2340"/>
  <text x="320" y="159" font-family="Arial, sans-serif" font-size="20">🛣</text>
  <text x="364" y="147" font-family="Arial, sans-serif" font-size="12" fill="#64748b">TODAY'S MILES</text>
  <text x="364" y="175" font-family="Arial, sans-serif" font-size="32" font-weight="700" fill="#f0f6ff">342</text>
  <text x="450" y="175" font-family="Arial, sans-serif" font-size="14" fill="#64748b">mi</text>
  <text x="314" y="210" font-family="Arial, sans-serif" font-size="11" fill="#10b981">▲ +12% vs yesterday</text>

  <!-- Card 2: Active Loads -->
  <rect x="605" y="110" width="295" height="110" rx="12" fill="url(#cardGrad1)" filter="url(#cardShadow)" stroke="#2a4a7a" stroke-width="1"/>
  <rect x="605" y="110" width="295" height="4" rx="2" fill="#f59e0b"/>
  <rect x="629" y="134" width="36" height="36" rx="8" fill="#0f2340"/>
  <text x="635" y="159" font-family="Arial, sans-serif" font-size="20">📦</text>
  <text x="679" y="147" font-family="Arial, sans-serif" font-size="12" fill="#64748b">ACTIVE LOADS</text>
  <text x="679" y="175" font-family="Arial, sans-serif" font-size="32" font-weight="700" fill="#f0f6ff">3</text>
  <text x="710" y="175" font-family="Arial, sans-serif" font-size="14" fill="#64748b">loads</text>
  <text x="629" y="210" font-family="Arial, sans-serif" font-size="11" fill="#f59e0b">● 1 pickup due in 2h</text>

  <!-- Card 3: Today's Earnings -->
  <rect x="920" y="110" width="295" height="110" rx="12" fill="url(#earningsGrad)" filter="url(#cardShadow)" stroke="#1a5040" stroke-width="1"/>
  <rect x="920" y="110" width="295" height="4" rx="2" fill="#10b981"/>
  <rect x="944" y="134" width="36" height="36" rx="8" fill="#0d2820"/>
  <text x="948" y="159" font-family="Arial, sans-serif" font-size="20">💰</text>
  <text x="994" y="147" font-family="Arial, sans-serif" font-size="12" fill="#64748b">TODAY'S EARNINGS</text>
  <text x="994" y="175" font-family="Arial, sans-serif" font-size="32" font-weight="700" fill="#10b981">$847</text>
  <text x="629" y="215" font-family="Arial, sans-serif" font-size="11" fill="#64748b"></text>
  <text x="944" y="210" font-family="Arial, sans-serif" font-size="11" fill="#10b981">▲ +$120 vs last week</text>

  <!-- Card 4: Weekly Earnings -->
  <rect x="1235" y="110" width="295" height="110" rx="12" fill="url(#cardGrad1)" filter="url(#cardShadow)" stroke="#2a4a7a" stroke-width="1"/>
  <rect x="1235" y="110" width="295" height="4" rx="2" fill="#8b5cf6"/>
  <rect x="1259" y="134" width="36" height="36" rx="8" fill="#1a0f40"/>
  <text x="1261" y="159" font-family="Arial, sans-serif" font-size="20">📈</text>
  <text x="1309" y="147" font-family="Arial, sans-serif" font-size="12" fill="#64748b">WEEKLY TOTAL</text>
  <text x="1309" y="175" font-family="Arial, sans-serif" font-size="32" font-weight="700" fill="#f0f6ff">$4,290</text>
  <text x="1259" y="210" font-family="Arial, sans-serif" font-size="11" fill="#8b5cf6">▲ +8.4% this week</text>

  <!-- ======= MAP AREA ======= -->
  <rect x="290" y="240" width="1110" height="490" rx="12" fill="url(#mapGrad)" filter="url(#cardShadow)" stroke="#1e3a5f" stroke-width="1"/>

  <!-- Map header -->
  <rect x="290" y="240" width="1110" height="50" rx="12" fill="#0d1f3c"/>
  <rect x="290" y="274" width="1110" height="16" fill="#0d1f3c"/>
  <text x="314" y="272" font-family="Arial, sans-serif" font-size="14" font-weight="600" fill="#f0f6ff">Live Route Map</text>
  <text x="314" y="288" font-family="Arial, sans-serif" font-size="11" fill="#64748b">Chicago, IL → New York, NY  •  Est. 12h 40min  •  842 mi remaining</text>

  <!-- Map grid lines (geographic) -->
  <g opacity="0.15" stroke="#3b82f6" stroke-width="0.5">
    <line x1="290" y1="310" x2="1400" y2="310"/>
    <line x1="290" y1="360" x2="1400" y2="360"/>
    <line x1="290" y1="410" x2="1400" y2="410"/>
    <line x1="290" y1="460" x2="1400" y2="460"/>
    <line x1="290" y1="510" x2="1400" y2="510"/>
    <line x1="290" y1="560" x2="1400" y2="560"/>
    <line x1="290" y1="610" x2="1400" y2="610"/>
    <line x1="290" y1="660" x2="1400" y2="660"/>
    <line x1="370" y1="290" x2="370" y2="730"/>
    <line x1="450" y1="290" x2="450" y2="730"/>
    <line x1="530" y1="290" x2="530" y2="730"/>
    <line x1="610" y1="290" x2="610" y2="730"/>
    <line x1="690" y1="290" x2="690" y2="730"/>
    <line x1="770" y1="290" x2="770" y2="730"/>
    <line x1="850" y1="290" x2="850" y2="730"/>
    <line x1="930" y1="290" x2="930" y2="730"/>
    <line x1="1010" y1="290" x2="1010" y2="730"/>
    <line x1="1090" y1="290" x2="1090" y2="730"/>
    <line x1="1170" y1="290" x2="1170" y2="730"/>
    <line x1="1250" y1="290" x2="1250" y2="730"/>
    <line x1="1330" y1="290" x2="1330" y2="730"/>
  </g>

  <!-- Map roads (I-90 corridor approximation) -->
  <g opacity="0.3" stroke="#334155" stroke-width="3">
    <line x1="310" y1="500" x2="1390" y2="500"/>
    <line x1="400" y1="290" x2="400" y2="730"/>
    <line x1="650" y1="290" x2="650" y2="730"/>
    <line x1="900" y1="290" x2="900" y2="730"/>
    <line x1="1150" y1="290" x2="1150" y2="730"/>
    <line x1="310" y1="580" x2="1390" y2="580"/>
    <line x1="310" y1="400" x2="1390" y2="400"/>
  </g>

  <!-- State boundaries approximated -->
  <g opacity="0.2" stroke="#475569" stroke-width="1" stroke-dasharray="8,4">
    <line x1="540" y1="290" x2="540" y2="730"/>
    <line x1="780" y1="290" x2="780" y2="730"/>
    <line x1="1020" y1="290" x2="1020" y2="730"/>
    <line x1="1240" y1="290" x2="1240" y2="730"/>
  </g>

  <!-- State labels -->
  <text x="420" y="320" font-family="Arial, sans-serif" font-size="11" fill="#334155" opacity="0.6">ILLINOIS</text>
  <text x="640" y="320" font-family="Arial, sans-serif" font-size="11" fill="#334155" opacity="0.6">INDIANA</text>
  <text x="820" y="320" font-family="Arial, sans-serif" font-size="11" fill="#334155" opacity="0.6">OHIO</text>
  <text x="1060" y="320" font-family="Arial, sans-serif" font-size="11" fill="#334155" opacity="0.6">PENNSYLVANIA</text>
  <text x="1280" y="320" font-family="Arial, sans-serif" font-size="11" fill="#334155" opacity="0.6">NEW YORK</text>

  <!-- Route line (completed portion - lighter) -->
  <path d="M 340 510 C 380 490, 430 480, 480 470 C 520 462, 555 455, 590 448"
        stroke="#60a5fa" stroke-width="4" fill="none" opacity="0.5" stroke-dasharray="10,5"/>

  <!-- Route line (active/remaining - bright green) -->
  <path d="M 590 448 C 640 440, 690 430, 740 418 C 790 406, 840 395, 890 385
           C 940 375, 990 368, 1040 362 C 1090 356, 1140 352, 1190 348
           C 1240 344, 1290 342, 1340 340 C 1365 339, 1380 340, 1390 341"
        stroke="#10b981" stroke-width="5" fill="none" filter="url(#glowGreen)" stroke-linecap="round" stroke-linejoin="round"/>

  <!-- Truck current position -->
  <circle cx="590" cy="448" r="14" fill="#3b82f6" opacity="0.3"/>
  <circle cx="590" cy="448" r="9" fill="#3b82f6"/>
  <text x="583" y="453" font-family="Arial, sans-serif" font-size="11">🚛</text>
  <!-- Pulsing ring -->
  <circle cx="590" cy="448" r="18" fill="none" stroke="#3b82f6" stroke-width="2" opacity="0.5"/>

  <!-- Origin marker (Chicago) -->
  <circle cx="340" cy="510" r="8" fill="#64748b"/>
  <rect x="308" y="520" width="62" height="18" rx="4" fill="#1e3a5f"/>
  <text x="312" y="532" font-family="Arial, sans-serif" font-size="10" fill="#94a3b8">Chicago, IL</text>

  <!-- Destination marker (NYC) -->
  <circle cx="1390" cy="341" r="10" fill="#10b981"/>
  <circle cx="1390" cy="341" r="5" fill="white"/>
  <rect x="1355" y="353" width="70" height="18" rx="4" fill="#0d2820"/>
  <text x="1359" y="365" font-family="Arial, sans-serif" font-size="10" fill="#10b981">New York, NY</text>

  <!-- Waypoint 1: Cleveland -->
  <circle cx="870" cy="389" r="6" fill="#f59e0b"/>
  <rect x="842" y="398" width="55" height="18" rx="4" fill="#2a1a0a"/>
  <text x="846" y="410" font-family="Arial, sans-serif" font-size="10" fill="#f59e0b">Cleveland</text>

  <!-- Rest stop marker -->
  <rect x="700" y="418" width="22" height="16" rx="3" fill="#1e3a5f" stroke="#3b82f6" stroke-width="1"/>
  <text x="703" y="430" font-family="Arial, sans-serif" font-size="10" fill="#60a5fa">P</text>

  <!-- Map legend -->
  <rect x="310" y="700" width="240" height="26" rx="6" fill="#0d1f3c" opacity="0.9"/>
  <line x1="322" y1="713" x2="342" y2="713" stroke="#60a5fa" stroke-width="3" stroke-dasharray="6,3"/>
  <text x="348" y="717" font-family="Arial, sans-serif" font-size="10" fill="#94a3b8">Completed</text>
  <line x1="420" y1="713" x2="440" y2="713" stroke="#10b981" stroke-width="3"/>
  <text x="446" y="717" font-family="Arial, sans-serif" font-size="10" fill="#94a3b8">Remaining</text>

  <!-- ETA badge -->
  <rect x="1120" y="700" width="260" height="26" rx="6" fill="#0d1f3c" opacity="0.9"/>
  <text x="1134" y="717" font-family="Arial, sans-serif" font-size="11" fill="#64748b">ETA:</text>
  <text x="1162" y="717" font-family="Arial, sans-serif" font-size="11" font-weight="600" fill="#f0f6ff">11:40 PM  •  342 mi done  •  842 mi left</text>

  <!-- ======= RIGHT PANEL: RECENT LOADS ======= -->
  <rect x="1420" y="110" width="420" height="620" rx="12" fill="#111e38" filter="url(#cardShadow)" stroke="#1e3a5f" stroke-width="1"/>

  <!-- Panel header -->
  <rect x="1420" y="110" width="420" height="50" rx="12" fill="#0d1f3c"/>
  <rect x="1420" y="144" width="420" height="16" fill="#0d1f3c"/>
  <text x="1444" y="142" font-family="Arial, sans-serif" font-size="14" font-weight="600" fill="#f0f6ff">Recent Loads</text>
  <rect x="1762" y="122" width="58" height="26" rx="6" fill="url(#btnGrad)"/>
  <text x="1771" y="140" font-family="Arial, sans-serif" font-size="11" fill="white">View All</text>

  <!-- Load items -->
  <!-- Item 1 -->
  <rect x="1434" y="178" width="392" height="72" rx="8" fill="#0f2340" stroke="#1e3a5f" stroke-width="1"/>
  <rect x="1434" y="178" width="4" height="72" rx="2" fill="#10b981"/>
  <text x="1452" y="198" font-family="Arial, sans-serif" font-size="12" font-weight="600" fill="#f0f6ff">Chicago → New York</text>
  <text x="1452" y="215" font-family="Arial, sans-serif" font-size="11" fill="#64748b">Load #HL-2847  •  Electronics  •  12,400 lbs</text>
  <rect x="1452" y="224" width="58" height="18" rx="9" fill="#0d2820"/>
  <text x="1461" y="236" font-family="Arial, sans-serif" font-size="10" fill="#10b981">● Active</text>
  <text x="1772" y="200" font-family="Arial, sans-serif" font-size="14" font-weight="700" fill="#10b981">$1,240</text>
  <text x="1772" y="218" font-family="Arial, sans-serif" font-size="10" fill="#64748b">842 mi left</text>

  <!-- Item 2 -->
  <rect x="1434" y="260" width="392" height="72" rx="8" fill="#0f2340" stroke="#1e3a5f" stroke-width="1"/>
  <rect x="1434" y="260" width="4" height="72" rx="2" fill="#f59e0b"/>
  <text x="1452" y="280" font-family="Arial, sans-serif" font-size="12" font-weight="600" fill="#f0f6ff">Dallas → Los Angeles</text>
  <text x="1452" y="297" font-family="Arial, sans-serif" font-size="11" fill="#64748b">Load #HL-2846  •  Auto Parts  •  18,200 lbs</text>
  <rect x="1452" y="306" width="62" height="18" rx="9" fill="#2a1a0a"/>
  <text x="1460" y="318" font-family="Arial, sans-serif" font-size="10" fill="#f59e0b">● Pickup 2h</text>
  <text x="1768" y="282" font-family="Arial, sans-serif" font-size="14" font-weight="700" fill="#f0f6ff">$2,180</text>
  <text x="1768" y="300" font-family="Arial, sans-serif" font-size="10" fill="#64748b">1,432 mi</text>

  <!-- Item 3 -->
  <rect x="1434" y="342" width="392" height="72" rx="8" fill="#0f2340" stroke="#1e3a5f" stroke-width="1"/>
  <rect x="1434" y="342" width="4" height="72" rx="2" fill="#3b82f6"/>
  <text x="1452" y="362" font-family="Arial, sans-serif" font-size="12" font-weight="600" fill="#f0f6ff">Miami → Atlanta</text>
  <text x="1452" y="379" font-family="Arial, sans-serif" font-size="11" fill="#64748b">Load #HL-2845  •  Food &amp; Bev  •  22,000 lbs</text>
  <rect x="1452" y="388" width="72" height="18" rx="9" fill="#0a1f3a"/>
  <text x="1460" y="400" font-family="Arial, sans-serif" font-size="10" fill="#3b82f6">● Scheduled</text>
  <text x="1768" y="364" font-family="Arial, sans-serif" font-size="14" font-weight="700" fill="#f0f6ff">$980</text>
  <text x="1768" y="382" font-family="Arial, sans-serif" font-size="10" fill="#64748b">662 mi</text>

  <!-- Item 4 -->
  <rect x="1434" y="424" width="392" height="72" rx="8" fill="#0f2340" stroke="#1e3a5f" stroke-width="1"/>
  <rect x="1434" y="424" width="4" height="72" rx="2" fill="#8b5cf6"/>
  <text x="1452" y="444" font-family="Arial, sans-serif" font-size="12" font-weight="600" fill="#f0f6ff">Seattle → Portland</text>
  <text x="1452" y="461" font-family="Arial, sans-serif" font-size="11" fill="#64748b">Load #HL-2844  •  Lumber  •  30,000 lbs</text>
  <rect x="1452" y="470" width="72" height="18" rx="9" fill="#1c1040"/>
  <text x="1460" y="482" font-family="Arial, sans-serif" font-size="10" fill="#8b5cf6">● Completed</text>
  <text x="1768" y="446" font-family="Arial, sans-serif" font-size="14" font-weight="700" fill="#64748b">$760</text>
  <text x="1768" y="464" font-family="Arial, sans-serif" font-size="10" fill="#64748b">174 mi</text>

  <!-- Item 5 -->
  <rect x="1434" y="506" width="392" height="72" rx="8" fill="#0f2340" stroke="#1e3a5f" stroke-width="1"/>
  <rect x="1434" y="506" width="4" height="72" rx="2" fill="#10b981"/>
  <text x="1452" y="526" font-family="Arial, sans-serif" font-size="12" font-weight="600" fill="#f0f6ff">Denver → Kansas City</text>
  <text x="1452" y="543" font-family="Arial, sans-serif" font-size="11" fill="#64748b">Load #HL-2843  •  Machinery  •  15,600 lbs</text>
  <rect x="1452" y="552" width="72" height="18" rx="9" fill="#0d2820"/>
  <text x="1460" y="564" font-family="Arial, sans-serif" font-size="10" fill="#10b981">● Completed</text>
  <text x="1768" y="528" font-family="Arial, sans-serif" font-size="14" font-weight="700" fill="#64748b">$1,130</text>
  <text x="1768" y="546" font-family="Arial, sans-serif" font-size="10" fill="#64748b">600 mi</text>

  <!-- Earnings mini chart -->
  <rect x="1434" y="596" width="392" height="120" rx="8" fill="#0d1f3c" stroke="#1e3a5f" stroke-width="1"/>
  <text x="1452" y="616" font-family="Arial, sans-serif" font-size="12" font-weight="600" fill="#f0f6ff">Weekly Earnings</text>
  <text x="1734" y="616" font-family="Arial, sans-serif" font-size="11" fill="#64748b">Apr 11 – 17</text>
  <!-- Bar chart -->
  <rect x="1452" y="695" width="30" height="18" rx="2" fill="#3b82f6" opacity="0.7"/>
  <rect x="1452" y="680" width="30" height="33" rx="2" fill="#3b82f6" opacity="0.7"/>
  <text x="1456" y="710" font-family="Arial, sans-serif" font-size="9" fill="#64748b">Mon</text>

  <rect x="1498" y="672" width="30" height="41" rx="2" fill="#3b82f6" opacity="0.8"/>
  <text x="1502" y="710" font-family="Arial, sans-serif" font-size="9" fill="#64748b">Tue</text>

  <rect x="1544" y="660" width="30" height="53" rx="2" fill="#3b82f6" opacity="0.85"/>
  <text x="1548" y="710" font-family="Arial, sans-serif" font-size="9" fill="#64748b">Wed</text>

  <rect x="1590" y="650" width="30" height="63" rx="2" fill="#3b82f6"/>
  <text x="1594" y="710" font-family="Arial, sans-serif" font-size="9" fill="#64748b">Thu</text>

  <rect x="1636" y="668" width="30" height="45" rx="2" fill="#1e3a5f"/>
  <text x="1640" y="710" font-family="Arial, sans-serif" font-size="9" fill="#334155">Fri</text>

  <rect x="1682" y="676" width="30" height="37" rx="2" fill="#1e3a5f"/>
  <text x="1686" y="710" font-family="Arial, sans-serif" font-size="9" fill="#334155">Sat</text>

  <rect x="1728" y="685" width="30" height="28" rx="2" fill="#1e3a5f"/>
  <text x="1732" y="710" font-family="Arial, sans-serif" font-size="9" fill="#334155">Sun</text>

  <text x="1452" y="635" font-family="Arial, sans-serif" font-size="11" fill="#10b981">$4,290</text>
  <text x="1512" y="635" font-family="Arial, sans-serif" font-size="11" fill="#64748b">total this week</text>

  <!-- ======= BOTTOM ROW WIDGETS ======= -->

  <!-- HOS (Hours of Service) widget -->
  <rect x="290" y="750" width="380" height="140" rx="12" fill="#111e38" filter="url(#cardShadow)" stroke="#1e3a5f" stroke-width="1"/>
  <text x="314" y="778" font-family="Arial, sans-serif" font-size="13" font-weight="600" fill="#f0f6ff">Hours of Service (HOS)</text>
  <text x="314" y="796" font-family="Arial, sans-serif" font-size="11" fill="#64748b">ELD Compliant  •  Day 3 of 7</text>
  <!-- Drive time bar -->
  <text x="314" y="818" font-family="Arial, sans-serif" font-size="11" fill="#94a3b8">Drive Time</text>
  <text x="584" y="818" font-family="Arial, sans-serif" font-size="11" fill="#f0f6ff">6h 20m / 11h</text>
  <rect x="314" y="823" width="340" height="8" rx="4" fill="#1e3a5f"/>
  <rect x="314" y="823" width="196" height="8" rx="4" fill="#3b82f6"/>
  <!-- On duty bar -->
  <text x="314" y="848" font-family="Arial, sans-serif" font-size="11" fill="#94a3b8">On Duty</text>
  <text x="592" y="848" font-family="Arial, sans-serif" font-size="11" fill="#f0f6ff">8h 10m / 14h</text>
  <rect x="314" y="853" width="340" height="8" rx="4" fill="#1e3a5f"/>
  <rect x="314" y="853" width="198" height="8" rx="4" fill="#f59e0b"/>
  <!-- Cycle bar -->
  <text x="314" y="876" font-family="Arial, sans-serif" font-size="11" fill="#94a3b8">70h Cycle</text>
  <text x="583" y="876" font-family="Arial, sans-serif" font-size="11" fill="#10b981">52h 40m used</text>
  <rect x="314" y="880" width="340" height="8" rx="4" fill="#1e3a5f"/>
  <rect x="314" y="880" width="255" height="8" rx="4" fill="#10b981"/>

  <!-- Fuel tracker widget -->
  <rect x="690" y="750" width="340" height="140" rx="12" fill="#111e38" filter="url(#cardShadow)" stroke="#1e3a5f" stroke-width="1"/>
  <text x="714" y="778" font-family="Arial, sans-serif" font-size="13" font-weight="600" fill="#f0f6ff">Fuel Tracker</text>
  <!-- Large fuel gauge -->
  <circle cx="780" cy="850" r="52" fill="none" stroke="#1e3a5f" stroke-width="10"/>
  <circle cx="780" cy="850" r="52" fill="none" stroke="#3b82f6" stroke-width="10"
          stroke-dasharray="245 80" stroke-dashoffset="80" stroke-linecap="round"/>
  <text x="766" y="846" font-family="Arial, sans-serif" font-size="16" font-weight="700" fill="#f0f6ff">75%</text>
  <text x="762" y="862" font-family="Arial, sans-serif" font-size="10" fill="#64748b">225 gal</text>
  <!-- Fuel stats -->
  <text x="850" y="810" font-family="Arial, sans-serif" font-size="11" fill="#64748b">MPG Today</text>
  <text x="850" y="830" font-family="Arial, sans-serif" font-size="20" font-weight="700" fill="#f0f6ff">7.2</text>
  <text x="850" y="858" font-family="Arial, sans-serif" font-size="11" fill="#64748b">Cost/Mile</text>
  <text x="850" y="878" font-family="Arial, sans-serif" font-size="20" font-weight="700" fill="#f59e0b">$0.74</text>

  <!-- Weather widget -->
  <rect x="1050" y="750" width="340" height="140" rx="12" fill="#111e38" filter="url(#cardShadow)" stroke="#1e3a5f" stroke-width="1"/>
  <text x="1074" y="778" font-family="Arial, sans-serif" font-size="13" font-weight="600" fill="#f0f6ff">Route Weather</text>
  <!-- Current city weather -->
  <text x="1074" y="808" font-family="Arial, sans-serif" font-size="28">⛅</text>
  <text x="1116" y="808" font-family="Arial, sans-serif" font-size="22" font-weight="700" fill="#f0f6ff">68°F</text>
  <text x="1116" y="826" font-family="Arial, sans-serif" font-size="11" fill="#64748b">Partly Cloudy  •  Chicago</text>
  <!-- Route forecast row -->
  <rect x="1074" y="845" width="296" height="36" rx="8" fill="#0d1f3c"/>
  <text x="1085" y="858" font-family="Arial, sans-serif" font-size="10" fill="#94a3b8">Cleveland</text>
  <text x="1085" y="873" font-family="Arial, sans-serif" font-size="11" fill="#f0f6ff">🌧 58°F</text>
  <text x="1165" y="858" font-family="Arial, sans-serif" font-size="10" fill="#94a3b8">Pittsburgh</text>
  <text x="1165" y="873" font-family="Arial, sans-serif" font-size="11" fill="#f0f6ff">☁ 62°F</text>
  <text x="1255" y="858" font-family="Arial, sans-serif" font-size="10" fill="#94a3b8">New York</text>
  <text x="1255" y="873" font-family="Arial, sans-serif" font-size="11" fill="#f0f6ff">⛅ 71°F</text>
  <!-- Rain alert -->
  <rect x="1074" y="886" width="296" height="20" rx="4" fill="#1c2820"/>
  <text x="1082" y="900" font-family="Arial, sans-serif" font-size="10" fill="#f59e0b">⚠ Rain advisory: I-80 near Cleveland at ~6:00 PM</text>

  <!-- ======= CHROMEBOOK KEYBOARD AREA ======= -->
  <rect x="0" y="1090" width="1920" height="110" fill="#1a1a1a" rx="0"/>
  <!-- Hinge line -->
  <rect x="0" y="1090" width="1920" height="6" fill="#111111"/>
  <!-- Keyboard bed -->
  <rect x="100" y="1106" width="1720" height="78" rx="8" fill="#222222"/>
  <!-- Keys row 1 (function) -->
  <g fill="#2e2e2e" stroke="#181818" stroke-width="0.5">
    <!-- ESC -->
    <rect x="118" y="1112" width="38" height="20" rx="3"/>
    <!-- F keys -->
    <rect x="166" y="1112" width="28" height="20" rx="3"/>
    <rect x="200" y="1112" width="28" height="20" rx="3"/>
    <rect x="234" y="1112" width="28" height="20" rx="3"/>
    <rect x="268" y="1112" width="28" height="20" rx="3"/>
    <rect x="316" y="1112" width="28" height="20" rx="3"/>
    <rect x="350" y="1112" width="28" height="20" rx="3"/>
    <rect x="384" y="1112" width="28" height="20" rx="3"/>
    <rect x="418" y="1112" width="28" height="20" rx="3"/>
    <rect x="466" y="1112" width="28" height="20" rx="3"/>
    <rect x="500" y="1112" width="28" height="20" rx="3"/>
    <rect x="534" y="1112" width="28" height="20" rx="3"/>
    <rect x="568" y="1112" width="28" height="20" rx="3"/>
    <!-- Right function -->
    <rect x="616" y="1112" width="28" height="20" rx="3"/>
    <rect x="650" y="1112" width="28" height="20" rx="3"/>
    <rect x="684" y="1112" width="28" height="20" rx="3"/>
    <rect x="718" y="1112" width="28" height="20" rx="3"/>
    <rect x="752" y="1112" width="28" height="20" rx="3"/>
    <rect x="786" y="1112" width="28" height="20" rx="3"/>
    <rect x="820" y="1112" width="38" height="20" rx="3"/>
  </g>
  <!-- Keys row 2 (numbers) -->
  <g fill="#2e2e2e" stroke="#181818" stroke-width="0.5">
    <rect x="118" y="1138" width="38" height="24" rx="3"/>
    <rect x="162" y="1138" width="34" height="24" rx="3"/>
    <rect x="202" y="1138" width="34" height="24" rx="3"/>
    <rect x="242" y="1138" width="34" height="24" rx="3"/>
    <rect x="282" y="1138" width="34" height="24" rx="3"/>
    <rect x="322" y="1138" width="34" height="24" rx="3"/>
    <rect x="362" y="1138" width="34" height="24" rx="3"/>
    <rect x="402" y="1138" width="34" height="24" rx="3"/>
    <rect x="442" y="1138" width="34" height="24" rx="3"/>
    <rect x="482" y="1138" width="34" height="24" rx="3"/>
    <rect x="522" y="1138" width="34" height="24" rx="3"/>
    <rect x="562" y="1138" width="34" height="24" rx="3"/>
    <rect x="602" y="1138" width="34" height="24" rx="3"/>
    <rect x="642" y="1138" width="34" height="24" rx="3"/>
    <rect x="682" y="1138" width="50" height="24" rx="3"/>
    <!-- backspace wide -->
    <rect x="742" y="1138" width="116" height="24" rx="3"/>
  </g>
  <!-- Trackpad -->
  <rect x="760" y="1120" width="200" height="56" rx="8" fill="#282828" stroke="#333333" stroke-width="1"/>
  <text x="840" y="1152" font-family="Arial, sans-serif" font-size="9" fill="#444">trackpad</text>

  <!-- Chrome logo area (webcam top) -->
  <circle cx="960" cy="40" r="6" fill="#333333"/>
  <circle cx="960" cy="40" r="3" fill="#222222"/>
</svg>