<svg xmlns="http://www.w3.org/2000/svg" width="1920" height="1200" viewBox="0 0 1920 1200">
  <defs>
    <linearGradient id="bgGrad" x1="0%" y1="0%" x2="100%" y2="100%">
      <stop offset="0%" style="stop-color:#0f1729;stop-opacity:1" />
      <stop offset="100%" style="stop-color:#111e38;stop-opacity:1" />
    </linearGradient>
    <linearGradient id="sidebarGrad" x1="0%" y1="0%" x2="0%" y2="100%">
      <stop offset="0%" style="stop-color:#1a2744;stop-opacity:1" />
      <stop offset="100%" style="stop-color:#152035;stop-opacity:1" />
    </linearGradient>
    <linearGradient id="btnGrad" x1="0%" y1="0%" x2="100%" y2="0%">
      <stop offset="0%" style="stop-color:#3b82f6;stop-opacity:1" />
      <stop offset="100%" style="stop-color:#2563eb;stop-opacity:1" />
    </linearGradient>
    <linearGradient id="headerGrad" x1="0%" y1="0%" x2="0%" y2="100%">
      <stop offset="0%" style="stop-color:#0d1f3c;stop-opacity:1" />
      <stop offset="100%" style="stop-color:#0a1830;stop-opacity:1" />
    </linearGradient>
    <filter id="cardShadow">
      <feDropShadow dx="0" dy="4" stdDeviation="8" flood-color="#000000" flood-opacity="0.4"/>
    </filter>
    <filter id="glowBlue">
      <feDropShadow dx="0" dy="0" stdDeviation="6" flood-color="#3b82f6" flood-opacity="0.5"/>
    </filter>
  </defs>

  <!-- Chromebook body -->
  <rect x="0" y="0" width="1920" height="1200" fill="#1a1a1a"/>
  <rect x="40" y="10" width="1840" height="1090" rx="20" fill="#2a2a2a"/>
  <rect x="50" y="18" width="1820" height="1074" rx="16" fill="#1e1e1e"/>
  <rect x="60" y="30" width="1800" height="1060" rx="14" fill="url(#bgGrad)"/>

  <!-- ======= SIDEBAR ======= -->
  <rect x="60" y="30" width="220" height="1060" fill="url(#sidebarGrad)"/>

  <!-- Logo -->
  <rect x="75" y="50" width="190" height="64" rx="10" fill="#243358"/>
  <rect x="88" y="66" width="28" height="16" rx="3" fill="#3b82f6"/>
  <rect x="98" y="60" width="18" height="10" rx="2" fill="#60a5fa"/>
  <circle cx="96" cy="84" r="4" fill="#1e3a5f" stroke="#3b82f6" stroke-width="1.5"/>
  <circle cx="110" cy="84" r="4" fill="#1e3a5f" stroke="#3b82f6" stroke-width="1.5"/>
  <text x="122" y="76" font-family="Arial, sans-serif" font-size="13" font-weight="700" fill="#f0f6ff">Haul</text>
  <text x="122" y="90" font-family="Arial, sans-serif" font-size="13" font-weight="700" fill="#3b82f6">Wallet</text>

  <!-- Nav: Dashboard -->
  <rect x="75" y="140" width="190" height="44" rx="8" fill="transparent"/>
  <rect x="88" y="152" width="8" height="8" rx="1" fill="#64748b"/>
  <rect x="98" y="152" width="8" height="3" rx="1" fill="#64748b" opacity="0.7"/>
  <rect x="98" y="157" width="8" height="3" rx="1" fill="#64748b" opacity="0.7"/>
  <text x="118" y="167" font-family="Arial, sans-serif" font-size="13" fill="#64748b">Dashboard</text>

  <!-- Nav: Loads (active) -->
  <rect x="75" y="196" width="190" height="44" rx="8" fill="#3b82f6" filter="url(#glowBlue)"/>
  <rect x="88" y="210" width="18" height="12" rx="2" fill="white"/>
  <rect x="92" y="207" width="10" height="4" rx="1" fill="white"/>
  <line x1="91" y1="214" x2="100" y2="214" stroke="#1e3a5f" stroke-width="1.5"/>
  <line x1="91" y1="217" x2="98" y2="217" stroke="#1e3a5f" stroke-width="1.5"/>
  <text x="118" y="224" font-family="Arial, sans-serif" font-size="13" font-weight="600" fill="white">Loads</text>

  <!-- Nav: Routes -->
  <rect x="75" y="252" width="190" height="44" rx="8" fill="transparent"/>
  <circle cx="95" cy="272" r="5" fill="none" stroke="#64748b" stroke-width="2"/>
  <circle cx="95" cy="272" r="2" fill="#64748b"/>
  <text x="118" y="278" font-family="Arial, sans-serif" font-size="13" fill="#64748b">Routes</text>

  <!-- Nav: Earnings -->
  <rect x="75" y="308" width="190" height="44" rx="8" fill="transparent"/>
  <circle cx="95" cy="328" r="7" fill="none" stroke="#64748b" stroke-width="1.5"/>
  <text x="90" y="332" font-family="Arial, sans-serif" font-size="14" fill="#64748b">$</text>
  <text x="118" y="334" font-family="Arial, sans-serif" font-size="13" fill="#64748b">Earnings</text>

  <!-- Nav: Settings -->
  <rect x="75" y="364" width="190" height="44" rx="8" fill="transparent"/>
  <circle cx="95" cy="384" r="6" fill="none" stroke="#64748b" stroke-width="2"/>
  <circle cx="95" cy="384" r="2.5" fill="#64748b"/>
  <text x="118" y="390" font-family="Arial, sans-serif" font-size="13" fill="#64748b">Settings</text>

  <line x1="85" y1="430" x2="255" y2="430" stroke="#243358" stroke-width="1"/>

  <!-- Sidebar stats -->
  <rect x="80" y="450" width="180" height="160" rx="10" fill="#0d1f3c"/>
  <text x="95" y="472" font-family="Arial, sans-serif" font-size="11" fill="#64748b">LOADS SUMMARY</text>
  <text x="95" y="498" font-family="Arial, sans-serif" font-size="28" font-weight="700" fill="#f0f6ff">24</text>
  <text x="148" y="498" font-family="Arial, sans-serif" font-size="12" fill="#64748b">this month</text>
  <line x1="95" y1="508" x2="245" y2="508" stroke="#1e3a5f" stroke-width="1"/>
  <rect x="95" y="520" width="8" height="8" rx="2" fill="#10b981"/>
  <text x="110" y="530" font-family="Arial, sans-serif" font-size="12" fill="#f0f6ff">8 <tspan fill="#64748b">Active</tspan></text>
  <rect x="95" y="545" width="8" height="8" rx="2" fill="#f59e0b"/>
  <text x="110" y="555" font-family="Arial, sans-serif" font-size="12" fill="#f0f6ff">5 <tspan fill="#64748b">Pending</tspan></text>
  <rect x="95" y="570" width="8" height="8" rx="2" fill="#64748b"/>
  <text x="110" y="580" font-family="Arial, sans-serif" font-size="12" fill="#f0f6ff">11 <tspan fill="#64748b">Completed</tspan></text>
  <line x1="95" y1="593" x2="245" y2="593" stroke="#1e3a5f" stroke-width="1"/>
  <text x="95" y="608" font-family="Arial, sans-serif" font-size="12" fill="#64748b">Revenue MTD</text>
  <text x="95" y="628" font-family="Arial, sans-serif" font-size="20" font-weight="700" fill="#10b981">$18,420</text>

  <!-- Driver profile -->
  <rect x="80" y="960" width="180" height="100" rx="10" fill="#111e38"/>
  <circle cx="113" cy="995" r="18" fill="#1e3a5f" stroke="#3b82f6" stroke-width="2"/>
  <text x="107" y="1000" font-family="Arial, sans-serif" font-size="16" font-weight="700" fill="#60a5fa">JD</text>
  <text x="136" y="990" font-family="Arial, sans-serif" font-size="12" font-weight="600" fill="#f0f6ff">John D.</text>
  <text x="136" y="1006" font-family="Arial, sans-serif" font-size="11" fill="#64748b">CDL Driver</text>
  <text x="136" y="1020" font-family="Arial, sans-serif" font-size="10" fill="#10b981">● Online</text>

  <!-- ======= MAIN CONTENT ======= -->

  <!-- Top bar -->
  <rect x="280" y="30" width="1580" height="64" fill="#111e38" opacity="0.8"/>
  <text x="306" y="55" font-family="Arial, sans-serif" font-size="20" font-weight="700" fill="#f0f6ff">Load Management</text>
  <text x="306" y="75" font-family="Arial, sans-serif" font-size="12" fill="#64748b">Thursday, April 17, 2026  •  24 loads this month  •  All regions</text>

  <!-- Search and controls -->
  <rect x="820" y="44" width="280" height="36" rx="8" fill="#1a2744" stroke="#2a3f6a" stroke-width="1"/>
  <text x="840" y="67" font-family="Arial, sans-serif" font-size="13" fill="#3d5480">Search loads, shippers...</text>
  <text x="1076" y="66" font-family="Arial, sans-serif" font-size="14" fill="#3d5480">⌕</text>
  <!-- Notification + avatar -->
  <rect x="1700" y="42" width="38" height="38" rx="8" fill="#1a2744" stroke="#2a3f6a" stroke-width="1"/>
  <text x="1714" y="67" font-family="Arial, sans-serif" font-size="18" fill="#64748b">🔔</text>
  <circle cx="1729" cy="44" r="6" fill="#ef4444"/>
  <text x="1726" y="48" font-family="Arial, sans-serif" font-size="9" fill="white">3</text>
  <circle cx="1784" cy="61" r="18" fill="#1e3a5f" stroke="#3b82f6" stroke-width="2"/>
  <text x="1776" y="67" font-family="Arial, sans-serif" font-size="14" font-weight="700" fill="#60a5fa">JD</text>

  <!-- ======= FILTER BAR + NEW LOAD BUTTON ======= -->
  <rect x="290" y="110" width="1570" height="56" rx="10" fill="#111e38" filter="url(#cardShadow)" stroke="#1e3a5f" stroke-width="1"/>

  <!-- Filter tabs -->
  <!-- All Loads (active) -->
  <rect x="306" y="124" width="100" height="28" rx="6" fill="#3b82f6"/>
  <text x="332" y="143" font-family="Arial, sans-serif" font-size="13" font-weight="600" fill="white">All Loads</text>
  <rect x="340" y="120" width="18" height="14" rx="7" fill="#2563eb"/>
  <text x="343" y="131" font-family="Arial, sans-serif" font-size="9" font-weight="700" fill="white">24</text>

  <!-- Active tab -->
  <rect x="416" y="124" width="90" height="28" rx="6" fill="#0d2820"/>
  <text x="440" y="143" font-family="Arial, sans-serif" font-size="13" fill="#10b981">Active</text>
  <rect x="497" y="120" width="14" height="14" rx="7" fill="#0a2018"/>
  <text x="500" y="131" font-family="Arial, sans-serif" font-size="9" fill="#10b981">8</text>

  <!-- Pending tab -->
  <rect x="516" y="124" width="90" height="28" rx="6" fill="#2a1a0a"/>
  <text x="536" y="143" font-family="Arial, sans-serif" font-size="13" fill="#f59e0b">Pending</text>
  <rect x="597" y="120" width="14" height="14" rx="7" fill="#1a0f04"/>
  <text x="600" y="131" font-family="Arial, sans-serif" font-size="9" fill="#f59e0b">5</text>

  <!-- Completed tab -->
  <rect x="616" y="124" width="100" height="28" rx="6" fill="transparent"/>
  <text x="632" y="143" font-family="Arial, sans-serif" font-size="13" fill="#64748b">Completed</text>

  <!-- Divider -->
  <line x1="740" y1="124" x2="740" y2="152" stroke="#1e3a5f" stroke-width="1"/>

  <!-- Sort/Filter buttons -->
  <rect x="752" y="126" width="90" height="26" rx="6" fill="#1a2744" stroke="#2a3f6a" stroke-width="1"/>
  <text x="765" y="143" font-family="Arial, sans-serif" font-size="12" fill="#64748b">↕ Sort by</text>

  <rect x="852" y="126" width="80" height="26" rx="6" fill="#1a2744" stroke="#2a3f6a" stroke-width="1"/>
  <text x="864" y="143" font-family="Arial, sans-serif" font-size="12" fill="#64748b">⊟ Filter</text>

  <rect x="942" y="126" width="100" height="26" rx="6" fill="#1a2744" stroke="#2a3f6a" stroke-width="1"/>
  <text x="952" y="143" font-family="Arial, sans-serif" font-size="12" fill="#64748b">📅 Date Range</text>

  <!-- Export button -->
  <rect x="1600" y="124" width="90" height="28" rx="6" fill="#1a2744" stroke="#2a3f6a" stroke-width="1"/>
  <text x="1614" y="143" font-family="Arial, sans-serif" font-size="12" fill="#64748b">↓ Export</text>

  <!-- New Load button -->
  <rect x="1700" y="121" width="130" height="34" rx="8" fill="url(#btnGrad)" filter="url(#glowBlue)"/>
  <text x="1718" y="143" font-family="Arial, sans-serif" font-size="14" font-weight="700" fill="white">+ New Load</text>

  <!-- ======= TABLE ======= -->
  <rect x="290" y="182" width="1570" height="808" rx="12" fill="#111e38" filter="url(#cardShadow)" stroke="#1e3a5f" stroke-width="1"/>

  <!-- Table Header -->
  <rect x="290" y="182" width="1570" height="48" rx="12" fill="url(#headerGrad)"/>
  <rect x="290" y="210" width="1570" height="20" fill="#0a1830"/>

  <!-- Column headers -->
  <text x="320" y="212" font-family="Arial, sans-serif" font-size="11" font-weight="600" fill="#64748b" letter-spacing="0.5">LOAD ID</text>
  <text x="460" y="212" font-family="Arial, sans-serif" font-size="11" font-weight="600" fill="#64748b" letter-spacing="0.5">ROUTE</text>
  <text x="720" y="212" font-family="Arial, sans-serif" font-size="11" font-weight="600" fill="#64748b" letter-spacing="0.5">SHIPPER</text>
  <text x="950" y="212" font-family="Arial, sans-serif" font-size="11" font-weight="600" fill="#64748b" letter-spacing="0.5">STATUS</text>
  <text x="1090" y="212" font-family="Arial, sans-serif" font-size="11" font-weight="600" fill="#64748b" letter-spacing="0.5">CARGO TYPE</text>
  <text x="1240" y="212" font-family="Arial, sans-serif" font-size="11" font-weight="600" fill="#64748b" letter-spacing="0.5">WEIGHT</text>
  <text x="1360" y="212" font-family="Arial, sans-serif" font-size="11" font-weight="600" fill="#64748b" letter-spacing="0.5">EARNINGS</text>
  <text x="1510" y="212" font-family="Arial, sans-serif" font-size="11" font-weight="600" fill="#64748b" letter-spacing="0.5">DELIVERY DATE</text>
  <!-- Sort icon on Load ID -->
  <text x="400" y="212" font-family="Arial, sans-serif" font-size="11" fill="#3b82f6">↕</text>

  <!-- Column separator lines (header) -->
  <line x1="446" y1="186" x2="446" y2="230" stroke="#1e3a5f" stroke-width="1" opacity="0.5"/>
  <line x1="706" y1="186" x2="706" y2="230" stroke="#1e3a5f" stroke-width="1" opacity="0.5"/>
  <line x1="936" y1="186" x2="936" y2="230" stroke="#1e3a5f" stroke-width="1" opacity="0.5"/>
  <line x1="1076" y1="186" x2="1076" y2="230" stroke="#1e3a5f" stroke-width="1" opacity="0.5"/>
  <line x1="1226" y1="186" x2="1226" y2="230" stroke="#1e3a5f" stroke-width="1" opacity="0.5"/>
  <line x1="1346" y1="186" x2="1346" y2="230" stroke="#1e3a5f" stroke-width="1" opacity="0.5"/>
  <line x1="1496" y1="186" x2="1496" y2="230" stroke="#1e3a5f" stroke-width="1" opacity="0.5"/>

  <!-- Checkbox header -->
  <rect x="302" y="199" width="14" height="14" rx="3" fill="none" stroke="#334155" stroke-width="1.5"/>

  <!-- ======= TABLE ROWS ======= -->
  <!-- Row height: 68px, starting at y=230 -->

  <!-- ROW 1 — Active, HIGHLIGHTED (current active load) -->
  <rect x="290" y="230" width="1570" height="66" fill="#0d2035" stroke="none"/>
  <rect x="290" y="230" width="4" height="66" fill="#3b82f6"/>
  <line x1="290" y1="296" x2="1860" y2="296" stroke="#1a3050" stroke-width="1"/>
  <!-- checkbox -->
  <rect x="302" y="255" width="14" height="14" rx="3" fill="#1e3a5f" stroke="#3b82f6" stroke-width="1.5"/>
  <path d="M305 262 L308 265 L313 258" stroke="#3b82f6" stroke-width="2" fill="none" stroke-linecap="round"/>
  <!-- Load ID -->
  <text x="322" y="258" font-family="Arial, sans-serif" font-size="13" font-weight="600" fill="#60a5fa">#HL-2847</text>
  <rect x="322" y="265" width="66" height="16" rx="3" fill="#0a1f3a"/>
  <text x="328" y="277" font-family="Arial, sans-serif" font-size="10" fill="#3b82f6">In Transit</text>
  <!-- Route -->
  <text x="460" y="255" font-family="Arial, sans-serif" font-size="13" font-weight="600" fill="#f0f6ff">Chicago, IL</text>
  <text x="460" y="272" font-family="Arial, sans-serif" font-size="11" fill="#64748b">→</text>
  <text x="476" y="272" font-family="Arial, sans-serif" font-size="11" fill="#94a3b8">New York, NY</text>
  <text x="460" y="286" font-family="Arial, sans-serif" font-size="10" fill="#64748b">842 mi remaining</text>
  <!-- Progress bar -->
  <rect x="620" y="270" width="72" height="4" rx="2" fill="#1e3a5f"/>
  <rect x="620" y="270" width="42" height="4" rx="2" fill="#3b82f6"/>
  <text x="622" y="284" font-family="Arial, sans-serif" font-size="9" fill="#64748b">58%</text>
  <!-- Shipper -->
  <text x="720" y="258" font-family="Arial, sans-serif" font-size="13" fill="#f0f6ff">Amazon Logistics</text>
  <text x="720" y="276" font-family="Arial, sans-serif" font-size="11" fill="#64748b">REF: AMZ-40291</text>
  <!-- Status -->
  <rect x="950" y="249" width="80" height="22" rx="11" fill="#0a2035" stroke="#3b82f6" stroke-width="1"/>
  <circle cx="963" cy="260" r="4" fill="#3b82f6"/>
  <text x="970" y="264" font-family="Arial, sans-serif" font-size="11" font-weight="600" fill="#60a5fa">Active</text>
  <!-- Cargo -->
  <text x="1090" y="258" font-family="Arial, sans-serif" font-size="13" fill="#f0f6ff">Electronics</text>
  <text x="1090" y="276" font-family="Arial, sans-serif" font-size="11" fill="#64748b">Fragile / Climate</text>
  <!-- Weight -->
  <text x="1240" y="260" font-family="Arial, sans-serif" font-size="13" fill="#f0f6ff">12,400</text>
  <text x="1240" y="276" font-family="Arial, sans-serif" font-size="11" fill="#64748b">lbs</text>
  <!-- Earnings -->
  <text x="1360" y="260" font-family="Arial, sans-serif" font-size="15" font-weight="700" fill="#10b981">$1,240</text>
  <text x="1360" y="277" font-family="Arial, sans-serif" font-size="10" fill="#64748b">+$180 fuel surcharge</text>
  <!-- Date -->
  <text x="1510" y="258" font-family="Arial, sans-serif" font-size="13" fill="#f0f6ff">Apr 18, 2026</text>
  <text x="1510" y="276" font-family="Arial, sans-serif" font-size="11" fill="#f59e0b">⏰ Due tomorrow</text>
  <!-- Action button -->
  <rect x="1796" y="249" width="50" height="22" rx="5" fill="#1e3a5f" stroke="#3b82f6" stroke-width="1"/>
  <text x="1807" y="264" font-family="Arial, sans-serif" font-size="11" fill="#60a5fa">View</text>

  <!-- ROW 2 — Pending pickup -->
  <rect x="290" y="296" width="1570" height="66" fill="transparent"/>
  <rect x="290" y="296" width="4" height="66" fill="#f59e0b"/>
  <line x1="290" y1="362" x2="1860" y2="362" stroke="#1e3a5f" stroke-width="1"/>
  <rect x="302" y="321" width="14" height="14" rx="3" fill="none" stroke="#334155" stroke-width="1.5"/>
  <text x="322" y="324" font-family="Arial, sans-serif" font-size="13" font-weight="600" fill="#94a3b8">#HL-2846</text>
  <rect x="322" y="331" width="80" height="16" rx="3" fill="#1a0f04"/>
  <text x="328" y="343" font-family="Arial, sans-serif" font-size="10" fill="#f59e0b">Pickup @ 4:00 PM</text>
  <text x="460" y="321" font-family="Arial, sans-serif" font-size="13" font-weight="600" fill="#f0f6ff">Dallas, TX</text>
  <text x="460" y="338" font-family="Arial, sans-serif" font-size="11" fill="#64748b">→</text>
  <text x="476" y="338" font-family="Arial, sans-serif" font-size="11" fill="#94a3b8">Los Angeles, CA</text>
  <text x="460" y="352" font-family="Arial, sans-serif" font-size="10" fill="#64748b">1,432 mi total</text>
  <text x="720" y="324" font-family="Arial, sans-serif" font-size="13" fill="#f0f6ff">AutoZone Supply</text>
  <text x="720" y="342" font-family="Arial, sans-serif" font-size="11" fill="#64748b">REF: AZ-18834</text>
  <rect x="950" y="315" width="88" height="22" rx="11" fill="#2a1a0a" stroke="#f59e0b" stroke-width="1"/>
  <circle cx="963" cy="326" r="4" fill="#f59e0b"/>
  <text x="970" y="330" font-family="Arial, sans-serif" font-size="11" font-weight="600" fill="#f59e0b">Pending</text>
  <text x="1090" y="324" font-family="Arial, sans-serif" font-size="13" fill="#f0f6ff">Auto Parts</text>
  <text x="1090" y="342" font-family="Arial, sans-serif" font-size="11" fill="#64748b">Heavy Freight</text>
  <text x="1240" y="326" font-family="Arial, sans-serif" font-size="13" fill="#f0f6ff">18,200</text>
  <text x="1240" y="342" font-family="Arial, sans-serif" font-size="11" fill="#64748b">lbs</text>
  <text x="1360" y="326" font-family="Arial, sans-serif" font-size="15" font-weight="700" fill="#f0f6ff">$2,180</text>
  <text x="1360" y="343" font-family="Arial, sans-serif" font-size="10" fill="#64748b">Rate locked</text>
  <text x="1510" y="324" font-family="Arial, sans-serif" font-size="13" fill="#f0f6ff">Apr 20, 2026</text>
  <text x="1510" y="342" font-family="Arial, sans-serif" font-size="11" fill="#64748b">3 days</text>
  <rect x="1796" y="315" width="50" height="22" rx="5" fill="#1a2744" stroke="#334155" stroke-width="1"/>
  <text x="1807" y="330" font-family="Arial, sans-serif" font-size="11" fill="#94a3b8">View</text>

  <!-- ROW 3 — Scheduled -->
  <rect x="290" y="362" width="1570" height="66" fill="#0a1426" opacity="0.7"/>
  <rect x="290" y="362" width="4" height="66" fill="#8b5cf6"/>
  <line x1="290" y1="428" x2="1860" y2="428" stroke="#1e3a5f" stroke-width="1"/>
  <rect x="302" y="387" width="14" height="14" rx="3" fill="none" stroke="#334155" stroke-width="1.5"/>
  <text x="322" y="390" font-family="Arial, sans-serif" font-size="13" font-weight="600" fill="#94a3b8">#HL-2845</text>
  <rect x="322" y="397" width="70" height="16" rx="3" fill="#1a1040"/>
  <text x="328" y="409" font-family="Arial, sans-serif" font-size="10" fill="#8b5cf6">Scheduled</text>
  <text x="460" y="387" font-family="Arial, sans-serif" font-size="13" font-weight="600" fill="#f0f6ff">Miami, FL</text>
  <text x="460" y="404" font-family="Arial, sans-serif" font-size="11" fill="#64748b">→</text>
  <text x="476" y="404" font-family="Arial, sans-serif" font-size="11" fill="#94a3b8">Atlanta, GA</text>
  <text x="460" y="418" font-family="Arial, sans-serif" font-size="10" fill="#64748b">662 mi total</text>
  <text x="720" y="390" font-family="Arial, sans-serif" font-size="13" fill="#f0f6ff">Sysco Foods</text>
  <text x="720" y="408" font-family="Arial, sans-serif" font-size="11" fill="#64748b">REF: SYS-77241</text>
  <rect x="950" y="381" width="92" height="22" rx="11" fill="#1a1040" stroke="#8b5cf6" stroke-width="1"/>
  <circle cx="963" cy="392" r="4" fill="#8b5cf6"/>
  <text x="970" y="396" font-family="Arial, sans-serif" font-size="11" font-weight="600" fill="#8b5cf6">Scheduled</text>
  <text x="1090" y="390" font-family="Arial, sans-serif" font-size="13" fill="#f0f6ff">Food &amp; Bev</text>
  <text x="1090" y="408" font-family="Arial, sans-serif" font-size="11" fill="#64748b">Refrigerated</text>
  <text x="1240" y="392" font-family="Arial, sans-serif" font-size="13" fill="#f0f6ff">22,000</text>
  <text x="1240" y="408" font-family="Arial, sans-serif" font-size="11" fill="#64748b">lbs</text>
  <text x="1360" y="392" font-family="Arial, sans-serif" font-size="15" font-weight="700" fill="#f0f6ff">$980</text>
  <text x="1360" y="409" font-family="Arial, sans-serif" font-size="10" fill="#64748b">+Reefer fee</text>
  <text x="1510" y="390" font-family="Arial, sans-serif" font-size="13" fill="#f0f6ff">Apr 22, 2026</text>
  <text x="1510" y="408" font-family="Arial, sans-serif" font-size="11" fill="#64748b">5 days</text>
  <rect x="1796" y="381" width="50" height="22" rx="5" fill="#1a2744" stroke="#334155" stroke-width="1"/>
  <text x="1807" y="396" font-family="Arial, sans-serif" font-size="11" fill="#94a3b8">View</text>

  <!-- ROW 4 — Completed -->
  <rect x="290" y="428" width="1570" height="66" fill="transparent"/>
  <rect x="290" y="428" width="4" height="66" fill="#10b981"/>
  <line x1="290" y1="494" x2="1860" y2="494" stroke="#1e3a5f" stroke-width="1"/>
  <rect x="302" y="453" width="14" height="14" rx="3" fill="none" stroke="#334155" stroke-width="1.5"/>
  <text x="322" y="456" font-family="Arial, sans-serif" font-size="13" font-weight="600" fill="#64748b">#HL-2844</text>
  <rect x="322" y="463" width="72" height="16" rx="3" fill="#0d2820"/>
  <text x="328" y="475" font-family="Arial, sans-serif" font-size="10" fill="#10b981">✓ Delivered</text>
  <text x="460" y="453" font-family="Arial, sans-serif" font-size="13" font-weight="600" fill="#94a3b8">Seattle, WA</text>
  <text x="460" y="470" font-family="Arial, sans-serif" font-size="11" fill="#64748b">→</text>
  <text x="476" y="470" font-family="Arial, sans-serif" font-size="11" fill="#64748b">Portland, OR</text>
  <text x="460" y="484" font-family="Arial, sans-serif" font-size="10" fill="#64748b">174 mi</text>
  <text x="720" y="456" font-family="Arial, sans-serif" font-size="13" fill="#94a3b8">Weyerhaeuser Co.</text>
  <text x="720" y="474" font-family="Arial, sans-serif" font-size="11" fill="#64748b">REF: WY-55110</text>
  <rect x="950" y="447" width="92" height="22" rx="11" fill="#0d2820" stroke="#10b981" stroke-width="1"/>
  <circle cx="963" cy="458" r="4" fill="#10b981"/>
  <text x="970" y="462" font-family="Arial, sans-serif" font-size="11" font-weight="600" fill="#10b981">Completed</text>
  <text x="1090" y="456" font-family="Arial, sans-serif" font-size="13" fill="#94a3b8">Lumber</text>
  <text x="1090" y="474" font-family="Arial, sans-serif" font-size="11" fill="#64748b">Oversize Load</text>
  <text x="1240" y="458" font-family="Arial, sans-serif" font-size="13" fill="#94a3b8">30,000</text>
  <text x="1240" y="474" font-family="Arial, sans-serif" font-size="11" fill="#64748b">lbs</text>
  <text x="1360" y="458" font-family="Arial, sans-serif" font-size="15" font-weight="700" fill="#64748b">$760</text>
  <text x="1360" y="475" font-family="Arial, sans-serif" font-size="10" fill="#10b981">Paid ✓</text>
  <text x="1510" y="456" font-family="Arial, sans-serif" font-size="13" fill="#64748b">Apr 16, 2026</text>
  <text x="1510" y="474" font-family="Arial, sans-serif" font-size="11" fill="#10b981">On time</text>
  <rect x="1796" y="447" width="50" height="22" rx="5" fill="#1a2744" stroke="#334155" stroke-width="1"/>
  <text x="1807" y="462" font-family="Arial, sans-serif" font-size="11" fill="#64748b">View</text>

  <!-- ROW 5 — Completed -->
  <rect x="290" y="494" width="1570" height="66" fill="#0a1426" opacity="0.5"/>
  <rect x="290" y="494" width="4" height="66" fill="#10b981"/>
  <line x1="290" y1="560" x2="1860" y2="560" stroke="#1e3a5f" stroke-width="1"/>
  <rect x="302" y="519" width="14" height="14" rx="3" fill="none" stroke="#334155" stroke-width="1.5"/>
  <text x="322" y="522" font-family="Arial, sans-serif" font-size="13" font-weight="600" fill="#64748b">#HL-2843</text>
  <rect x="322" y="529" width="72" height="16" rx="3" fill="#0d2820"/>
  <text x="328" y="541" font-family="Arial, sans-serif" font-size="10" fill="#10b981">✓ Delivered</text>
  <text x="460" y="519" font-family="Arial, sans-serif" font-size="13" font-weight="600" fill="#94a3b8">Denver, CO</text>
  <text x="460" y="536" font-family="Arial, sans-serif" font-size="11" fill="#64748b">→</text>
  <text x="476" y="536" font-family="Arial, sans-serif" font-size="11" fill="#64748b">Kansas City, MO</text>
  <text x="460" y="550" font-family="Arial, sans-serif" font-size="10" fill="#64748b">600 mi</text>
  <text x="720" y="522" font-family="Arial, sans-serif" font-size="13" fill="#94a3b8">Caterpillar Inc.</text>
  <text x="720" y="540" font-family="Arial, sans-serif" font-size="11" fill="#64748b">REF: CAT-30045</text>
  <rect x="950" y="513" width="92" height="22" rx="11" fill="#0d2820" stroke="#10b981" stroke-width="1"/>
  <circle cx="963" cy="524" r="4" fill="#10b981"/>
  <text x="970" y="528" font-family="Arial, sans-serif" font-size="11" font-weight="600" fill="#10b981">Completed</text>
  <text x="1090" y="522" font-family="Arial, sans-serif" font-size="13" fill="#94a3b8">Machinery</text>
  <text x="1090" y="540" font-family="Arial, sans-serif" font-size="11" fill="#64748b">Heavy Equipment</text>
  <text x="1240" y="524" font-family="Arial, sans-serif" font-size="13" fill="#94a3b8">15,600</text>
  <text x="1240" y="540" font-family="Arial, sans-serif" font-size="11" fill="#64748b">lbs</text>
  <text x="1360" y="524" font-family="Arial, sans-serif" font-size="15" font-weight="700" fill="#64748b">$1,130</text>
  <text x="1360" y="541" font-family="Arial, sans-serif" font-size="10" fill="#10b981">Paid ✓</text>
  <text x="1510" y="522" font-family="Arial, sans-serif" font-size="13" fill="#64748b">Apr 15, 2026</text>
  <text x="1510" y="540" font-family="Arial, sans-serif" font-size="11" fill="#10b981">On time</text>
  <rect x="1796" y="513" width="50" height="22" rx="5" fill="#1a2744" stroke="#334155" stroke-width="1"/>
  <text x="1807" y="528" font-family="Arial, sans-serif" font-size="11" fill="#64748b">View</text>

  <!-- ROW 6 — Active -->
  <rect x="290" y="560" width="1570" height="66" fill="transparent"/>
  <rect x="290" y="560" width="4" height="66" fill="#3b82f6"/>
  <line x1="290" y1="626" x2="1860" y2="626" stroke="#1e3a5f" stroke-width="1"/>
  <rect x="302" y="585" width="14" height="14" rx="3" fill="none" stroke="#334155" stroke-width="1.5"/>
  <text x="322" y="588" font-family="Arial, sans-serif" font-size="13" font-weight="600" fill="#94a3b8">#HL-2842</text>
  <rect x="322" y="595" width="66" height="16" rx="3" fill="#0a1f3a"/>
  <text x="328" y="607" font-family="Arial, sans-serif" font-size="10" fill="#3b82f6">Loading</text>
  <text x="460" y="585" font-family="Arial, sans-serif" font-size="13" font-weight="600" fill="#f0f6ff">Phoenix, AZ</text>
  <text x="460" y="602" font-family="Arial, sans-serif" font-size="11" fill="#64748b">→</text>
  <text x="476" y="602" font-family="Arial, sans-serif" font-size="11" fill="#94a3b8">San Francisco, CA</text>
  <text x="460" y="616" font-family="Arial, sans-serif" font-size="10" fill="#64748b">750 mi total</text>
  <text x="720" y="588" font-family="Arial, sans-serif" font-size="13" fill="#f0f6ff">Intel Corporation</text>
  <text x="720" y="606" font-family="Arial, sans-serif" font-size="11" fill="#64748b">REF: INT-90120</text>
  <rect x="950" y="579" width="80" height="22" rx="11" fill="#0a2035" stroke="#3b82f6" stroke-width="1"/>
  <circle cx="963" cy="590" r="4" fill="#3b82f6"/>
  <text x="970" y="594" font-family="Arial, sans-serif" font-size="11" font-weight="600" fill="#60a5fa">Active</text>
  <text x="1090" y="588" font-family="Arial, sans-serif" font-size="13" fill="#f0f6ff">Electronics</text>
  <text x="1090" y="606" font-family="Arial, sans-serif" font-size="11" fill="#64748b">High Value</text>
  <text x="1240" y="590" font-family="Arial, sans-serif" font-size="13" fill="#f0f6ff">8,800</text>
  <text x="1240" y="606" font-family="Arial, sans-serif" font-size="11" fill="#64748b">lbs</text>
  <text x="1360" y="590" font-family="Arial, sans-serif" font-size="15" font-weight="700" fill="#f0f6ff">$1,680</text>
  <text x="1360" y="607" font-family="Arial, sans-serif" font-size="10" fill="#64748b">+$95 insurance</text>
  <text x="1510" y="588" font-family="Arial, sans-serif" font-size="13" fill="#f0f6ff">Apr 19, 2026</text>
  <text x="1510" y="606" font-family="Arial, sans-serif" font-size="11" fill="#64748b">2 days</text>
  <rect x="1796" y="579" width="50" height="22" rx="5" fill="#1a2744" stroke="#334155" stroke-width="1"/>
  <text x="1807" y="594" font-family="Arial, sans-serif" font-size="11" fill="#94a3b8">View</text>

  <!-- ROW 7 — Pending -->
  <rect x="290" y="626" width="1570" height="66" fill="#0a1426" opacity="0.5"/>
  <rect x="290" y="626" width="4" height="66" fill="#f59e0b"/>
  <line x1="290" y1="692" x2="1860" y2="692" stroke="#1e3a5f" stroke-width="1"/>
  <rect x="302" y="651" width="14" height="14" rx="3" fill="none" stroke="#334155" stroke-width="1.5"/>
  <text x="322" y="654" font-family="Arial, sans-serif" font-size="13" font-weight="600" fill="#94a3b8">#HL-2841</text>
  <rect x="322" y="661" width="80" height="16" rx="3" fill="#1a0f04"/>
  <text x="328" y="673" font-family="Arial, sans-serif" font-size="10" fill="#f59e0b">Awaiting pickup</text>
  <text x="460" y="651" font-family="Arial, sans-serif" font-size="13" font-weight="600" fill="#f0f6ff">Houston, TX</text>
  <text x="460" y="668" font-family="Arial, sans-serif" font-size="11" fill="#64748b">→</text>
  <text x="476" y="668" font-family="Arial, sans-serif" font-size="11" fill="#94a3b8">Nashville, TN</text>
  <text x="460" y="682" font-family="Arial, sans-serif" font-size="10" fill="#64748b">938 mi total</text>
  <text x="720" y="654" font-family="Arial, sans-serif" font-size="13" fill="#f0f6ff">ExxonMobil Corp.</text>
  <text x="720" y="672" font-family="Arial, sans-serif" font-size="11" fill="#64748b">REF: EXX-12809</text>
  <rect x="950" y="645" width="88" height="22" rx="11" fill="#2a1a0a" stroke="#f59e0b" stroke-width="1"/>
  <circle cx="963" cy="656" r="4" fill="#f59e0b"/>
  <text x="970" y="660" font-family="Arial, sans-serif" font-size="11" font-weight="600" fill="#f59e0b">Pending</text>
  <text x="1090" y="654" font-family="Arial, sans-serif" font-size="13" fill="#f0f6ff">Chemicals</text>
  <text x="1090" y="672" font-family="Arial, sans-serif" font-size="11" fill="#ef4444">⚠ Hazmat Class 3</text>
  <text x="1240" y="656" font-family="Arial, sans-serif" font-size="13" fill="#f0f6ff">19,500</text>
  <text x="1240" y="672" font-family="Arial, sans-serif" font-size="11" fill="#64748b">lbs</text>
  <text x="1360" y="656" font-family="Arial, sans-serif" font-size="15" font-weight="700" fill="#f0f6ff">$2,440</text>
  <text x="1360" y="673" font-family="Arial, sans-serif" font-size="10" fill="#64748b">+Hazmat bonus</text>
  <text x="1510" y="654" font-family="Arial, sans-serif" font-size="13" fill="#f0f6ff">Apr 21, 2026</text>
  <text x="1510" y="672" font-family="Arial, sans-serif" font-size="11" fill="#64748b">4 days</text>
  <rect x="1796" y="645" width="50" height="22" rx="5" fill="#1a2744" stroke="#334155" stroke-width="1"/>
  <text x="1807" y="660" font-family="Arial, sans-serif" font-size="11" fill="#94a3b8">View</text>

  <!-- ROW 8 — Completed -->
  <rect x="290" y="692" width="1570" height="66" fill="transparent"/>
  <rect x="290" y="692" width="4" height="66" fill="#10b981"/>
  <line x1="290" y1="758" x2="1860" y2="758" stroke="#1e3a5f" stroke-width="1"/>
  <rect x="302" y="717" width="14" height="14" rx="3" fill="none" stroke="#334155" stroke-width="1.5"/>
  <text x="322" y="720" font-family="Arial, sans-serif" font-size="13" font-weight="600" fill="#64748b">#HL-2840</text>
  <rect x="322" y="727" width="72" height="16" rx="3" fill="#0d2820"/>
  <text x="328" y="739" font-family="Arial, sans-serif" font-size="10" fill="#10b981">✓ Delivered</text>
  <text x="460" y="717" font-family="Arial, sans-serif" font-size="13" font-weight="600" fill="#64748b">Minneapolis, MN</text>
  <text x="460" y="734" font-family="Arial, sans-serif" font-size="11" fill="#64748b">→</text>
  <text x="476" y="734" font-family="Arial, sans-serif" font-size="11" fill="#64748b">St. Louis, MO</text>
  <text x="460" y="748" font-family="Arial, sans-serif" font-size="10" fill="#64748b">440 mi</text>
  <text x="720" y="720" font-family="Arial, sans-serif" font-size="13" fill="#64748b">Target Corporation</text>
  <text x="720" y="738" font-family="Arial, sans-serif" font-size="11" fill="#64748b">REF: TGT-88230</text>
  <rect x="950" y="711" width="92" height="22" rx="11" fill="#0d2820" stroke="#10b981" stroke-width="1"/>
  <circle cx="963" cy="722" r="4" fill="#10b981"/>
  <text x="970" y="726" font-family="Arial, sans-serif" font-size="11" font-weight="600" fill="#10b981">Completed</text>
  <text x="1090" y="720" font-family="Arial, sans-serif" font-size="13" fill="#64748b">Retail Goods</text>
  <text x="1090" y="738" font-family="Arial, sans-serif" font-size="11" fill="#64748b">Dry Van</text>
  <text x="1240" y="722" font-family="Arial, sans-serif" font-size="13" fill="#64748b">24,800</text>
  <text x="1240" y="738" font-family="Arial, sans-serif" font-size="11" fill="#64748b">lbs</text>
  <text x="1360" y="722" font-family="Arial, sans-serif" font-size="15" font-weight="700" fill="#64748b">$860</text>
  <text x="1360" y="739" font-family="Arial, sans-serif" font-size="10" fill="#10b981">Paid ✓</text>
  <text x="1510" y="720" font-family="Arial, sans-serif" font-size="13" fill="#64748b">Apr 14, 2026</text>
  <text x="1510" y="738" font-family="Arial, sans-serif" font-size="11" fill="#10b981">Early +1h</text>
  <rect x="1796" y="711" width="50" height="22" rx="5" fill="#1a2744" stroke="#334155" stroke-width="1"/>
  <text x="1807" y="726" font-family="Arial, sans-serif" font-size="11" fill="#64748b">View</text>

  <!-- ROW 9 — Cancelled/Rejected -->
  <rect x="290" y="758" width="1570" height="66" fill="#0a1426" opacity="0.4"/>
  <rect x="290" y="758" width="4" height="66" fill="#ef4444"/>
  <line x1="290" y1="824" x2="1860" y2="824" stroke="#1e3a5f" stroke-width="1"/>
  <rect x="302" y="783" width="14" height="14" rx="3" fill="none" stroke="#334155" stroke-width="1.5"/>
  <text x="322" y="786" font-family="Arial, sans-serif" font-size="13" font-weight="600" fill="#64748b">#HL-2839</text>
  <rect x="322" y="793" width="66" height="16" rx="3" fill="#200a0a"/>
  <text x="328" y="805" font-family="Arial, sans-serif" font-size="10" fill="#ef4444">Cancelled</text>
  <text x="460" y="783" font-family="Arial, sans-serif" font-size="13" font-weight="600" fill="#64748b" opacity="0.6">Boston, MA</text>
  <text x="460" y="800" font-family="Arial, sans-serif" font-size="11" fill="#64748b">→</text>
  <text x="476" y="800" font-family="Arial, sans-serif" font-size="11" fill="#64748b" opacity="0.6">Philadelphia, PA</text>
  <text x="460" y="814" font-family="Arial, sans-serif" font-size="10" fill="#64748b">308 mi</text>
  <text x="720" y="786" font-family="Arial, sans-serif" font-size="13" fill="#64748b" opacity="0.6">Liberty Shipping Co.</text>
  <text x="720" y="804" font-family="Arial, sans-serif" font-size="11" fill="#64748b">REF: LIB-44098</text>
  <rect x="950" y="777" width="88" height="22" rx="11" fill="#200a0a" stroke="#ef4444" stroke-width="1"/>
  <circle cx="963" cy="788" r="4" fill="#ef4444"/>
  <text x="970" y="792" font-family="Arial, sans-serif" font-size="11" font-weight="600" fill="#ef4444">Cancelled</text>
  <text x="1090" y="786" font-family="Arial, sans-serif" font-size="13" fill="#64748b" opacity="0.6">Steel Coils</text>
  <text x="1090" y="804" font-family="Arial, sans-serif" font-size="11" fill="#64748b">Flatbed</text>
  <text x="1240" y="788" font-family="Arial, sans-serif" font-size="13" fill="#64748b" opacity="0.6">40,000</text>
  <text x="1240" y="804" font-family="Arial, sans-serif" font-size="11" fill="#64748b">lbs</text>
  <text x="1360" y="788" font-family="Arial, sans-serif" font-size="15" font-weight="700" fill="#64748b" opacity="0.5">$1,020</text>
  <text x="1360" y="805" font-family="Arial, sans-serif" font-size="10" fill="#ef4444">Voided</text>
  <text x="1510" y="786" font-family="Arial, sans-serif" font-size="13" fill="#64748b" opacity="0.6">Apr 13, 2026</text>
  <text x="1510" y="804" font-family="Arial, sans-serif" font-size="11" fill="#ef4444">Shipper cancel</text>
  <rect x="1796" y="777" width="50" height="22" rx="5" fill="#1a2744" stroke="#334155" stroke-width="1"/>
  <text x="1800" y="792" font-family="Arial, sans-serif" font-size="11" fill="#64748b">Detail</text>

  <!-- ROW 10 — Active / dispatched -->
  <rect x="290" y="824" width="1570" height="66" fill="transparent"/>
  <rect x="290" y="824" width="4" height="66" fill="#3b82f6"/>
  <line x1="290" y1="890" x2="1860" y2="890" stroke="#1e3a5f" stroke-width="1"/>
  <rect x="302" y="849" width="14" height="14" rx="3" fill="none" stroke="#334155" stroke-width="1.5"/>
  <text x="322" y="852" font-family="Arial, sans-serif" font-size="13" font-weight="600" fill="#94a3b8">#HL-2838</text>
  <rect x="322" y="859" width="72" height="16" rx="3" fill="#0a1f3a"/>
  <text x="328" y="871" font-family="Arial, sans-serif" font-size="10" fill="#3b82f6">Dispatched</text>
  <text x="460" y="849" font-family="Arial, sans-serif" font-size="13" font-weight="600" fill="#f0f6ff">Charlotte, NC</text>
  <text x="460" y="866" font-family="Arial, sans-serif" font-size="11" fill="#64748b">→</text>
  <text x="476" y="866" font-family="Arial, sans-serif" font-size="11" fill="#94a3b8">Washington, DC</text>
  <text x="460" y="880" font-family="Arial, sans-serif" font-size="10" fill="#64748b">394 mi total</text>
  <text x="720" y="852" font-family="Arial, sans-serif" font-size="13" fill="#f0f6ff">Bank of America</text>
  <text x="720" y="870" font-family="Arial, sans-serif" font-size="11" fill="#64748b">REF: BOA-71820</text>
  <rect x="950" y="843" width="80" height="22" rx="11" fill="#0a2035" stroke="#3b82f6" stroke-width="1"/>
  <circle cx="963" cy="854" r="4" fill="#3b82f6"/>
  <text x="970" y="858" font-family="Arial, sans-serif" font-size="11" font-weight="600" fill="#60a5fa">Active</text>
  <text x="1090" y="852" font-family="Arial, sans-serif" font-size="13" fill="#f0f6ff">Documents</text>
  <text x="1090" y="870" font-family="Arial, sans-serif" font-size="11" fill="#64748b">Secured Transit</text>
  <text x="1240" y="854" font-family="Arial, sans-serif" font-size="13" fill="#f0f6ff">4,200</text>
  <text x="1240" y="870" font-family="Arial, sans-serif" font-size="11" fill="#64748b">lbs</text>
  <text x="1360" y="854" font-family="Arial, sans-serif" font-size="15" font-weight="700" fill="#f0f6ff">$740</text>
  <text x="1360" y="871" font-family="Arial, sans-serif" font-size="10" fill="#64748b">Flat rate</text>
  <text x="1510" y="852" font-family="Arial, sans-serif" font-size="13" fill="#f0f6ff">Apr 17, 2026</text>
  <text x="1510" y="870" font-family="Arial, sans-serif" font-size="11" fill="#f59e0b">Today</text>
  <rect x="1796" y="843" width="50" height="22" rx="5" fill="#1a2744" stroke="#334155" stroke-width="1"/>
  <text x="1807" y="858" font-family="Arial, sans-serif" font-size="11" fill="#94a3b8">View</text>

  <!-- ======= PAGINATION & FOOTER ======= -->
  <rect x="290" y="892" width="1570" height="98" rx="12" fill="#0d1f3c"/>
  <rect x="290" y="892" width="1570" height="2" fill="#1e3a5f"/>

  <!-- Results info -->
  <text x="314" y="925" font-family="Arial, sans-serif" font-size="13" fill="#64748b">Showing <tspan fill="#f0f6ff">1–10</tspan> of <tspan fill="#f0f6ff">24</tspan> loads</text>
  <text x="314" y="948" font-family="Arial, sans-serif" font-size="12" fill="#64748b">Total value on this page: <tspan fill="#10b981" font-weight="700">$12,030</tspan>  •  Avg per load: <tspan fill="#f0f6ff">$1,203</tspan></text>

  <!-- Rows per page -->
  <text x="900" y="928" font-family="Arial, sans-serif" font-size="12" fill="#64748b">Rows per page:</text>
  <rect x="1004" y="912" width="56" height="26" rx="6" fill="#1a2744" stroke="#2a3f6a" stroke-width="1"/>
  <text x="1014" y="930" font-family="Arial, sans-serif" font-size="12" fill="#f0f6ff">10  ▾</text>

  <!-- Pagination buttons -->
  <rect x="1530" y="912" width="36" height="30" rx="6" fill="#1a2744" stroke="#2a3f6a" stroke-width="1"/>
  <text x="1541" y="932" font-family="Arial, sans-serif" font-size="14" fill="#64748b">«</text>
  <rect x="1574" y="912" width="36" height="30" rx="6" fill="#1a2744" stroke="#2a3f6a" stroke-width="1"/>
  <text x="1585" y="932" font-family="Arial, sans-serif" font-size="14" fill="#64748b">‹</text>

  <rect x="1618" y="912" width="36" height="30" rx="6" fill="#3b82f6"/>
  <text x="1630" y="932" font-family="Arial, sans-serif" font-size="13" font-weight="600" fill="white">1</text>
  <rect x="1662" y="912" width="36" height="30" rx="6" fill="#1a2744" stroke="#2a3f6a" stroke-width="1"/>
  <text x="1674" y="932" font-family="Arial, sans-serif" font-size="13" fill="#64748b">2</text>
  <rect x="1706" y="912" width="36" height="30" rx="6" fill="#1a2744" stroke="#2a3f6a" stroke-width="1"/>
  <text x="1718" y="932" font-family="Arial, sans-serif" font-size="13" fill="#64748b">3</text>

  <rect x="1750" y="912" width="36" height="30" rx="6" fill="#1a2744" stroke="#2a3f6a" stroke-width="1"/>
  <text x="1761" y="932" font-family="Arial, sans-serif" font-size="14" fill="#64748b">›</text>
  <rect x="1794" y="912" width="36" height="30" rx="6" fill="#1a2744" stroke="#2a3f6a" stroke-width="1"/>
  <text x="1805" y="932" font-family="Arial, sans-serif" font-size="14" fill="#64748b">»</text>

  <!-- ======= CHROMEBOOK KEYBOARD ======= -->
  <rect x="0" y="1090" width="1920" height="110" fill="#1a1a1a"/>
  <rect x="0" y="1090" width="1920" height="6" fill="#111111"/>
  <rect x="100" y="1106" width="1720" height="78" rx="8" fill="#222222"/>
  <!-- Function key row -->
  <g fill="#2e2e2e" stroke="#181818" stroke-width="0.5">
    <rect x="118" y="1112" width="38" height="20" rx="3"/>
    <rect x="166" y="1112" width="28" height="20" rx="3"/>
    <rect x="200" y="1112" width="28" height="20" rx="3"/>
    <rect x="234" y="1112" width="28" height="20" rx="3"/>
    <rect x="268" y="1112" width="28" height="20" rx="3"/>
    <rect x="316" y="1112" width="28" height="20" rx="3"/>
    <rect x="350" y="1112" width="28" height="20" rx="3"/>
    <rect x="384" y="1112" width="28" height="20" rx="3"/>
    <rect x="418" y="1112" width="28" height="20" rx="3"/>
    <rect x="466" y="1112" width="28" height="20" rx="3"/>
    <rect x="500" y="1112" width="28" height="20" rx="3"/>
    <rect x="534" y="1112" width="28" height="20" rx="3"/>
    <rect x="568" y="1112" width="28" height="20" rx="3"/>
    <rect x="616" y="1112" width="28" height="20" rx="3"/>
    <rect x="650" y="1112" width="28" height="20" rx="3"/>
    <rect x="684" y="1112" width="28" height="20" rx="3"/>
    <rect x="718" y="1112" width="28" height="20" rx="3"/>
    <rect x="752" y="1112" width="28" height="20" rx="3"/>
    <rect x="786" y="1112" width="28" height="20" rx="3"/>
    <rect x="820" y="1112" width="38" height="20" rx="3"/>
  </g>
  <!-- Number row -->
  <g fill="#2e2e2e" stroke="#181818" stroke-width="0.5">
    <rect x="118" y="1138" width="38" height="24" rx="3"/>
    <rect x="162" y="1138" width="34" height="24" rx="3"/>
    <rect x="202" y="1138" width="34" height="24" rx="3"/>
    <rect x="242" y="1138" width="34" height="24" rx="3"/>
    <rect x="282" y="1138" width="34" height="24" rx="3"/>
    <rect x="322" y="1138" width="34" height="24" rx="3"/>
    <rect x="362" y="1138" width="34" height="24" rx="3"/>
    <rect x="402" y="1138" width="34" height="24" rx="3"/>
    <rect x="442" y="1138" width="34" height="24" rx="3"/>
    <rect x="482" y="1138" width="34" height="24" rx="3"/>
    <rect x="522" y="1138" width="34" height="24" rx="3"/>
    <rect x="562" y="1138" width="34" height="24" rx="3"/>
    <rect x="602" y="1138" width="34" height="24" rx="3"/>
    <rect x="642" y="1138" width="34" height="24" rx="3"/>
    <rect x="682" y="1138" width="50" height="24" rx="3"/>
    <rect x="742" y="1138" width="116" height="24" rx="3"/>
  </g>
  <!-- Trackpad -->
  <rect x="760" y="1120" width="200" height="56" rx="8" fill="#282828" stroke="#333333" stroke-width="1"/>

  <!-- Webcam dot -->
  <circle cx="960" cy="40" r="6" fill="#333333"/>
  <circle cx="960" cy="40" r="3" fill="#222222"/>
</svg>