<svg xmlns="http://www.w3.org/2000/svg" viewBox="0 0 2560 1440" width="2560" height="1440">
  <defs>
    <!-- Background gradient - dark night road scene -->
    <linearGradient id="skyGrad" x1="0" y1="0" x2="0" y2="1">
      <stop offset="0%" stop-color="#0a0e1a"/>
      <stop offset="60%" stop-color="#0d1526"/>
      <stop offset="100%" stop-color="#1a1f35"/>
    </linearGradient>

    <!-- Road perspective gradient -->
    <linearGradient id="roadGrad" x1="0" y1="0" x2="0" y2="1">
      <stop offset="0%" stop-color="#1a1a2a"/>
      <stop offset="100%" stop-color="#2a2a3e"/>
    </linearGradient>

    <!-- HUD panel blur simulation -->
    <filter id="hudBlur">
      <feGaussianBlur stdDeviation="0.5" result="blur"/>
      <feComposite in="SourceGraphic" in2="blur" operator="over"/>
    </filter>

    <!-- Glow filter for AR elements -->
    <filter id="arGlow" x="-20%" y="-20%" width="140%" height="140%">
      <feGaussianBlur stdDeviation="8" result="coloredBlur"/>
      <feMerge>
        <feMergeNode in="coloredBlur"/>
        <feMergeNode in="SourceGraphic"/>
      </feMerge>
    </filter>

    <!-- Strong glow for arrow -->
    <filter id="arrowGlow" x="-30%" y="-30%" width="160%" height="160%">
      <feGaussianBlur stdDeviation="15" result="coloredBlur"/>
      <feMerge>
        <feMergeNode in="coloredBlur"/>
        <feMergeNode in="SourceGraphic"/>
      </feMerge>
    </filter>

    <!-- Panel glow -->
    <filter id="panelGlow" x="-5%" y="-5%" width="110%" height="110%">
      <feGaussianBlur stdDeviation="4" result="coloredBlur"/>
      <feMerge>
        <feMergeNode in="coloredBlur"/>
        <feMergeNode in="SourceGraphic"/>
      </feMerge>
    </filter>

    <!-- HUD panel gradient -->
    <linearGradient id="hudPanelGrad" x1="0" y1="0" x2="0" y2="1">
      <stop offset="0%" stop-color="#00d4ff" stop-opacity="0.15"/>
      <stop offset="100%" stop-color="#0066aa" stop-opacity="0.08"/>
    </linearGradient>

    <!-- Speed panel gradient -->
    <linearGradient id="speedGrad" x1="0" y1="0" x2="1" y2="1">
      <stop offset="0%" stop-color="#00d4ff" stop-opacity="0.2"/>
      <stop offset="100%" stop-color="#003366" stop-opacity="0.1"/>
    </linearGradient>

    <!-- Road lane lines -->
    <pattern id="dashPattern" x="0" y="0" width="80" height="1" patternUnits="userSpaceOnUse">
      <rect x="0" y="0" width="50" height="1" fill="#ffffff" opacity="0.6"/>
    </pattern>

    <!-- Stars pattern -->
    <pattern id="stars" x="0" y="0" width="200" height="200" patternUnits="userSpaceOnUse">
      <circle cx="20" cy="30" r="1" fill="white" opacity="0.4"/>
      <circle cx="80" cy="10" r="0.8" fill="white" opacity="0.5"/>
      <circle cx="150" cy="50" r="1.2" fill="white" opacity="0.3"/>
      <circle cx="60" cy="90" r="0.7" fill="white" opacity="0.6"/>
      <circle cx="180" cy="70" r="1" fill="white" opacity="0.4"/>
      <circle cx="30" cy="150" r="0.8" fill="white" opacity="0.5"/>
      <circle cx="120" cy="130" r="1" fill="white" opacity="0.3"/>
      <circle cx="190" cy="160" r="1.2" fill="white" opacity="0.4"/>
      <circle cx="10" cy="180" r="0.9" fill="white" opacity="0.5"/>
      <circle cx="100" cy="180" r="0.7" fill="white" opacity="0.3"/>
    </pattern>

    <!-- AR line gradient -->
    <linearGradient id="arLineGrad" x1="0" y1="0" x2="0" y2="1">
      <stop offset="0%" stop-color="#00d4ff" stop-opacity="0.9"/>
      <stop offset="100%" stop-color="#00d4ff" stop-opacity="0.1"/>
    </linearGradient>

    <!-- Windshield frame gradient -->
    <linearGradient id="windshieldGrad" x1="0" y1="0" x2="0" y2="1">
      <stop offset="0%" stop-color="#1a1a1a"/>
      <stop offset="100%" stop-color="#0d0d0d"/>
    </linearGradient>

    <!-- Road surface -->
    <linearGradient id="roadSurface" x1="0" y1="0" x2="0" y2="1">
      <stop offset="0%" stop-color="#111118"/>
      <stop offset="100%" stop-color="#222230"/>
    </linearGradient>

    <!-- Horizon glow -->
    <radialGradient id="horizonGlow" cx="50%" cy="0%" r="60%" fx="50%" fy="0%">
      <stop offset="0%" stop-color="#00aaff" stop-opacity="0.15"/>
      <stop offset="100%" stop-color="#00aaff" stop-opacity="0"/>
    </radialGradient>

    <!-- Load card gradient -->
    <linearGradient id="loadCardGrad" x1="0" y1="0" x2="1" y2="1">
      <stop offset="0%" stop-color="#0a1628" stop-opacity="0.95"/>
      <stop offset="100%" stop-color="#0d1e38" stop-opacity="0.9"/>
    </linearGradient>

    <!-- Clip path for windshield area -->
    <clipPath id="windshieldClip">
      <path d="M 200 150 Q 1280 50 2360 150 L 2360 1200 Q 1280 1350 200 1200 Z"/>
    </clipPath>

    <!-- HUD scan line effect -->
    <pattern id="scanlines" x="0" y="0" width="1" height="4" patternUnits="userSpaceOnUse">
      <rect x="0" y="0" width="1" height="1" fill="rgba(0,212,255,0.03)"/>
    </pattern>
  </defs>

  <!-- ===== BACKGROUND: Night Sky ===== -->
  <rect width="2560" height="1440" fill="url(#skyGrad)"/>
  <rect width="2560" height="700" fill="url(#stars)" opacity="0.8"/>

  <!-- ===== TRUCK CABIN FRAME (windshield border) ===== -->
  <!-- Dashboard bottom bar -->
  <rect x="0" y="1200" width="2560" height="240" fill="url(#windshieldGrad)"/>
  <!-- Left pillar -->
  <path d="M 0 0 L 0 1440 L 220 1440 L 300 0 Z" fill="#111115"/>
  <!-- Right pillar -->
  <path d="M 2560 0 L 2560 1440 L 2340 1440 L 2260 0 Z" fill="#111115"/>
  <!-- Top frame -->
  <rect x="0" y="0" width="2560" height="100" fill="#0d0d12"/>

  <!-- Dashboard details -->
  <rect x="220" y="1205" width="2120" height="3" fill="#00d4ff" opacity="0.4"/>
  <!-- Dashboard instruments -->
  <circle cx="500" cy="1320" r="60" fill="none" stroke="#00d4ff" stroke-width="2" opacity="0.3"/>
  <circle cx="500" cy="1320" r="50" fill="none" stroke="#00d4ff" stroke-width="1" opacity="0.2"/>
  <text x="500" y="1315" text-anchor="middle" font-family="Arial" font-size="18" fill="#00d4ff" opacity="0.5">RPM</text>
  <text x="500" y="1335" text-anchor="middle" font-family="Arial" font-size="22" fill="#ffffff" opacity="0.6">2200</text>

  <circle cx="680" cy="1320" r="60" fill="none" stroke="#00d4ff" stroke-width="2" opacity="0.3"/>
  <text x="680" y="1315" text-anchor="middle" font-family="Arial" font-size="18" fill="#00d4ff" opacity="0.5">TEMP</text>
  <text x="680" y="1335" text-anchor="middle" font-family="Arial" font-size="22" fill="#ffffff" opacity="0.6">195°F</text>

  <!-- Steering wheel hint -->
  <ellipse cx="1280" cy="1380" rx="200" ry="60" fill="none" stroke="#333340" stroke-width="20" opacity="0.8"/>
  <ellipse cx="1280" cy="1380" rx="200" ry="60" fill="none" stroke="#444450" stroke-width="4" opacity="0.5"/>

  <!-- ===== ROAD SCENE (through windshield) ===== -->
  <!-- Road surface - perspective -->
  <path d="M 220 1200 L 800 700 L 1760 700 L 2340 1200 Z" fill="url(#roadSurface)"/>

  <!-- Horizon glow overlay -->
  <rect x="220" y="100" width="2120" height="700" fill="url(#horizonGlow)"/>

  <!-- Road shoulder lines -->
  <line x1="800" y1="700" x2="220" y2="1200" stroke="#cc8800" stroke-width="6" opacity="0.7"/>
  <line x1="1760" y1="700" x2="2340" y2="1200" stroke="#cc8800" stroke-width="6" opacity="0.7"/>

  <!-- Road center dashes (perspective) -->
  <line x1="1280" y1="700" x2="1280" y2="1200" stroke="none"/>
  <!-- Center lane dashes -->
  <path d="M 1280 720 L 1280 760" stroke="white" stroke-width="5" stroke-dasharray="30,40" opacity="0.5"/>
  <path d="M 1270 790 L 1290 790 M 1260 860 L 1300 860 M 1245 940 L 1315 940 M 1225 1020 L 1335 1020 M 1200 1100 L 1360 1100" stroke="white" stroke-width="5" opacity="0.4"/>
  <!-- Right lane divider -->
  <path d="M 1520 720 L 1650 1200" stroke="white" stroke-width="4" stroke-dasharray="25,35" opacity="0.35"/>
  <!-- Left lane divider -->
  <path d="M 1040 720 L 910 1200" stroke="white" stroke-width="4" stroke-dasharray="25,35" opacity="0.35"/>

  <!-- Distant city lights on horizon -->
  <rect x="850" y="690" width="860" height="20" fill="none"/>
  <circle cx="900" cy="695" r="3" fill="#ffcc44" opacity="0.6"/>
  <circle cx="950" cy="692" r="2" fill="#ffcc44" opacity="0.5"/>
  <circle cx="1000" cy="696" r="4" fill="#ffcc44" opacity="0.4"/>
  <circle cx="1100" cy="693" r="2" fill="#ffaa22" opacity="0.6"/>
  <circle cx="1200" cy="697" r="3" fill="#ffcc44" opacity="0.5"/>
  <circle cx="1350" cy="694" r="2" fill="#ffcc44" opacity="0.4"/>
  <circle cx="1450" cy="696" r="4" fill="#ffaa22" opacity="0.6"/>
  <circle cx="1550" cy="692" r="2" fill="#ffcc44" opacity="0.5"/>
  <circle cx="1620" cy="695" r="3" fill="#ffcc44" opacity="0.4"/>

  <!-- HUD scan lines overlay -->
  <rect x="220" y="100" width="2120" height="1100" fill="url(#scanlines)" opacity="0.5"/>

  <!-- ===== AR NAVIGATION PATH ON ROAD ===== -->
  <!-- AR path on road surface - glowing blue trail -->
  <path d="M 1160 1190 L 1100 940 L 1150 810 L 1200 760 L 1250 735 L 1280 725"
        stroke="url(#arLineGrad)" stroke-width="40" fill="none" opacity="0.25" stroke-linecap="round"/>
  <path d="M 1400 1190 L 1460 940 L 1410 810 L 1360 760 L 1310 735 L 1280 725"
        stroke="url(#arLineGrad)" stroke-width="40" fill="none" opacity="0.25" stroke-linecap="round"/>

  <!-- AR path edges -->
  <path d="M 1160 1190 L 1100 940 L 1150 810 L 1200 760 L 1250 735 L 1280 725"
        stroke="#00d4ff" stroke-width="3" fill="none" opacity="0.8" stroke-linecap="round"/>
  <path d="M 1400 1190 L 1460 940 L 1410 810 L 1360 760 L 1310 735 L 1280 725"
        stroke="#00d4ff" stroke-width="3" fill="none" opacity="0.8" stroke-linecap="round"/>

  <!-- ===== 3D AR NAVIGATION ARROW ===== -->
  <!-- Arrow shadow/depth -->
  <path d="M 1360 810 L 1280 680 L 1200 810 L 1240 810 L 1240 890 L 1320 890 L 1320 810 Z"
        fill="#00aadd" opacity="0.2" transform="translate(8, 8)" filter="url(#arrowGlow)"/>
  <!-- Main arrow body -->
  <path d="M 1360 810 L 1280 680 L 1200 810 L 1240 810 L 1240 890 L 1320 890 L 1320 810 Z"
        fill="#00d4ff" opacity="0.85" filter="url(#arrowGlow)"/>
  <!-- Arrow highlight -->
  <path d="M 1280 690 L 1210 810 L 1240 810 L 1240 880 L 1280 880 L 1280 690 Z"
        fill="#44eeff" opacity="0.4"/>
  <!-- Arrow border -->
  <path d="M 1360 810 L 1280 680 L 1200 810 L 1240 810 L 1240 890 L 1320 890 L 1320 810 Z"
        fill="none" stroke="#00ffff" stroke-width="2" opacity="0.9"/>

  <!-- Distance indicator below arrow -->
  <rect x="1215" y="905" width="130" height="36" rx="8" fill="#001833" fill-opacity="0.8" stroke="#00d4ff" stroke-width="1" stroke-opacity="0.6"/>
  <text x="1280" y="928" text-anchor="middle" font-family="'Arial', sans-serif" font-size="20" font-weight="bold" fill="#00d4ff">STRAIGHT</text>

  <!-- ===== AR DISTANCE MARKERS ON ROAD ===== -->
  <!-- 1 mile marker -->
  <ellipse cx="1280" cy="1050" rx="120" ry="12" fill="#00d4ff" opacity="0.1"/>
  <line x1="1160" y1="1050" x2="1400" y2="1050" stroke="#00d4ff" stroke-width="2" opacity="0.5"/>
  <rect x="1230" y="1035" width="100" height="28" rx="4" fill="#001020" fill-opacity="0.7" stroke="#00d4ff" stroke-width="1" stroke-opacity="0.4"/>
  <text x="1280" y="1053" text-anchor="middle" font-family="Arial" font-size="17" fill="#00d4ff" opacity="0.8">1 MILE</text>

  <!-- 0.5 mile marker -->
  <ellipse cx="1280" cy="870" rx="80" ry="8" fill="#00d4ff" opacity="0.08"/>
  <line x1="1200" y1="870" x2="1360" y2="870" stroke="#00d4ff" stroke-width="1.5" opacity="0.4"/>
  <rect x="1245" y="856" width="70" height="24" rx="4" fill="#001020" fill-opacity="0.7" stroke="#00d4ff" stroke-width="1" stroke-opacity="0.3"/>
  <text x="1280" y="873" text-anchor="middle" font-family="Arial" font-size="14" fill="#00d4ff" opacity="0.7">0.5 MI</text>

  <!-- ===== HUD PANELS ===== -->

  <!-- ===== LEFT TOP: SPEED PANEL ===== -->
  <rect x="260" y="130" width="340" height="220" rx="16" fill="url(#hudPanelGrad)" stroke="#00d4ff" stroke-width="1.5" stroke-opacity="0.6" filter="url(#panelGlow)"/>
  <rect x="260" y="130" width="340" height="220" rx="16" fill="url(#scanlines)" opacity="0.3"/>
  <!-- Speed panel top line -->
  <rect x="260" y="130" width="340" height="3" rx="2" fill="#00d4ff" opacity="0.7"/>
  <!-- Speed label -->
  <text x="430" y="165" text-anchor="middle" font-family="'Arial', sans-serif" font-size="18" fill="#00d4ff" opacity="0.7" letter-spacing="3">SPEED</text>
  <!-- Speed value -->
  <text x="430" y="245" text-anchor="middle" font-family="'Arial Black', sans-serif" font-size="80" font-weight="900" fill="#ffffff" opacity="0.95">65</text>
  <!-- MPH label -->
  <text x="430" y="280" text-anchor="middle" font-family="'Arial', sans-serif" font-size="22" fill="#00d4ff" opacity="0.8" letter-spacing="4">MPH</text>
  <!-- Speed limit indicator -->
  <circle cx="560" cy="155" r="22" fill="#cc2200" opacity="0.85"/>
  <circle cx="560" cy="155" r="22" fill="none" stroke="white" stroke-width="3"/>
  <text x="560" y="162" text-anchor="middle" font-family="Arial Black" font-size="16" font-weight="900" fill="white">70</text>

  <!-- ===== LEFT BOTTOM: FUEL & WEATHER ===== -->
  <rect x="260" y="380" width="340" height="190" rx="16" fill="url(#hudPanelGrad)" stroke="#00d4ff" stroke-width="1.5" stroke-opacity="0.5" filter="url(#panelGlow)"/>
  <rect x="260" y="380" width="340" height="3" rx="2" fill="#00d4ff" opacity="0.6"/>
  <!-- Fuel section -->
  <text x="290" y="415" font-family="Arial" font-size="16" fill="#00d4ff" opacity="0.7" letter-spacing="2">FUEL</text>
  <!-- Fuel bar background -->
  <rect x="290" y="428" width="200" height="14" rx="7" fill="#001830" stroke="#00d4ff" stroke-width="1" stroke-opacity="0.3"/>
  <!-- Fuel bar fill (68%) -->
  <rect x="290" y="428" width="136" height="14" rx="7" fill="#00d4ff" opacity="0.8"/>
  <text x="505" y="441" font-family="Arial" font-size="16" fill="#00d4ff" opacity="0.8">68%</text>
  <!-- Miles remaining -->
  <text x="290" y="470" font-family="Arial" font-size="15" fill="#aaccee" opacity="0.7">Range: 312 miles</text>

  <!-- Divider -->
  <line x1="290" y1="487" x2="570" y2="487" stroke="#00d4ff" stroke-width="1" stroke-opacity="0.3"/>

  <!-- Weather section -->
  <text x="290" y="513" font-family="Arial" font-size="28" fill="#ffdd44">&#9728;</text>
  <text x="325" y="516" font-family="Arial" font-size="20" font-weight="bold" fill="#ffffff" opacity="0.9">72°F</text>
  <text x="395" y="516" font-family="Arial" font-size="16" fill="#aaccee" opacity="0.7">Sunny</text>
  <text x="290" y="548" font-family="Arial" font-size="15" fill="#aaccee" opacity="0.6">Wind: 8 mph NW</text>

  <!-- ===== CENTER TOP: NEXT TURN PANEL ===== -->
  <rect x="890" y="115" width="800" height="170" rx="18" fill="url(#hudPanelGrad)" stroke="#00d4ff" stroke-width="1.5" stroke-opacity="0.7" filter="url(#panelGlow)"/>
  <rect x="890" y="115" width="800" height="3" rx="2" fill="#00d4ff" opacity="0.8"/>

  <!-- Navigation label -->
  <text x="1290" y="155" text-anchor="middle" font-family="Arial" font-size="16" fill="#00d4ff" opacity="0.7" letter-spacing="3">NAVIGATION</text>

  <!-- Turn arrow icon -->
  <path d="M 940 205 L 970 175 L 1000 205 L 985 205 L 985 225 L 955 225 L 955 205 Z" fill="#00d4ff" opacity="0.9"/>
  <path d="M 1000 215 L 1020 215 L 1020 205 L 1040 220 L 1020 235 L 1020 225 L 1000 225 Z" fill="#00d4ff" opacity="0.9"/>

  <!-- Next turn info -->
  <text x="1070" y="195" font-family="Arial Black" font-size="20" fill="#ffffff" opacity="0.9">TURN RIGHT</text>
  <text x="1070" y="225" font-family="Arial" font-size="32" font-weight="bold" fill="#00d4ff">12 miles</text>
  <text x="1070" y="258" font-family="Arial" font-size="16" fill="#aaccee" opacity="0.7">onto I-80 E toward New York</text>

  <!-- ETA section -->
  <line x1="1490" y1="145" x2="1490" y2="270" stroke="#00d4ff" stroke-width="1" stroke-opacity="0.3"/>
  <text x="1545" y="165" font-family="Arial" font-size="14" fill="#00d4ff" opacity="0.6" letter-spacing="2">ARRIVAL</text>
  <text x="1545" y="210" font-family="Arial Black" font-size="42" font-weight="900" fill="#ffffff">14:30</text>
  <text x="1545" y="238" font-family="Arial" font-size="15" fill="#aaccee" opacity="0.7">~3h 45min</text>
  <text x="1545" y="258" font-family="Arial" font-size="14" fill="#aaccee" opacity="0.6">318 miles remaining</text>

  <!-- ===== ACTIVE LOAD CARD (Center bottom) ===== -->
  <rect x="840" y="1080" width="880" height="130" rx="16" fill="url(#loadCardGrad)" stroke="#00d4ff" stroke-width="2" stroke-opacity="0.8" filter="url(#panelGlow)"/>
  <rect x="840" y="1080" width="880" height="3" rx="2" fill="#00d4ff" opacity="0.9"/>

  <!-- Active indicator dot -->
  <circle cx="870" cy="1113" r="7" fill="#00ff88" opacity="0.9" filter="url(#arGlow)"/>
  <text x="890" y="1118" font-family="Arial" font-size="14" fill="#00ff88" opacity="0.9" letter-spacing="2">ACTIVE LOAD</text>

  <!-- Load number -->
  <text x="870" y="1155" font-family="Arial Black" font-size="24" font-weight="900" fill="#ffffff" opacity="0.95">Load #4521</text>

  <!-- Separator -->
  <line x1="1050" y1="1130" x2="1050" y2="1190" stroke="#00d4ff" stroke-width="1" stroke-opacity="0.3"/>

  <!-- Route -->
  <text x="1080" y="1118" font-family="Arial" font-size="15" fill="#aaccee" opacity="0.7">ROUTE</text>
  <text x="1080" y="1148" font-family="Arial Black" font-size="20" fill="#ffffff" opacity="0.95">Chicago</text>
  <path d="M 1220 1148 L 1270 1148" stroke="#00d4ff" stroke-width="2" marker-end="url(#arrowMarker)"/>
  <text x="1280" y="1148" font-family="Arial" font-size="16" fill="#00d4ff">&#8594;</text>
  <text x="1305" y="1148" font-family="Arial Black" font-size="20" fill="#ffffff" opacity="0.95">New York</text>

  <!-- Divider -->
  <line x1="1500" y1="1130" x2="1500" y2="1190" stroke="#00d4ff" stroke-width="1" stroke-opacity="0.3"/>

  <!-- Pay -->
  <text x="1530" y="1118" font-family="Arial" font-size="15" fill="#aaccee" opacity="0.7">LOAD PAY</text>
  <text x="1530" y="1158" font-family="Arial Black" font-size="32" font-weight="900" fill="#00ff88">$1,240</text>
  <text x="1530" y="1185" font-family="Arial" font-size="14" fill="#aaccee" opacity="0.6">$3.90/mile</text>

  <!-- Weight/delivery -->
  <line x1="1700" y1="1130" x2="1700" y2="1190" stroke="#00d4ff" stroke-width="1" stroke-opacity="0.3"/>
  <text x="1725" y="1118" font-family="Arial" font-size="15" fill="#aaccee" opacity="0.7">WEIGHT</text>
  <text x="1725" y="1148" font-family="Arial Black" font-size="20" fill="#ffffff" opacity="0.9">38,200 lbs</text>
  <text x="1725" y="1175" font-family="Arial" font-size="14" fill="#aaccee" opacity="0.6">Dry Freight</text>

  <!-- ===== RIGHT PANELS ===== -->

  <!-- ===== RIGHT TOP: ELD / Hours of Service ===== -->
  <rect x="1960" y="130" width="340" height="200" rx="16" fill="url(#hudPanelGrad)" stroke="#00d4ff" stroke-width="1.5" stroke-opacity="0.5" filter="url(#panelGlow)"/>
  <rect x="1960" y="130" width="340" height="3" rx="2" fill="#00d4ff" opacity="0.6"/>
  <text x="2130" y="165" text-anchor="middle" font-family="Arial" font-size="16" fill="#00d4ff" opacity="0.7" letter-spacing="2">HOURS OF SERVICE</text>

  <!-- Drive time remaining -->
  <text x="1990" y="200" font-family="Arial" font-size="15" fill="#aaccee" opacity="0.7">Drive remaining:</text>
  <text x="2270" y="200" text-anchor="end" font-family="Arial Black" font-size="22" fill="#00ff88" font-weight="bold">4h 22m</text>

  <!-- Progress bar -->
  <rect x="1990" y="215" width="280" height="10" rx="5" fill="#001830" stroke="#00d4ff" stroke-width="1" stroke-opacity="0.2"/>
  <rect x="1990" y="215" width="168" height="10" rx="5" fill="#00ff88" opacity="0.7"/>

  <!-- On duty remaining -->
  <text x="1990" y="255" font-family="Arial" font-size="15" fill="#aaccee" opacity="0.7">On duty remaining:</text>
  <text x="2270" y="255" text-anchor="end" font-family="Arial Black" font-size="22" fill="#ffcc44" font-weight="bold">6h 15m</text>

  <!-- Progress bar 2 -->
  <rect x="1990" y="270" width="280" height="10" rx="5" fill="#001830" stroke="#00d4ff" stroke-width="1" stroke-opacity="0.2"/>
  <rect x="1990" y="270" width="198" height="10" rx="5" fill="#ffcc44" opacity="0.7"/>

  <!-- ELD status -->
  <circle cx="2000" cy="312" r="6" fill="#00ff88" opacity="0.9"/>
  <text x="2015" y="317" font-family="Arial" font-size="15" fill="#00ff88" opacity="0.8">ELD Connected</text>

  <!-- ===== RIGHT BOTTOM: Upcoming Stop ===== -->
  <rect x="1960" y="360" width="340" height="210" rx="16" fill="url(#hudPanelGrad)" stroke="#00d4ff" stroke-width="1.5" stroke-opacity="0.5" filter="url(#panelGlow)"/>
  <rect x="1960" y="360" width="340" height="3" rx="2" fill="#00d4ff" opacity="0.6"/>
  <text x="2130" y="395" text-anchor="middle" font-family="Arial" font-size="16" fill="#00d4ff" opacity="0.7" letter-spacing="2">NEXT STOP</text>

  <!-- Stop icon -->
  <rect x="1990" y="415" width="45" height="45" rx="8" fill="#cc2200" opacity="0.85"/>
  <text x="2012" y="444" text-anchor="middle" font-family="Arial Black" font-size="20" fill="white" font-weight="900">P</text>

  <!-- Stop info -->
  <text x="2050" y="430" font-family="Arial Black" font-size="18" fill="#ffffff" opacity="0.9">Pilot Travel</text>
  <text x="2050" y="452" font-family="Arial" font-size="14" fill="#aaccee" opacity="0.7">Exit 142, Ohio Turnpike</text>

  <!-- Distance to stop -->
  <text x="1990" y="495" font-family="Arial" font-size="15" fill="#aaccee" opacity="0.7">Distance:</text>
  <text x="2270" y="495" text-anchor="end" font-family="Arial Black" font-size="20" fill="#ffffff">48 miles</text>

  <!-- Services -->
  <text x="1990" y="530" font-family="Arial" font-size="14" fill="#aaccee" opacity="0.6">Diesel | Parking | Shower</text>

  <!-- Diesel price -->
  <rect x="1990" y="545" width="140" height="30" rx="8" fill="#001830" stroke="#00d4ff" stroke-width="1" stroke-opacity="0.4"/>
  <text x="2060" y="565" text-anchor="middle" font-family="Arial Black" font-size="16" fill="#00d4ff">$3.89/gal</text>

  <!-- ===== MINI MAP (right side, lower) ===== -->
  <rect x="1960" y="600" width="340" height="280" rx="16" fill="#030d1a" stroke="#00d4ff" stroke-width="1.5" stroke-opacity="0.5" filter="url(#panelGlow)"/>
  <rect x="1960" y="600" width="340" height="3" rx="2" fill="#00d4ff" opacity="0.6"/>
  <text x="2130" y="635" text-anchor="middle" font-family="Arial" font-size="16" fill="#00d4ff" opacity="0.7" letter-spacing="3">MINI MAP</text>

  <!-- Map roads -->
  <line x1="2000" y1="720" x2="2280" y2="720" stroke="#334466" stroke-width="8" opacity="0.8"/>
  <line x1="2130" y1="650" x2="2130" y2="860" stroke="#334466" stroke-width="5" opacity="0.6"/>
  <line x1="2000" y1="790" x2="2280" y2="790" stroke="#223355" stroke-width="5" opacity="0.5"/>
  <line x1="2080" y1="650" x2="2080" y2="860" stroke="#223355" stroke-width="3" opacity="0.4"/>
  <line x1="2180" y1="650" x2="2180" y2="860" stroke="#223355" stroke-width="3" opacity="0.4"/>

  <!-- Route on map -->
  <path d="M 2000 720 L 2130 720 L 2130 660" stroke="#00d4ff" stroke-width="5" stroke-linecap="round" opacity="0.9"/>

  <!-- Current position marker -->
  <circle cx="2130" cy="720" r="12" fill="#00d4ff" opacity="0.3"/>
  <circle cx="2130" cy="720" r="6" fill="#00d4ff" opacity="0.9"/>
  <circle cx="2130" cy="720" r="3" fill="white"/>

  <!-- Destination marker -->
  <circle cx="2130" cy="665" r="8" fill="#ff4444" opacity="0.8"/>
  <circle cx="2130" cy="665" r="4" fill="white"/>

  <!-- Map scale -->
  <line x1="2000" y1="855" x2="2060" y2="855" stroke="#00d4ff" stroke-width="2" opacity="0.4"/>
  <text x="2070" y="859" font-family="Arial" font-size="12" fill="#aaccee" opacity="0.6">5 mi</text>

  <!-- ===== AR CORNER MARKERS (windshield HUD) ===== -->
  <!-- Top left corner -->
  <path d="M 230 115 L 230 160 M 230 115 L 290 115" stroke="#00d4ff" stroke-width="2" stroke-opacity="0.5"/>
  <!-- Top right corner -->
  <path d="M 2330 115 L 2330 160 M 2330 115 L 2270 115" stroke="#00d4ff" stroke-width="2" stroke-opacity="0.5"/>
  <!-- Bottom left corner -->
  <path d="M 230 1190 L 230 1145 M 230 1190 L 290 1190" stroke="#00d4ff" stroke-width="2" stroke-opacity="0.5"/>
  <!-- Bottom right corner -->
  <path d="M 2330 1190 L 2330 1145 M 2330 1190 L 2270 1190" stroke="#00d4ff" stroke-width="2" stroke-opacity="0.5"/>

  <!-- ===== CENTER CROSSHAIR/RETICLE ===== -->
  <circle cx="1280" cy="700" r="40" fill="none" stroke="#00d4ff" stroke-width="1.5" stroke-opacity="0.3"/>
  <circle cx="1280" cy="700" r="5" fill="#00d4ff" opacity="0.5"/>
  <line x1="1230" y1="700" x2="1255" y2="700" stroke="#00d4ff" stroke-width="1.5" stroke-opacity="0.4"/>
  <line x1="1305" y1="700" x2="1330" y2="700" stroke="#00d4ff" stroke-width="1.5" stroke-opacity="0.4"/>
  <line x1="1280" y1="650" x2="1280" y2="675" stroke="#00d4ff" stroke-width="1.5" stroke-opacity="0.4"/>
  <line x1="1280" y1="725" x2="1280" y2="750" stroke="#00d4ff" stroke-width="1.5" stroke-opacity="0.4"/>

  <!-- ===== HAUL WALLET LOGO HEADER ===== -->
  <rect x="850" y="25" width="860" height="72" rx="12" fill="#000d1a" fill-opacity="0.7" stroke="#00d4ff" stroke-width="1" stroke-opacity="0.4"/>
  <!-- Logo icon (truck wheel) -->
  <circle cx="900" cy="61" r="20" fill="none" stroke="#00d4ff" stroke-width="3" opacity="0.8"/>
  <circle cx="900" cy="61" r="8" fill="#00d4ff" opacity="0.8"/>
  <line x1="900" y1="41" x2="900" y2="81" stroke="#00d4ff" stroke-width="2" opacity="0.5"/>
  <line x1="880" y1="61" x2="920" y2="61" stroke="#00d4ff" stroke-width="2" opacity="0.5"/>
  <!-- Logo text -->
  <text x="935" y="55" font-family="Arial Black" font-size="26" font-weight="900" fill="#ffffff" opacity="0.95">HaulWallet</text>
  <text x="935" y="78" font-family="Arial" font-size="14" fill="#00d4ff" opacity="0.7" letter-spacing="3">ANDROID XR  •  AR NAVIGATION</text>
  <!-- Live indicator -->
  <circle cx="1670" cy="50" r="8" fill="#00ff88" opacity="0.9"/>
  <text x="1685" y="55" font-family="Arial" font-size="14" fill="#00ff88" opacity="0.9">LIVE</text>
  <text x="1685" y="75" font-family="Arial" font-size="13" fill="#aaccee" opacity="0.6">GPS Connected</text>
</svg>