<svg xmlns="http://www.w3.org/2000/svg" viewBox="0 0 1920 1200" width="1920" height="1200">
  <defs>
    <linearGradient id="bgGrad" x1="0%" y1="0%" x2="100%" y2="100%">
      <stop offset="0%" style="stop-color:#0D1117;stop-opacity:1" />
      <stop offset="100%" style="stop-color:#161B22;stop-opacity:1" />
    </linearGradient>
    <linearGradient id="sidebarGrad" x1="0%" y1="0%" x2="100%" y2="0%">
      <stop offset="0%" style="stop-color:#0A0E14;stop-opacity:1" />
      <stop offset="100%" style="stop-color:#111820;stop-opacity:1" />
    </linearGradient>
    <linearGradient id="mapGrad" x1="0%" y1="0%" x2="100%" y2="100%">
      <stop offset="0%" style="stop-color:#0F1923;stop-opacity:1" />
      <stop offset="100%" style="stop-color:#162030;stop-opacity:1" />
    </linearGradient>
    <linearGradient id="orangeGrad" x1="0%" y1="0%" x2="100%" y2="0%">
      <stop offset="0%" style="stop-color:#FF6B35;stop-opacity:1" />
      <stop offset="100%" style="stop-color:#FF8C42;stop-opacity:1" />
    </linearGradient>
    <linearGradient id="cardGrad" x1="0%" y1="0%" x2="0%" y2="100%">
      <stop offset="0%" style="stop-color:#1C2333;stop-opacity:1" />
      <stop offset="100%" style="stop-color:#161C29;stop-opacity:1" />
    </linearGradient>
    <filter id="glow">
      <feGaussianBlur stdDeviation="3" result="coloredBlur"/>
      <feMerge><feMergeNode in="coloredBlur"/><feMergeNode in="SourceGraphic"/></feMerge>
    </filter>
    <filter id="softGlow">
      <feGaussianBlur stdDeviation="6" result="coloredBlur"/>
      <feMerge><feMergeNode in="coloredBlur"/><feMergeNode in="SourceGraphic"/></feMerge>
    </filter>
    <filter id="shadow">
      <feDropShadow dx="0" dy="4" stdDeviation="8" flood-color="#000000" flood-opacity="0.5"/>
    </filter>
    <clipPath id="mapClip">
      <rect x="260" y="56" width="1180" height="1068" rx="12"/>
    </clipPath>
  </defs>

  <!-- Background -->
  <rect width="1920" height="1200" fill="url(#bgGrad)"/>

  <!-- Top bar -->
  <rect x="0" y="0" width="1920" height="56" fill="#0A0E14" opacity="0.95"/>
  <rect x="0" y="55" width="1920" height="1" fill="#FF6B35" opacity="0.3"/>

  <!-- Logo in topbar -->
  <rect x="16" y="12" width="32" height="32" rx="6" fill="url(#orangeGrad)"/>
  <text x="23" y="34" font-family="Arial Black, sans-serif" font-size="16" font-weight="900" fill="#0A0E14">H</text>
  <text x="56" y="36" font-family="Arial, sans-serif" font-size="15" font-weight="700" fill="#FFFFFF" letter-spacing="1">HAUL</text>
  <text x="98" y="36" font-family="Arial, sans-serif" font-size="15" font-weight="400" fill="#FF6B35" letter-spacing="1">WALLET</text>

  <!-- Top bar search -->
  <rect x="320" y="13" width="340" height="30" rx="15" fill="#1C2333" stroke="#2D3748" stroke-width="1"/>
  <circle cx="340" cy="28" r="7" fill="none" stroke="#6B7280" stroke-width="1.5"/>
  <line x1="345" y1="33" x2="349" y2="37" stroke="#6B7280" stroke-width="1.5" stroke-linecap="round"/>
  <text x="358" y="33" font-family="Arial, sans-serif" font-size="12" fill="#6B7280">Search routes, loads, drivers...</text>

  <!-- Top bar right controls -->
  <!-- Notifications -->
  <rect x="1740" y="13" width="30" height="30" rx="6" fill="#1C2333"/>
  <path d="M1755 18 Q1760 17 1760 22 L1760 28 L1750 28 L1750 22 Q1750 17 1755 18 Z" fill="none" stroke="#9CA3AF" stroke-width="1.5"/>
  <rect x="1752" y="28" width="6" height="3" rx="1.5" fill="#9CA3AF"/>
  <circle cx="1761" cy="17" r="4" fill="#FF6B35"/>
  <text x="1759" y="21" font-family="Arial, sans-serif" font-size="8" fill="#FFF" font-weight="700">3</text>

  <!-- Profile -->
  <circle cx="1810" cy="28" r="16" fill="url(#orangeGrad)"/>
  <text x="1804" y="33" font-family="Arial, sans-serif" font-size="13" font-weight="700" fill="#0A0E14">VP</text>
  <circle cx="1822" cy="20" r="5" fill="#22C55E" stroke="#0A0E14" stroke-width="2"/>

  <text x="1833" y="33" font-family="Arial, sans-serif" font-size="12" fill="#E5E7EB">Vladimir P.</text>
  <text x="1833" y="46" font-family="Arial, sans-serif" font-size="10" fill="#6B7280">Fleet Owner</text>

  <!-- Sidebar -->
  <rect x="0" y="56" width="260" height="1144" fill="url(#sidebarGrad)"/>
  <rect x="259" y="56" width="1" height="1144" fill="#1E2D3D" opacity="0.8"/>

  <!-- Sidebar nav items -->
  <!-- Dashboard (active) -->
  <rect x="12" y="80" width="236" height="44" rx="8" fill="#FF6B35" opacity="0.15"/>
  <rect x="12" y="80" width="3" height="44" rx="1.5" fill="#FF6B35"/>
  <rect x="28" y="94" width="20" height="16" rx="3" fill="none" stroke="#FF6B35" stroke-width="1.5"/>
  <rect x="32" y="98" width="5" height="4" rx="1" fill="#FF6B35"/>
  <rect x="39" y="98" width="5" height="4" rx="1" fill="#FF6B35"/>
  <rect x="32" y="104" width="12" height="3" rx="1" fill="#FF6B35" opacity="0.6"/>
  <text x="58" y="107" font-family="Arial, sans-serif" font-size="13" font-weight="600" fill="#FF6B35">Dashboard</text>

  <!-- Live Map -->
  <rect x="28" y="146" width="20" height="16" rx="2" fill="none" stroke="#6B7280" stroke-width="1.5"/>
  <circle cx="38" cy="154" r="4" fill="none" stroke="#6B7280" stroke-width="1.5"/>
  <text x="58" y="159" font-family="Arial, sans-serif" font-size="13" fill="#9CA3AF">Live Map</text>
  <rect x="220" y="149" width="18" height="14" rx="7" fill="#FF6B35"/>
  <text x="225" y="160" font-family="Arial, sans-serif" font-size="9" font-weight="700" fill="#FFF">12</text>

  <!-- Loads -->
  <rect x="28" y="192" width="20" height="16" rx="2" fill="none" stroke="#6B7280" stroke-width="1.5"/>
  <line x1="31" y1="198" x2="45" y2="198" stroke="#6B7280" stroke-width="1.5"/>
  <line x1="31" y1="202" x2="45" y2="202" stroke="#6B7280" stroke-width="1.5"/>
  <line x1="31" y1="206" x2="40" y2="206" stroke="#6B7280" stroke-width="1.5"/>
  <text x="58" y="205" font-family="Arial, sans-serif" font-size="13" fill="#9CA3AF">Loads</text>

  <!-- Drivers -->
  <circle cx="38" cy="246" r="6" fill="none" stroke="#6B7280" stroke-width="1.5"/>
  <path d="M28 260 Q28 252 38 252 Q48 252 48 260" fill="none" stroke="#6B7280" stroke-width="1.5"/>
  <text x="58" y="251" font-family="Arial, sans-serif" font-size="13" fill="#9CA3AF">Drivers</text>

  <!-- Routes -->
  <path d="M31 288 Q31 282 38 278 Q45 274 45 268" fill="none" stroke="#6B7280" stroke-width="1.5" stroke-linecap="round"/>
  <circle cx="31" cy="290" r="3" fill="#6B7280"/>
  <circle cx="45" cy="268" r="3" fill="#6B7280"/>
  <text x="58" y="283" font-family="Arial, sans-serif" font-size="13" fill="#9CA3AF">Routes</text>

  <!-- Analytics -->
  <rect x="28" y="306" width="20" height="20" rx="2" fill="none" stroke="#6B7280" stroke-width="1.5"/>
  <line x1="32" y1="322" x2="32" y2="316" stroke="#6B7280" stroke-width="2"/>
  <line x1="36" y1="322" x2="36" y2="312" stroke="#6B7280" stroke-width="2"/>
  <line x1="40" y1="322" x2="40" y2="318" stroke="#6B7280" stroke-width="2"/>
  <line x1="44" y1="322" x2="44" y2="310" stroke="#6B7280" stroke-width="2"/>
  <text x="58" y="321" font-family="Arial, sans-serif" font-size="13" fill="#9CA3AF">Analytics</text>

  <!-- Earnings -->
  <circle cx="38" cy="360" r="8" fill="none" stroke="#6B7280" stroke-width="1.5"/>
  <text x="34" y="365" font-family="Arial, sans-serif" font-size="11" font-weight="700" fill="#6B7280">$</text>
  <text x="58" y="365" font-family="Arial, sans-serif" font-size="13" fill="#9CA3AF">Earnings</text>

  <!-- Fuel tracker -->
  <rect x="28" y="390" width="20" height="20" rx="2" fill="none" stroke="#6B7280" stroke-width="1.5"/>
  <rect x="31" y="400" width="8" height="8" rx="1" fill="#6B7280" opacity="0.5"/>
  <text x="58" y="405" font-family="Arial, sans-serif" font-size="13" fill="#9CA3AF">Fuel Tracker</text>

  <!-- Maintenance -->
  <circle cx="38" cy="440" r="7" fill="none" stroke="#6B7280" stroke-width="1.5"/>
  <circle cx="38" cy="440" r="3" fill="#6B7280" opacity="0.5"/>
  <text x="58" y="445" font-family="Arial, sans-serif" font-size="13" fill="#9CA3AF">Maintenance</text>

  <!-- Documents -->
  <rect x="28" y="465" width="16" height="20" rx="2" fill="none" stroke="#6B7280" stroke-width="1.5"/>
  <line x1="31" y1="471" x2="41" y2="471" stroke="#6B7280" stroke-width="1"/>
  <line x1="31" y1="475" x2="41" y2="475" stroke="#6B7280" stroke-width="1"/>
  <line x1="31" y1="479" x2="38" y2="479" stroke="#6B7280" stroke-width="1"/>
  <text x="58" y="479" font-family="Arial, sans-serif" font-size="13" fill="#9CA3AF">Documents</text>

  <!-- Sidebar divider -->
  <line x1="20" y1="510" x2="240" y2="510" stroke="#1E2D3D" stroke-width="1"/>

  <!-- Settings -->
  <circle cx="38" cy="530" r="7" fill="none" stroke="#6B7280" stroke-width="1.5"/>
  <circle cx="38" cy="530" r="3" fill="none" stroke="#6B7280" stroke-width="1"/>
  <text x="58" y="535" font-family="Arial, sans-serif" font-size="13" fill="#9CA3AF">Settings</text>

  <!-- Fleet status in sidebar -->
  <rect x="12" y="580" width="236" height="130" rx="10" fill="#1C2333" stroke="#2D3748" stroke-width="1"/>
  <text x="24" y="600" font-family="Arial, sans-serif" font-size="11" font-weight="700" fill="#9CA3AF" letter-spacing="1">FLEET STATUS</text>
  <!-- Truck 1 -->
  <circle cx="28" cy="622" r="5" fill="#22C55E"/>
  <text x="40" y="626" font-family="Arial, sans-serif" font-size="12" fill="#E5E7EB">Truck #A-102</text>
  <text x="40" y="639" font-family="Arial, sans-serif" font-size="10" fill="#6B7280">Dallas → Chicago</text>
  <!-- Truck 2 -->
  <circle cx="28" cy="660" r="5" fill="#22C55E"/>
  <text x="40" y="664" font-family="Arial, sans-serif" font-size="12" fill="#E5E7EB">Truck #B-047</text>
  <text x="40" y="677" font-family="Arial, sans-serif" font-size="10" fill="#6B7280">LA → Phoenix</text>
  <!-- Truck 3 -->
  <circle cx="28" cy="698" r="5" fill="#F59E0B"/>
  <text x="40" y="702" font-family="Arial, sans-serif" font-size="12" fill="#E5E7EB">Truck #C-219</text>
  <text x="40" y="715" font-family="Arial, sans-serif" font-size="10" fill="#6B7280">Rest Stop — Denver</text>

  <!-- Quick stats sidebar -->
  <rect x="12" y="730" width="110" height="70" rx="8" fill="#1C2333" stroke="#2D3748" stroke-width="1"/>
  <text x="22" y="750" font-family="Arial, sans-serif" font-size="10" fill="#6B7280">Active Loads</text>
  <text x="22" y="774" font-family="Arial Black, sans-serif" font-size="22" font-weight="900" fill="#FF6B35">12</text>
  <text x="22" y="789" font-family="Arial, sans-serif" font-size="10" fill="#22C55E">+3 today</text>

  <rect x="138" y="730" width="110" height="70" rx="8" fill="#1C2333" stroke="#2D3748" stroke-width="1"/>
  <text x="148" y="750" font-family="Arial, sans-serif" font-size="10" fill="#6B7280">On Route</text>
  <text x="148" y="774" font-family="Arial Black, sans-serif" font-size="22" font-weight="900" fill="#22C55E">8</text>
  <text x="148" y="789" font-family="Arial, sans-serif" font-size="10" fill="#6B7280">of 15 trucks</text>

  <rect x="12" y="816" width="236" height="70" rx="8" fill="#1C2333" stroke="#2D3748" stroke-width="1"/>
  <text x="22" y="836" font-family="Arial, sans-serif" font-size="10" fill="#6B7280">Today's Revenue</text>
  <text x="22" y="862" font-family="Arial Black, sans-serif" font-size="22" font-weight="900" fill="#FFFFFF">$4,280</text>
  <text x="22" y="877" font-family="Arial, sans-serif" font-size="10" fill="#22C55E">↑ 18% vs yesterday</text>

  <!-- Main map area -->
  <rect x="260" y="56" width="1180" height="1144" rx="0" fill="url(#mapGrad)"/>

  <!-- Map grid lines (subtle) -->
  <line x1="260" y1="200" x2="1440" y2="200" stroke="#1A2840" stroke-width="1" opacity="0.5"/>
  <line x1="260" y1="400" x2="1440" y2="400" stroke="#1A2840" stroke-width="1" opacity="0.5"/>
  <line x1="260" y1="600" x2="1440" y2="600" stroke="#1A2840" stroke-width="1" opacity="0.5"/>
  <line x1="260" y1="800" x2="1440" y2="800" stroke="#1A2840" stroke-width="1" opacity="0.5"/>
  <line x1="260" y1="1000" x2="1440" y2="1000" stroke="#1A2840" stroke-width="1" opacity="0.5"/>
  <line x1="400" y1="56" x2="400" y2="1200" stroke="#1A2840" stroke-width="1" opacity="0.5"/>
  <line x1="600" y1="56" x2="600" y2="1200" stroke="#1A2840" stroke-width="1" opacity="0.5"/>
  <line x1="800" y1="56" x2="800" y2="1200" stroke="#1A2840" stroke-width="1" opacity="0.5"/>
  <line x1="1000" y1="56" x2="1000" y2="1200" stroke="#1A2840" stroke-width="1" opacity="0.5"/>
  <line x1="1200" y1="56" x2="1200" y2="1200" stroke="#1A2840" stroke-width="1" opacity="0.5"/>

  <!-- US Map outline (simplified) -->
  <path d="M380 300 L500 260 L650 240 L800 250 L950 230 L1100 240 L1200 260 L1250 300 L1230 400 L1200 450 L1150 500 L1100 550 L950 600 L800 620 L650 600 L500 560 L400 500 L370 430 Z"
        fill="#1E3040" stroke="#2D4A6E" stroke-width="1.5" opacity="0.7"/>

  <!-- State borders (simplified lines) -->
  <line x1="700" y1="240" x2="680" y2="620" stroke="#2D4A6E" stroke-width="0.8" opacity="0.5"/>
  <line x1="900" y1="235" x2="890" y2="620" stroke="#2D4A6E" stroke-width="0.8" opacity="0.5"/>
  <line x1="380" y1="420" x2="1230" y2="420" stroke="#2D4A6E" stroke-width="0.8" opacity="0.5"/>

  <!-- Route 1: Dallas to Chicago (orange) -->
  <path d="M750 520 Q780 460 820 420 Q860 380 900 360 Q920 340 870 310"
        fill="none" stroke="#FF6B35" stroke-width="3" stroke-dasharray="12,4" opacity="0.9" filter="url(#glow)"/>
  <!-- Truck icon on route 1 -->
  <rect x="860" y="376" width="20" height="12" rx="2" fill="#FF6B35"/>
  <rect x="870" y="372" width="12" height="8" rx="1" fill="#FF8C42"/>
  <circle cx="864" cy="390" r="3" fill="#0A0E14"/>
  <circle cx="874" cy="390" r="3" fill="#0A0E14"/>

  <!-- Route 2: LA to Phoenix (blue) -->
  <path d="M430 470 Q500 450 560 440 Q600 435 640 430"
        fill="none" stroke="#3B82F6" stroke-width="3" stroke-dasharray="12,4" opacity="0.9" filter="url(#glow)"/>
  <!-- Truck icon on route 2 -->
  <rect x="540" y="441" width="20" height="12" rx="2" fill="#3B82F6"/>
  <rect x="550" y="437" width="12" height="8" rx="1" fill="#60A5FA"/>
  <circle cx="544" cy="455" r="3" fill="#0A0E14"/>
  <circle cx="554" cy="455" r="3" fill="#0A0E14"/>

  <!-- Route 3: Denver area (yellow - rest stop) -->
  <circle cx="720" cy="390" r="8" fill="#F59E0B" opacity="0.8"/>
  <rect x="714" y="386" width="12" height="8" rx="1" fill="#F59E0B"/>
  <text x="734" y="394" font-family="Arial, sans-serif" font-size="10" fill="#F59E0B">Rest Stop</text>

  <!-- City markers -->
  <!-- Dallas -->
  <circle cx="748" cy="522" r="8" fill="#FF6B35" opacity="0.9"/>
  <circle cx="748" cy="522" r="14" fill="none" stroke="#FF6B35" stroke-width="1" opacity="0.4"/>
  <text x="728" y="546" font-family="Arial, sans-serif" font-size="11" font-weight="600" fill="#E5E7EB">Dallas</text>

  <!-- Chicago -->
  <circle cx="870" cy="306" r="8" fill="#FF6B35" opacity="0.9"/>
  <circle cx="870" cy="306" r="14" fill="none" stroke="#FF6B35" stroke-width="1" opacity="0.4"/>
  <text x="850" y="330" font-family="Arial, sans-serif" font-size="11" font-weight="600" fill="#E5E7EB">Chicago</text>

  <!-- Los Angeles -->
  <circle cx="428" cy="470" r="8" fill="#3B82F6" opacity="0.9"/>
  <circle cx="428" cy="470" r="14" fill="none" stroke="#3B82F6" stroke-width="1" opacity="0.4"/>
  <text x="405" y="494" font-family="Arial, sans-serif" font-size="11" font-weight="600" fill="#E5E7EB">Los Angeles</text>

  <!-- Phoenix -->
  <circle cx="638" cy="430" r="8" fill="#3B82F6" opacity="0.9"/>
  <circle cx="638" cy="430" r="14" fill="none" stroke="#3B82F6" stroke-width="1" opacity="0.4"/>
  <text x="618" y="454" font-family="Arial, sans-serif" font-size="11" font-weight="600" fill="#E5E7EB">Phoenix</text>

  <!-- Map controls -->
  <rect x="1380" y="80" width="36" height="36" rx="6" fill="#1C2333" stroke="#2D3748" stroke-width="1"/>
  <text x="1394" y="103" font-family="Arial, sans-serif" font-size="18" fill="#9CA3AF">+</text>
  <rect x="1380" y="124" width="36" height="36" rx="6" fill="#1C2333" stroke="#2D3748" stroke-width="1"/>
  <line x1="1390" y1="142" x2="1406" y2="142" stroke="#9CA3AF" stroke-width="2"/>

  <!-- Map legend -->
  <rect x="280" y="76" width="200" height="80" rx="8" fill="#1C2333" stroke="#2D3748" stroke-width="1" opacity="0.95"/>
  <text x="296" y="96" font-family="Arial, sans-serif" font-size="11" font-weight="700" fill="#9CA3AF" letter-spacing="1">ACTIVE ROUTES</text>
  <line x1="296" y1="110" x2="316" y2="110" stroke="#FF6B35" stroke-width="3"/>
  <circle cx="324" cy="110" r="4" fill="#FF6B35"/>
  <text x="334" y="114" font-family="Arial, sans-serif" font-size="11" fill="#E5E7EB">Truck #A-102</text>
  <line x1="296" y1="130" x2="316" y2="130" stroke="#3B82F6" stroke-width="3"/>
  <circle cx="324" cy="130" r="4" fill="#3B82F6"/>
  <text x="334" y="134" font-family="Arial, sans-serif" font-size="11" fill="#E5E7EB">Truck #B-047</text>
  <circle cx="306" cy="148" r="5" fill="#F59E0B"/>
  <text x="318" y="152" font-family="Arial, sans-serif" font-size="11" fill="#F59E0B">Rest Stop</text>

  <!-- Right panel -->
  <rect x="1440" y="56" width="480" height="1144" fill="#0D1520" stroke="#1E2D3D" stroke-width="1"/>

  <!-- Right panel header -->
  <text x="1460" y="96" font-family="Arial, sans-serif" font-size="14" font-weight="700" fill="#FFFFFF">Active Loads</text>
  <rect x="1800" y="76" width="90" height="28" rx="6" fill="url(#orangeGrad)"/>
  <text x="1824" y="95" font-family="Arial, sans-serif" font-size="12" font-weight="600" fill="#0A0E14">+ New Load</text>

  <!-- Filter tabs -->
  <rect x="1460" y="110" width="60" height="26" rx="13" fill="#FF6B35"/>
  <text x="1474" y="128" font-family="Arial, sans-serif" font-size="11" font-weight="600" fill="#0A0E14">All (12)</text>
  <rect x="1528" y="110" width="70" height="26" rx="13" fill="#1C2333"/>
  <text x="1540" y="128" font-family="Arial, sans-serif" font-size="11" fill="#9CA3AF">Active (8)</text>
  <rect x="1606" y="110" width="75" height="26" rx="13" fill="#1C2333"/>
  <text x="1619" y="128" font-family="Arial, sans-serif" font-size="11" fill="#9CA3AF">Pending (4)</text>

  <!-- Load cards -->
  <!-- Load 1 -->
  <rect x="1460" y="150" width="440" height="100" rx="10" fill="#1C2333" stroke="#2D3748" stroke-width="1"/>
  <rect x="1460" y="150" width="4" height="100" rx="2" fill="#22C55E"/>
  <text x="1480" y="175" font-family="Arial, sans-serif" font-size="13" font-weight="700" fill="#FFFFFF">Load #HL-2847</text>
  <rect x="1790" y="156" width="94" height="22" rx="11" fill="#22C55E" opacity="0.15"/>
  <text x="1806" y="171" font-family="Arial, sans-serif" font-size="11" fill="#22C55E">● In Transit</text>
  <text x="1480" y="196" font-family="Arial, sans-serif" font-size="11" fill="#6B7280">From: Dallas, TX</text>
  <text x="1480" y="214" font-family="Arial, sans-serif" font-size="11" fill="#6B7280">To: Chicago, IL</text>
  <text x="1600" y="196" font-family="Arial, sans-serif" font-size="11" fill="#6B7280">Driver: Mike Johnson</text>
  <text x="1600" y="214" font-family="Arial, sans-serif" font-size="11" fill="#6B7280">Truck: #A-102</text>
  <text x="1480" y="236" font-family="Arial, sans-serif" font-size="12" font-weight="600" fill="#FF6B35">$2,850</text>
  <!-- Progress bar -->
  <rect x="1600" y="228" width="280" height="6" rx="3" fill="#2D3748"/>
  <rect x="1600" y="228" width="175" height="6" rx="3" fill="#FF6B35"/>
  <text x="1600" y="243" font-family="Arial, sans-serif" font-size="10" fill="#6B7280">62% complete</text>
  <text x="1840" y="243" font-family="Arial, sans-serif" font-size="10" fill="#6B7280">ETA: 6h 20m</text>

  <!-- Load 2 -->
  <rect x="1460" y="264" width="440" height="100" rx="10" fill="#1C2333" stroke="#2D3748" stroke-width="1"/>
  <rect x="1460" y="264" width="4" height="100" rx="2" fill="#3B82F6"/>
  <text x="1480" y="289" font-family="Arial, sans-serif" font-size="13" font-weight="700" fill="#FFFFFF">Load #HL-2851</text>
  <rect x="1790" y="270" width="94" height="22" rx="11" fill="#3B82F6" opacity="0.15"/>
  <text x="1806" y="285" font-family="Arial, sans-serif" font-size="11" fill="#3B82F6">● In Transit</text>
  <text x="1480" y="310" font-family="Arial, sans-serif" font-size="11" fill="#6B7280">From: Los Angeles, CA</text>
  <text x="1480" y="328" font-family="Arial, sans-serif" font-size="11" fill="#6B7280">To: Phoenix, AZ</text>
  <text x="1600" y="310" font-family="Arial, sans-serif" font-size="11" fill="#6B7280">Driver: Sarah Chen</text>
  <text x="1600" y="328" font-family="Arial, sans-serif" font-size="11" fill="#6B7280">Truck: #B-047</text>
  <text x="1480" y="350" font-family="Arial, sans-serif" font-size="12" font-weight="600" fill="#FF6B35">$1,420</text>
  <rect x="1600" y="342" width="280" height="6" rx="3" fill="#2D3748"/>
  <rect x="1600" y="342" width="210" height="6" rx="3" fill="#3B82F6"/>
  <text x="1600" y="357" font-family="Arial, sans-serif" font-size="10" fill="#6B7280">75% complete</text>
  <text x="1840" y="357" font-family="Arial, sans-serif" font-size="10" fill="#6B7280">ETA: 2h 10m</text>

  <!-- Load 3 -->
  <rect x="1460" y="378" width="440" height="100" rx="10" fill="#1C2333" stroke="#2D3748" stroke-width="1"/>
  <rect x="1460" y="378" width="4" height="100" rx="2" fill="#F59E0B"/>
  <text x="1480" y="403" font-family="Arial, sans-serif" font-size="13" font-weight="700" fill="#FFFFFF">Load #HL-2839</text>
  <rect x="1790" y="384" width="94" height="22" rx="11" fill="#F59E0B" opacity="0.15"/>
  <text x="1806" y="399" font-family="Arial, sans-serif" font-size="11" fill="#F59E0B">● Rest Stop</text>
  <text x="1480" y="424" font-family="Arial, sans-serif" font-size="11" fill="#6B7280">From: Denver, CO</text>
  <text x="1480" y="442" font-family="Arial, sans-serif" font-size="11" fill="#6B7280">To: Salt Lake City, UT</text>
  <text x="1600" y="424" font-family="Arial, sans-serif" font-size="11" fill="#6B7280">Driver: Tom Wallace</text>
  <text x="1600" y="442" font-family="Arial, sans-serif" font-size="11" fill="#6B7280">Truck: #C-219</text>
  <text x="1480" y="464" font-family="Arial, sans-serif" font-size="12" font-weight="600" fill="#FF6B35">$1,680</text>
  <rect x="1600" y="456" width="280" height="6" rx="3" fill="#2D3748"/>
  <rect x="1600" y="456" width="112" height="6" rx="3" fill="#F59E0B"/>
  <text x="1600" y="471" font-family="Arial, sans-serif" font-size="10" fill="#6B7280">40% complete</text>
  <text x="1840" y="471" font-family="Arial, sans-serif" font-size="10" fill="#F59E0B">HOS: 2h left</text>

  <!-- Load 4 - pending -->
  <rect x="1460" y="492" width="440" height="100" rx="10" fill="#1C2333" stroke="#2D3748" stroke-width="1" opacity="0.7"/>
  <rect x="1460" y="492" width="4" height="100" rx="2" fill="#6B7280"/>
  <text x="1480" y="517" font-family="Arial, sans-serif" font-size="13" font-weight="700" fill="#FFFFFF">Load #HL-2856</text>
  <rect x="1790" y="498" width="94" height="22" rx="11" fill="#6B7280" opacity="0.15"/>
  <text x="1806" y="513" font-family="Arial, sans-serif" font-size="11" fill="#9CA3AF">● Pending</text>
  <text x="1480" y="538" font-family="Arial, sans-serif" font-size="11" fill="#6B7280">From: Houston, TX</text>
  <text x="1480" y="556" font-family="Arial, sans-serif" font-size="11" fill="#6B7280">To: Memphis, TN</text>
  <text x="1600" y="538" font-family="Arial, sans-serif" font-size="11" fill="#6B7280">Assign Driver</text>
  <text x="1480" y="578" font-family="Arial, sans-serif" font-size="12" font-weight="600" fill="#9CA3AF">$2,100</text>
  <rect x="1750" y="572" width="130" height="26" rx="6" fill="#FF6B35" opacity="0.2" stroke="#FF6B35" stroke-width="1"/>
  <text x="1783" y="589" font-family="Arial, sans-serif" font-size="11" fill="#FF6B35">Assign Now</text>

  <!-- Load 5 -->
  <rect x="1460" y="606" width="440" height="100" rx="10" fill="#1C2333" stroke="#2D3748" stroke-width="1" opacity="0.7"/>
  <rect x="1460" y="606" width="4" height="100" rx="2" fill="#6B7280"/>
  <text x="1480" y="631" font-family="Arial, sans-serif" font-size="13" font-weight="700" fill="#FFFFFF">Load #HL-2857</text>
  <rect x="1790" y="612" width="94" height="22" rx="11" fill="#6B7280" opacity="0.15"/>
  <text x="1806" y="627" font-family="Arial, sans-serif" font-size="11" fill="#9CA3AF">● Pending</text>
  <text x="1480" y="652" font-family="Arial, sans-serif" font-size="11" fill="#6B7280">From: Atlanta, GA</text>
  <text x="1480" y="670" font-family="Arial, sans-serif" font-size="11" fill="#6B7280">To: Miami, FL</text>
  <text x="1600" y="652" font-family="Arial, sans-serif" font-size="11" fill="#6B7280">Assign Driver</text>
  <text x="1480" y="692" font-family="Arial, sans-serif" font-size="12" font-weight="600" fill="#9CA3AF">$1,950</text>
  <rect x="1750" y="686" width="130" height="26" rx="6" fill="#FF6B35" opacity="0.2" stroke="#FF6B35" stroke-width="1"/>
  <text x="1783" y="703" font-family="Arial, sans-serif" font-size="11" fill="#FF6B35">Assign Now</text>

  <!-- Right panel today's summary -->
  <rect x="1460" y="726" width="440" height="130" rx="10" fill="#1C2333" stroke="#2D3748" stroke-width="1"/>
  <text x="1480" y="752" font-family="Arial, sans-serif" font-size="13" font-weight="700" fill="#FFFFFF">Today's Summary</text>
  <line x1="1460" y1="762" x2="1900" y2="762" stroke="#2D3748" stroke-width="1"/>

  <text x="1480" y="786" font-family="Arial, sans-serif" font-size="11" fill="#9CA3AF">Total Miles</text>
  <text x="1480" y="804" font-family="Arial Black, sans-serif" font-size="18" font-weight="900" fill="#FFFFFF">2,847 mi</text>

  <text x="1610" y="786" font-family="Arial, sans-serif" font-size="11" fill="#9CA3AF">Fuel Cost</text>
  <text x="1610" y="804" font-family="Arial Black, sans-serif" font-size="18" font-weight="900" fill="#FFFFFF">$1,240</text>

  <text x="1750" y="786" font-family="Arial, sans-serif" font-size="11" fill="#9CA3AF">Net Revenue</text>
  <text x="1750" y="804" font-family="Arial Black, sans-serif" font-size="18" font-weight="900" fill="#22C55E">$3,040</text>

  <!-- Mini chart in summary -->
  <polyline points="1480,840 1520,832 1560,836 1600,822 1640,826 1680,818 1720,810 1760,814 1800,806 1840,800 1880,794"
            fill="none" stroke="#FF6B35" stroke-width="2" opacity="0.8"/>
  <text x="1480" y="856" font-family="Arial, sans-serif" font-size="10" fill="#6B7280">Revenue trend (last 7 days)</text>

  <!-- Alerts panel -->
  <rect x="1460" y="872" width="440" height="160" rx="10" fill="#1C2333" stroke="#2D3748" stroke-width="1"/>
  <text x="1480" y="898" font-family="Arial, sans-serif" font-size="13" font-weight="700" fill="#FFFFFF">Alerts</text>
  <rect x="1840" y="878" width="50" height="20" rx="10" fill="#EF4444" opacity="0.2"/>
  <text x="1854" y="892" font-family="Arial, sans-serif" font-size="10" fill="#EF4444">2 NEW</text>

  <!-- Alert 1 -->
  <rect x="1476" y="910" width="408" height="44" rx="6" fill="#EF4444" opacity="0.08" stroke="#EF4444" stroke-width="0.5" stroke-opacity="0.3"/>
  <rect x="1476" y="910" width="3" height="44" rx="1" fill="#EF4444"/>
  <text x="1490" y="928" font-family="Arial, sans-serif" font-size="12" fill="#EF4444">⚠ HOS Violation Risk</text>
  <text x="1490" y="946" font-family="Arial, sans-serif" font-size="11" fill="#9CA3AF">Truck #C-219 — Tom Wallace needs rest in 2 hours</text>

  <!-- Alert 2 -->
  <rect x="1476" y="960" width="408" height="44" rx="6" fill="#F59E0B" opacity="0.08" stroke="#F59E0B" stroke-width="0.5" stroke-opacity="0.3"/>
  <rect x="1476" y="960" width="3" height="44" rx="1" fill="#F59E0B"/>
  <text x="1490" y="978" font-family="Arial, sans-serif" font-size="12" fill="#F59E0B">◆ Fuel Low</text>
  <text x="1490" y="996" font-family="Arial, sans-serif" font-size="11" fill="#9CA3AF">Truck #B-047 — 18% remaining, next stop Phoenix</text>

  <!-- Bottom status bar -->
  <rect x="0" y="1158" width="1920" height="42" fill="#070B10"/>
  <rect x="0" y="1157" width="1920" height="1" fill="#1E2D3D"/>
  <circle cx="30" cy="1179" r="5" fill="#22C55E"/>
  <text x="42" y="1183" font-family="Arial, sans-serif" font-size="11" fill="#6B7280">All systems operational</text>
  <text x="900" y="1183" font-family="Arial, sans-serif" font-size="11" fill="#6B7280">Last sync: just now</text>
  <text x="1700" y="1183" font-family="Arial, sans-serif" font-size="11" fill="#6B7280">HaulWallet v3.2.1 — Chrome OS</text>
</svg>
