<svg xmlns="http://www.w3.org/2000/svg" viewBox="0 0 1920 1200" width="1920" height="1200">
  <defs>
    <linearGradient id="bgGrad" x1="0%" y1="0%" x2="100%" y2="100%">
      <stop offset="0%" style="stop-color:#0D1117;stop-opacity:1" />
      <stop offset="100%" style="stop-color:#161B22;stop-opacity:1" />
    </linearGradient>
    <linearGradient id="sidebarGrad" x1="0%" y1="0%" x2="100%" y2="0%">
      <stop offset="0%" style="stop-color:#0A0E14;stop-opacity:1" />
      <stop offset="100%" style="stop-color:#111820;stop-opacity:1" />
    </linearGradient>
    <linearGradient id="orangeGrad" x1="0%" y1="0%" x2="100%" y2="0%">
      <stop offset="0%" style="stop-color:#FF6B35;stop-opacity:1" />
      <stop offset="100%" style="stop-color:#FF8C42;stop-opacity:1" />
    </linearGradient>
    <linearGradient id="greenGrad" x1="0%" y1="0%" x2="100%" y2="0%">
      <stop offset="0%" style="stop-color:#22C55E;stop-opacity:1" />
      <stop offset="100%" style="stop-color:#4ADE80;stop-opacity:1" />
    </linearGradient>
    <linearGradient id="lineChartGrad" x1="0%" y1="0%" x2="0%" y2="100%">
      <stop offset="0%" style="stop-color:#FF6B35;stop-opacity:0.4" />
      <stop offset="100%" style="stop-color:#FF6B35;stop-opacity:0" />
    </linearGradient>
    <linearGradient id="lineChart2Grad" x1="0%" y1="0%" x2="0%" y2="100%">
      <stop offset="0%" style="stop-color:#3B82F6;stop-opacity:0.3" />
      <stop offset="100%" style="stop-color:#3B82F6;stop-opacity:0" />
    </linearGradient>
    <linearGradient id="kpi1" x1="0%" y1="0%" x2="100%" y2="100%">
      <stop offset="0%" style="stop-color:#1C2F3F;stop-opacity:1" />
      <stop offset="100%" style="stop-color:#162030;stop-opacity:1" />
    </linearGradient>
    <linearGradient id="kpi2" x1="0%" y1="0%" x2="100%" y2="100%">
      <stop offset="0%" style="stop-color:#1C2F3F;stop-opacity:1" />
      <stop offset="100%" style="stop-color:#162030;stop-opacity:1" />
    </linearGradient>
  </defs>

  <!-- Background -->
  <rect width="1920" height="1200" fill="url(#bgGrad)"/>

  <!-- Top bar -->
  <rect x="0" y="0" width="1920" height="56" fill="#0A0E14" opacity="0.95"/>
  <rect x="0" y="55" width="1920" height="1" fill="#FF6B35" opacity="0.3"/>

  <!-- Logo -->
  <rect x="16" y="12" width="32" height="32" rx="6" fill="url(#orangeGrad)"/>
  <text x="23" y="34" font-family="Arial Black, sans-serif" font-size="16" font-weight="900" fill="#0A0E14">H</text>
  <text x="56" y="36" font-family="Arial, sans-serif" font-size="15" font-weight="700" fill="#FFFFFF" letter-spacing="1">HAUL</text>
  <text x="98" y="36" font-family="Arial, sans-serif" font-size="15" font-weight="400" fill="#FF6B35" letter-spacing="1">WALLET</text>

  <!-- Top bar search -->
  <rect x="320" y="13" width="340" height="30" rx="15" fill="#1C2333" stroke="#2D3748" stroke-width="1"/>
  <circle cx="340" cy="28" r="7" fill="none" stroke="#6B7280" stroke-width="1.5"/>
  <line x1="345" y1="33" x2="349" y2="37" stroke="#6B7280" stroke-width="1.5" stroke-linecap="round"/>
  <text x="358" y="33" font-family="Arial, sans-serif" font-size="12" fill="#6B7280">Search analytics...</text>

  <!-- Date range selector -->
  <rect x="700" y="13" width="180" height="30" rx="6" fill="#1C2333" stroke="#2D3748" stroke-width="1"/>
  <text x="715" y="33" font-family="Arial, sans-serif" font-size="12" fill="#E5E7EB">Oct 2025 — Apr 2026</text>
  <text x="860" y="33" font-family="Arial, sans-serif" font-size="12" fill="#6B7280">▼</text>

  <!-- Export button -->
  <rect x="900" y="13" width="100" height="30" rx="6" fill="#1C2333" stroke="#2D3748" stroke-width="1"/>
  <text x="920" y="33" font-family="Arial, sans-serif" font-size="12" fill="#9CA3AF">↑ Export</text>

  <!-- Profile -->
  <circle cx="1810" cy="28" r="16" fill="url(#orangeGrad)"/>
  <text x="1804" y="33" font-family="Arial, sans-serif" font-size="13" font-weight="700" fill="#0A0E14">VP</text>

  <!-- Sidebar -->
  <rect x="0" y="56" width="260" height="1144" fill="url(#sidebarGrad)"/>
  <rect x="259" y="56" width="1" height="1144" fill="#1E2D3D" opacity="0.8"/>

  <!-- Sidebar nav items -->
  <rect x="12" y="80" width="236" height="44" rx="8" fill="none"/>
  <text x="58" y="107" font-family="Arial, sans-serif" font-size="13" fill="#9CA3AF">Dashboard</text>
  <text x="58" y="159" font-family="Arial, sans-serif" font-size="13" fill="#9CA3AF">Live Map</text>
  <text x="58" y="205" font-family="Arial, sans-serif" font-size="13" fill="#9CA3AF">Loads</text>
  <text x="58" y="251" font-family="Arial, sans-serif" font-size="13" fill="#9CA3AF">Drivers</text>
  <text x="58" y="283" font-family="Arial, sans-serif" font-size="13" fill="#9CA3AF">Routes</text>

  <!-- Analytics (active) -->
  <rect x="12" y="300" width="236" height="44" rx="8" fill="#FF6B35" opacity="0.15"/>
  <rect x="12" y="300" width="3" height="44" rx="1.5" fill="#FF6B35"/>
  <text x="58" y="327" font-family="Arial, sans-serif" font-size="13" font-weight="600" fill="#FF6B35">Analytics</text>

  <text x="58" y="365" font-family="Arial, sans-serif" font-size="13" fill="#9CA3AF">Earnings</text>
  <text x="58" y="405" font-family="Arial, sans-serif" font-size="13" fill="#9CA3AF">Fuel Tracker</text>
  <text x="58" y="445" font-family="Arial, sans-serif" font-size="13" fill="#9CA3AF">Maintenance</text>
  <text x="58" y="479" font-family="Arial, sans-serif" font-size="13" fill="#9CA3AF">Documents</text>
  <line x1="20" y1="510" x2="240" y2="510" stroke="#1E2D3D" stroke-width="1"/>
  <text x="58" y="535" font-family="Arial, sans-serif" font-size="13" fill="#9CA3AF">Settings</text>

  <!-- Sidebar period summary -->
  <rect x="12" y="570" width="236" height="160" rx="10" fill="#1C2333" stroke="#2D3748" stroke-width="1"/>
  <text x="24" y="592" font-family="Arial, sans-serif" font-size="11" font-weight="700" fill="#9CA3AF" letter-spacing="1">PERIOD SUMMARY</text>
  <line x1="12" y1="600" x2="248" y2="600" stroke="#2D3748" stroke-width="1"/>
  <text x="24" y="622" font-family="Arial, sans-serif" font-size="11" fill="#6B7280">Total Revenue</text>
  <text x="24" y="640" font-family="Arial Black, sans-serif" font-size="17" font-weight="900" fill="#22C55E">$148,450</text>
  <text x="24" y="662" font-family="Arial, sans-serif" font-size="11" fill="#6B7280">Total Miles</text>
  <text x="24" y="680" font-family="Arial Black, sans-serif" font-size="17" font-weight="900" fill="#FFFFFF">84,720 mi</text>
  <text x="24" y="702" font-family="Arial, sans-serif" font-size="11" fill="#6B7280">Avg per Load</text>
  <text x="24" y="720" font-family="Arial Black, sans-serif" font-size="17" font-weight="900" fill="#FF6B35">$1,848</text>

  <!-- Sidebar metrics -->
  <rect x="12" y="750" width="236" height="80" rx="8" fill="#1C2333" stroke="#2D3748" stroke-width="1"/>
  <text x="24" y="772" font-family="Arial, sans-serif" font-size="11" fill="#6B7280">Best Month</text>
  <text x="24" y="792" font-family="Arial Black, sans-serif" font-size="15" font-weight="900" fill="#FFFFFF">March 2026</text>
  <text x="24" y="810" font-family="Arial, sans-serif" font-size="11" fill="#22C55E">$28,940 revenue</text>

  <rect x="12" y="846" width="236" height="80" rx="8" fill="#1C2333" stroke="#2D3748" stroke-width="1"/>
  <text x="24" y="868" font-family="Arial, sans-serif" font-size="11" fill="#6B7280">YOY Growth</text>
  <text x="24" y="890" font-family="Arial Black, sans-serif" font-size="24" font-weight="900" fill="#22C55E">+34%</text>
  <text x="24" y="908" font-family="Arial, sans-serif" font-size="11" fill="#6B7280">vs same period last year</text>

  <!-- Main content area -->
  <rect x="260" y="56" width="1660" height="1144" fill="#0D1117"/>

  <!-- Page header -->
  <text x="296" y="100" font-family="Arial Black, sans-serif" font-size="22" font-weight="900" fill="#FFFFFF">Analytics Dashboard</text>
  <text x="296" y="122" font-family="Arial, sans-serif" font-size="13" fill="#6B7280">October 2025 — April 2026 · Fleet Performance Overview</text>

  <!-- Period tabs -->
  <rect x="1500" y="76" width="60" height="28" rx="6" fill="#1C2333" stroke="#2D3748" stroke-width="1"/>
  <text x="1516" y="95" font-family="Arial, sans-serif" font-size="11" fill="#9CA3AF">1M</text>
  <rect x="1568" y="76" width="60" height="28" rx="6" fill="#1C2333" stroke="#2D3748" stroke-width="1"/>
  <text x="1582" y="95" font-family="Arial, sans-serif" font-size="11" fill="#9CA3AF">3M</text>
  <rect x="1636" y="76" width="60" height="28" rx="6" fill="url(#orangeGrad)"/>
  <text x="1650" y="95" font-family="Arial, sans-serif" font-size="11" font-weight="600" fill="#0A0E14">6M</text>
  <rect x="1704" y="76" width="60" height="28" rx="6" fill="#1C2333" stroke="#2D3748" stroke-width="1"/>
  <text x="1720" y="95" font-family="Arial, sans-serif" font-size="11" fill="#9CA3AF">1Y</text>
  <rect x="1772" y="76" width="100" height="28" rx="6" fill="#1C2333" stroke="#2D3748" stroke-width="1"/>
  <text x="1785" y="95" font-family="Arial, sans-serif" font-size="11" fill="#9CA3AF">Custom</text>

  <!-- 4 KPI Cards -->
  <!-- KPI 1: Revenue -->
  <rect x="296" y="140" width="370" height="120" rx="12" fill="#1C2333" stroke="#2D3748" stroke-width="1"/>
  <rect x="296" y="140" width="370" height="4" rx="2" fill="url(#orangeGrad)"/>
  <rect x="628" y="152" width="30" height="30" rx="8" fill="#FF6B35" opacity="0.15"/>
  <text x="636" y="174" font-family="Arial, sans-serif" font-size="18">$</text>
  <text x="316" y="176" font-family="Arial, sans-serif" font-size="12" fill="#9CA3AF">Total Revenue</text>
  <text x="316" y="216" font-family="Arial Black, sans-serif" font-size="30" font-weight="900" fill="#FFFFFF">$148,450</text>
  <rect x="316" y="232" width="80" height="18" rx="9" fill="#22C55E" opacity="0.15"/>
  <text x="324" y="245" font-family="Arial, sans-serif" font-size="11" fill="#22C55E">↑ 34% YOY</text>

  <!-- KPI 2: Loads -->
  <rect x="690" y="140" width="370" height="120" rx="12" fill="#1C2333" stroke="#2D3748" stroke-width="1"/>
  <rect x="690" y="140" width="370" height="4" rx="2" fill="#3B82F6"/>
  <rect x="1022" y="152" width="30" height="30" rx="8" fill="#3B82F6" opacity="0.15"/>
  <text x="316" y="176" font-family="Arial, sans-serif" font-size="12" fill="#9CA3AF"/>
  <text x="710" y="176" font-family="Arial, sans-serif" font-size="12" fill="#9CA3AF">Completed Loads</text>
  <text x="710" y="216" font-family="Arial Black, sans-serif" font-size="30" font-weight="900" fill="#FFFFFF">803</text>
  <rect x="710" y="232" width="96" height="18" rx="9" fill="#3B82F6" opacity="0.15"/>
  <text x="718" y="245" font-family="Arial, sans-serif" font-size="11" fill="#3B82F6">↑ 28% vs H1</text>

  <!-- KPI 3: Avg/Load -->
  <rect x="1084" y="140" width="370" height="120" rx="12" fill="#1C2333" stroke="#2D3748" stroke-width="1"/>
  <rect x="1084" y="140" width="370" height="4" rx="2" fill="#22C55E"/>
  <text x="1104" y="176" font-family="Arial, sans-serif" font-size="12" fill="#9CA3AF">Avg Revenue / Load</text>
  <text x="1104" y="216" font-family="Arial Black, sans-serif" font-size="30" font-weight="900" fill="#FFFFFF">$1,848</text>
  <rect x="1104" y="232" width="90" height="18" rx="9" fill="#22C55E" opacity="0.15"/>
  <text x="1112" y="245" font-family="Arial, sans-serif" font-size="11" fill="#22C55E">↑ 5% this month</text>

  <!-- KPI 4: Fuel Efficiency -->
  <rect x="1478" y="140" width="426" height="120" rx="12" fill="#1C2333" stroke="#2D3748" stroke-width="1"/>
  <rect x="1478" y="140" width="426" height="4" rx="2" fill="#F59E0B"/>
  <text x="1498" y="176" font-family="Arial, sans-serif" font-size="12" fill="#9CA3AF">Fuel Efficiency</text>
  <text x="1498" y="216" font-family="Arial Black, sans-serif" font-size="30" font-weight="900" fill="#FFFFFF">6.8 MPG</text>
  <rect x="1498" y="232" width="100" height="18" rx="9" fill="#F59E0B" opacity="0.15"/>
  <text x="1506" y="245" font-family="Arial, sans-serif" font-size="11" fill="#F59E0B">↑ 0.4 MPG avg</text>

  <!-- Main Chart: Revenue Trend -->
  <rect x="296" y="284" width="1020" height="360" rx="12" fill="#1C2333" stroke="#2D3748" stroke-width="1"/>
  <text x="320" y="318" font-family="Arial, sans-serif" font-size="15" font-weight="700" fill="#FFFFFF">Revenue Trend</text>
  <text x="320" y="338" font-family="Arial, sans-serif" font-size="12" fill="#6B7280">Monthly gross earnings — last 6 months</text>

  <!-- Legend -->
  <line x1="900" y1="315" x2="924" y2="315" stroke="#FF6B35" stroke-width="2.5"/>
  <text x="930" y="320" font-family="Arial, sans-serif" font-size="11" fill="#9CA3AF">Revenue</text>
  <line x1="990" y1="315" x2="1014" y2="315" stroke="#3B82F6" stroke-width="2.5" stroke-dasharray="5,3"/>
  <text x="1020" y="320" font-family="Arial, sans-serif" font-size="11" fill="#9CA3AF">Target</text>

  <!-- Chart axes -->
  <line x1="340" y1="570" x2="1290" y2="570" stroke="#2D3748" stroke-width="1"/>
  <line x1="340" y1="360" x2="340" y2="570" stroke="#2D3748" stroke-width="1"/>

  <!-- Y-axis labels -->
  <text x="316" y="575" font-family="Arial, sans-serif" font-size="10" fill="#6B7280" text-anchor="end">$0</text>
  <text x="316" y="527" font-family="Arial, sans-serif" font-size="10" fill="#6B7280" text-anchor="end">$10k</text>
  <text x="316" y="479" font-family="Arial, sans-serif" font-size="10" fill="#6B7280" text-anchor="end">$20k</text>
  <text x="316" y="430" font-family="Arial, sans-serif" font-size="10" fill="#6B7280" text-anchor="end">$30k</text>
  <text x="316" y="382" font-family="Arial, sans-serif" font-size="10" fill="#6B7280" text-anchor="end">$40k</text>
  <!-- Grid lines -->
  <line x1="340" y1="525" x2="1290" y2="525" stroke="#1E2D3D" stroke-width="1"/>
  <line x1="340" y1="477" x2="1290" y2="477" stroke="#1E2D3D" stroke-width="1"/>
  <line x1="340" y1="429" x2="1290" y2="429" stroke="#1E2D3D" stroke-width="1"/>
  <line x1="340" y1="381" x2="1290" y2="381" stroke="#1E2D3D" stroke-width="1"/>

  <!-- X-axis months -->
  <text x="478" y="590" font-family="Arial, sans-serif" font-size="11" fill="#6B7280" text-anchor="middle">Oct</text>
  <text x="637" y="590" font-family="Arial, sans-serif" font-size="11" fill="#6B7280" text-anchor="middle">Nov</text>
  <text x="796" y="590" font-family="Arial, sans-serif" font-size="11" fill="#6B7280" text-anchor="middle">Dec</text>
  <text x="955" y="590" font-family="Arial, sans-serif" font-size="11" fill="#6B7280" text-anchor="middle">Jan</text>
  <text x="1114" y="590" font-family="Arial, sans-serif" font-size="11" fill="#6B7280" text-anchor="middle">Feb</text>
  <text x="1257" y="590" font-family="Arial, sans-serif" font-size="11" fill="#FF6B35" font-weight="600" text-anchor="middle">Mar</text>

  <!-- Area fill under chart line -->
  <polygon points="350,520 478,505 637,490 796,470 955,448 1114,418 1257,385 1257,570 350,570"
           fill="url(#lineChartGrad)" opacity="0.7"/>
  <!-- Revenue line -->
  <polyline points="350,520 478,505 637,490 796,470 955,448 1114,418 1257,385"
            fill="none" stroke="#FF6B35" stroke-width="3" stroke-linejoin="round" stroke-linecap="round"/>
  <!-- Target line -->
  <polyline points="350,510 478,498 637,485 796,472 955,458 1114,445 1257,432"
            fill="none" stroke="#3B82F6" stroke-width="2" stroke-dasharray="8,4" stroke-linejoin="round" opacity="0.7"/>

  <!-- Data points -->
  <circle cx="350" cy="520" r="5" fill="#FF6B35" stroke="#1C2333" stroke-width="2"/>
  <circle cx="478" cy="505" r="5" fill="#FF6B35" stroke="#1C2333" stroke-width="2"/>
  <circle cx="637" cy="490" r="5" fill="#FF6B35" stroke="#1C2333" stroke-width="2"/>
  <circle cx="796" cy="470" r="5" fill="#FF6B35" stroke="#1C2333" stroke-width="2"/>
  <circle cx="955" cy="448" r="5" fill="#FF6B35" stroke="#1C2333" stroke-width="2"/>
  <circle cx="1114" cy="418" r="5" fill="#FF6B35" stroke="#1C2333" stroke-width="2"/>
  <circle cx="1257" cy="385" r="7" fill="#FF6B35" stroke="#0D1117" stroke-width="2" filter="url(#softGlow)"/>

  <!-- Tooltip on last point -->
  <rect x="1188" y="356" width="130" height="50" rx="6" fill="#0D1117" stroke="#FF6B35" stroke-width="1"/>
  <line x1="1253" y1="404" x2="1257" y2="385" stroke="#FF6B35" stroke-width="1" stroke-dasharray="3,2"/>
  <text x="1200" y="376" font-family="Arial, sans-serif" font-size="11" font-weight="600" fill="#FF6B35">March 2026</text>
  <text x="1200" y="394" font-family="Arial, sans-serif" font-size="12" font-weight="700" fill="#FFFFFF">$28,940</text>
  <text x="1200" y="408" font-family="Arial, sans-serif" font-size="10" fill="#22C55E">↑ 12% MOM</text>

  <!-- Monthly values -->
  <text x="478" y="495" font-family="Arial, sans-serif" font-size="10" fill="#9CA3AF" text-anchor="middle">$18.2k</text>
  <text x="637" y="480" font-family="Arial, sans-serif" font-size="10" fill="#9CA3AF" text-anchor="middle">$20.1k</text>
  <text x="796" y="460" font-family="Arial, sans-serif" font-size="10" fill="#9CA3AF" text-anchor="middle">$22.8k</text>
  <text x="955" y="438" font-family="Arial, sans-serif" font-size="10" fill="#9CA3AF" text-anchor="middle">$25.4k</text>
  <text x="1114" y="408" font-family="Arial, sans-serif" font-size="10" fill="#9CA3AF" text-anchor="middle">$25.8k</text>

  <!-- Bar Chart: Top Routes -->
  <rect x="296" y="668" width="1020" height="440" rx="12" fill="#1C2333" stroke="#2D3748" stroke-width="1"/>
  <text x="320" y="704" font-family="Arial, sans-serif" font-size="15" font-weight="700" fill="#FFFFFF">Top Routes by Revenue</text>
  <text x="320" y="724" font-family="Arial, sans-serif" font-size="12" fill="#6B7280">6-month performance breakdown</text>

  <!-- Table header -->
  <rect x="296" y="738" width="1020" height="36" rx="0" fill="#161C29"/>
  <text x="320" y="762" font-family="Arial, sans-serif" font-size="11" font-weight="700" fill="#6B7280" letter-spacing="1">ROUTE</text>
  <text x="620" y="762" font-family="Arial, sans-serif" font-size="11" font-weight="700" fill="#6B7280" letter-spacing="1">LOADS</text>
  <text x="720" y="762" font-family="Arial, sans-serif" font-size="11" font-weight="700" fill="#6B7280" letter-spacing="1">AVG RATE</text>
  <text x="860" y="762" font-family="Arial, sans-serif" font-size="11" font-weight="700" fill="#6B7280" letter-spacing="1">TOTAL</text>
  <text x="1020" y="762" font-family="Arial, sans-serif" font-size="11" font-weight="700" fill="#6B7280" letter-spacing="1">TREND</text>
  <text x="1200" y="762" font-family="Arial, sans-serif" font-size="11" font-weight="700" fill="#6B7280" letter-spacing="1">MARGIN</text>

  <!-- Route rows -->
  <!-- Row 1 -->
  <rect x="296" y="774" width="1020" height="52" fill="#1C2333"/>
  <rect x="296" y="774" width="1020" height="1" fill="#2D3748"/>
  <rect x="316" y="790" width="8" height="20" rx="2" fill="#FF6B35"/>
  <text x="334" y="799" font-family="Arial, sans-serif" font-size="13" font-weight="600" fill="#FFFFFF">Dallas, TX → Chicago, IL</text>
  <text x="334" y="816" font-family="Arial, sans-serif" font-size="11" fill="#6B7280">1,145 mi · 2-3 days</text>
  <text x="620" y="805" font-family="Arial Black, sans-serif" font-size="14" fill="#FFFFFF">142</text>
  <text x="720" y="805" font-family="Arial, sans-serif" font-size="14" fill="#FF6B35" font-weight="600">$2,850</text>
  <text x="860" y="805" font-family="Arial Black, sans-serif" font-size="14" fill="#22C55E">$40,470</text>
  <!-- Mini sparkline -->
  <polyline points="1020,812 1040,808 1060,805 1080,800 1100,797 1120,792" fill="none" stroke="#22C55E" stroke-width="2"/>
  <text x="1200" y="805" font-family="Arial, sans-serif" font-size="13" font-weight="600" fill="#22C55E">68%</text>

  <!-- Row 2 -->
  <rect x="296" y="826" width="1020" height="52" fill="none"/>
  <rect x="296" y="826" width="1020" height="1" fill="#2D3748"/>
  <rect x="316" y="842" width="8" height="20" rx="2" fill="#3B82F6"/>
  <text x="334" y="851" font-family="Arial, sans-serif" font-size="13" font-weight="600" fill="#FFFFFF">Los Angeles, CA → Phoenix, AZ</text>
  <text x="334" y="868" font-family="Arial, sans-serif" font-size="11" fill="#6B7280">372 mi · 6-8 hours</text>
  <text x="620" y="857" font-family="Arial Black, sans-serif" font-size="14" fill="#FFFFFF">218</text>
  <text x="720" y="857" font-family="Arial, sans-serif" font-size="14" fill="#FF6B35" font-weight="600">$1,420</text>
  <text x="860" y="857" font-family="Arial Black, sans-serif" font-size="14" fill="#22C55E">$30,956</text>
  <polyline points="1020,864 1040,862 1060,860 1080,858 1100,856 1120,854" fill="none" stroke="#22C55E" stroke-width="2"/>
  <text x="1200" y="857" font-family="Arial, sans-serif" font-size="13" font-weight="600" fill="#22C55E">72%</text>

  <!-- Row 3 -->
  <rect x="296" y="878" width="1020" height="52" fill="#1C2333"/>
  <rect x="296" y="878" width="1020" height="1" fill="#2D3748"/>
  <rect x="316" y="894" width="8" height="20" rx="2" fill="#22C55E"/>
  <text x="334" y="903" font-family="Arial, sans-serif" font-size="13" font-weight="600" fill="#FFFFFF">Houston, TX → Memphis, TN</text>
  <text x="334" y="920" font-family="Arial, sans-serif" font-size="11" fill="#6B7280">698 mi · 10-12 hours</text>
  <text x="620" y="909" font-family="Arial Black, sans-serif" font-size="14" fill="#FFFFFF">96</text>
  <text x="720" y="909" font-family="Arial, sans-serif" font-size="14" fill="#FF6B35" font-weight="600">$2,100</text>
  <text x="860" y="909" font-family="Arial Black, sans-serif" font-size="14" fill="#22C55E">$20,160</text>
  <polyline points="1020,916 1040,914 1060,918 1080,913 1100,910 1120,907" fill="none" stroke="#22C55E" stroke-width="2"/>
  <text x="1200" y="909" font-family="Arial, sans-serif" font-size="13" font-weight="600" fill="#22C55E">65%</text>

  <!-- Row 4 -->
  <rect x="296" y="930" width="1020" height="52" fill="none"/>
  <rect x="296" y="930" width="1020" height="1" fill="#2D3748"/>
  <rect x="316" y="946" width="8" height="20" rx="2" fill="#F59E0B"/>
  <text x="334" y="955" font-family="Arial, sans-serif" font-size="13" font-weight="600" fill="#FFFFFF">Atlanta, GA → Miami, FL</text>
  <text x="334" y="972" font-family="Arial, sans-serif" font-size="11" fill="#6B7280">661 mi · 9-11 hours</text>
  <text x="620" y="961" font-family="Arial Black, sans-serif" font-size="14" fill="#FFFFFF">87</text>
  <text x="720" y="961" font-family="Arial, sans-serif" font-size="14" fill="#FF6B35" font-weight="600">$1,950</text>
  <text x="860" y="961" font-family="Arial Black, sans-serif" font-size="14" fill="#F59E0B">$16,965</text>
  <polyline points="1020,968 1040,970 1060,967 1080,964 1100,962 1120,960" fill="none" stroke="#F59E0B" stroke-width="2"/>
  <text x="1200" y="961" font-family="Arial, sans-serif" font-size="13" font-weight="600" fill="#F59E0B">58%</text>

  <!-- Row 5 -->
  <rect x="296" y="982" width="1020" height="52" fill="#1C2333"/>
  <rect x="296" y="982" width="1020" height="1" fill="#2D3748"/>
  <rect x="316" y="998" width="8" height="20" rx="2" fill="#8B5CF6"/>
  <text x="334" y="1007" font-family="Arial, sans-serif" font-size="13" font-weight="600" fill="#FFFFFF">Denver, CO → Salt Lake City, UT</text>
  <text x="334" y="1024" font-family="Arial, sans-serif" font-size="11" fill="#6B7280">525 mi · 7-9 hours</text>
  <text x="620" y="1013" font-family="Arial Black, sans-serif" font-size="14" fill="#FFFFFF">74</text>
  <text x="720" y="1013" font-family="Arial, sans-serif" font-size="14" fill="#FF6B35" font-weight="600">$1,680</text>
  <text x="860" y="1013" font-family="Arial Black, sans-serif" font-size="14" fill="#9CA3AF">$12,432</text>
  <polyline points="1020,1020 1040,1018 1060,1022 1080,1019 1100,1017 1120,1015" fill="none" stroke="#9CA3AF" stroke-width="2"/>
  <text x="1200" y="1013" font-family="Arial, sans-serif" font-size="13" font-weight="600" fill="#9CA3AF">61%</text>

  <!-- Row 6 -->
  <rect x="296" y="1034" width="1020" height="52" fill="none"/>
  <rect x="296" y="1034" width="1020" height="1" fill="#2D3748"/>
  <rect x="316" y="1050" width="8" height="20" rx="2" fill="#EF4444"/>
  <text x="334" y="1059" font-family="Arial, sans-serif" font-size="13" font-weight="600" fill="#FFFFFF">Seattle, WA → Portland, OR</text>
  <text x="334" y="1076" font-family="Arial, sans-serif" font-size="11" fill="#6B7280">174 mi · 3-4 hours</text>
  <text x="620" y="1065" font-family="Arial Black, sans-serif" font-size="14" fill="#FFFFFF">186</text>
  <text x="720" y="1065" font-family="Arial, sans-serif" font-size="14" fill="#FF6B35" font-weight="600">$980</text>
  <text x="860" y="1065" font-family="Arial Black, sans-serif" font-size="14" fill="#9CA3AF">$18,228</text>
  <polyline points="1020,1072 1040,1075 1060,1073 1080,1070 1100,1068 1120,1065" fill="none" stroke="#EF4444" stroke-width="2"/>
  <text x="1200" y="1065" font-family="Arial, sans-serif" font-size="13" font-weight="600" fill="#EF4444">49%</text>

  <!-- Show more -->
  <text x="800" y="1106" font-family="Arial, sans-serif" font-size="12" fill="#FF6B35" text-anchor="middle">View all 48 routes →</text>

  <!-- Right column: Expense Pie Chart -->
  <rect x="1340" y="284" width="564" height="424" rx="12" fill="#1C2333" stroke="#2D3748" stroke-width="1"/>
  <text x="1364" y="320" font-family="Arial, sans-serif" font-size="15" font-weight="700" fill="#FFFFFF">Expense Breakdown</text>
  <text x="1364" y="340" font-family="Arial, sans-serif" font-size="12" fill="#6B7280">6-month cost distribution</text>

  <!-- Pie chart segments (SVG arc approximation) -->
  <!-- Fuel: 42% -->
  <path d="M 1530 440 L 1530 340 A 100 100 0 0 1 1619 493 Z" fill="#FF6B35" opacity="0.9"/>
  <!-- Maintenance: 18% -->
  <path d="M 1530 440 L 1619 493 A 100 100 0 0 1 1558 535 Z" fill="#F59E0B" opacity="0.9"/>
  <!-- Insurance: 15% -->
  <path d="M 1530 440 L 1558 535 A 100 100 0 0 1 1448 519 Z" fill="#3B82F6" opacity="0.9"/>
  <!-- Tolls: 12% -->
  <path d="M 1530 440 L 1448 519 A 100 100 0 0 1 1438 400 Z" fill="#22C55E" opacity="0.9"/>
  <!-- Other: 13% -->
  <path d="M 1530 440 L 1438 400 A 100 100 0 0 1 1530 340 Z" fill="#8B5CF6" opacity="0.9"/>

  <!-- Pie hole -->
  <circle cx="1530" cy="440" r="55" fill="#1C2333"/>
  <text x="1530" y="434" font-family="Arial, sans-serif" font-size="11" fill="#9CA3AF" text-anchor="middle">Total</text>
  <text x="1530" y="452" font-family="Arial Black, sans-serif" font-size="14" font-weight="900" fill="#FFFFFF" text-anchor="middle">$47k</text>

  <!-- Legend -->
  <rect x="1660" y="340" width="12" height="12" rx="3" fill="#FF6B35"/>
  <text x="1678" y="351" font-family="Arial, sans-serif" font-size="12" fill="#E5E7EB">Fuel</text>
  <text x="1780" y="351" font-family="Arial, sans-serif" font-size="12" fill="#FF6B35" font-weight="600">42%</text>
  <text x="1820" y="351" font-family="Arial, sans-serif" font-size="11" fill="#6B7280">$19,740</text>

  <rect x="1660" y="368" width="12" height="12" rx="3" fill="#F59E0B"/>
  <text x="1678" y="379" font-family="Arial, sans-serif" font-size="12" fill="#E5E7EB">Maintenance</text>
  <text x="1780" y="379" font-family="Arial, sans-serif" font-size="12" fill="#F59E0B" font-weight="600">18%</text>
  <text x="1820" y="379" font-family="Arial, sans-serif" font-size="11" fill="#6B7280">$8,460</text>

  <rect x="1660" y="396" width="12" height="12" rx="3" fill="#3B82F6"/>
  <text x="1678" y="407" font-family="Arial, sans-serif" font-size="12" fill="#E5E7EB">Insurance</text>
  <text x="1780" y="407" font-family="Arial, sans-serif" font-size="12" fill="#3B82F6" font-weight="600">15%</text>
  <text x="1820" y="407" font-family="Arial, sans-serif" font-size="11" fill="#6B7280">$7,050</text>

  <rect x="1660" y="424" width="12" height="12" rx="3" fill="#22C55E"/>
  <text x="1678" y="435" font-family="Arial, sans-serif" font-size="12" fill="#E5E7EB">Tolls</text>
  <text x="1780" y="435" font-family="Arial, sans-serif" font-size="12" fill="#22C55E" font-weight="600">12%</text>
  <text x="1820" y="435" font-family="Arial, sans-serif" font-size="11" fill="#6B7280">$5,640</text>

  <rect x="1660" y="452" width="12" height="12" rx="3" fill="#8B5CF6"/>
  <text x="1678" y="463" font-family="Arial, sans-serif" font-size="12" fill="#E5E7EB">Other</text>
  <text x="1780" y="463" font-family="Arial, sans-serif" font-size="12" fill="#8B5CF6" font-weight="600">13%</text>
  <text x="1820" y="463" font-family="Arial, sans-serif" font-size="11" fill="#6B7280">$6,110</text>

  <!-- Profit margin bar -->
  <rect x="1364" y="660" width="520" height="30" rx="0" fill="none"/>
  <text x="1364" y="657" font-family="Arial, sans-serif" font-size="11" fill="#9CA3AF">Net Margin</text>
  <rect x="1364" y="663" width="520" height="12" rx="6" fill="#2D3748"/>
  <rect x="1364" y="663" width="332" height="12" rx="6" fill="url(#orangeGrad)"/>
  <text x="1700" y="674" font-family="Arial, sans-serif" font-size="11" fill="#FF6B35" font-weight="700">64%</text>

  <!-- Right column: Driver Performance -->
  <rect x="1340" y="724" width="564" height="384" rx="12" fill="#1C2333" stroke="#2D3748" stroke-width="1"/>
  <text x="1364" y="760" font-family="Arial, sans-serif" font-size="15" font-weight="700" fill="#FFFFFF">Driver Performance</text>
  <text x="1364" y="780" font-family="Arial, sans-serif" font-size="12" fill="#6B7280">Revenue & efficiency ranking</text>

  <!-- Driver rows -->
  <!-- Driver 1 -->
  <rect x="1360" y="798" width="524" height="58" rx="8" fill="#161C29"/>
  <circle cx="1390" cy="827" r="18" fill="#FF6B35" opacity="0.2"/>
  <text x="1382" y="832" font-family="Arial, sans-serif" font-size="13" font-weight="700" fill="#FF6B35">MJ</text>
  <text x="1418" y="820" font-family="Arial, sans-serif" font-size="13" font-weight="600" fill="#FFFFFF">Mike Johnson</text>
  <text x="1418" y="838" font-family="Arial, sans-serif" font-size="11" fill="#6B7280">142 loads · 6.9 MPG</text>
  <text x="1716" y="820" font-family="Arial Black, sans-serif" font-size="14" fill="#22C55E">$40,470</text>
  <!-- Stars -->
  <text x="1716" y="840" font-family="Arial, sans-serif" font-size="11" fill="#F59E0B">★★★★★</text>
  <text x="1840" y="836" font-family="Arial, sans-serif" font-size="12" fill="#9CA3AF">#1</text>

  <!-- Driver 2 -->
  <rect x="1360" y="862" width="524" height="58" rx="8" fill="none"/>
  <circle cx="1390" cy="891" r="18" fill="#3B82F6" opacity="0.2"/>
  <text x="1382" y="896" font-family="Arial, sans-serif" font-size="13" font-weight="700" fill="#3B82F6">SC</text>
  <text x="1418" y="884" font-family="Arial, sans-serif" font-size="13" font-weight="600" fill="#FFFFFF">Sarah Chen</text>
  <text x="1418" y="902" font-family="Arial, sans-serif" font-size="11" fill="#6B7280">218 loads · 7.1 MPG</text>
  <text x="1716" y="884" font-family="Arial Black, sans-serif" font-size="14" fill="#22C55E">$30,956</text>
  <text x="1716" y="904" font-family="Arial, sans-serif" font-size="11" fill="#F59E0B">★★★★☆</text>
  <text x="1840" y="900" font-family="Arial, sans-serif" font-size="12" fill="#9CA3AF">#2</text>

  <!-- Driver 3 -->
  <rect x="1360" y="926" width="524" height="58" rx="8" fill="#161C29"/>
  <circle cx="1390" cy="955" r="18" fill="#F59E0B" opacity="0.2"/>
  <text x="1382" y="960" font-family="Arial, sans-serif" font-size="13" font-weight="700" fill="#F59E0B">TW</text>
  <text x="1418" y="948" font-family="Arial, sans-serif" font-size="13" font-weight="600" fill="#FFFFFF">Tom Wallace</text>
  <text x="1418" y="966" font-family="Arial, sans-serif" font-size="11" fill="#6B7280">74 loads · 6.5 MPG</text>
  <text x="1716" y="948" font-family="Arial Black, sans-serif" font-size="14" fill="#F59E0B">$12,432</text>
  <text x="1716" y="968" font-family="Arial, sans-serif" font-size="11" fill="#F59E0B">★★★☆☆</text>
  <text x="1840" y="964" font-family="Arial, sans-serif" font-size="12" fill="#9CA3AF">#3</text>

  <!-- Driver 4 -->
  <rect x="1360" y="990" width="524" height="58" rx="8" fill="none"/>
  <circle cx="1390" cy="1019" r="18" fill="#22C55E" opacity="0.2"/>
  <text x="1382" y="1024" font-family="Arial, sans-serif" font-size="13" font-weight="700" fill="#22C55E">DR</text>
  <text x="1418" y="1012" font-family="Arial, sans-serif" font-size="13" font-weight="600" fill="#FFFFFF">David Rivera</text>
  <text x="1418" y="1030" font-family="Arial, sans-serif" font-size="11" fill="#6B7280">96 loads · 6.8 MPG</text>
  <text x="1716" y="1012" font-family="Arial Black, sans-serif" font-size="14" fill="#9CA3AF">$22,080</text>
  <text x="1716" y="1032" font-family="Arial, sans-serif" font-size="11" fill="#F59E0B">★★★★☆</text>
  <text x="1840" y="1028" font-family="Arial, sans-serif" font-size="12" fill="#9CA3AF">#4</text>

  <text x="1600" y="1076" font-family="Arial, sans-serif" font-size="12" fill="#FF6B35" text-anchor="middle">View all 15 drivers →</text>

  <!-- Bottom status bar -->
  <rect x="0" y="1158" width="1920" height="42" fill="#070B10"/>
  <rect x="0" y="1157" width="1920" height="1" fill="#1E2D3D"/>
  <circle cx="30" cy="1179" r="5" fill="#22C55E"/>
  <text x="42" y="1183" font-family="Arial, sans-serif" font-size="11" fill="#6B7280">Data updated: 2 minutes ago</text>
  <text x="900" y="1183" font-family="Arial, sans-serif" font-size="11" fill="#6B7280">Period: Oct 2025 — Mar 2026</text>
  <text x="1700" y="1183" font-family="Arial, sans-serif" font-size="11" fill="#6B7280">HaulWallet v3.2.1 — Chrome OS</text>
</svg>
