<svg xmlns="http://www.w3.org/2000/svg" viewBox="0 0 1600 2560" width="1600" height="2560">
  <defs>
    <linearGradient id="bgGrad" x1="0%" y1="0%" x2="0%" y2="100%">
      <stop offset="0%" style="stop-color:#0A1520"/>
      <stop offset="100%" style="stop-color:#060E17"/>
    </linearGradient>
    <linearGradient id="sidebarGrad" x1="0%" y1="0%" x2="100%" y2="0%">
      <stop offset="0%" style="stop-color:#080F1A"/>
      <stop offset="100%" style="stop-color:#0D1825"/>
    </linearGradient>
    <linearGradient id="cardGrad" x1="0%" y1="0%" x2="100%" y2="100%">
      <stop offset="0%" style="stop-color:#1A2535"/>
      <stop offset="100%" style="stop-color:#142030"/>
    </linearGradient>
    <linearGradient id="tableHeaderGrad" x1="0%" y1="0%" x2="0%" y2="100%">
      <stop offset="0%" style="stop-color:#192638"/>
      <stop offset="100%" style="stop-color:#142030"/>
    </linearGradient>
    <linearGradient id="orangeAccent" x1="0%" y1="0%" x2="100%" y2="0%">
      <stop offset="0%" style="stop-color:#FF6B35"/>
      <stop offset="100%" style="stop-color:#FF8A50"/>
    </linearGradient>
    <linearGradient id="selectedRow" x1="0%" y1="0%" x2="100%" y2="0%">
      <stop offset="0%" style="stop-color:#1E3550"/>
      <stop offset="100%" style="stop-color:#192A42"/>
    </linearGradient>
    <linearGradient id="rightPanelGrad" x1="0%" y1="0%" x2="100%" y2="0%">
      <stop offset="0%" style="stop-color:#0D1825"/>
      <stop offset="100%" style="stop-color:#0A1520"/>
    </linearGradient>
    <filter id="shadow">
      <feDropShadow dx="0" dy="6" stdDeviation="12" flood-color="#000" flood-opacity="0.5"/>
    </filter>
    <filter id="softShadow">
      <feDropShadow dx="0" dy="3" stdDeviation="6" flood-color="#000" flood-opacity="0.3"/>
    </filter>
    <filter id="sidebarShadow">
      <feDropShadow dx="4" dy="0" stdDeviation="16" flood-color="#000" flood-opacity="0.5"/>
    </filter>
  </defs>

  <!-- Background -->
  <rect width="1600" height="2560" fill="url(#bgGrad)"/>

  <!-- STATUS BAR -->
  <rect x="0" y="0" width="1600" height="80" fill="#06101A"/>
  <rect x="0" y="80" width="1600" height="1" fill="#1A2E40" opacity="0.9"/>
  <text x="68" y="54" font-family="SF Pro Display, Helvetica Neue, Arial, sans-serif" font-size="32" font-weight="600" fill="#FFFFFF">9:41</text>
  <rect x="1290" y="30" width="8" height="22" rx="2" fill="#FFFFFF" opacity="0.4"/>
  <rect x="1303" y="24" width="8" height="28" rx="2" fill="#FFFFFF" opacity="0.6"/>
  <rect x="1316" y="18" width="8" height="34" rx="2" fill="#FFFFFF" opacity="0.8"/>
  <rect x="1329" y="12" width="8" height="40" rx="2" fill="#FFFFFF"/>
  <path d="M1370 44 Q1388 26 1406 44" stroke="#FFFFFF" stroke-width="5" fill="none" opacity="0.5" stroke-linecap="round"/>
  <path d="M1378 53 Q1388 40 1398 53" stroke="#FFFFFF" stroke-width="5" fill="none" opacity="0.8" stroke-linecap="round"/>
  <circle cx="1388" cy="60" r="5" fill="#FFFFFF"/>
  <rect x="1440" y="26" width="82" height="32" rx="7" stroke="#FFFFFF" stroke-width="3" fill="none" opacity="0.9"/>
  <rect x="1522" y="37" width="8" height="12" rx="2" fill="#FFFFFF" opacity="0.7"/>
  <rect x="1443" y="29" width="60" height="26" rx="5" fill="#4CAF50"/>

  <!-- TOP NAV BAR -->
  <rect x="0" y="81" width="1600" height="100" fill="#0D1825"/>
  <rect x="0" y="181" width="1600" height="1" fill="#1A2E40"/>

  <!-- App brand -->
  <rect x="20" y="100" width="64" height="62" rx="16" fill="#FF6B35"/>
  <text x="52" y="142" font-family="SF Pro Display, sans-serif" font-size="28" font-weight="800" fill="#FFFFFF" text-anchor="middle">H</text>
  <text x="100" y="128" font-family="SF Pro Display, sans-serif" font-size="36" font-weight="700" fill="#FFFFFF">HaulWallet</text>
  <text x="100" y="162" font-family="SF Pro, sans-serif" font-size="22" fill="#4A7A9B">Load Management</text>

  <!-- Top nav search -->
  <rect x="560" y="106" width="480" height="60" rx="14" fill="#1A2535"/>
  <text x="596" y="143" font-family="SF Pro, sans-serif" font-size="22" fill="#2E4C68">🔍  Search by load ID, route, broker...</text>

  <!-- Top nav right -->
  <rect x="1090" y="106" width="80" height="60" rx="14" fill="#1A2535"/>
  <text x="1130" y="143" font-family="SF Pro, sans-serif" font-size="28" fill="#5B8AB5" text-anchor="middle">⚙</text>
  <rect x="1188" y="106" width="80" height="60" rx="14" fill="#1A2535"/>
  <text x="1228" y="143" font-family="SF Pro, sans-serif" font-size="26" fill="#5B8AB5" text-anchor="middle">🔔</text>
  <circle cx="1260" cy="114" r="8" fill="#FF6B35"/>
  <text x="1260" y="119" font-family="SF Pro, sans-serif" font-size="12" font-weight="700" fill="#FFFFFF" text-anchor="middle">3</text>
  <circle cx="1356" cy="136" r="32" fill="#FF6B35" opacity="0.1"/>
  <circle cx="1356" cy="136" r="28" stroke="#FF6B35" stroke-width="2" fill="#1A2535"/>
  <text x="1356" y="144" font-family="SF Pro, sans-serif" font-size="24" font-weight="700" fill="#FF6B35" text-anchor="middle">JD</text>
  <text x="1405" y="128" font-family="SF Pro Display, sans-serif" font-size="20" font-weight="600" fill="#FFFFFF">John Davis</text>
  <text x="1405" y="152" font-family="SF Pro, sans-serif" font-size="17" fill="#4A7A9B">CDL Class A</text>
  <text x="1550" y="140" font-family="SF Pro, sans-serif" font-size="24" fill="#3A5570">▾</text>

  <!-- ============================================ -->
  <!-- SIDEBAR (left) 280px -->
  <!-- ============================================ -->
  <rect x="0" y="182" width="280" height="2378" fill="url(#sidebarGrad)" filter="url(#sidebarShadow)"/>
  <rect x="280" y="182" width="1" height="2378" fill="#1A2E40" opacity="0.6"/>

  <text x="28" y="240" font-family="SF Pro, sans-serif" font-size="17" font-weight="600" fill="#2E4C68" letter-spacing="2">MENU</text>

  <!-- Dashboard -->
  <rect x="12" y="252" width="256" height="60" rx="14" fill="transparent"/>
  <text x="74" y="287" font-family="SF Pro, sans-serif" font-size="20" fill="#5B8AB5">Dashboard</text>
  <path d="M39 284 L46 277 L53 284 L53 296 L39 296 Z" fill="#5B8AB5"/>
  <rect x="43" y="289" width="6" height="7" rx="1" fill="#0A1520"/>

  <!-- Active: Loads -->
  <rect x="12" y="324" width="256" height="60" rx="14" fill="#FF6B35" opacity="0.12"/>
  <rect x="12" y="324" width="4" height="60" rx="2" fill="#FF6B35"/>
  <rect x="32" y="338" width="28" height="28" rx="6" fill="#FF6B35" opacity="0.2"/>
  <text x="46" y="358" font-family="SF Pro, sans-serif" font-size="20" fill="#FF6B35" text-anchor="middle">📦</text>
  <text x="74" y="354" font-family="SF Pro Display, sans-serif" font-size="20" font-weight="600" fill="#FF6B35">Active Loads</text>
  <text x="74" y="374" font-family="SF Pro, sans-serif" font-size="16" fill="#FF6B35" opacity="0.7">5 in progress</text>

  <rect x="12" y="392" width="256" height="58" rx="12" fill="transparent"/>
  <text x="46" y="426" font-family="SF Pro, sans-serif" font-size="20" fill="#3A5570" text-anchor="middle">🗺</text>
  <text x="74" y="426" font-family="SF Pro, sans-serif" font-size="20" fill="#5B8AB5">Route Map</text>

  <rect x="12" y="460" width="256" height="58" rx="12" fill="transparent"/>
  <text x="46" y="494" font-family="SF Pro, sans-serif" font-size="20" fill="#3A5570" text-anchor="middle">$</text>
  <text x="74" y="494" font-family="SF Pro, sans-serif" font-size="20" fill="#5B8AB5">Earnings</text>

  <rect x="12" y="528" width="256" height="58" rx="12" fill="transparent"/>
  <text x="46" y="562" font-family="SF Pro, sans-serif" font-size="20" fill="#3A5570" text-anchor="middle">⛽</text>
  <text x="74" y="562" font-family="SF Pro, sans-serif" font-size="20" fill="#5B8AB5">Fuel Log</text>

  <rect x="12" y="596" width="256" height="58" rx="12" fill="transparent"/>
  <text x="46" y="630" font-family="SF Pro, sans-serif" font-size="20" fill="#3A5570" text-anchor="middle">📊</text>
  <text x="74" y="630" font-family="SF Pro, sans-serif" font-size="20" fill="#5B8AB5">Analytics</text>

  <rect x="12" y="664" width="256" height="58" rx="12" fill="transparent"/>
  <text x="46" y="698" font-family="SF Pro, sans-serif" font-size="20" fill="#3A5570" text-anchor="middle">📋</text>
  <text x="74" y="698" font-family="SF Pro, sans-serif" font-size="20" fill="#5B8AB5">Compliance</text>

  <rect x="36" y="740" width="208" height="1" fill="#1A2E40"/>
  <text x="28" y="776" font-family="SF Pro, sans-serif" font-size="17" font-weight="600" fill="#2E4C68" letter-spacing="2">FLEET</text>

  <rect x="12" y="788" width="256" height="58" rx="12" fill="transparent"/>
  <text x="46" y="822" font-family="SF Pro, sans-serif" font-size="20" fill="#3A5570" text-anchor="middle">🚛</text>
  <text x="74" y="822" font-family="SF Pro, sans-serif" font-size="20" fill="#5B8AB5">My Trucks</text>

  <rect x="12" y="856" width="256" height="58" rx="12" fill="transparent"/>
  <text x="46" y="890" font-family="SF Pro, sans-serif" font-size="20" fill="#3A5570" text-anchor="middle">🔧</text>
  <text x="74" y="890" font-family="SF Pro, sans-serif" font-size="20" fill="#5B8AB5">Maintenance</text>

  <rect x="12" y="924" width="256" height="58" rx="12" fill="transparent"/>
  <text x="46" y="958" font-family="SF Pro, sans-serif" font-size="20" fill="#3A5570" text-anchor="middle">💳</text>
  <text x="74" y="958" font-family="SF Pro, sans-serif" font-size="20" fill="#5B8AB5">Expenses</text>

  <rect x="36" y="1000" width="208" height="1" fill="#1A2E40"/>

  <!-- Status summary in sidebar -->
  <text x="28" y="1036" font-family="SF Pro, sans-serif" font-size="17" font-weight="600" fill="#2E4C68" letter-spacing="2">LOAD STATUS</text>

  <rect x="16" y="1048" width="248" height="200" rx="16" fill="#1A2535"/>
  <!-- Status stats in sidebar -->
  <rect x="30" y="1070" width="220" height="44" rx="10" fill="#1E3550"/>
  <rect x="30" y="1070" width="4" height="44" rx="2" fill="#FF6B35"/>
  <text x="46" y="1090" font-family="SF Pro, sans-serif" font-size="17" fill="#5B8AB5">In Transit</text>
  <text x="244" y="1098" font-family="SF Pro Display, sans-serif" font-size="24" font-weight="700" fill="#FF6B35" text-anchor="end">1</text>

  <rect x="30" y="1126" width="220" height="44" rx="10" fill="#111D2A"/>
  <rect x="30" y="1126" width="4" height="44" rx="2" fill="#FFC107"/>
  <text x="46" y="1146" font-family="SF Pro, sans-serif" font-size="17" fill="#5B8AB5">Pickup Soon</text>
  <text x="244" y="1154" font-family="SF Pro Display, sans-serif" font-size="24" font-weight="700" fill="#FFC107" text-anchor="end">1</text>

  <rect x="30" y="1182" width="220" height="44" rx="10" fill="#111D2A"/>
  <rect x="30" y="1182" width="4" height="44" rx="2" fill="#9C27B0"/>
  <text x="46" y="1202" font-family="SF Pro, sans-serif" font-size="17" fill="#5B8AB5">Scheduled</text>
  <text x="244" y="1210" font-family="SF Pro Display, sans-serif" font-size="24" font-weight="700" fill="#CE93D8" text-anchor="end">2</text>

  <rect x="30" y="1238" width="220" height="1" fill="#1A2E40"/>

  <!-- This week earnings mini -->
  <rect x="16" y="1266" width="248" height="130" rx="16" fill="#1A2535"/>
  <text x="30" y="1302" font-family="SF Pro, sans-serif" font-size="17" fill="#4A7A9B">Week Revenue</text>
  <text x="30" y="1346" font-family="SF Pro Display, sans-serif" font-size="38" font-weight="700" fill="#4CAF50">$4,820</text>
  <text x="30" y="1376" font-family="SF Pro, sans-serif" font-size="16" fill="#4CAF50">↑ 18% vs last week</text>

  <!-- Bottom sidebar items -->
  <rect x="36" y="2320" width="208" height="1" fill="#1A2E40"/>
  <rect x="12" y="2336" width="256" height="58" rx="12" fill="transparent"/>
  <text x="74" y="2370" font-family="SF Pro, sans-serif" font-size="20" fill="#5B8AB5">Settings</text>
  <rect x="12" y="2404" width="256" height="58" rx="12" fill="transparent"/>
  <text x="74" y="2438" font-family="SF Pro, sans-serif" font-size="20" fill="#5B8AB5">Help &amp; Support</text>
  <rect x="12" y="2472" width="256" height="58" rx="12" fill="transparent"/>
  <text x="74" y="2506" font-family="SF Pro, sans-serif" font-size="20" fill="#FF4444">Sign Out</text>

  <!-- ============================================ -->
  <!-- MAIN TABLE AREA (x: 281 to ~930) -->
  <!-- ============================================ -->
  <rect x="281" y="182" width="650" height="2378" fill="#0C1820"/>

  <!-- Page title + actions -->
  <rect x="281" y="182" width="650" height="96" fill="#0F1F30"/>
  <text x="316" y="226" font-family="SF Pro Display, sans-serif" font-size="30" font-weight="700" fill="#FFFFFF">Active Loads</text>
  <text x="316" y="260" font-family="SF Pro, sans-serif" font-size="19" fill="#4A7A9B">5 loads · April 2026</text>

  <!-- Filter row -->
  <rect x="296" y="298" width="620" height="56" rx="14" fill="#1A2535"/>
  <!-- Filter chips -->
  <rect x="314" y="314" width="90" height="28" rx="14" fill="#FF6B35" opacity="0.15"/>
  <text x="359" y="334" font-family="SF Pro, sans-serif" font-size="16" fill="#FF6B35" text-anchor="middle">All (5)</text>
  <rect x="416" y="314" width="106" height="28" rx="14" fill="#1E3550"/>
  <text x="469" y="334" font-family="SF Pro, sans-serif" font-size="16" fill="#5B8AB5" text-anchor="middle">In Transit (1)</text>
  <rect x="534" y="314" width="118" height="28" rx="14" fill="#1E3550"/>
  <text x="593" y="334" font-family="SF Pro, sans-serif" font-size="16" fill="#5B8AB5" text-anchor="middle">Upcoming (2)</text>
  <rect x="664" y="314" width="106" height="28" rx="14" fill="#1E3550"/>
  <text x="717" y="334" font-family="SF Pro, sans-serif" font-size="16" fill="#5B8AB5" text-anchor="middle">Available (2)</text>
  <!-- Sort and filter buttons -->
  <rect x="796" y="314" width="84" height="28" rx="8" fill="#1E3550"/>
  <text x="838" y="332" font-family="SF Pro, sans-serif" font-size="16" fill="#5B8AB5" text-anchor="middle">Sort ▾</text>

  <!-- Column headers -->
  <rect x="296" y="370" width="620" height="52" rx="8" fill="url(#tableHeaderGrad)"/>
  <rect x="296" y="420" width="620" height="1" fill="#1E3048"/>
  <text x="316" y="402" font-family="SF Pro, sans-serif" font-size="16" font-weight="600" fill="#3A5570" letter-spacing="1">LOAD</text>
  <text x="428" y="402" font-family="SF Pro, sans-serif" font-size="16" font-weight="600" fill="#3A5570" letter-spacing="1">ROUTE</text>
  <text x="626" y="402" font-family="SF Pro, sans-serif" font-size="16" font-weight="600" fill="#3A5570" letter-spacing="1">STATUS</text>
  <text x="756" y="402" font-family="SF Pro, sans-serif" font-size="16" font-weight="600" fill="#3A5570" letter-spacing="1">PAY</text>
  <text x="852" y="402" font-family="SF Pro, sans-serif" font-size="16" font-weight="600" fill="#3A5570" letter-spacing="1">ETA</text>

  <!-- ROW 1 - Selected/Active row -->
  <rect x="296" y="422" width="620" height="90" rx="0" fill="url(#selectedRow)"/>
  <rect x="296" y="422" width="4" height="90" fill="#FF6B35"/>
  <rect x="296" y="510" width="620" height="1" fill="#1A2E40"/>
  <!-- Select indicator -->
  <rect x="304" y="440" width="26" height="26" rx="8" fill="#FF6B35"/>
  <text x="317" y="458" font-family="SF Pro, sans-serif" font-size="16" fill="#FFFFFF" text-anchor="middle">✓</text>
  <!-- Load info -->
  <text x="340" y="454" font-family="SF Pro Display, sans-serif" font-size="18" font-weight="700" fill="#FFFFFF">TRK-2847</text>
  <text x="340" y="476" font-family="SF Pro, sans-serif" font-size="15" fill="#5B8AB5">Apr 17 · 7:30 AM</text>
  <text x="340" y="496" font-family="SF Pro, sans-serif" font-size="14" fill="#3A5570">AutoParts Inc.</text>
  <!-- Route -->
  <text x="430" y="450" font-family="SF Pro, sans-serif" font-size="16" fill="#FFFFFF">Chicago, IL</text>
  <text x="430" y="468" font-family="SF Pro, sans-serif" font-size="13" fill="#3A5570">→ 284 mi →</text>
  <text x="430" y="486" font-family="SF Pro, sans-serif" font-size="16" fill="#FFFFFF">Detroit, MI</text>
  <text x="430" y="504" font-family="SF Pro, sans-serif" font-size="14" fill="#5B8AB5">18,500 lbs</text>
  <!-- Status badge -->
  <rect x="620" y="450" width="110" height="30" rx="15" fill="#FF6B35" opacity="0.2"/>
  <circle cx="638" cy="465" r="6" fill="#FF6B35"/>
  <text x="674" y="470" font-family="SF Pro, sans-serif" font-size="16" font-weight="600" fill="#FF6B35" text-anchor="middle">Transit</text>
  <!-- Pay -->
  <text x="756" y="459" font-family="SF Pro Display, sans-serif" font-size="22" font-weight="700" fill="#4CAF50">$1,240</text>
  <text x="756" y="480" font-family="SF Pro, sans-serif" font-size="14" fill="#5B8AB5">$4.37/mi</text>
  <!-- ETA -->
  <text x="852" y="459" font-family="SF Pro, sans-serif" font-size="16" fill="#4FC3F7">2h 35m</text>
  <text x="852" y="480" font-family="SF Pro, sans-serif" font-size="14" fill="#5B8AB5">3:45 PM</text>

  <!-- ROW 2 -->
  <rect x="296" y="512" width="620" height="90" rx="0" fill="#0E1B28"/>
  <rect x="296" y="512" width="4" height="90" fill="#FFC107"/>
  <rect x="296" y="600" width="620" height="1" fill="#1A2E40"/>
  <rect x="304" y="530" width="26" height="26" rx="8" fill="#1A2535" stroke="#2A3F55" stroke-width="1.5"/>
  <text x="340" y="544" font-family="SF Pro Display, sans-serif" font-size="18" font-weight="700" fill="#FFFFFF">TRK-2851</text>
  <text x="340" y="566" font-family="SF Pro, sans-serif" font-size="15" fill="#5B8AB5">Apr 17 · Pickup 1:15 PM</text>
  <text x="340" y="586" font-family="SF Pro, sans-serif" font-size="14" fill="#3A5570">Midwest Freight</text>
  <text x="430" y="540" font-family="SF Pro, sans-serif" font-size="16" fill="#FFFFFF">Cleveland, OH</text>
  <text x="430" y="558" font-family="SF Pro, sans-serif" font-size="13" fill="#3A5570">→ 131 mi →</text>
  <text x="430" y="576" font-family="SF Pro, sans-serif" font-size="16" fill="#FFFFFF">Pittsburgh, PA</text>
  <text x="430" y="594" font-family="SF Pro, sans-serif" font-size="14" fill="#5B8AB5">22,000 lbs</text>
  <rect x="620" y="540" width="122" height="30" rx="15" fill="#FFC107" opacity="0.15"/>
  <text x="681" y="560" font-family="SF Pro, sans-serif" font-size="16" font-weight="600" fill="#FFC107" text-anchor="middle">Pickup Soon</text>
  <text x="756" y="549" font-family="SF Pro Display, sans-serif" font-size="22" font-weight="700" fill="#4CAF50">$980</text>
  <text x="756" y="570" font-family="SF Pro, sans-serif" font-size="14" fill="#5B8AB5">$7.48/mi</text>
  <text x="852" y="549" font-family="SF Pro, sans-serif" font-size="16" fill="#FFC107">1h 15m</text>
  <text x="852" y="570" font-family="SF Pro, sans-serif" font-size="14" fill="#5B8AB5">to pickup</text>

  <!-- ROW 3 -->
  <rect x="296" y="602" width="620" height="90" rx="0" fill="#0C1820"/>
  <rect x="296" y="602" width="4" height="90" fill="#9C27B0"/>
  <rect x="296" y="690" width="620" height="1" fill="#1A2E40"/>
  <rect x="304" y="620" width="26" height="26" rx="8" fill="#1A2535" stroke="#2A3F55" stroke-width="1.5"/>
  <text x="340" y="634" font-family="SF Pro Display, sans-serif" font-size="18" font-weight="700" fill="#FFFFFF">TRK-2855</text>
  <text x="340" y="656" font-family="SF Pro, sans-serif" font-size="15" fill="#5B8AB5">Apr 18 · 6:00 AM</text>
  <text x="340" y="676" font-family="SF Pro, sans-serif" font-size="14" fill="#3A5570">SunBelt Logistics</text>
  <text x="430" y="630" font-family="SF Pro, sans-serif" font-size="16" fill="#FFFFFF">Memphis, TN</text>
  <text x="430" y="648" font-family="SF Pro, sans-serif" font-size="13" fill="#3A5570">→ 212 mi →</text>
  <text x="430" y="666" font-family="SF Pro, sans-serif" font-size="16" fill="#FFFFFF">Nashville, TN</text>
  <text x="430" y="684" font-family="SF Pro, sans-serif" font-size="14" fill="#5B8AB5">28,000 lbs</text>
  <rect x="620" y="630" width="116" height="30" rx="15" fill="#9C27B0" opacity="0.2"/>
  <text x="678" y="650" font-family="SF Pro, sans-serif" font-size="16" font-weight="600" fill="#CE93D8" text-anchor="middle">Scheduled</text>
  <text x="756" y="639" font-family="SF Pro Display, sans-serif" font-size="22" font-weight="700" fill="#4CAF50">$1,650</text>
  <text x="756" y="660" font-family="SF Pro, sans-serif" font-size="14" fill="#5B8AB5">$7.78/mi</text>
  <text x="852" y="639" font-family="SF Pro, sans-serif" font-size="16" fill="#CE93D8">Tomorrow</text>
  <text x="852" y="660" font-family="SF Pro, sans-serif" font-size="14" fill="#5B8AB5">6:00 AM</text>

  <!-- ROW 4 -->
  <rect x="296" y="692" width="620" height="90" rx="0" fill="#0E1B28"/>
  <rect x="296" y="692" width="4" height="90" fill="#2196F3"/>
  <rect x="296" y="780" width="620" height="1" fill="#1A2E40"/>
  <rect x="304" y="710" width="26" height="26" rx="8" fill="#1A2535" stroke="#2A3F55" stroke-width="1.5"/>
  <text x="340" y="724" font-family="SF Pro Display, sans-serif" font-size="18" font-weight="700" fill="#FFFFFF">TRK-2860</text>
  <text x="340" y="746" font-family="SF Pro, sans-serif" font-size="15" fill="#5B8AB5">Apr 19 · 8:00 AM</text>
  <text x="340" y="766" font-family="SF Pro, sans-serif" font-size="14" fill="#3A5570">Central Dispatch</text>
  <text x="430" y="720" font-family="SF Pro, sans-serif" font-size="16" fill="#FFFFFF">St. Louis, MO</text>
  <text x="430" y="738" font-family="SF Pro, sans-serif" font-size="13" fill="#3A5570">→ 248 mi →</text>
  <text x="430" y="756" font-family="SF Pro, sans-serif" font-size="16" fill="#FFFFFF">Kansas City, MO</text>
  <text x="430" y="774" font-family="SF Pro, sans-serif" font-size="14" fill="#5B8AB5">24,000 lbs</text>
  <rect x="620" y="720" width="110" height="30" rx="15" fill="#2196F3" opacity="0.2"/>
  <text x="675" y="740" font-family="SF Pro, sans-serif" font-size="16" font-weight="600" fill="#64B5F6" text-anchor="middle">Available</text>
  <text x="756" y="729" font-family="SF Pro Display, sans-serif" font-size="22" font-weight="700" fill="#4CAF50">$760</text>
  <text x="756" y="750" font-family="SF Pro, sans-serif" font-size="14" fill="#5B8AB5">$3.06/mi</text>
  <text x="852" y="729" font-family="SF Pro, sans-serif" font-size="16" fill="#64B5F6">Apr 19</text>
  <text x="852" y="750" font-family="SF Pro, sans-serif" font-size="14" fill="#5B8AB5">8:00 AM</text>

  <!-- ROW 5 -->
  <rect x="296" y="782" width="620" height="90" rx="0" fill="#0C1820"/>
  <rect x="296" y="782" width="4" height="90" fill="#4CAF50"/>
  <rect x="296" y="870" width="620" height="1" fill="#1A2E40"/>
  <rect x="304" y="800" width="26" height="26" rx="8" fill="#1A2535" stroke="#2A3F55" stroke-width="1.5"/>
  <text x="340" y="814" font-family="SF Pro Display, sans-serif" font-size="18" font-weight="700" fill="#FFFFFF">TRK-2865</text>
  <text x="340" y="836" font-family="SF Pro, sans-serif" font-size="15" fill="#5B8AB5">Apr 20 · 10:00 AM</text>
  <text x="340" y="856" font-family="SF Pro, sans-serif" font-size="14" fill="#3A5570">National Carriers</text>
  <text x="430" y="810" font-family="SF Pro, sans-serif" font-size="16" fill="#FFFFFF">Louisville, KY</text>
  <text x="430" y="828" font-family="SF Pro, sans-serif" font-size="13" fill="#3A5570">→ 176 mi →</text>
  <text x="430" y="846" font-family="SF Pro, sans-serif" font-size="16" fill="#FFFFFF">Indianapolis, IN</text>
  <text x="430" y="864" font-family="SF Pro, sans-serif" font-size="14" fill="#5B8AB5">31,500 lbs</text>
  <rect x="620" y="810" width="110" height="30" rx="15" fill="#4CAF50" opacity="0.15"/>
  <text x="675" y="830" font-family="SF Pro, sans-serif" font-size="16" font-weight="600" fill="#4CAF50" text-anchor="middle">Confirmed</text>
  <text x="756" y="819" font-family="SF Pro Display, sans-serif" font-size="22" font-weight="700" fill="#4CAF50">$1,100</text>
  <text x="756" y="840" font-family="SF Pro, sans-serif" font-size="14" fill="#5B8AB5">$6.25/mi</text>
  <text x="852" y="819" font-family="SF Pro, sans-serif" font-size="16" fill="#4CAF50">Apr 20</text>
  <text x="852" y="840" font-family="SF Pro, sans-serif" font-size="14" fill="#5B8AB5">10:00 AM</text>

  <!-- Divider and totals row -->
  <rect x="296" y="872" width="620" height="52" rx="0" fill="#1A2535"/>
  <rect x="296" y="922" width="620" height="1" fill="#1A2E40"/>
  <text x="316" y="904" font-family="SF Pro Display, sans-serif" font-size="19" font-weight="700" fill="#FFFFFF">5 Loads Total</text>
  <text x="630" y="904" font-family="SF Pro, sans-serif" font-size="17" fill="#5B8AB5">1,051 miles booked</text>
  <text x="880" y="904" font-family="SF Pro Display, sans-serif" font-size="19" font-weight="700" fill="#4CAF50" text-anchor="end">$5,730</text>

  <!-- Add load button -->
  <rect x="296" y="940" width="620" height="80" rx="16" fill="url(#orangeAccent)" opacity="0.12"/>
  <rect x="296" y="940" width="620" height="2" fill="#FF6B35" opacity="0.4"/>
  <text x="606" y="988" font-family="SF Pro Display, sans-serif" font-size="24" font-weight="700" fill="#FF6B35" text-anchor="middle">+ Add New Load</text>

  <!-- History section below -->
  <rect x="296" y="1046" width="620" height="56" fill="#0F1F30"/>
  <text x="316" y="1082" font-family="SF Pro Display, sans-serif" font-size="24" font-weight="700" fill="#FFFFFF">Recent History</text>
  <text x="820" y="1082" font-family="SF Pro, sans-serif" font-size="19" fill="#4A7A9B" text-anchor="end">View All →</text>

  <!-- History items -->
  <rect x="296" y="1102" width="620" height="72" fill="#0C1820"/>
  <rect x="296" y="1172" width="620" height="1" fill="#1A2E40"/>
  <rect x="296" y="1102" width="4" height="72" fill="#4CAF50"/>
  <text x="316" y="1130" font-family="SF Pro, sans-serif" font-size="17" fill="#FFFFFF">TRK-2839 · Indianapolis → Columbus</text>
  <text x="316" y="1154" font-family="SF Pro, sans-serif" font-size="15" fill="#5B8AB5">Apr 17 · Delivered · 284 mi</text>
  <text x="880" y="1143" font-family="SF Pro Display, sans-serif" font-size="20" font-weight="700" fill="#4CAF50" text-anchor="end">$870</text>

  <rect x="296" y="1174" width="620" height="72" fill="#0E1B28"/>
  <rect x="296" y="1244" width="620" height="1" fill="#1A2E40"/>
  <rect x="296" y="1174" width="4" height="72" fill="#4CAF50"/>
  <text x="316" y="1202" font-family="SF Pro, sans-serif" font-size="17" fill="#FFFFFF">TRK-2835 · Cleveland → Pittsburgh</text>
  <text x="316" y="1226" font-family="SF Pro, sans-serif" font-size="15" fill="#5B8AB5">Apr 16 · Delivered · 131 mi</text>
  <text x="880" y="1215" font-family="SF Pro Display, sans-serif" font-size="20" font-weight="700" fill="#4CAF50" text-anchor="end">$980</text>

  <rect x="296" y="1246" width="620" height="72" fill="#0C1820"/>
  <rect x="296" y="1316" width="620" height="1" fill="#1A2E40"/>
  <rect x="296" y="1246" width="4" height="72" fill="#4CAF50"/>
  <text x="316" y="1274" font-family="SF Pro, sans-serif" font-size="17" fill="#FFFFFF">TRK-2831 · Chicago → Milwaukee</text>
  <text x="316" y="1298" font-family="SF Pro, sans-serif" font-size="15" fill="#5B8AB5">Apr 15 · Delivered · 92 mi</text>
  <text x="880" y="1287" font-family="SF Pro Display, sans-serif" font-size="20" font-weight="700" fill="#4CAF50" text-anchor="end">$390</text>

  <!-- ============================================ -->
  <!-- RIGHT DETAIL PANEL (x: 931 to 1600) -->
  <!-- ============================================ -->
  <rect x="931" y="182" width="669" height="2378" fill="url(#rightPanelGrad)"/>
  <rect x="931" y="182" width="1" height="2378" fill="#1A2E40" opacity="0.6"/>

  <!-- Right panel header -->
  <rect x="931" y="182" width="669" height="96" fill="#0F1F30"/>
  <text x="966" y="226" font-family="SF Pro Display, sans-serif" font-size="28" font-weight="700" fill="#FFFFFF">Load Details</text>
  <text x="966" y="258" font-family="SF Pro, sans-serif" font-size="19" fill="#4A7A9B">TRK-2847 · Selected</text>

  <!-- Action buttons top right panel -->
  <rect x="1340" y="196" width="120" height="52" rx="14" fill="url(#orangeAccent)"/>
  <text x="1400" y="228" font-family="SF Pro Display, sans-serif" font-size="19" font-weight="700" fill="#FFFFFF" text-anchor="middle">Update</text>
  <rect x="1470" y="196" width="114" height="52" rx="14" fill="#1A2535" stroke="#2A3F55" stroke-width="1.5"/>
  <text x="1527" y="228" font-family="SF Pro, sans-serif" font-size="19" fill="#5B8AB5" text-anchor="middle">Share</text>

  <!-- Load header card -->
  <rect x="950" y="298" width="630" height="96" rx="16" fill="#1E3550"/>
  <rect x="950" y="298" width="630" height="5" rx="3" fill="#FF6B35"/>
  <text x="975" y="338" font-family="SF Pro Display, sans-serif" font-size="26" font-weight="700" fill="#FFFFFF">TRK-2847</text>
  <rect x="1406" y="310" width="156" height="38" rx="19" fill="#FF6B35" opacity="0.2"/>
  <circle cx="1424" cy="329" r="7" fill="#FF6B35"/>
  <text x="1484" y="334" font-family="SF Pro, sans-serif" font-size="18" font-weight="600" fill="#FF6B35" text-anchor="middle">In Transit</text>
  <text x="975" y="372" font-family="SF Pro, sans-serif" font-size="20" fill="#5B8AB5">Chicago, IL  →  Detroit, MI  ·  284 miles</text>

  <!-- Info grid 2x2 -->
  <rect x="950" y="414" width="300" height="118" rx="14" fill="#1A2535"/>
  <text x="970" y="450" font-family="SF Pro, sans-serif" font-size="17" fill="#4A7A9B">Shipper</text>
  <text x="970" y="480" font-family="SF Pro Display, sans-serif" font-size="20" font-weight="600" fill="#FFFFFF">AutoParts Inc.</text>
  <text x="970" y="504" font-family="SF Pro, sans-serif" font-size="16" fill="#5B8AB5">Chicago Distribution Hub</text>
  <text x="970" y="524" font-family="SF Pro, sans-serif" font-size="15" fill="#3A5570">📍 2400 S Halsted St, Chicago</text>

  <rect x="1262" y="414" width="318" height="118" rx="14" fill="#1A2535"/>
  <text x="1282" y="450" font-family="SF Pro, sans-serif" font-size="17" fill="#4A7A9B">Receiver</text>
  <text x="1282" y="480" font-family="SF Pro Display, sans-serif" font-size="20" font-weight="600" fill="#FFFFFF">MotoWorld LLC</text>
  <text x="1282" y="504" font-family="SF Pro, sans-serif" font-size="16" fill="#5B8AB5">Detroit Main Warehouse</text>
  <text x="1282" y="524" font-family="SF Pro, sans-serif" font-size="15" fill="#3A5570">📍 8800 Dix Ave, Detroit</text>

  <!-- Load specs row -->
  <rect x="950" y="552" width="180" height="100" rx="12" fill="#1A2535"/>
  <text x="970" y="582" font-family="SF Pro, sans-serif" font-size="16" fill="#4A7A9B">Weight</text>
  <text x="970" y="622" font-family="SF Pro Display, sans-serif" font-size="28" font-weight="700" fill="#FFFFFF">18,500</text>
  <text x="970" y="642" font-family="SF Pro, sans-serif" font-size="15" fill="#5B8AB5">lbs · Dry Van</text>

  <rect x="1142" y="552" width="186" height="100" rx="12" fill="#1A2535"/>
  <text x="1162" y="582" font-family="SF Pro, sans-serif" font-size="16" fill="#4A7A9B">Commodity</text>
  <text x="1162" y="622" font-family="SF Pro Display, sans-serif" font-size="24" font-weight="700" fill="#FFFFFF">Auto Parts</text>
  <text x="1162" y="642" font-family="SF Pro, sans-serif" font-size="15" fill="#5B8AB5">Non-hazardous</text>

  <rect x="1340" y="552" width="240" height="100" rx="12" fill="#FF6B35" opacity="0.1"/>
  <rect x="1340" y="552" width="240" height="3" rx="2" fill="#FF6B35"/>
  <text x="1360" y="582" font-family="SF Pro, sans-serif" font-size="16" fill="#FF6B35">Total Pay</text>
  <text x="1360" y="626" font-family="SF Pro Display, sans-serif" font-size="36" font-weight="700" fill="#FF6B35">$1,240</text>
  <text x="1360" y="646" font-family="SF Pro, sans-serif" font-size="15" fill="#FF6B35" opacity="0.7">$4.37 / mile</text>

  <!-- Progress card -->
  <rect x="950" y="672" width="630" height="180" rx="16" fill="url(#cardGrad)"/>
  <text x="975" y="712" font-family="SF Pro Display, sans-serif" font-size="22" font-weight="700" fill="#FFFFFF">Delivery Progress</text>
  <text x="975" y="738" font-family="SF Pro, sans-serif" font-size="18" fill="#FF6B35">45% Complete · 156 mi remaining</text>

  <!-- Progress bar -->
  <rect x="975" y="756" width="582" height="16" rx="8" fill="#1A2535"/>
  <rect x="975" y="756" width="262" height="16" rx="8" fill="url(#orangeAccent)"/>
  <!-- Markers -->
  <text x="975" y="792" font-family="SF Pro, sans-serif" font-size="15" fill="#3A5570">Chicago</text>
  <text x="1557" y="792" font-family="SF Pro, sans-serif" font-size="15" fill="#3A5570" text-anchor="end">Detroit</text>
  <text x="1106" y="792" font-family="SF Pro, sans-serif" font-size="15" fill="#FF6B35" text-anchor="middle">You here</text>
  <!-- Tick -->
  <line x1="1106" y1="772" x2="1106" y2="796" stroke="#FF6B35" stroke-width="2"/>

  <!-- Timeline steps compact -->
  <rect x="975" y="810" width="264" height="36" rx="10" fill="#1E3550"/>
  <circle cx="998" cy="828" r="10" fill="#4CAF50"/>
  <text x="1012" y="833" font-family="SF Pro, sans-serif" font-size="15" fill="#4CAF50">✓</text>
  <text x="1026" y="833" font-family="SF Pro, sans-serif" font-size="15" fill="#FFFFFF">Picked up · 7:30 AM</text>

  <rect x="1251" y="810" width="300" height="36" rx="10" fill="#111D2A"/>
  <circle cx="1274" cy="828" r="10" fill="#FF6B35"/>
  <circle cx="1274" cy="828" r="5" fill="#FFFFFF"/>
  <text x="1292" y="833" font-family="SF Pro, sans-serif" font-size="15" fill="#FF6B35">ETA 3:45 PM · Detroit</text>

  <!-- Notes / special instructions -->
  <rect x="950" y="872" width="630" height="130" rx="16" fill="url(#cardGrad)"/>
  <text x="975" y="912" font-family="SF Pro Display, sans-serif" font-size="20" font-weight="700" fill="#FFFFFF">Special Instructions</text>
  <text x="975" y="940" font-family="SF Pro, sans-serif" font-size="17" fill="#5B8AB5">• Appointment required at delivery — call 30 min ahead</text>
  <text x="975" y="964" font-family="SF Pro, sans-serif" font-size="17" fill="#5B8AB5">• Dock door #7 · Forklift available on site</text>
  <text x="975" y="988" font-family="SF Pro, sans-serif" font-size="17" fill="#5B8AB5">• Photo POD required · Check-in with security at gate A</text>

  <!-- Documents compact -->
  <rect x="950" y="1022" width="630" height="180" rx="16" fill="url(#cardGrad)"/>
  <text x="975" y="1060" font-family="SF Pro Display, sans-serif" font-size="20" font-weight="700" fill="#FFFFFF">Documents</text>
  <rect x="1466" y="1036" width="100" height="36" rx="18" fill="#1A2535"/>
  <text x="1516" y="1060" font-family="SF Pro, sans-serif" font-size="16" fill="#5B8AB5" text-anchor="middle">+ Upload</text>

  <rect x="970" y="1076" width="186" height="66" rx="12" fill="#1A2535"/>
  <text x="988" y="1102" font-family="SF Pro, sans-serif" font-size="15" fill="#5B8AB5">📄 Bill of Lading</text>
  <text x="988" y="1126" font-family="SF Pro, sans-serif" font-size="13" fill="#4CAF50">✓ Signed</text>

  <rect x="1168" y="1076" width="196" height="66" rx="12" fill="#1A2535"/>
  <text x="1186" y="1102" font-family="SF Pro, sans-serif" font-size="15" fill="#5B8AB5">📋 Rate Confirmation</text>
  <text x="1186" y="1126" font-family="SF Pro, sans-serif" font-size="13" fill="#4CAF50">✓ Confirmed</text>

  <rect x="1376" y="1076" width="186" height="66" rx="12" fill="#1A2535"/>
  <text x="1394" y="1102" font-family="SF Pro, sans-serif" font-size="15" fill="#5B8AB5">📸 POD Photo</text>
  <text x="1394" y="1126" font-family="SF Pro, sans-serif" font-size="13" fill="#FFC107">Pending</text>

  <rect x="970" y="1154" width="592" height="38" rx="10" fill="#111D2A"/>
  <text x="975" y="1178" font-family="SF Pro, sans-serif" font-size="15" fill="#3A5570">⚖ Weight Certificate · #WC-2847 · 18,500 lbs Verified</text>

  <!-- Broker card -->
  <rect x="950" y="1222" width="630" height="140" rx="16" fill="url(#cardGrad)"/>
  <text x="975" y="1262" font-family="SF Pro Display, sans-serif" font-size="20" font-weight="700" fill="#FFFFFF">Broker</text>
  <circle cx="1010" cy="1330" r="34" fill="#1A2535" stroke="#2A3F55" stroke-width="1.5"/>
  <text x="1010" y="1339" font-family="SF Pro, sans-serif" font-size="24" font-weight="700" fill="#5B8AB5" text-anchor="middle">MF</text>
  <text x="1060" y="1314" font-family="SF Pro Display, sans-serif" font-size="20" font-weight="600" fill="#FFFFFF">Mike Foster</text>
  <text x="1060" y="1336" font-family="SF Pro, sans-serif" font-size="17" fill="#5B8AB5">FastFreight Brokerage · MC 847291</text>
  <text x="1060" y="1354" font-family="SF Pro, sans-serif" font-size="16" fill="#4FC3F7">+1 (312) 555-0194</text>
  <rect x="1416" y="1302" width="80" height="48" rx="12" fill="#4FC3F7" opacity="0.12"/>
  <text x="1456" y="1332" font-family="SF Pro, sans-serif" font-size="22" fill="#4FC3F7" text-anchor="middle">📞</text>
  <rect x="1504" y="1302" width="76" height="48" rx="12" fill="#4CAF50" opacity="0.12"/>
  <text x="1542" y="1332" font-family="SF Pro, sans-serif" font-size="22" fill="#4CAF50" text-anchor="middle">✉</text>

  <!-- Action buttons bottom right -->
  <rect x="950" y="1382" width="300" height="72" rx="16" fill="url(#orangeAccent)"/>
  <text x="1100" y="1424" font-family="SF Pro Display, sans-serif" font-size="22" font-weight="700" fill="#FFFFFF" text-anchor="middle">Mark Delivered</text>
  <rect x="1262" y="1382" width="318" height="72" rx="16" fill="#1A2535" stroke="#2A3F55" stroke-width="1.5"/>
  <text x="1421" y="1424" font-family="SF Pro, sans-serif" font-size="22" fill="#5B8AB5" text-anchor="middle">Report Issue</text>

  <!-- Truck assignment -->
  <rect x="950" y="1474" width="630" height="140" rx="16" fill="url(#cardGrad)"/>
  <text x="975" y="1514" font-family="SF Pro Display, sans-serif" font-size="20" font-weight="700" fill="#FFFFFF">Assigned Truck</text>
  <text x="975" y="1542" font-family="SF Pro, sans-serif" font-size="17" fill="#5B8AB5">#1842-IL · 2022 Peterbilt 579 · 53ft Dry Van</text>
  <rect x="975" y="1556" width="180" height="50" rx="10" fill="#1A2535"/>
  <text x="985" y="1576" font-family="SF Pro, sans-serif" font-size="14" fill="#4A7A9B">Fuel Level</text>
  <text x="985" y="1596" font-family="SF Pro Display, sans-serif" font-size="20" font-weight="700" fill="#4CAF50">68%</text>
  <rect x="1168" y="1556" width="180" height="50" rx="10" fill="#1A2535"/>
  <text x="1178" y="1576" font-family="SF Pro, sans-serif" font-size="14" fill="#4A7A9B">Odometer</text>
  <text x="1178" y="1596" font-family="SF Pro Display, sans-serif" font-size="20" font-weight="700" fill="#FFFFFF">142,840</text>
  <rect x="1362" y="1556" width="210" height="50" rx="10" fill="#FFC107" opacity="0.1"/>
  <text x="1372" y="1576" font-family="SF Pro, sans-serif" font-size="14" fill="#4A7A9B">Next Service</text>
  <text x="1372" y="1596" font-family="SF Pro Display, sans-serif" font-size="18" font-weight="700" fill="#FFC107">2,400 mi</text>
</svg>
