<svg xmlns="http://www.w3.org/2000/svg" viewBox="0 0 1600 2560" width="1600" height="2560">
  <defs>
    <linearGradient id="bgGrad" x1="0%" y1="0%" x2="0%" y2="100%">
      <stop offset="0%" style="stop-color:#0A1520"/>
      <stop offset="100%" style="stop-color:#060E17"/>
    </linearGradient>
    <linearGradient id="sidebarGrad" x1="0%" y1="0%" x2="100%" y2="0%">
      <stop offset="0%" style="stop-color:#080F1A"/>
      <stop offset="100%" style="stop-color:#0D1825"/>
    </linearGradient>
    <linearGradient id="cardGrad" x1="0%" y1="0%" x2="100%" y2="100%">
      <stop offset="0%" style="stop-color:#1A2535"/>
      <stop offset="100%" style="stop-color:#142030"/>
    </linearGradient>
    <linearGradient id="mapGrad" x1="0%" y1="0%" x2="100%" y2="100%">
      <stop offset="0%" style="stop-color:#0A1E2E"/>
      <stop offset="100%" style="stop-color:#071520"/>
    </linearGradient>
    <linearGradient id="orangeAccent" x1="0%" y1="0%" x2="100%" y2="0%">
      <stop offset="0%" style="stop-color:#FF6B35"/>
      <stop offset="100%" style="stop-color:#FF8A50"/>
    </linearGradient>
    <linearGradient id="greenGrad" x1="0%" y1="0%" x2="0%" y2="100%">
      <stop offset="0%" style="stop-color:#4CAF50"/>
      <stop offset="100%" style="stop-color:#2E7D32"/>
    </linearGradient>
    <linearGradient id="blueGrad" x1="0%" y1="0%" x2="0%" y2="100%">
      <stop offset="0%" style="stop-color:#4FC3F7"/>
      <stop offset="100%" style="stop-color:#0288D1"/>
    </linearGradient>
    <linearGradient id="rightPanelGrad" x1="0%" y1="0%" x2="100%" y2="0%">
      <stop offset="0%" style="stop-color:#0D1825"/>
      <stop offset="100%" style="stop-color:#0A1520"/>
    </linearGradient>
    <linearGradient id="chartAreaGrad" x1="0%" y1="0%" x2="0%" y2="100%">
      <stop offset="0%" style="stop-color:#FF6B35" stop-opacity="0.25"/>
      <stop offset="100%" style="stop-color:#FF6B35" stop-opacity="0.02"/>
    </linearGradient>
    <filter id="shadow">
      <feDropShadow dx="0" dy="6" stdDeviation="12" flood-color="#000" flood-opacity="0.5"/>
    </filter>
    <filter id="softShadow">
      <feDropShadow dx="0" dy="3" stdDeviation="6" flood-color="#000" flood-opacity="0.3"/>
    </filter>
    <filter id="sidebarShadow">
      <feDropShadow dx="4" dy="0" stdDeviation="16" flood-color="#000" flood-opacity="0.5"/>
    </filter>
  </defs>

  <!-- Background -->
  <rect width="1600" height="2560" fill="url(#bgGrad)"/>

  <!-- STATUS BAR -->
  <rect x="0" y="0" width="1600" height="80" fill="#06101A"/>
  <rect x="0" y="80" width="1600" height="1" fill="#1A2E40" opacity="0.9"/>
  <text x="68" y="54" font-family="SF Pro Display, Helvetica Neue, Arial, sans-serif" font-size="32" font-weight="600" fill="#FFFFFF">9:41</text>
  <!-- Status icons right -->
  <rect x="1290" y="30" width="8" height="22" rx="2" fill="#FFFFFF" opacity="0.4"/>
  <rect x="1303" y="24" width="8" height="28" rx="2" fill="#FFFFFF" opacity="0.6"/>
  <rect x="1316" y="18" width="8" height="34" rx="2" fill="#FFFFFF" opacity="0.8"/>
  <rect x="1329" y="12" width="8" height="40" rx="2" fill="#FFFFFF"/>
  <path d="M1370 44 Q1388 26 1406 44" stroke="#FFFFFF" stroke-width="5" fill="none" opacity="0.5" stroke-linecap="round"/>
  <path d="M1378 53 Q1388 40 1398 53" stroke="#FFFFFF" stroke-width="5" fill="none" opacity="0.8" stroke-linecap="round"/>
  <circle cx="1388" cy="60" r="5" fill="#FFFFFF"/>
  <rect x="1440" y="26" width="82" height="32" rx="7" stroke="#FFFFFF" stroke-width="3" fill="none" opacity="0.9"/>
  <rect x="1522" y="37" width="8" height="12" rx="2" fill="#FFFFFF" opacity="0.7"/>
  <rect x="1443" y="29" width="60" height="26" rx="5" fill="#4CAF50"/>

  <!-- TOP NAV BAR -->
  <rect x="0" y="81" width="1600" height="100" fill="#0D1825"/>
  <rect x="0" y="181" width="1600" height="1" fill="#1A2E40"/>

  <!-- App brand in top nav -->
  <rect x="16" y="96" width="240" height="70" fill="transparent"/>
  <rect x="20" y="100" width="64" height="62" rx="16" fill="#FF6B35"/>
  <text x="52" y="142" font-family="SF Pro Display, Helvetica Neue, Arial, sans-serif" font-size="28" font-weight="800" fill="#FFFFFF" text-anchor="middle">H</text>
  <text x="100" y="128" font-family="SF Pro Display, Helvetica Neue, Arial, sans-serif" font-size="36" font-weight="700" fill="#FFFFFF">HaulWallet</text>
  <text x="100" y="162" font-family="SF Pro, Helvetica Neue, Arial, sans-serif" font-size="22" fill="#4A7A9B">Pro Dashboard</text>

  <!-- Top nav search -->
  <rect x="560" y="106" width="480" height="60" rx="14" fill="#1A2535"/>
  <text x="596" y="143" font-family="SF Pro, sans-serif" font-size="22" fill="#2E4C68">🔍  Search loads, drivers, routes...</text>

  <!-- Top nav actions -->
  <rect x="1090" y="106" width="80" height="60" rx="14" fill="#1A2535"/>
  <text x="1130" y="143" font-family="SF Pro, sans-serif" font-size="28" fill="#5B8AB5" text-anchor="middle">⚙</text>

  <rect x="1188" y="106" width="80" height="60" rx="14" fill="#1A2535"/>
  <circle cx="1228" cy="128" r="12" fill="#FF6B35" opacity="0.2"/>
  <circle cx="1228" cy="128" r="6" fill="#FF6B35"/>
  <text x="1228" y="160" font-family="SF Pro, sans-serif" font-size="18" fill="#5B8AB5" text-anchor="middle">Live</text>
  <circle cx="1256" cy="112" r="8" fill="#FF6B35"/>
  <text x="1256" y="117" font-family="SF Pro, sans-serif" font-size="12" font-weight="700" fill="#FFFFFF" text-anchor="middle">2</text>

  <circle cx="1356" cy="136" r="32" fill="#FF6B35" opacity="0.1"/>
  <circle cx="1356" cy="136" r="28" stroke="#FF6B35" stroke-width="2" fill="#1A2535"/>
  <text x="1356" y="144" font-family="SF Pro, sans-serif" font-size="24" font-weight="700" fill="#FF6B35" text-anchor="middle">JD</text>

  <text x="1405" y="128" font-family="SF Pro Display, sans-serif" font-size="20" font-weight="600" fill="#FFFFFF">John Davis</text>
  <text x="1405" y="152" font-family="SF Pro, sans-serif" font-size="17" fill="#4A7A9B">CDL Class A</text>
  <text x="1550" y="140" font-family="SF Pro, sans-serif" font-size="24" fill="#3A5570">▾</text>

  <!-- ============================================ -->
  <!-- THREE COLUMN LAYOUT: 280 | ~650 | 670 -->
  <!-- ============================================ -->

  <!-- SIDEBAR (left) - 280px wide -->
  <rect x="0" y="182" width="280" height="2378" fill="url(#sidebarGrad)" filter="url(#sidebarShadow)"/>
  <rect x="280" y="182" width="1" height="2378" fill="#1A2E40" opacity="0.6"/>

  <!-- Sidebar section: MENU -->
  <text x="28" y="240" font-family="SF Pro, sans-serif" font-size="17" font-weight="600" fill="#2E4C68" letter-spacing="2">MENU</text>

  <!-- Active nav item: Dashboard -->
  <rect x="12" y="252" width="256" height="60" rx="14" fill="#FF6B35" opacity="0.12"/>
  <rect x="12" y="252" width="4" height="60" rx="2" fill="#FF6B35"/>
  <!-- Home icon -->
  <rect x="32" y="268" width="28" height="28" rx="6" fill="#FF6B35" opacity="0.2"/>
  <path d="M39 284 L46 277 L53 284 L53 296 L39 296 Z" fill="#FF6B35" stroke="none"/>
  <rect x="43" y="289" width="6" height="7" rx="1" fill="#0A1520"/>
  <text x="74" y="287" font-family="SF Pro Display, sans-serif" font-size="20" font-weight="600" fill="#FF6B35">Dashboard</text>
  <text x="74" y="305" font-family="SF Pro, sans-serif" font-size="16" fill="#FF6B35" opacity="0.7">Overview</text>

  <!-- Nav items -->
  <rect x="12" y="324" width="256" height="58" rx="12" fill="transparent"/>
  <rect x="32" y="336" width="28" height="28" rx="6" fill="#1A2535"/>
  <text x="46" y="355" font-family="SF Pro, sans-serif" font-size="20" fill="#3A5570" text-anchor="middle">📦</text>
  <text x="74" y="352" font-family="SF Pro, sans-serif" font-size="20" fill="#5B8AB5">Active Loads</text>
  <rect x="226" y="336" width="28" height="24" rx="12" fill="#FF6B35" opacity="0.2"/>
  <text x="240" y="353" font-family="SF Pro, sans-serif" font-size="14" font-weight="700" fill="#FF6B35" text-anchor="middle">5</text>

  <rect x="12" y="392" width="256" height="58" rx="12" fill="transparent"/>
  <rect x="32" y="404" width="28" height="28" rx="6" fill="#1A2535"/>
  <text x="46" y="423" font-family="SF Pro, sans-serif" font-size="20" fill="#3A5570" text-anchor="middle">🗺</text>
  <text x="74" y="420" font-family="SF Pro, sans-serif" font-size="20" fill="#5B8AB5">Route Map</text>

  <rect x="12" y="460" width="256" height="58" rx="12" fill="transparent"/>
  <rect x="32" y="472" width="28" height="28" rx="6" fill="#1A2535"/>
  <text x="46" y="491" font-family="SF Pro, sans-serif" font-size="20" fill="#3A5570" text-anchor="middle">$</text>
  <text x="74" y="488" font-family="SF Pro, sans-serif" font-size="20" fill="#5B8AB5">Earnings</text>

  <rect x="12" y="528" width="256" height="58" rx="12" fill="transparent"/>
  <rect x="32" y="540" width="28" height="28" rx="6" fill="#1A2535"/>
  <text x="46" y="559" font-family="SF Pro, sans-serif" font-size="20" fill="#3A5570" text-anchor="middle">⛽</text>
  <text x="74" y="556" font-family="SF Pro, sans-serif" font-size="20" fill="#5B8AB5">Fuel Log</text>

  <rect x="12" y="596" width="256" height="58" rx="12" fill="transparent"/>
  <rect x="32" y="608" width="28" height="28" rx="6" fill="#1A2535"/>
  <text x="46" y="627" font-family="SF Pro, sans-serif" font-size="20" fill="#3A5570" text-anchor="middle">📊</text>
  <text x="74" y="624" font-family="SF Pro, sans-serif" font-size="20" fill="#5B8AB5">Analytics</text>

  <rect x="12" y="664" width="256" height="58" rx="12" fill="transparent"/>
  <rect x="32" y="676" width="28" height="28" rx="6" fill="#1A2535"/>
  <text x="46" y="695" font-family="SF Pro, sans-serif" font-size="20" fill="#3A5570" text-anchor="middle">📋</text>
  <text x="74" y="692" font-family="SF Pro, sans-serif" font-size="20" fill="#5B8AB5">Compliance</text>
  <rect x="226" y="676" width="28" height="24" rx="12" fill="#FFC107" opacity="0.2"/>
  <text x="240" y="693" font-family="SF Pro, sans-serif" font-size="14" font-weight="700" fill="#FFC107" text-anchor="middle">!</text>

  <rect x="36" y="738" width="208" height="1" fill="#1A2E40"/>

  <!-- Fleet section -->
  <text x="28" y="774" font-family="SF Pro, sans-serif" font-size="17" font-weight="600" fill="#2E4C68" letter-spacing="2">FLEET</text>

  <rect x="12" y="786" width="256" height="58" rx="12" fill="transparent"/>
  <text x="46" y="820" font-family="SF Pro, sans-serif" font-size="20" fill="#3A5570" text-anchor="middle">🚛</text>
  <text x="74" y="820" font-family="SF Pro, sans-serif" font-size="20" fill="#5B8AB5">My Trucks</text>

  <rect x="12" y="854" width="256" height="58" rx="12" fill="transparent"/>
  <text x="46" y="888" font-family="SF Pro, sans-serif" font-size="20" fill="#3A5570" text-anchor="middle">🔧</text>
  <text x="74" y="888" font-family="SF Pro, sans-serif" font-size="20" fill="#5B8AB5">Maintenance</text>

  <rect x="12" y="922" width="256" height="58" rx="12" fill="transparent"/>
  <text x="46" y="956" font-family="SF Pro, sans-serif" font-size="20" fill="#3A5570" text-anchor="middle">💳</text>
  <text x="74" y="956" font-family="SF Pro, sans-serif" font-size="20" fill="#5B8AB5">Expenses</text>

  <rect x="36" y="998" width="208" height="1" fill="#1A2E40"/>

  <!-- Driver status card in sidebar -->
  <rect x="16" y="1016" width="248" height="150" rx="16" fill="#1A2535"/>
  <rect x="16" y="1016" width="248" height="4" rx="2" fill="#FF6B35"/>
  <text x="140" y="1054" font-family="SF Pro Display, sans-serif" font-size="18" font-weight="600" fill="#FFFFFF" text-anchor="middle">Driver Status</text>
  <circle cx="140" cy="1100" r="28" fill="#4CAF50" opacity="0.15"/>
  <circle cx="140" cy="1100" r="22" fill="#4CAF50"/>
  <text x="140" y="1108" font-family="SF Pro Display, sans-serif" font-size="20" font-weight="800" fill="#FFFFFF" text-anchor="middle">ON</text>
  <text x="140" y="1148" font-family="SF Pro, sans-serif" font-size="17" fill="#4CAF50" text-anchor="middle">On Duty — 6h 42m</text>

  <!-- HOS Gauge in sidebar -->
  <rect x="16" y="1182" width="248" height="180" rx="16" fill="#1A2535"/>
  <text x="140" y="1220" font-family="SF Pro Display, sans-serif" font-size="18" font-weight="600" fill="#FFFFFF" text-anchor="middle">Hours of Service</text>
  <!-- HOS bar -->
  <rect x="36" y="1238" width="208" height="12" rx="6" fill="#0A1520"/>
  <rect x="36" y="1238" width="114" height="12" rx="6" fill="#4CAF50"/>
  <text x="36" y="1272" font-family="SF Pro, sans-serif" font-size="17" fill="#5B8AB5">Drive Time</text>
  <text x="244" y="1272" font-family="SF Pro, sans-serif" font-size="17" fill="#4CAF50" text-anchor="end">5.5 / 11h</text>
  <!-- Second HOS bar -->
  <rect x="36" y="1296" width="208" height="12" rx="6" fill="#0A1520"/>
  <rect x="36" y="1296" width="144" height="12" rx="6" fill="#FFC107"/>
  <text x="36" y="1330" font-family="SF Pro, sans-serif" font-size="17" fill="#5B8AB5">On Duty</text>
  <text x="244" y="1330" font-family="SF Pro, sans-serif" font-size="17" fill="#FFC107" text-anchor="end">6.7 / 14h</text>
  <text x="140" y="1352" font-family="SF Pro, sans-serif" font-size="16" fill="#5B8AB5" text-anchor="middle">Cycle: 48.5 / 70h</text>

  <!-- Weather widget -->
  <rect x="16" y="1378" width="248" height="120" rx="16" fill="#1A2535"/>
  <text x="140" y="1414" font-family="SF Pro Display, sans-serif" font-size="18" font-weight="600" fill="#FFFFFF" text-anchor="middle">Weather · Detroit</text>
  <text x="60" y="1465" font-family="SF Pro Display, sans-serif" font-size="44" font-weight="300" fill="#FFFFFF">⛅</text>
  <text x="120" y="1456" font-family="SF Pro Display, sans-serif" font-size="36" font-weight="700" fill="#FFFFFF">62°F</text>
  <text x="120" y="1480" font-family="SF Pro, sans-serif" font-size="17" fill="#5B8AB5">Partly cloudy · Winds 8mph</text>

  <!-- Sidebar bottom -->
  <rect x="36" y="2320" width="208" height="1" fill="#1A2E40"/>
  <rect x="12" y="2336" width="256" height="58" rx="12" fill="transparent"/>
  <text x="46" y="2370" font-family="SF Pro, sans-serif" font-size="20" fill="#3A5570" text-anchor="middle">⚙</text>
  <text x="74" y="2370" font-family="SF Pro, sans-serif" font-size="20" fill="#5B8AB5">Settings</text>
  <rect x="12" y="2404" width="256" height="58" rx="12" fill="transparent"/>
  <text x="46" y="2438" font-family="SF Pro, sans-serif" font-size="20" fill="#3A5570" text-anchor="middle">❓</text>
  <text x="74" y="2438" font-family="SF Pro, sans-serif" font-size="20" fill="#5B8AB5">Help &amp; Support</text>
  <rect x="12" y="2472" width="256" height="58" rx="12" fill="transparent"/>
  <text x="74" y="2506" font-family="SF Pro, sans-serif" font-size="20" fill="#FF4444">Sign Out</text>

  <!-- ============================================ -->
  <!-- MAIN CENTER CONTENT (x: 281 to ~930) -->
  <!-- ============================================ -->
  <rect x="281" y="182" width="650" height="2378" fill="#0C1820"/>

  <!-- Page header -->
  <rect x="281" y="182" width="650" height="80" fill="#0F1F30"/>
  <text x="316" y="228" font-family="SF Pro Display, Helvetica Neue, Arial, sans-serif" font-size="30" font-weight="700" fill="#FFFFFF">Good Morning, John!</text>
  <rect x="860" y="196" width="60" height="52" rx="12" fill="#1A2535"/>
  <text x="890" y="229" font-family="SF Pro, sans-serif" font-size="26" fill="#5B8AB5" text-anchor="middle">↻</text>

  <!-- KPI row - 3 cards -->
  <rect x="296" y="280" width="196" height="148" rx="16" fill="url(#cardGrad)" filter="url(#softShadow)"/>
  <rect x="296" y="280" width="196" height="4" rx="2" fill="#FF6B35"/>
  <text x="316" y="316" font-family="SF Pro, sans-serif" font-size="19" fill="#4A7A9B">Week Earnings</text>
  <text x="316" y="372" font-family="SF Pro Display, sans-serif" font-size="42" font-weight="700" fill="#FF6B35">$4,820</text>
  <text x="316" y="408" font-family="SF Pro, sans-serif" font-size="18" fill="#4CAF50">↑ 18% vs last week</text>

  <rect x="508" y="280" width="196" height="148" rx="16" fill="url(#cardGrad)" filter="url(#softShadow)"/>
  <rect x="508" y="280" width="196" height="4" rx="2" fill="#4CAF50"/>
  <text x="528" y="316" font-family="SF Pro, sans-serif" font-size="19" fill="#4A7A9B">Miles Driven</text>
  <text x="528" y="372" font-family="SF Pro Display, sans-serif" font-size="42" font-weight="700" fill="#FFFFFF">1,840</text>
  <text x="528" y="408" font-family="SF Pro, sans-serif" font-size="18" fill="#5B8AB5">mi this week</text>

  <rect x="720" y="280" width="196" height="148" rx="16" fill="url(#cardGrad)" filter="url(#softShadow)"/>
  <rect x="720" y="280" width="196" height="4" rx="2" fill="#4FC3F7"/>
  <text x="740" y="316" font-family="SF Pro, sans-serif" font-size="19" fill="#4A7A9B">Loads Done</text>
  <text x="740" y="372" font-family="SF Pro Display, sans-serif" font-size="42" font-weight="700" fill="#FFFFFF">12</text>
  <text x="740" y="408" font-family="SF Pro, sans-serif" font-size="18" fill="#5B8AB5">this week</text>

  <!-- MAP SECTION -->
  <rect x="296" y="450" width="620" height="440" rx="18" fill="url(#mapGrad)" filter="url(#softShadow)"/>

  <!-- Map grid lines -->
  <line x1="296" y1="560" x2="916" y2="560" stroke="#0F2030" stroke-width="2"/>
  <line x1="296" y1="660" x2="916" y2="660" stroke="#0F2030" stroke-width="2"/>
  <line x1="296" y1="760" x2="916" y2="760" stroke="#0F2030" stroke-width="2"/>
  <line x1="296" y1="830" x2="916" y2="830" stroke="#0F2030" stroke-width="2"/>
  <line x1="400" y1="450" x2="400" y2="890" stroke="#0F2030" stroke-width="2"/>
  <line x1="520" y1="450" x2="520" y2="890" stroke="#0F2030" stroke-width="2"/>
  <line x1="640" y1="450" x2="640" y2="890" stroke="#0F2030" stroke-width="2"/>
  <line x1="760" y1="450" x2="760" y2="890" stroke="#0F2030" stroke-width="2"/>
  <line x1="860" y1="450" x2="860" y2="890" stroke="#0F2030" stroke-width="2"/>

  <!-- Highways -->
  <line x1="296" y1="640" x2="916" y2="640" stroke="#142535" stroke-width="6"/>
  <line x1="296" y1="750" x2="916" y2="750" stroke="#142535" stroke-width="6"/>
  <line x1="480" y1="450" x2="480" y2="890" stroke="#142535" stroke-width="6"/>
  <line x1="740" y1="450" x2="740" y2="890" stroke="#142535" stroke-width="6"/>

  <!-- City blocks -->
  <rect x="310" y="475" width="80" height="60" rx="3" fill="#0D1C2C" opacity="0.7"/>
  <rect x="420" y="500" width="70" height="50" rx="3" fill="#0D1C2C" opacity="0.6"/>
  <rect x="550" y="480" width="90" height="65" rx="3" fill="#0D1C2C" opacity="0.7"/>
  <rect x="680" y="470" width="80" height="55" rx="3" fill="#0D1C2C" opacity="0.6"/>
  <rect x="780" y="490" width="90" height="60" rx="3" fill="#0D1C2C" opacity="0.5"/>
  <rect x="310" y="690" width="80" height="50" rx="3" fill="#0D1C2C" opacity="0.5"/>
  <rect x="430" y="710" width="100" height="60" rx="3" fill="#0D1C2C" opacity="0.6"/>
  <rect x="580" y="700" width="80" height="55" rx="3" fill="#0D1C2C" opacity="0.7"/>
  <rect x="700" y="690" width="90" height="60" rx="3" fill="#0D1C2C" opacity="0.5"/>
  <rect x="820" y="700" width="70" height="50" rx="3" fill="#0D1C2C" opacity="0.6"/>
  <rect x="320" y="800" width="100" height="70" rx="3" fill="#0D1C2C" opacity="0.6"/>
  <rect x="470" y="800" width="80" height="65" rx="3" fill="#0D1C2C" opacity="0.5"/>
  <rect x="620" y="810" width="90" height="60" rx="3" fill="#0D1C2C" opacity="0.6"/>
  <rect x="760" y="800" width="80" height="70" rx="3" fill="#0D1C2C" opacity="0.5"/>

  <!-- Route line Chicago to Detroit -->
  <path d="M360 580 C380 610 400 630 420 650 C440 670 460 690 480 710 C500 730 520 750 550 770 C580 790 610 810 640 825 C670 840 700 850 730 855" stroke="#FF6B35" stroke-width="7" fill="none" stroke-linecap="round"/>
  <path d="M360 580 C380 610 400 630 420 650 C440 670 460 690 480 710 C500 730 520 750 550 770 C580 790 610 810 640 825 C670 840 700 850 730 855" stroke="#FF6B35" stroke-width="18" fill="none" stroke-linecap="round" opacity="0.15"/>

  <!-- Start marker -->
  <circle cx="360" cy="580" r="16" fill="#0C1820" stroke="#4FC3F7" stroke-width="2.5"/>
  <circle cx="360" cy="580" r="8" fill="#4FC3F7"/>
  <!-- Start label -->
  <rect x="300" y="536" width="132" height="38" rx="8" fill="#0C1820" stroke="#4FC3F7" stroke-width="1.5" opacity="0.95"/>
  <text x="366" y="551" font-family="SF Pro, sans-serif" font-size="14" fill="#4FC3F7" text-anchor="middle">CHICAGO</text>
  <text x="366" y="567" font-family="SF Pro Display, sans-serif" font-size="16" font-weight="700" fill="#FFFFFF" text-anchor="middle">Origin</text>

  <!-- Truck marker (current) -->
  <circle cx="550" cy="770" r="28" fill="#FF6B35" opacity="0.2"/>
  <circle cx="550" cy="770" r="20" fill="#FF6B35"/>
  <rect x="541" y="763" width="18" height="14" rx="2" fill="#FFFFFF"/>
  <rect x="537" y="767" width="7" height="10" rx="2" fill="#FFFFFF"/>
  <circle cx="542" cy="778" r="3" fill="#FF6B35"/>
  <circle cx="554" cy="778" r="3" fill="#FF6B35"/>
  <!-- Truck label -->
  <rect x="480" y="730" width="164" height="34" rx="8" fill="#0C1820" stroke="#FF6B35" stroke-width="2" opacity="0.95"/>
  <text x="562" y="748" font-family="SF Pro, sans-serif" font-size="14" fill="#FF6B35" text-anchor="middle">YOU · I-94 E</text>
  <text x="562" y="760" font-family="SF Pro Display, sans-serif" font-size="14" font-weight="700" fill="#FFFFFF" text-anchor="middle">Gary, IN Area</text>

  <!-- End marker -->
  <circle cx="730" cy="855" r="16" fill="#0C1820" stroke="#FF6B35" stroke-width="2.5"/>
  <circle cx="730" cy="855" r="8" fill="#FF6B35"/>
  <!-- End label -->
  <rect x="666" y="868" width="130" height="38" rx="8" fill="#0C1820" stroke="#FF6B35" stroke-width="1.5" opacity="0.95"/>
  <text x="731" y="882" font-family="SF Pro, sans-serif" font-size="14" fill="#FF6B35" text-anchor="middle">DETROIT</text>
  <text x="731" y="898" font-family="SF Pro Display, sans-serif" font-size="16" font-weight="700" fill="#FFFFFF" text-anchor="middle">Destination</text>

  <!-- Map header label -->
  <rect x="296" y="450" width="620" height="52" rx="16" fill="#060E17" opacity="0.8"/>
  <text x="330" y="483" font-family="SF Pro Display, sans-serif" font-size="22" font-weight="700" fill="#FFFFFF">Live Route · TRK-2847</text>
  <text x="810" y="483" font-family="SF Pro, sans-serif" font-size="18" fill="#FF6B35">ETA 2h 35m →</text>

  <!-- MINI CHARTS ROW -->
  <!-- Earnings mini chart -->
  <rect x="296" y="910" width="296" height="200" rx="16" fill="url(#cardGrad)" filter="url(#softShadow)"/>
  <text x="320" y="948" font-family="SF Pro Display, sans-serif" font-size="21" font-weight="700" fill="#FFFFFF">This Week</text>
  <text x="320" y="972" font-family="SF Pro, sans-serif" font-size="17" fill="#4A7A9B">Daily earnings</text>
  <!-- Mini bar chart -->
  <rect x="320" y="1040" width="36" height="52" rx="4" fill="#1A2535"/>
  <rect x="320" y="1060" width="36" height="32" rx="4" fill="#FF6B35" opacity="0.5"/>
  <rect x="368" y="1040" width="36" height="52" rx="4" fill="#1A2535"/>
  <rect x="368" y="1042" width="36" height="50" rx="4" fill="#FF6B35" opacity="0.7"/>
  <rect x="416" y="1040" width="36" height="52" rx="4" fill="#1A2535"/>
  <rect x="416" y="1054" width="36" height="38" rx="4" fill="#FF6B35" opacity="0.6"/>
  <rect x="464" y="1040" width="36" height="52" rx="4" fill="#1A2535"/>
  <rect x="464" y="1046" width="36" height="46" rx="4" fill="#FF6B35" opacity="0.8"/>
  <rect x="512" y="1040" width="36" height="52" rx="4" fill="#1A2535"/>
  <rect x="512" y="1040" width="36" height="52" rx="4" fill="#FF6B35"/>
  <text x="320" y="1110" font-family="SF Pro, sans-serif" font-size="15" fill="#3A5570" text-anchor="middle">M</text>
  <text x="368" y="1110" font-family="SF Pro, sans-serif" font-size="15" fill="#3A5570" text-anchor="middle">T</text>
  <text x="416" y="1110" font-family="SF Pro, sans-serif" font-size="15" fill="#3A5570" text-anchor="middle">W</text>
  <text x="464" y="1110" font-family="SF Pro, sans-serif" font-size="15" fill="#3A5570" text-anchor="middle">T</text>
  <text x="512" y="1110" font-family="SF Pro, sans-serif" font-size="15" fill="#FF6B35" font-weight="600" text-anchor="middle">F</text>
  <text x="320" y="1000" font-family="SF Pro Display, sans-serif" font-size="34" font-weight="700" fill="#FF6B35">$4,820</text>

  <!-- Fuel mini chart -->
  <rect x="608" y="910" width="308" height="200" rx="16" fill="url(#cardGrad)" filter="url(#softShadow)"/>
  <text x="632" y="948" font-family="SF Pro Display, sans-serif" font-size="21" font-weight="700" fill="#FFFFFF">Fuel Efficiency</text>
  <text x="632" y="972" font-family="SF Pro, sans-serif" font-size="17" fill="#4A7A9B">MPG trend</text>
  <text x="632" y="1000" font-family="SF Pro Display, sans-serif" font-size="34" font-weight="700" fill="#4FC3F7">6.8 MPG</text>
  <text x="780" y="1000" font-family="SF Pro, sans-serif" font-size="18" fill="#4CAF50">↑ 0.3</text>
  <!-- Mini line chart -->
  <polyline points="632,1070 665,1060 698,1065 731,1050 764,1055 797,1042 830,1042 863,1038 896,1035" stroke="#4FC3F7" stroke-width="3" fill="none" stroke-linecap="round"/>
  <path d="M632 1070 L665 1060 L698 1065 L731 1050 L764 1055 L797 1042 L830 1042 L863 1038 L896 1035 L896 1090 L632 1090 Z" fill="#4FC3F7" opacity="0.08"/>

  <!-- ACTIVE LOAD QUICK LIST -->
  <rect x="296" y="1130" width="620" height="380" rx="18" fill="url(#cardGrad)" filter="url(#softShadow)"/>
  <text x="320" y="1172" font-family="SF Pro Display, sans-serif" font-size="26" font-weight="700" fill="#FFFFFF">Active Loads</text>
  <rect x="812" y="1148" width="86" height="36" rx="18" fill="#FF6B35" opacity="0.15"/>
  <text x="855" y="1172" font-family="SF Pro, sans-serif" font-size="18" fill="#FF6B35" text-anchor="middle">See All</text>

  <!-- Load list items in center panel -->
  <rect x="312" y="1188" width="590" height="72" rx="10" fill="#1E3550"/>
  <rect x="312" y="1188" width="4" height="72" rx="2" fill="#FF6B35"/>
  <text x="334" y="1218" font-family="SF Pro, sans-serif" font-size="19" font-weight="600" fill="#FFFFFF">TRK-2847 · Chicago → Detroit</text>
  <text x="334" y="1244" font-family="SF Pro, sans-serif" font-size="17" fill="#5B8AB5">In Transit · ETA 2h 35m · 284 mi</text>
  <rect x="788" y="1204" width="100" height="28" rx="14" fill="#FF6B35" opacity="0.2"/>
  <text x="838" y="1223" font-family="SF Pro, sans-serif" font-size="17" fill="#FF6B35" text-anchor="middle">$1,240</text>

  <rect x="312" y="1272" width="590" height="72" rx="10" fill="transparent"/>
  <rect x="312" y="1342" width="590" height="1" fill="#1A2E40"/>
  <rect x="312" y="1272" width="4" height="72" rx="2" fill="#FFC107"/>
  <text x="334" y="1302" font-family="SF Pro, sans-serif" font-size="19" fill="#FFFFFF">TRK-2851 · Cleveland → Pittsburgh</text>
  <text x="334" y="1328" font-family="SF Pro, sans-serif" font-size="17" fill="#5B8AB5">Pickup in 1h 15m · 131 mi</text>
  <rect x="788" y="1288" width="100" height="28" rx="14" fill="#FFC107" opacity="0.15"/>
  <text x="838" y="1307" font-family="SF Pro, sans-serif" font-size="17" fill="#FFC107" text-anchor="middle">$980</text>

  <rect x="312" y="1356" width="590" height="72" rx="10" fill="transparent"/>
  <rect x="312" y="1426" width="590" height="1" fill="#1A2E40"/>
  <rect x="312" y="1356" width="4" height="72" rx="2" fill="#9C27B0"/>
  <text x="334" y="1386" font-family="SF Pro, sans-serif" font-size="19" fill="#FFFFFF">TRK-2855 · Memphis → Nashville</text>
  <text x="334" y="1412" font-family="SF Pro, sans-serif" font-size="17" fill="#5B8AB5">Scheduled · Tomorrow 6:00 AM</text>
  <rect x="788" y="1372" width="100" height="28" rx="14" fill="#9C27B0" opacity="0.2"/>
  <text x="838" y="1391" font-family="SF Pro, sans-serif" font-size="17" fill="#CE93D8" text-anchor="middle">$1,650</text>

  <rect x="312" y="1440" width="590" height="72" rx="10" fill="transparent"/>
  <rect x="312" y="1440" width="4" height="72" rx="2" fill="#2196F3"/>
  <text x="334" y="1470" font-family="SF Pro, sans-serif" font-size="19" fill="#FFFFFF">TRK-2860 · St. Louis → Kansas City</text>
  <text x="334" y="1496" font-family="SF Pro, sans-serif" font-size="17" fill="#5B8AB5">Available · Apr 19, 8:00 AM</text>
  <rect x="788" y="1456" width="100" height="28" rx="14" fill="#2196F3" opacity="0.2"/>
  <text x="838" y="1475" font-family="SF Pro, sans-serif" font-size="17" fill="#64B5F6" text-anchor="middle">$760</text>

  <!-- Monthly goal progress -->
  <rect x="296" y="1530" width="620" height="180" rx="18" fill="url(#cardGrad)" filter="url(#softShadow)"/>
  <text x="320" y="1572" font-family="SF Pro Display, sans-serif" font-size="26" font-weight="700" fill="#FFFFFF">Monthly Goal</text>
  <text x="320" y="1600" font-family="SF Pro, sans-serif" font-size="19" fill="#5B8AB5">April 2026 · Target: $22,000</text>
  <text x="850" y="1572" font-family="SF Pro Display, sans-serif" font-size="26" font-weight="700" fill="#FF6B35" text-anchor="end">84%</text>
  <!-- Progress bar -->
  <rect x="320" y="1620" width="572" height="14" rx="7" fill="#1A2535"/>
  <rect x="320" y="1620" width="480" height="14" rx="7" fill="url(#orangeAccent)"/>
  <!-- Milestone markers -->
  <rect x="462" y="1614" width="2" height="26" fill="#0C1820"/>
  <text x="462" y="1660" font-family="SF Pro, sans-serif" font-size="14" fill="#3A5570" text-anchor="middle">25%</text>
  <rect x="605" y="1614" width="2" height="26" fill="#0C1820"/>
  <text x="605" y="1660" font-family="SF Pro, sans-serif" font-size="14" fill="#3A5570" text-anchor="middle">50%</text>
  <rect x="747" y="1614" width="2" height="26" fill="#0C1820"/>
  <text x="747" y="1660" font-family="SF Pro, sans-serif" font-size="14" fill="#3A5570" text-anchor="middle">75%</text>
  <text x="320" y="1692" font-family="SF Pro Display, sans-serif" font-size="24" font-weight="700" fill="#FFFFFF">$18,450 earned</text>
  <text x="640" y="1692" font-family="SF Pro, sans-serif" font-size="19" fill="#4CAF50" text-anchor="end">$3,550 to go</text>
  <text x="800" y="1692" font-family="SF Pro, sans-serif" font-size="18" fill="#5B8AB5">13 days left</text>

  <!-- ============================================ -->
  <!-- RIGHT PANEL (x: 931 to 1600) -->
  <!-- ============================================ -->
  <rect x="931" y="182" width="669" height="2378" fill="url(#rightPanelGrad)"/>
  <rect x="931" y="182" width="1" height="2378" fill="#1A2E40" opacity="0.6"/>

  <!-- Right panel header -->
  <rect x="931" y="182" width="669" height="80" fill="#0F1F30"/>
  <text x="966" y="228" font-family="SF Pro Display, sans-serif" font-size="28" font-weight="700" fill="#FFFFFF">Load Details</text>
  <rect x="1484" y="196" width="100" height="52" rx="14" fill="#FF6B35" opacity="0.15"/>
  <text x="1534" y="228" font-family="SF Pro, sans-serif" font-size="19" font-weight="600" fill="#FF6B35" text-anchor="middle">Actions</text>

  <!-- Selected load card header -->
  <rect x="950" y="280" width="630" height="90" rx="16" fill="#1E3550"/>
  <rect x="950" y="280" width="630" height="5" rx="3" fill="#FF6B35"/>
  <text x="975" y="318" font-family="SF Pro Display, sans-serif" font-size="26" font-weight="700" fill="#FFFFFF">TRK-2847</text>
  <rect x="1416" y="292" width="148" height="38" rx="19" fill="#FF6B35" opacity="0.2"/>
  <rect x="1424" y="302" width="12" height="12" rx="6" fill="#FF6B35"/>
  <text x="1490" y="317" font-family="SF Pro, sans-serif" font-size="19" font-weight="600" fill="#FF6B35" text-anchor="middle">In Transit</text>
  <text x="975" y="352" font-family="SF Pro, sans-serif" font-size="20" fill="#5B8AB5">Chicago, IL → Detroit, MI</text>

  <!-- Load info grid -->
  <rect x="950" y="390" width="296" height="110" rx="14" fill="#1A2535"/>
  <text x="972" y="424" font-family="SF Pro, sans-serif" font-size="17" fill="#4A7A9B">Shipper</text>
  <text x="972" y="454" font-family="SF Pro Display, sans-serif" font-size="20" font-weight="600" fill="#FFFFFF">AutoParts Inc.</text>
  <text x="972" y="478" font-family="SF Pro, sans-serif" font-size="17" fill="#5B8AB5">Chicago Distribution</text>

  <rect x="1264" y="390" width="316" height="110" rx="14" fill="#1A2535"/>
  <text x="1286" y="424" font-family="SF Pro, sans-serif" font-size="17" fill="#4A7A9B">Receiver</text>
  <text x="1286" y="454" font-family="SF Pro Display, sans-serif" font-size="20" font-weight="600" fill="#FFFFFF">MotoWorld LLC</text>
  <text x="1286" y="478" font-family="SF Pro, sans-serif" font-size="17" fill="#5B8AB5">Detroit Warehouse</text>

  <!-- Load details 2x3 grid -->
  <rect x="950" y="518" width="192" height="90" rx="12" fill="#1A2535"/>
  <text x="970" y="548" font-family="SF Pro, sans-serif" font-size="16" fill="#4A7A9B">Distance</text>
  <text x="970" y="590" font-family="SF Pro Display, sans-serif" font-size="28" font-weight="700" fill="#FFFFFF">284 mi</text>

  <rect x="1154" y="518" width="192" height="90" rx="12" fill="#1A2535"/>
  <text x="1174" y="548" font-family="SF Pro, sans-serif" font-size="16" fill="#4A7A9B">Weight</text>
  <text x="1174" y="590" font-family="SF Pro Display, sans-serif" font-size="28" font-weight="700" fill="#FFFFFF">18,500</text>
  <text x="1290" y="590" font-family="SF Pro, sans-serif" font-size="16" fill="#5B8AB5"> lbs</text>

  <rect x="1358" y="518" width="222" height="90" rx="12" fill="#1A2535"/>
  <text x="1378" y="548" font-family="SF Pro, sans-serif" font-size="16" fill="#4A7A9B">Commodity</text>
  <text x="1378" y="590" font-family="SF Pro Display, sans-serif" font-size="24" font-weight="700" fill="#FFFFFF">Auto Parts</text>

  <rect x="950" y="624" width="192" height="90" rx="12" fill="#1A2535"/>
  <text x="970" y="654" font-family="SF Pro, sans-serif" font-size="16" fill="#4A7A9B">Rate/Mile</text>
  <text x="970" y="696" font-family="SF Pro Display, sans-serif" font-size="28" font-weight="700" fill="#4CAF50">$4.37</text>

  <rect x="1154" y="624" width="192" height="90" rx="12" fill="#1A2535"/>
  <text x="1174" y="654" font-family="SF Pro, sans-serif" font-size="16" fill="#4A7A9B">Trailer</text>
  <text x="1174" y="696" font-family="SF Pro Display, sans-serif" font-size="24" font-weight="700" fill="#FFFFFF">53ft Dry Van</text>

  <rect x="1358" y="624" width="222" height="90" rx="12" fill="#FF6B35" opacity="0.1"/>
  <rect x="1358" y="624" width="222" height="2" rx="1" fill="#FF6B35"/>
  <text x="1378" y="654" font-family="SF Pro, sans-serif" font-size="16" fill="#FF6B35">Earnings</text>
  <text x="1378" y="696" font-family="SF Pro Display, sans-serif" font-size="32" font-weight="700" fill="#FF6B35">$1,240</text>

  <!-- Timeline / Progress -->
  <rect x="950" y="734" width="630" height="260" rx="16" fill="url(#cardGrad)"/>
  <text x="975" y="775" font-family="SF Pro Display, sans-serif" font-size="22" font-weight="700" fill="#FFFFFF">Delivery Progress</text>

  <!-- Progress steps -->
  <!-- Step 1 - done -->
  <circle cx="980" cy="830" r="18" fill="#4CAF50"/>
  <text x="980" y="837" font-family="SF Pro, sans-serif" font-size="18" font-weight="700" fill="#FFFFFF" text-anchor="middle">✓</text>
  <line x1="980" y1="848" x2="980" y2="890" stroke="#4CAF50" stroke-width="3"/>
  <text x="1010" y="826" font-family="SF Pro Display, sans-serif" font-size="18" font-weight="600" fill="#FFFFFF">Pickup Completed</text>
  <text x="1010" y="846" font-family="SF Pro, sans-serif" font-size="16" fill="#4A7A9B">Chicago IL · 7:30 AM</text>

  <!-- Step 2 - active -->
  <circle cx="980" cy="900" r="18" fill="#FF6B35"/>
  <circle cx="980" cy="900" r="8" fill="#FFFFFF"/>
  <line x1="980" y1="918" x2="980" y2="960" stroke="#2A3F55" stroke-width="3" stroke-dasharray="8 6"/>
  <text x="1010" y="896" font-family="SF Pro Display, sans-serif" font-size="18" font-weight="600" fill="#FFFFFF">In Transit</text>
  <text x="1010" y="916" font-family="SF Pro, sans-serif" font-size="16" fill="#FF6B35">Now on I-94 E · 45% complete</text>

  <!-- Step 3 - pending -->
  <circle cx="980" cy="970" r="18" fill="#1A2535" stroke="#2A3F55" stroke-width="2.5"/>
  <circle cx="980" cy="970" r="8" fill="#2A3F55"/>
  <text x="1010" y="966" font-family="SF Pro Display, sans-serif" font-size="18" font-weight="600" fill="#5B8AB5">Delivery</text>
  <text x="1010" y="986" font-family="SF Pro, sans-serif" font-size="16" fill="#3A5570">Detroit, MI · ETA 3:45 PM</text>

  <!-- Progress bar in right panel -->
  <rect x="970" y="1010" width="590" height="10" rx="5" fill="#1A2535"/>
  <rect x="970" y="1010" width="265" height="10" rx="5" fill="#FF6B35"/>
  <text x="970" y="1036" font-family="SF Pro, sans-serif" font-size="16" fill="#5B8AB5">45% · 128 mi done · 156 mi remaining</text>

  <!-- Documents section -->
  <rect x="950" y="1020" width="630" height="220" rx="16" fill="url(#cardGrad)"/>
  <text x="975" y="1062" font-family="SF Pro Display, sans-serif" font-size="22" font-weight="700" fill="#FFFFFF">Documents</text>
  <rect x="1466" y="1042" width="100" height="36" rx="18" fill="#1A2535"/>
  <text x="1516" y="1066" font-family="SF Pro, sans-serif" font-size="17" fill="#5B8AB5" text-anchor="middle">+ Add</text>

  <rect x="970" y="1080" width="286" height="70" rx="12" fill="#1A2535"/>
  <text x="994" y="1112" font-family="SF Pro, sans-serif" font-size="16" fill="#5B8AB5">📄 Bill of Lading</text>
  <text x="994" y="1136" font-family="SF Pro, sans-serif" font-size="14" fill="#4CAF50">✓ Signed · BOL-2847</text>

  <rect x="1278" y="1080" width="286" height="70" rx="12" fill="#1A2535"/>
  <text x="1302" y="1112" font-family="SF Pro, sans-serif" font-size="16" fill="#5B8AB5">📋 Rate Confirmation</text>
  <text x="1302" y="1136" font-family="SF Pro, sans-serif" font-size="14" fill="#4CAF50">✓ Confirmed</text>

  <rect x="970" y="1164" width="286" height="70" rx="12" fill="#1A2535"/>
  <text x="994" y="1196" font-family="SF Pro, sans-serif" font-size="16" fill="#5B8AB5">📊 Weight Certificate</text>
  <text x="994" y="1220" font-family="SF Pro, sans-serif" font-size="14" fill="#4CAF50">✓ 18,500 lbs</text>

  <rect x="1278" y="1164" width="286" height="70" rx="12" fill="#1A2535"/>
  <text x="1302" y="1196" font-family="SF Pro, sans-serif" font-size="16" fill="#5B8AB5">🖼 POD Photo</text>
  <text x="1302" y="1220" font-family="SF Pro, sans-serif" font-size="14" fill="#FFC107">Pending delivery</text>

  <!-- Action buttons -->
  <rect x="950" y="1258" width="300" height="72" rx="16" fill="url(#orangeAccent)"/>
  <text x="1100" y="1299" font-family="SF Pro Display, sans-serif" font-size="22" font-weight="700" fill="#FFFFFF" text-anchor="middle">Update Status</text>
  <rect x="1264" y="1258" width="316" height="72" rx="16" fill="#1A2535" stroke="#2A3F55" stroke-width="1.5"/>
  <text x="1422" y="1299" font-family="SF Pro Display, sans-serif" font-size="22" font-weight="600" fill="#FFFFFF" text-anchor="middle">Contact Broker</text>

  <!-- Broker info -->
  <rect x="950" y="1350" width="630" height="160" rx="16" fill="url(#cardGrad)"/>
  <text x="975" y="1390" font-family="SF Pro Display, sans-serif" font-size="22" font-weight="700" fill="#FFFFFF">Broker Contact</text>
  <circle cx="1010" cy="1450" r="32" fill="#1A2535" stroke="#2A3F55" stroke-width="1.5"/>
  <text x="1010" y="1459" font-family="SF Pro, sans-serif" font-size="24" font-weight="700" fill="#5B8AB5" text-anchor="middle">MF</text>
  <text x="1060" y="1434" font-family="SF Pro Display, sans-serif" font-size="20" font-weight="600" fill="#FFFFFF">Mike Foster</text>
  <text x="1060" y="1456" font-family="SF Pro, sans-serif" font-size="17" fill="#5B8AB5">FastFreight Brokerage</text>
  <text x="1060" y="1476" font-family="SF Pro, sans-serif" font-size="17" fill="#4FC3F7">+1 (312) 555-0194</text>
  <rect x="1410" y="1422" width="152" height="52" rx="14" fill="#4FC3F7" opacity="0.1"/>
  <text x="1486" y="1453" font-family="SF Pro, sans-serif" font-size="19" fill="#4FC3F7" text-anchor="middle">📞 Call</text>

  <!-- Truck info section -->
  <rect x="950" y="1530" width="630" height="180" rx="16" fill="url(#cardGrad)"/>
  <text x="975" y="1570" font-family="SF Pro Display, sans-serif" font-size="22" font-weight="700" fill="#FFFFFF">Truck #1842-IL</text>
  <text x="975" y="1598" font-family="SF Pro, sans-serif" font-size="18" fill="#5B8AB5">2022 Peterbilt 579 · CDL-A Required</text>
  <rect x="970" y="1614" width="184" height="80" rx="12" fill="#1A2535"/>
  <text x="988" y="1642" font-family="SF Pro, sans-serif" font-size="16" fill="#4A7A9B">Engine</text>
  <text x="988" y="1680" font-family="SF Pro Display, sans-serif" font-size="22" font-weight="700" fill="#FFFFFF">OK</text>
  <rect x="1166" y="1614" width="184" height="80" rx="12" fill="#1A2535"/>
  <text x="1184" y="1642" font-family="SF Pro, sans-serif" font-size="16" fill="#4A7A9B">Fuel Level</text>
  <text x="1184" y="1680" font-family="SF Pro Display, sans-serif" font-size="22" font-weight="700" fill="#4CAF50">68%</text>
  <rect x="1362" y="1614" width="210" height="80" rx="12" fill="#FFC107" opacity="0.1"/>
  <text x="1380" y="1642" font-family="SF Pro, sans-serif" font-size="16" fill="#4A7A9B">Next Service</text>
  <text x="1380" y="1680" font-family="SF Pro Display, sans-serif" font-size="18" font-weight="700" fill="#FFC107">2,400 mi</text>
</svg>
