<svg xmlns="http://www.w3.org/2000/svg" viewBox="0 0 2064 2208" width="2064" height="2208">
  <defs>
    <radialGradient id="bgGrad" cx="50%" cy="40%" r="65%">
      <stop offset="0%" style="stop-color:#0C1A30;stop-opacity:1" />
      <stop offset="55%" style="stop-color:#060E1C;stop-opacity:1" />
      <stop offset="100%" style="stop-color:#020810;stop-opacity:1" />
    </radialGradient>
    <linearGradient id="panelGrad" x1="0%" y1="0%" x2="0%" y2="100%">
      <stop offset="0%" style="stop-color:#0F1E33;stop-opacity:0.97" />
      <stop offset="100%" style="stop-color:#080F1C;stop-opacity:0.97" />
    </linearGradient>
    <linearGradient id="orangeGrad" x1="0%" y1="0%" x2="100%" y2="100%">
      <stop offset="0%" style="stop-color:#FF6B35;stop-opacity:1" />
      <stop offset="100%" style="stop-color:#FF8C42;stop-opacity:1" />
    </linearGradient>
    <linearGradient id="revenueAreaGrad" x1="0%" y1="0%" x2="0%" y2="100%">
      <stop offset="0%" style="stop-color:#FF6B35;stop-opacity:0.5" />
      <stop offset="100%" style="stop-color:#FF6B35;stop-opacity:0" />
    </linearGradient>
    <linearGradient id="expenseAreaGrad" x1="0%" y1="0%" x2="0%" y2="100%">
      <stop offset="0%" style="stop-color:#3B82F6;stop-opacity:0.35" />
      <stop offset="100%" style="stop-color:#3B82F6;stop-opacity:0" />
    </linearGradient>
    <linearGradient id="kpiOrange" x1="0%" y1="0%" x2="100%" y2="100%">
      <stop offset="0%" style="stop-color:#1C2F3F;stop-opacity:1" />
      <stop offset="100%" style="stop-color:#0F1E2F;stop-opacity:1" />
    </linearGradient>
    <filter id="glowFilter">
      <feGaussianBlur stdDeviation="4" result="coloredBlur"/>
      <feMerge><feMergeNode in="coloredBlur"/><feMergeNode in="SourceGraphic"/></feMerge>
    </filter>
    <filter id="strongGlow">
      <feGaussianBlur stdDeviation="9" result="coloredBlur"/>
      <feMerge><feMergeNode in="coloredBlur"/><feMergeNode in="SourceGraphic"/></feMerge>
    </filter>
    <filter id="softBlur">
      <feGaussianBlur stdDeviation="14"/>
    </filter>
    <filter id="panelShadow">
      <feDropShadow dx="0" dy="24" stdDeviation="32" flood-color="#FF6B35" flood-opacity="0.12"/>
    </filter>
    <filter id="bluePanelShadow">
      <feDropShadow dx="0" dy="24" stdDeviation="32" flood-color="#3B82F6" flood-opacity="0.12"/>
    </filter>
    <filter id="greenPanelShadow">
      <feDropShadow dx="0" dy="24" stdDeviation="32" flood-color="#22C55E" flood-opacity="0.12"/>
    </filter>
    <filter id="deepShadow">
      <feDropShadow dx="0" dy="40" stdDeviation="40" flood-color="#000000" flood-opacity="0.6"/>
    </filter>
  </defs>

  <!-- Background -->
  <rect width="2064" height="2208" fill="url(#bgGrad)"/>

  <!-- Background stars -->
  <circle cx="80" cy="200" r="1.5" fill="#FFFFFF" opacity="0.12"/>
  <circle cx="280" cy="120" r="1" fill="#FFFFFF" opacity="0.10"/>
  <circle cx="560" cy="160" r="2" fill="#FFFFFF" opacity="0.08"/>
  <circle cx="1100" cy="80" r="1.5" fill="#FFFFFF" opacity="0.12"/>
  <circle cx="1580" cy="140" r="1" fill="#FFFFFF" opacity="0.14"/>
  <circle cx="1900" cy="80" r="2" fill="#FFFFFF" opacity="0.10"/>
  <circle cx="160" cy="700" r="1" fill="#FFFFFF" opacity="0.08"/>
  <circle cx="1940" cy="500" r="1.5" fill="#FFFFFF" opacity="0.12"/>
  <circle cx="80" cy="1400" r="2" fill="#FFFFFF" opacity="0.08"/>
  <circle cx="2000" cy="1200" r="1" fill="#FFFFFF" opacity="0.12"/>
  <circle cx="400" cy="2000" r="1.5" fill="#FFFFFF" opacity="0.08"/>
  <circle cx="1800" cy="2100" r="1" fill="#FFFFFF" opacity="0.12"/>

  <!-- Depth grid (perspective) -->
  <line x1="1032" y1="1900" x2="100" y2="2208" stroke="#1A3050" stroke-width="1" opacity="0.2"/>
  <line x1="1032" y1="1900" x2="400" y2="2208" stroke="#1A3050" stroke-width="1" opacity="0.2"/>
  <line x1="1032" y1="1900" x2="700" y2="2208" stroke="#1A3050" stroke-width="1" opacity="0.15"/>
  <line x1="1032" y1="1900" x2="1032" y2="2208" stroke="#1A3050" stroke-width="1" opacity="0.15"/>
  <line x1="1032" y1="1900" x2="1400" y2="2208" stroke="#1A3050" stroke-width="1" opacity="0.15"/>
  <line x1="1032" y1="1900" x2="1700" y2="2208" stroke="#1A3050" stroke-width="1" opacity="0.2"/>
  <line x1="1032" y1="1900" x2="2000" y2="2208" stroke="#1A3050" stroke-width="1" opacity="0.2"/>
  <line x1="200" y1="2020" x2="1864" y2="2020" stroke="#1A3050" stroke-width="1" opacity="0.12"/>
  <line x1="300" y1="2120" x2="1764" y2="2120" stroke="#1A3050" stroke-width="1" opacity="0.08"/>

  <!-- Ambient floor glow -->
  <ellipse cx="1032" cy="2160" rx="700" ry="70" fill="#FF6B35" opacity="0.035" filter="url(#softBlur)"/>

  <!-- ============================================ -->
  <!-- HEADER BAR                                   -->
  <!-- ============================================ -->

  <rect x="532" y="60" width="1000" height="80" rx="16" fill="#0A1628" stroke="#FF6B35" stroke-width="1" stroke-opacity="0.5" filter="url(#deepShadow)"/>
  <rect x="533" y="61" width="998" height="78" rx="15" fill="none" stroke="#FF6B35" stroke-width="0.5" stroke-opacity="0.25"/>

  <rect x="570" y="80" width="36" height="36" rx="8" fill="url(#orangeGrad)" filter="url(#glowFilter)"/>
  <text x="578" y="104" font-family="Arial Black, sans-serif" font-size="18" font-weight="900" fill="#0A0E14">H</text>
  <text x="618" y="106" font-family="Arial, sans-serif" font-size="17" font-weight="700" fill="#FFFFFF" letter-spacing="2">HAUL</text>
  <text x="670" y="106" font-family="Arial, sans-serif" font-size="17" font-weight="400" fill="#FF6B35" letter-spacing="2">WALLET</text>

  <text x="1032" y="96" font-family="Arial, sans-serif" font-size="14" fill="#6B7280" text-anchor="middle" letter-spacing="3">SPATIAL ANALYTICS · XR MODE</text>
  <text x="1032" y="116" font-family="Arial, sans-serif" font-size="12" fill="#4A5568" text-anchor="middle">October 2025 — April 2026 · 6-Month Overview</text>

  <!-- Date range badge -->
  <rect x="1440" y="82" width="200" height="28" rx="14" fill="#0D1E35" stroke="#FF6B35" stroke-width="1" stroke-opacity="0.5"/>
  <text x="1540" y="101" font-family="Arial, sans-serif" font-size="12" fill="#FF6B35" text-anchor="middle">Oct 2025 → Apr 2026</text>

  <!-- Period tabs -->
  <rect x="1656" y="82" width="50" height="28" rx="8" fill="#0D1E35" stroke="#2D3748" stroke-width="1"/>
  <text x="1681" y="101" font-family="Arial, sans-serif" font-size="12" fill="#6B7280" text-anchor="middle">1M</text>
  <rect x="1714" y="82" width="50" height="28" rx="8" fill="#0D1E35" stroke="#2D3748" stroke-width="1"/>
  <text x="1739" y="101" font-family="Arial, sans-serif" font-size="12" fill="#6B7280" text-anchor="middle">3M</text>
  <rect x="1772" y="82" width="50" height="28" rx="8" fill="url(#orangeGrad)"/>
  <text x="1797" y="101" font-family="Arial, sans-serif" font-size="12" fill="#0A0E14" text-anchor="middle" font-weight="700">6M</text>
  <rect x="1830" y="82" width="50" height="28" rx="8" fill="#0D1E35" stroke="#2D3748" stroke-width="1"/>
  <text x="1855" y="101" font-family="Arial, sans-serif" font-size="12" fill="#6B7280" text-anchor="middle">1Y</text>

  <!-- ============================================ -->
  <!-- 4 KPI HOLOGRAPHIC CARDS (top row)            -->
  <!-- ============================================ -->

  <!-- KPI glow halos -->
  <rect x="72" y="174" width="454" height="144" rx="20" fill="#FF6B35" opacity="0.04" filter="url(#softBlur)"/>
  <rect x="556" y="174" width="454" height="144" rx="20" fill="#3B82F6" opacity="0.04" filter="url(#softBlur)"/>
  <rect x="1040" y="174" width="454" height="144" rx="20" fill="#22C55E" opacity="0.04" filter="url(#softBlur)"/>
  <rect x="1524" y="174" width="468" height="144" rx="20" fill="#F59E0B" opacity="0.04" filter="url(#softBlur)"/>

  <!-- KPI 1: Revenue -->
  <rect x="82" y="184" width="434" height="124" rx="18" fill="url(#panelGrad)" stroke="#FF6B35" stroke-width="1.5" stroke-opacity="0.6"/>
  <rect x="82" y="184" width="434" height="3" rx="18" fill="#FF6B35" opacity="0.9" filter="url(#glowFilter)"/>
  <rect x="83" y="185" width="432" height="122" rx="17" fill="none" stroke="#FF6B35" stroke-width="0.5" stroke-opacity="0.25"/>
  <text x="120" y="222" font-family="Arial, sans-serif" font-size="12" fill="#9CA3AF" letter-spacing="2">TOTAL REVENUE</text>
  <text x="120" y="270" font-family="Arial Black, sans-serif" font-size="36" font-weight="900" fill="#FFFFFF">$148,450</text>
  <rect x="120" y="282" width="110" height="22" rx="11" fill="#22C55E" opacity="0.15"/>
  <text x="132" y="298" font-family="Arial, sans-serif" font-size="12" fill="#22C55E">↑ 34% YOY</text>
  <!-- Hologram dots decoration -->
  <circle cx="470" cy="220" r="3" fill="#FF6B35" opacity="0.4"/>
  <circle cx="456" cy="234" r="2" fill="#FF6B35" opacity="0.3"/>
  <circle cx="484" cy="236" r="2" fill="#FF6B35" opacity="0.3"/>

  <!-- KPI 2: Loads -->
  <rect x="566" y="184" width="434" height="124" rx="18" fill="url(#panelGrad)" stroke="#3B82F6" stroke-width="1.5" stroke-opacity="0.6"/>
  <rect x="566" y="184" width="434" height="3" rx="18" fill="#3B82F6" opacity="0.9" filter="url(#glowFilter)"/>
  <rect x="567" y="185" width="432" height="122" rx="17" fill="none" stroke="#3B82F6" stroke-width="0.5" stroke-opacity="0.25"/>
  <text x="604" y="222" font-family="Arial, sans-serif" font-size="12" fill="#9CA3AF" letter-spacing="2">LOADS COMPLETED</text>
  <text x="604" y="270" font-family="Arial Black, sans-serif" font-size="36" font-weight="900" fill="#FFFFFF">803</text>
  <rect x="604" y="282" width="120" height="22" rx="11" fill="#3B82F6" opacity="0.15"/>
  <text x="616" y="298" font-family="Arial, sans-serif" font-size="12" fill="#3B82F6">↑ 28% vs H1</text>
  <circle cx="954" cy="220" r="3" fill="#3B82F6" opacity="0.4"/>
  <circle cx="940" cy="234" r="2" fill="#3B82F6" opacity="0.3"/>
  <circle cx="968" cy="236" r="2" fill="#3B82F6" opacity="0.3"/>

  <!-- KPI 3: Avg/Load -->
  <rect x="1050" y="184" width="434" height="124" rx="18" fill="url(#panelGrad)" stroke="#22C55E" stroke-width="1.5" stroke-opacity="0.6"/>
  <rect x="1050" y="184" width="434" height="3" rx="18" fill="#22C55E" opacity="0.9" filter="url(#glowFilter)"/>
  <rect x="1051" y="185" width="432" height="122" rx="17" fill="none" stroke="#22C55E" stroke-width="0.5" stroke-opacity="0.25"/>
  <text x="1088" y="222" font-family="Arial, sans-serif" font-size="12" fill="#9CA3AF" letter-spacing="2">AVG PER LOAD</text>
  <text x="1088" y="270" font-family="Arial Black, sans-serif" font-size="36" font-weight="900" fill="#FFFFFF">$1,848</text>
  <rect x="1088" y="282" width="110" height="22" rx="11" fill="#22C55E" opacity="0.15"/>
  <text x="1100" y="298" font-family="Arial, sans-serif" font-size="12" fill="#22C55E">↑ 5% this mo.</text>
  <circle cx="1438" cy="220" r="3" fill="#22C55E" opacity="0.4"/>
  <circle cx="1424" cy="234" r="2" fill="#22C55E" opacity="0.3"/>
  <circle cx="1452" cy="236" r="2" fill="#22C55E" opacity="0.3"/>

  <!-- KPI 4: Efficiency -->
  <rect x="1534" y="184" width="448" height="124" rx="18" fill="url(#panelGrad)" stroke="#F59E0B" stroke-width="1.5" stroke-opacity="0.6"/>
  <rect x="1534" y="184" width="448" height="3" rx="18" fill="#F59E0B" opacity="0.9" filter="url(#glowFilter)"/>
  <rect x="1535" y="185" width="446" height="122" rx="17" fill="none" stroke="#F59E0B" stroke-width="0.5" stroke-opacity="0.25"/>
  <text x="1572" y="222" font-family="Arial, sans-serif" font-size="12" fill="#9CA3AF" letter-spacing="2">FUEL EFFICIENCY</text>
  <text x="1572" y="270" font-family="Arial Black, sans-serif" font-size="36" font-weight="900" fill="#FFFFFF">6.8 MPG</text>
  <rect x="1572" y="282" width="116" height="22" rx="11" fill="#F59E0B" opacity="0.15"/>
  <text x="1584" y="298" font-family="Arial, sans-serif" font-size="12" fill="#F59E0B">↑ +0.4 MPG avg</text>
  <circle cx="1932" cy="220" r="3" fill="#F59E0B" opacity="0.4"/>
  <circle cx="1918" cy="234" r="2" fill="#F59E0B" opacity="0.3"/>
  <circle cx="1946" cy="236" r="2" fill="#F59E0B" opacity="0.3"/>

  <!-- ============================================ -->
  <!-- MAIN HOLOGRAPHIC REVENUE CHART               -->
  <!-- ============================================ -->

  <!-- Chart panel glow -->
  <rect x="72" y="350" width="1240" height="540" rx="24" fill="#FF6B35" opacity="0.03" filter="url(#softBlur)"/>

  <!-- Chart panel -->
  <rect x="82" y="360" width="1220" height="520" rx="22" fill="url(#panelGrad)" stroke="#FF6B35" stroke-width="1.5" stroke-opacity="0.5" filter="url(#panelShadow)"/>
  <rect x="82" y="360" width="1220" height="3" rx="22" fill="#FF6B35" opacity="0.9" filter="url(#glowFilter)"/>
  <rect x="83" y="361" width="1218" height="518" rx="21" fill="none" stroke="#FF6B35" stroke-width="0.5" stroke-opacity="0.25"/>

  <!-- Chart header -->
  <text x="122" y="404" font-family="Arial, sans-serif" font-size="17" font-weight="700" fill="#FFFFFF">Revenue vs Expenses</text>
  <text x="122" y="426" font-family="Arial, sans-serif" font-size="12" fill="#6B7280">Monthly breakdown · 6 months</text>

  <!-- Legend -->
  <line x1="860" y1="400" x2="890" y2="400" stroke="#FF6B35" stroke-width="2.5" filter="url(#glowFilter)"/>
  <text x="898" y="404" font-family="Arial, sans-serif" font-size="12" fill="#9CA3AF">Revenue</text>
  <line x1="980" y1="400" x2="1010" y2="400" stroke="#3B82F6" stroke-width="2.5" stroke-dasharray="6,3" filter="url(#glowFilter)"/>
  <text x="1018" y="404" font-family="Arial, sans-serif" font-size="12" fill="#9CA3AF">Expenses</text>
  <line x1="1100" y1="400" x2="1130" y2="400" stroke="#22C55E" stroke-width="2" stroke-dasharray="4,4"/>
  <text x="1138" y="404" font-family="Arial, sans-serif" font-size="12" fill="#9CA3AF">Net</text>

  <!-- Chart axes -->
  <line x1="160" y1="750" x2="1270" y2="750" stroke="#1E3A5F" stroke-width="1.5"/>
  <line x1="160" y1="450" x2="160" y2="750" stroke="#1E3A5F" stroke-width="1.5"/>

  <!-- Y-axis labels -->
  <text x="150" y="755" font-family="Arial, sans-serif" font-size="11" fill="#4A5568" text-anchor="end">$0</text>
  <text x="150" y="706" font-family="Arial, sans-serif" font-size="11" fill="#4A5568" text-anchor="end">$10k</text>
  <text x="150" y="656" font-family="Arial, sans-serif" font-size="11" fill="#4A5568" text-anchor="end">$20k</text>
  <text x="150" y="606" font-family="Arial, sans-serif" font-size="11" fill="#4A5568" text-anchor="end">$30k</text>
  <text x="150" y="556" font-family="Arial, sans-serif" font-size="11" fill="#4A5568" text-anchor="end">$40k</text>
  <text x="150" y="506" font-family="Arial, sans-serif" font-size="11" fill="#4A5568" text-anchor="end">$50k</text>

  <!-- Grid lines (holographic) -->
  <line x1="160" y1="704" x2="1270" y2="704" stroke="#1A3050" stroke-width="1" opacity="0.5"/>
  <line x1="160" y1="654" x2="1270" y2="654" stroke="#1A3050" stroke-width="1" opacity="0.5"/>
  <line x1="160" y1="604" x2="1270" y2="604" stroke="#1A3050" stroke-width="1" opacity="0.5"/>
  <line x1="160" y1="554" x2="1270" y2="554" stroke="#1A3050" stroke-width="1" opacity="0.5"/>
  <line x1="160" y1="504" x2="1270" y2="504" stroke="#1A3050" stroke-width="1" opacity="0.5"/>

  <!-- X-axis months (equidistant: 160 + n*185) -->
  <text x="245" y="770" font-family="Arial, sans-serif" font-size="12" fill="#6B7280" text-anchor="middle">Oct '25</text>
  <text x="430" y="770" font-family="Arial, sans-serif" font-size="12" fill="#6B7280" text-anchor="middle">Nov '25</text>
  <text x="615" y="770" font-family="Arial, sans-serif" font-size="12" fill="#6B7280" text-anchor="middle">Dec '25</text>
  <text x="800" y="770" font-family="Arial, sans-serif" font-size="12" fill="#6B7280" text-anchor="middle">Jan '26</text>
  <text x="985" y="770" font-family="Arial, sans-serif" font-size="12" fill="#6B7280" text-anchor="middle">Feb '26</text>
  <text x="1185" y="770" font-family="Arial, sans-serif" font-size="12" fill="#FF6B35" text-anchor="middle" font-weight="700">Mar '26</text>

  <!-- Revenue area fill -->
  <polygon points="160,660 245,641 430,622 615,601 800,576 985,543 1185,507 1185,750 160,750"
           fill="url(#revenueAreaGrad)" opacity="0.8"/>
  <!-- Revenue line -->
  <polyline points="160,660 245,641 430,622 615,601 800,576 985,543 1185,507"
            fill="none" stroke="#FF6B35" stroke-width="3.5" stroke-linejoin="round" stroke-linecap="round" filter="url(#glowFilter)"/>

  <!-- Expenses area -->
  <polygon points="160,710 245,695 430,685 615,676 800,668 985,660 1185,654 1185,750 160,750"
           fill="url(#expenseAreaGrad)" opacity="0.6"/>
  <!-- Expenses line -->
  <polyline points="160,710 245,695 430,685 615,676 800,668 985,660 1185,654"
            fill="none" stroke="#3B82F6" stroke-width="2.5" stroke-dasharray="10,5" stroke-linejoin="round" stroke-linecap="round" filter="url(#glowFilter)"/>

  <!-- Net profit line (green) -->
  <polyline points="160,730 245,718 430,706 615,695 800,682 985,666 1185,648"
            fill="none" stroke="#22C55E" stroke-width="2" stroke-dasharray="5,5" stroke-linejoin="round"/>

  <!-- Revenue data points with halos -->
  <circle cx="160" cy="660" r="10" fill="#FF6B35" opacity="0.15"/>
  <circle cx="160" cy="660" r="5" fill="#FF6B35" stroke="#0A1628" stroke-width="2"/>
  <circle cx="245" cy="641" r="10" fill="#FF6B35" opacity="0.15"/>
  <circle cx="245" cy="641" r="5" fill="#FF6B35" stroke="#0A1628" stroke-width="2"/>
  <circle cx="430" cy="622" r="10" fill="#FF6B35" opacity="0.15"/>
  <circle cx="430" cy="622" r="5" fill="#FF6B35" stroke="#0A1628" stroke-width="2"/>
  <circle cx="615" cy="601" r="10" fill="#FF6B35" opacity="0.15"/>
  <circle cx="615" cy="601" r="5" fill="#FF6B35" stroke="#0A1628" stroke-width="2"/>
  <circle cx="800" cy="576" r="10" fill="#FF6B35" opacity="0.15"/>
  <circle cx="800" cy="576" r="5" fill="#FF6B35" stroke="#0A1628" stroke-width="2"/>
  <circle cx="985" cy="543" r="10" fill="#FF6B35" opacity="0.15"/>
  <circle cx="985" cy="543" r="5" fill="#FF6B35" stroke="#0A1628" stroke-width="2"/>
  <!-- Last point: highlighted -->
  <circle cx="1185" cy="507" r="18" fill="#FF6B35" opacity="0.1" filter="url(#strongGlow)"/>
  <circle cx="1185" cy="507" r="8" fill="#FF6B35" stroke="#0A1628" stroke-width="2" filter="url(#glowFilter)"/>

  <!-- Tooltip for last point -->
  <rect x="1110" y="472" width="156" height="64" rx="10" fill="#0A1628" stroke="#FF6B35" stroke-width="1.5"/>
  <rect x="1111" y="473" width="154" height="62" rx="9" fill="none" stroke="#FF6B35" stroke-width="0.5" stroke-opacity="0.3"/>
  <line x1="1185" y1="534" x2="1185" y2="507" stroke="#FF6B35" stroke-width="1" stroke-dasharray="3,2"/>
  <text x="1188" y="490" font-family="Arial, sans-serif" font-size="11" font-weight="700" fill="#FF6B35">March 2026</text>
  <text x="1188" y="510" font-family="Arial Black, sans-serif" font-size="16" fill="#FFFFFF">$28,940</text>
  <text x="1188" y="528" font-family="Arial, sans-serif" font-size="11" fill="#22C55E">↑ +12% MOM</text>

  <!-- Monthly values above line -->
  <text x="245" y="630" font-family="Arial, sans-serif" font-size="11" fill="#9CA3AF" text-anchor="middle">$18.2k</text>
  <text x="430" y="610" font-family="Arial, sans-serif" font-size="11" fill="#9CA3AF" text-anchor="middle">$20.1k</text>
  <text x="615" y="589" font-family="Arial, sans-serif" font-size="11" fill="#9CA3AF" text-anchor="middle">$22.8k</text>
  <text x="800" y="564" font-family="Arial, sans-serif" font-size="11" fill="#9CA3AF" text-anchor="middle">$25.4k</text>
  <text x="985" y="530" font-family="Arial, sans-serif" font-size="11" fill="#9CA3AF" text-anchor="middle">$25.8k</text>

  <!-- ============================================ -->
  <!-- PIE CHART PANEL - right of line chart        -->
  <!-- ============================================ -->

  <!-- Pie glow -->
  <rect x="1342" y="350" width="650" height="540" rx="24" fill="#F59E0B" opacity="0.03" filter="url(#softBlur)"/>

  <!-- Pie panel -->
  <rect x="1352" y="360" width="630" height="520" rx="22" fill="url(#panelGrad)" stroke="#F59E0B" stroke-width="1.5" stroke-opacity="0.5" filter="url(#panelShadow)"/>
  <rect x="1352" y="360" width="630" height="3" rx="22" fill="#F59E0B" opacity="0.9" filter="url(#glowFilter)"/>
  <rect x="1353" y="361" width="628" height="518" rx="21" fill="none" stroke="#F59E0B" stroke-width="0.5" stroke-opacity="0.25"/>

  <text x="1392" y="404" font-family="Arial, sans-serif" font-size="17" font-weight="700" fill="#FFFFFF">Expense Breakdown</text>
  <text x="1392" y="426" font-family="Arial, sans-serif" font-size="12" fill="#6B7280">6-month cost distribution</text>

  <!-- Holographic pie chart -->
  <!-- Fuel: 42% (~151°) -->
  <path d="M 1545 600 L 1545 500 A 100 100 0 0 1 1634 553 Z" fill="#FF6B35" opacity="0.85" filter="url(#glowFilter)"/>
  <!-- Maintenance: 18% (~65°) -->
  <path d="M 1545 600 L 1634 553 A 100 100 0 0 1 1575 695 Z" fill="#F59E0B" opacity="0.85"/>
  <!-- Insurance: 15% (~54°) -->
  <path d="M 1545 600 L 1575 695 A 100 100 0 0 1 1455 678 Z" fill="#3B82F6" opacity="0.85"/>
  <!-- Tolls: 12% (~43°) -->
  <path d="M 1545 600 L 1455 678 A 100 100 0 0 1 1447 555 Z" fill="#22C55E" opacity="0.85"/>
  <!-- Other: 13% (~47°) -->
  <path d="M 1545 600 L 1447 555 A 100 100 0 0 1 1545 500 Z" fill="#8B5CF6" opacity="0.85"/>

  <!-- Donut hole -->
  <circle cx="1545" cy="600" r="56" fill="#0F1E33"/>
  <!-- Inner glow ring -->
  <circle cx="1545" cy="600" r="56" fill="none" stroke="#FF6B35" stroke-width="1" stroke-opacity="0.3"/>
  <text x="1545" y="593" font-family="Arial, sans-serif" font-size="12" fill="#9CA3AF" text-anchor="middle">Total</text>
  <text x="1545" y="613" font-family="Arial Black, sans-serif" font-size="15" fill="#FFFFFF" text-anchor="middle">$47k</text>

  <!-- Hologram scan line effect on pie -->
  <line x1="1352" y1="580" x2="1982" y2="580" stroke="#FF6B35" stroke-width="0.5" opacity="0.1"/>
  <line x1="1352" y1="600" x2="1982" y2="600" stroke="#FF6B35" stroke-width="0.5" opacity="0.06"/>

  <!-- Pie Legend -->
  <rect x="1672" y="480" width="14" height="14" rx="4" fill="#FF6B35" filter="url(#glowFilter)"/>
  <text x="1693" y="492" font-family="Arial, sans-serif" font-size="13" fill="#E5E7EB">Fuel</text>
  <text x="1830" y="492" font-family="Arial, sans-serif" font-size="13" fill="#FF6B35" font-weight="700">42%</text>
  <text x="1886" y="492" font-family="Arial, sans-serif" font-size="12" fill="#6B7280">$19,740</text>

  <rect x="1672" y="512" width="14" height="14" rx="4" fill="#F59E0B"/>
  <text x="1693" y="524" font-family="Arial, sans-serif" font-size="13" fill="#E5E7EB">Maintenance</text>
  <text x="1830" y="524" font-family="Arial, sans-serif" font-size="13" fill="#F59E0B" font-weight="700">18%</text>
  <text x="1886" y="524" font-family="Arial, sans-serif" font-size="12" fill="#6B7280">$8,460</text>

  <rect x="1672" y="544" width="14" height="14" rx="4" fill="#3B82F6"/>
  <text x="1693" y="556" font-family="Arial, sans-serif" font-size="13" fill="#E5E7EB">Insurance</text>
  <text x="1830" y="556" font-family="Arial, sans-serif" font-size="13" fill="#3B82F6" font-weight="700">15%</text>
  <text x="1886" y="556" font-family="Arial, sans-serif" font-size="12" fill="#6B7280">$7,050</text>

  <rect x="1672" y="576" width="14" height="14" rx="4" fill="#22C55E"/>
  <text x="1693" y="588" font-family="Arial, sans-serif" font-size="13" fill="#E5E7EB">Tolls</text>
  <text x="1830" y="588" font-family="Arial, sans-serif" font-size="13" fill="#22C55E" font-weight="700">12%</text>
  <text x="1886" y="588" font-family="Arial, sans-serif" font-size="12" fill="#6B7280">$5,640</text>

  <rect x="1672" y="608" width="14" height="14" rx="4" fill="#8B5CF6"/>
  <text x="1693" y="620" font-family="Arial, sans-serif" font-size="13" fill="#E5E7EB">Other</text>
  <text x="1830" y="620" font-family="Arial, sans-serif" font-size="13" fill="#8B5CF6" font-weight="700">13%</text>
  <text x="1886" y="620" font-family="Arial, sans-serif" font-size="12" fill="#6B7280">$6,110</text>

  <!-- Net margin bar -->
  <text x="1392" y="670" font-family="Arial, sans-serif" font-size="12" fill="#9CA3AF">Net Margin</text>
  <text x="1934" y="670" font-family="Arial, sans-serif" font-size="14" fill="#FF6B35" font-weight="700" text-anchor="end">64%</text>
  <rect x="1392" y="676" width="540" height="10" rx="5" fill="#1E3A5F"/>
  <rect x="1392" y="676" width="346" height="10" rx="5" fill="url(#orangeGrad)" filter="url(#glowFilter)"/>

  <!-- Profit indicator bar -->
  <text x="1392" y="712" font-family="Arial, sans-serif" font-size="12" fill="#9CA3AF">Profit</text>
  <text x="1934" y="712" font-family="Arial, sans-serif" font-size="14" fill="#22C55E" font-weight="700" text-anchor="end">$47,780</text>
  <rect x="1392" y="718" width="540" height="10" rx="5" fill="#1E3A5F"/>
  <rect x="1392" y="718" width="346" height="10" rx="5" fill="#22C55E" opacity="0.7"/>

  <!-- ============================================ -->
  <!-- BOTTOM LEFT: Top Routes Panel                -->
  <!-- ============================================ -->

  <!-- Panel glow -->
  <rect x="72" y="942" width="950" height="640" rx="24" fill="#3B82F6" opacity="0.03" filter="url(#softBlur)"/>

  <!-- Routes panel -->
  <rect x="82" y="952" width="930" height="620" rx="22" fill="url(#panelGrad)" stroke="#3B82F6" stroke-width="1.5" stroke-opacity="0.5" filter="url(#bluePanelShadow)"/>
  <rect x="82" y="952" width="930" height="3" rx="22" fill="#3B82F6" opacity="0.9" filter="url(#glowFilter)"/>
  <rect x="83" y="953" width="928" height="618" rx="21" fill="none" stroke="#3B82F6" stroke-width="0.5" stroke-opacity="0.25"/>

  <text x="122" y="996" font-family="Arial, sans-serif" font-size="17" font-weight="700" fill="#FFFFFF">Top Routes by Revenue</text>
  <text x="122" y="1018" font-family="Arial, sans-serif" font-size="12" fill="#6B7280">Ranked by 6-month earnings</text>

  <!-- Table header -->
  <rect x="82" y="1030" width="930" height="36" rx="0" fill="#080F1C" opacity="0.8"/>
  <line x1="82" y1="1030" x2="1012" y2="1030" stroke="#1E3A5F" stroke-width="1"/>
  <line x1="82" y1="1066" x2="1012" y2="1066" stroke="#1E3A5F" stroke-width="1"/>
  <text x="108" y="1054" font-family="Arial, sans-serif" font-size="11" fill="#4A5568" letter-spacing="1">ROUTE</text>
  <text x="500" y="1054" font-family="Arial, sans-serif" font-size="11" fill="#4A5568" letter-spacing="1">LOADS</text>
  <text x="600" y="1054" font-family="Arial, sans-serif" font-size="11" fill="#4A5568" letter-spacing="1">AVG RATE</text>
  <text x="740" y="1054" font-family="Arial, sans-serif" font-size="11" fill="#4A5568" letter-spacing="1">TOTAL</text>
  <text x="880" y="1054" font-family="Arial, sans-serif" font-size="11" fill="#4A5568" letter-spacing="1">TREND</text>

  <!-- Route rows -->
  <!-- #1 -->
  <rect x="82" y="1066" width="930" height="62" fill="#0D1E35" opacity="0.5"/>
  <rect x="82" y="1066" width="5" height="62" fill="#FF6B35" filter="url(#glowFilter)"/>
  <line x1="82" y1="1128" x2="1012" y2="1128" stroke="#1E3A5F" stroke-width="1"/>
  <text x="108" y="1094" font-family="Arial, sans-serif" font-size="14" font-weight="600" fill="#FFFFFF">Dallas, TX → Chicago, IL</text>
  <text x="108" y="1114" font-family="Arial, sans-serif" font-size="12" fill="#6B7280">1,145 mi · 2-3 days avg</text>
  <text x="500" y="1105" font-family="Arial Black, sans-serif" font-size="15" fill="#FFFFFF">142</text>
  <text x="600" y="1105" font-family="Arial, sans-serif" font-size="14" fill="#FF6B35" font-weight="600">$2,850</text>
  <text x="740" y="1105" font-family="Arial Black, sans-serif" font-size="14" fill="#22C55E">$40,470</text>
  <polyline points="880,1110 910,1106 940,1103 970,1098 1000,1094" fill="none" stroke="#22C55E" stroke-width="2.5" filter="url(#glowFilter)"/>

  <!-- #2 -->
  <rect x="82" y="1128" width="930" height="62" fill="none"/>
  <rect x="82" y="1128" width="5" height="62" fill="#3B82F6" filter="url(#glowFilter)"/>
  <line x1="82" y1="1190" x2="1012" y2="1190" stroke="#1E3A5F" stroke-width="1"/>
  <text x="108" y="1156" font-family="Arial, sans-serif" font-size="14" font-weight="600" fill="#FFFFFF">Los Angeles, CA → Phoenix, AZ</text>
  <text x="108" y="1176" font-family="Arial, sans-serif" font-size="12" fill="#6B7280">372 mi · 6-8 hours avg</text>
  <text x="500" y="1167" font-family="Arial Black, sans-serif" font-size="15" fill="#FFFFFF">218</text>
  <text x="600" y="1167" font-family="Arial, sans-serif" font-size="14" fill="#FF6B35" font-weight="600">$1,420</text>
  <text x="740" y="1167" font-family="Arial Black, sans-serif" font-size="14" fill="#22C55E">$30,956</text>
  <polyline points="880,1174 910,1172 940,1170 970,1168 1000,1165" fill="none" stroke="#22C55E" stroke-width="2.5"/>

  <!-- #3 -->
  <rect x="82" y="1190" width="930" height="62" fill="#0D1E35" opacity="0.5"/>
  <rect x="82" y="1190" width="5" height="62" fill="#22C55E" filter="url(#glowFilter)"/>
  <line x1="82" y1="1252" x2="1012" y2="1252" stroke="#1E3A5F" stroke-width="1"/>
  <text x="108" y="1218" font-family="Arial, sans-serif" font-size="14" font-weight="600" fill="#FFFFFF">Houston, TX → Memphis, TN</text>
  <text x="108" y="1238" font-family="Arial, sans-serif" font-size="12" fill="#6B7280">698 mi · 10-12 hours avg</text>
  <text x="500" y="1229" font-family="Arial Black, sans-serif" font-size="15" fill="#FFFFFF">96</text>
  <text x="600" y="1229" font-family="Arial, sans-serif" font-size="14" fill="#FF6B35" font-weight="600">$2,100</text>
  <text x="740" y="1229" font-family="Arial Black, sans-serif" font-size="14" fill="#22C55E">$20,160</text>
  <polyline points="880,1236 910,1234 940,1232 970,1228 1000,1224" fill="none" stroke="#22C55E" stroke-width="2.5"/>

  <!-- #4 -->
  <rect x="82" y="1252" width="930" height="62" fill="none"/>
  <rect x="82" y="1252" width="5" height="62" fill="#F59E0B" filter="url(#glowFilter)"/>
  <line x1="82" y1="1314" x2="1012" y2="1314" stroke="#1E3A5F" stroke-width="1"/>
  <text x="108" y="1280" font-family="Arial, sans-serif" font-size="14" font-weight="600" fill="#FFFFFF">Atlanta, GA → Miami, FL</text>
  <text x="108" y="1300" font-family="Arial, sans-serif" font-size="12" fill="#6B7280">661 mi · 9-11 hours avg</text>
  <text x="500" y="1291" font-family="Arial Black, sans-serif" font-size="15" fill="#FFFFFF">87</text>
  <text x="600" y="1291" font-family="Arial, sans-serif" font-size="14" fill="#FF6B35" font-weight="600">$1,950</text>
  <text x="740" y="1291" font-family="Arial Black, sans-serif" font-size="14" fill="#F59E0B">$16,965</text>
  <polyline points="880,1296 910,1295 940,1294 970,1292 1000,1289" fill="none" stroke="#F59E0B" stroke-width="2.5"/>

  <!-- #5 -->
  <rect x="82" y="1314" width="930" height="62" fill="#0D1E35" opacity="0.5"/>
  <rect x="82" y="1314" width="5" height="62" fill="#8B5CF6" filter="url(#glowFilter)"/>
  <line x1="82" y1="1376" x2="1012" y2="1376" stroke="#1E3A5F" stroke-width="1"/>
  <text x="108" y="1342" font-family="Arial, sans-serif" font-size="14" font-weight="600" fill="#FFFFFF">Seattle, WA → Portland, OR</text>
  <text x="108" y="1362" font-family="Arial, sans-serif" font-size="12" fill="#6B7280">174 mi · 3-4 hours avg</text>
  <text x="500" y="1353" font-family="Arial Black, sans-serif" font-size="15" fill="#FFFFFF">186</text>
  <text x="600" y="1353" font-family="Arial, sans-serif" font-size="14" fill="#FF6B35" font-weight="600">$980</text>
  <text x="740" y="1353" font-family="Arial Black, sans-serif" font-size="14" fill="#9CA3AF">$18,228</text>
  <polyline points="880,1360 910,1362 940,1358 970,1355 1000,1352" fill="none" stroke="#EF4444" stroke-width="2.5"/>

  <!-- #6 -->
  <rect x="82" y="1376" width="930" height="62" fill="none"/>
  <rect x="82" y="1376" width="5" height="62" fill="#EF4444" filter="url(#glowFilter)"/>
  <line x1="82" y1="1438" x2="1012" y2="1438" stroke="#1E3A5F" stroke-width="1"/>
  <text x="108" y="1404" font-family="Arial, sans-serif" font-size="14" font-weight="600" fill="#FFFFFF">Denver, CO → Salt Lake City, UT</text>
  <text x="108" y="1424" font-family="Arial, sans-serif" font-size="12" fill="#6B7280">525 mi · 7-9 hours avg</text>
  <text x="500" y="1415" font-family="Arial Black, sans-serif" font-size="15" fill="#FFFFFF">74</text>
  <text x="600" y="1415" font-family="Arial, sans-serif" font-size="14" fill="#FF6B35" font-weight="600">$1,680</text>
  <text x="740" y="1415" font-family="Arial Black, sans-serif" font-size="14" fill="#9CA3AF">$12,432</text>
  <polyline points="880,1420 910,1422 940,1420 970,1418 1000,1416" fill="none" stroke="#9CA3AF" stroke-width="2.5"/>

  <!-- View more -->
  <rect x="82" y="1444" width="930" height="128" rx="0" fill="#0D1E35" opacity="0.5"/>
  <rect x="82" y="1440" width="930" height="132" rx="0" fill="none"/>
  <text x="547" y="1500" font-family="Arial, sans-serif" font-size="14" fill="#FF6B35" text-anchor="middle">View all 48 routes →</text>
  <text x="547" y="1524" font-family="Arial, sans-serif" font-size="12" fill="#6B7280" text-anchor="middle">Sorted by 6M gross revenue</text>

  <!-- ============================================ -->
  <!-- BOTTOM RIGHT: Driver Performance             -->
  <!-- ============================================ -->

  <!-- Panel glow -->
  <rect x="1062" y="942" width="940" height="640" rx="24" fill="#22C55E" opacity="0.03" filter="url(#softBlur)"/>

  <!-- Drivers panel -->
  <rect x="1072" y="952" width="920" height="620" rx="22" fill="url(#panelGrad)" stroke="#22C55E" stroke-width="1.5" stroke-opacity="0.5" filter="url(#greenPanelShadow)"/>
  <rect x="1072" y="952" width="920" height="3" rx="22" fill="#22C55E" opacity="0.9" filter="url(#glowFilter)"/>
  <rect x="1073" y="953" width="918" height="618" rx="21" fill="none" stroke="#22C55E" stroke-width="0.5" stroke-opacity="0.25"/>

  <text x="1112" y="996" font-family="Arial, sans-serif" font-size="17" font-weight="700" fill="#FFFFFF">Driver Performance</text>
  <text x="1112" y="1018" font-family="Arial, sans-serif" font-size="12" fill="#6B7280">Top earners — 6-month leaderboard</text>

  <!-- Driver cards -->
  <!-- #1 Mike Johnson -->
  <rect x="1102" y="1036" width="870" height="84" rx="14" fill="#0D1E35" stroke="#FF6B35" stroke-width="1" stroke-opacity="0.5"/>
  <rect x="1102" y="1036" width="5" height="84" rx="2" fill="#FF6B35" filter="url(#glowFilter)"/>
  <!-- Rank badge -->
  <rect x="1120" y="1054" width="32" height="32" rx="8" fill="#FF6B35" opacity="0.2"/>
  <text x="1136" y="1074" font-family="Arial Black, sans-serif" font-size="14" font-weight="900" fill="#FF6B35" text-anchor="middle">#1</text>
  <!-- Avatar -->
  <circle cx="1186" cy="1078" r="22" fill="#FF6B35" opacity="0.15"/>
  <text x="1186" y="1083" font-family="Arial, sans-serif" font-size="13" font-weight="700" fill="#FF6B35" text-anchor="middle">MJ</text>
  <text x="1220" y="1066" font-family="Arial, sans-serif" font-size="15" font-weight="700" fill="#FFFFFF">Mike Johnson</text>
  <text x="1220" y="1086" font-family="Arial, sans-serif" font-size="12" fill="#9CA3AF">142 loads · 84,720 mi · 6.9 MPG</text>
  <text x="1220" y="1108" font-family="Arial, sans-serif" font-size="12" fill="#F59E0B">★★★★★ 4.9/5.0</text>
  <text x="1770" y="1074" font-family="Arial Black, sans-serif" font-size="20" fill="#22C55E" text-anchor="end">$40,470</text>
  <text x="1770" y="1094" font-family="Arial, sans-serif" font-size="12" fill="#22C55E" text-anchor="end">↑ 18% vs target</text>
  <!-- Efficiency bar -->
  <rect x="1490" y="1104" width="280" height="8" rx="4" fill="#1E3A5F"/>
  <rect x="1490" y="1104" width="224" height="8" rx="4" fill="#FF6B35" filter="url(#glowFilter)"/>
  <text x="1490" y="1122" font-family="Arial, sans-serif" font-size="11" fill="#6B7280">Efficiency: 80%</text>

  <!-- #2 Sarah Chen -->
  <rect x="1102" y="1130" width="870" height="84" rx="14" fill="#0D1E35" stroke="#3B82F6" stroke-width="1" stroke-opacity="0.4"/>
  <rect x="1102" y="1130" width="5" height="84" rx="2" fill="#3B82F6" filter="url(#glowFilter)"/>
  <rect x="1120" y="1148" width="32" height="32" rx="8" fill="#3B82F6" opacity="0.2"/>
  <text x="1136" y="1168" font-family="Arial Black, sans-serif" font-size="14" font-weight="900" fill="#3B82F6" text-anchor="middle">#2</text>
  <circle cx="1186" cy="1172" r="22" fill="#3B82F6" opacity="0.15"/>
  <text x="1186" y="1177" font-family="Arial, sans-serif" font-size="13" font-weight="700" fill="#3B82F6" text-anchor="middle">SC</text>
  <text x="1220" y="1160" font-family="Arial, sans-serif" font-size="15" font-weight="700" fill="#FFFFFF">Sarah Chen</text>
  <text x="1220" y="1180" font-family="Arial, sans-serif" font-size="12" fill="#9CA3AF">218 loads · 62,400 mi · 7.1 MPG</text>
  <text x="1220" y="1202" font-family="Arial, sans-serif" font-size="12" fill="#F59E0B">★★★★☆ 4.6/5.0</text>
  <text x="1770" y="1168" font-family="Arial Black, sans-serif" font-size="20" fill="#22C55E" text-anchor="end">$30,956</text>
  <text x="1770" y="1188" font-family="Arial, sans-serif" font-size="12" fill="#22C55E" text-anchor="end">↑ 9% vs target</text>
  <rect x="1490" y="1198" width="280" height="8" rx="4" fill="#1E3A5F"/>
  <rect x="1490" y="1198" width="235" height="8" rx="4" fill="#3B82F6"/>
  <text x="1490" y="1216" font-family="Arial, sans-serif" font-size="11" fill="#6B7280">Efficiency: 84%</text>

  <!-- #3 David Rivera -->
  <rect x="1102" y="1224" width="870" height="84" rx="14" fill="#0D1E35" stroke="#22C55E" stroke-width="1" stroke-opacity="0.4"/>
  <rect x="1102" y="1224" width="5" height="84" rx="2" fill="#22C55E" filter="url(#glowFilter)"/>
  <rect x="1120" y="1242" width="32" height="32" rx="8" fill="#22C55E" opacity="0.2"/>
  <text x="1136" y="1262" font-family="Arial Black, sans-serif" font-size="14" fill="#22C55E" text-anchor="middle">#3</text>
  <circle cx="1186" cy="1266" r="22" fill="#22C55E" opacity="0.15"/>
  <text x="1186" y="1271" font-family="Arial, sans-serif" font-size="13" font-weight="700" fill="#22C55E" text-anchor="middle">DR</text>
  <text x="1220" y="1254" font-family="Arial, sans-serif" font-size="15" font-weight="700" fill="#FFFFFF">David Rivera</text>
  <text x="1220" y="1274" font-family="Arial, sans-serif" font-size="12" fill="#9CA3AF">96 loads · 48,200 mi · 6.8 MPG</text>
  <text x="1220" y="1296" font-family="Arial, sans-serif" font-size="12" fill="#F59E0B">★★★★☆ 4.4/5.0</text>
  <text x="1770" y="1262" font-family="Arial Black, sans-serif" font-size="20" fill="#22C55E" text-anchor="end">$22,080</text>
  <text x="1770" y="1282" font-family="Arial, sans-serif" font-size="12" fill="#F59E0B" text-anchor="end">= On target</text>
  <rect x="1490" y="1292" width="280" height="8" rx="4" fill="#1E3A5F"/>
  <rect x="1490" y="1292" width="192" height="8" rx="4" fill="#22C55E"/>
  <text x="1490" y="1310" font-family="Arial, sans-serif" font-size="11" fill="#6B7280">Efficiency: 69%</text>

  <!-- #4 Tom Wallace -->
  <rect x="1102" y="1318" width="870" height="84" rx="14" fill="#0D1E35" stroke="#F59E0B" stroke-width="1" stroke-opacity="0.4"/>
  <rect x="1102" y="1318" width="5" height="84" rx="2" fill="#F59E0B"/>
  <rect x="1120" y="1336" width="32" height="32" rx="8" fill="#F59E0B" opacity="0.15"/>
  <text x="1136" y="1356" font-family="Arial Black, sans-serif" font-size="14" fill="#F59E0B" text-anchor="middle">#4</text>
  <circle cx="1186" cy="1360" r="22" fill="#F59E0B" opacity="0.15"/>
  <text x="1186" y="1365" font-family="Arial, sans-serif" font-size="13" font-weight="700" fill="#F59E0B" text-anchor="middle">TW</text>
  <text x="1220" y="1348" font-family="Arial, sans-serif" font-size="15" font-weight="700" fill="#FFFFFF">Tom Wallace</text>
  <text x="1220" y="1368" font-family="Arial, sans-serif" font-size="12" fill="#9CA3AF">74 loads · 32,100 mi · 6.5 MPG</text>
  <text x="1220" y="1390" font-family="Arial, sans-serif" font-size="12" fill="#F59E0B">★★★☆☆ 3.8/5.0 · HOS issues</text>
  <text x="1770" y="1356" font-family="Arial Black, sans-serif" font-size="20" fill="#9CA3AF" text-anchor="end">$12,432</text>
  <text x="1770" y="1376" font-family="Arial, sans-serif" font-size="12" fill="#EF4444" text-anchor="end">↓ 12% vs target</text>
  <rect x="1490" y="1386" width="280" height="8" rx="4" fill="#1E3A5F"/>
  <rect x="1490" y="1386" width="134" height="8" rx="4" fill="#F59E0B"/>
  <text x="1490" y="1404" font-family="Arial, sans-serif" font-size="11" fill="#6B7280">Efficiency: 48%</text>

  <!-- View all button -->
  <rect x="1102" y="1414" width="870" height="52" rx="14" fill="#22C55E" opacity="0.08" stroke="#22C55E" stroke-width="1" stroke-opacity="0.4"/>
  <text x="1537" y="1445" font-family="Arial, sans-serif" font-size="14" fill="#22C55E" text-anchor="middle" font-weight="600">View All 15 Drivers →</text>

  <!-- Footer bar -->
  <text x="1032" y="2180" font-family="Arial, sans-serif" font-size="13" fill="#3A5070" text-anchor="middle" letter-spacing="2">HAULWALLET XR · SPATIAL ANALYTICS · v3.2.1 · Oct 2025 — Apr 2026</text>
</svg>
