<svg width="390" height="844" viewBox="0 0 390 844" xmlns="http://www.w3.org/2000/svg">
  <defs>
    <linearGradient id="bg" x1="0%" y1="0%" x2="0%" y2="100%">
      <stop offset="0%" style="stop-color:#0F1D35"/>
      <stop offset="100%" style="stop-color:#1A2B4A"/>
    </linearGradient>
    <linearGradient id="card1" x1="0%" y1="0%" x2="100%" y2="100%">
      <stop offset="0%" style="stop-color:#243557"/>
      <stop offset="100%" style="stop-color:#1C2E4A"/>
    </linearGradient>
    <linearGradient id="barGrad" x1="0%" y1="0%" x2="0%" y2="100%">
      <stop offset="0%" style="stop-color:#FF6B2B"/>
      <stop offset="100%" style="stop-color:#FF8C5A" stop-opacity="0.6"/>
    </linearGradient>
  </defs>

  <rect width="390" height="844" fill="url(#bg)"/>
  <text x="20" y="30" font-family="Arial, sans-serif" font-size="14" font-weight="bold" fill="#FFFFFF">9:41</text>

  <!-- Header -->
  <text x="20" y="74" font-family="Arial, sans-serif" font-size="14" fill="#8FA8CC">Track your money</text>
  <text x="20" y="106" font-family="Arial Black, Arial, sans-serif" font-size="28" font-weight="900" fill="#FFFFFF">Earnings</text>

  <!-- Period selector -->
  <rect x="20" y="120" width="75" height="30" rx="15" fill="#243557"/>
  <text x="57" y="139" font-family="Arial, sans-serif" font-size="12" fill="#8FA8CC" text-anchor="middle">Week</text>
  <rect x="101" y="120" width="75" height="30" rx="15" fill="#FF6B2B"/>
  <text x="138" y="139" font-family="Arial, sans-serif" font-size="12" fill="#FFFFFF" text-anchor="middle">Month</text>
  <rect x="182" y="120" width="75" height="30" rx="15" fill="#243557"/>
  <text x="219" y="139" font-family="Arial, sans-serif" font-size="12" fill="#8FA8CC" text-anchor="middle">Year</text>

  <!-- Big total -->
  <rect x="20" y="164" width="350" height="120" rx="20" fill="url(#card1)"/>
  <text x="44" y="200" font-family="Arial, sans-serif" font-size="13" fill="#8FA8CC">APRIL EARNINGS</text>
  <text x="44" y="252" font-family="Arial Black, Arial, sans-serif" font-size="52" font-weight="900" fill="#FFFFFF">$9,240</text>
  <text x="44" y="272" font-family="Arial, sans-serif" font-size="13" fill="#4CAF50">▲ +8.2% vs March ($8,540)</text>

  <!-- Bar chart -->
  <rect x="20" y="300" width="350" height="200" rx="16" fill="url(#card1)"/>
  <text x="44" y="326" font-family="Arial, sans-serif" font-size="13" fill="#8FA8CC">DAILY BREAKDOWN</text>

  <!-- Chart bars -->
  <!-- Week 1 -->
  <rect x="46" y="430" width="28" height="60" rx="6" fill="url(#barGrad)" opacity="0.7"/>
  <text x="60" y="500" font-family="Arial, sans-serif" font-size="9" fill="#8FA8CC" text-anchor="middle">Apr 1</text>
  <text x="60" y="426" font-family="Arial, sans-serif" font-size="9" fill="#FF6B2B" text-anchor="middle">$890</text>

  <rect x="86" y="400" width="28" height="90" rx="6" fill="url(#barGrad)" opacity="0.8"/>
  <text x="100" y="500" font-family="Arial, sans-serif" font-size="9" fill="#8FA8CC" text-anchor="middle">Apr 4</text>

  <rect x="126" y="380" width="28" height="110" rx="6" fill="url(#barGrad)"/>
  <text x="140" y="500" font-family="Arial, sans-serif" font-size="9" fill="#8FA8CC" text-anchor="middle">Apr 7</text>

  <rect x="166" y="410" width="28" height="80" rx="6" fill="url(#barGrad)" opacity="0.75"/>
  <text x="180" y="500" font-family="Arial, sans-serif" font-size="9" fill="#8FA8CC" text-anchor="middle">Apr 10</text>

  <rect x="206" y="350" width="28" height="140" rx="6" fill="url(#barGrad)"/>
  <text x="220" y="500" font-family="Arial, sans-serif" font-size="9" fill="#8FA8CC" text-anchor="middle">Apr 13</text>
  <text x="220" y="346" font-family="Arial, sans-serif" font-size="9" fill="#FF6B2B" text-anchor="middle">$1,020</text>

  <rect x="246" y="420" width="28" height="70" rx="6" fill="url(#barGrad)" opacity="0.7"/>
  <text x="260" y="500" font-family="Arial, sans-serif" font-size="9" fill="#8FA8CC" text-anchor="middle">Apr 16</text>

  <rect x="286" y="360" width="28" height="130" rx="6" fill="url(#barGrad)"/>
  <text x="300" y="500" font-family="Arial, sans-serif" font-size="9" fill="#8FA8CC" text-anchor="middle">Apr 17</text>

  <!-- Goal tracker -->
  <rect x="20" y="516" width="350" height="80" rx="16" fill="url(#card1)"/>
  <text x="44" y="542" font-family="Arial, sans-serif" font-size="13" fill="#8FA8CC">MONTHLY GOAL</text>
  <text x="340" y="542" font-family="Arial, sans-serif" font-size="13" fill="#FF6B2B" text-anchor="end">$9,240 / $12,000</text>
  <rect x="36" y="554" width="318" height="8" rx="4" fill="#1A2B4A"/>
  <rect x="36" y="554" width="244" height="8" rx="4" fill="#FF6B2B"/>
  <text x="44" y="584" font-family="Arial, sans-serif" font-size="12" fill="#8FA8CC">77% complete  •  13 days left</text>

  <!-- Breakdown by type -->
  <text x="20" y="628" font-family="Arial, sans-serif" font-size="16" font-weight="bold" fill="#FFFFFF">By Load Type</text>

  <rect x="20" y="642" width="350" height="60" rx="14" fill="url(#card1)"/>
  <text x="44" y="668" font-family="Arial, sans-serif" font-size="14" fill="#FFFFFF">Dry Van</text>
  <text x="44" y="688" font-family="Arial, sans-serif" font-size="12" fill="#8FA8CC">14 loads  •  5,240 mi</text>
  <text x="340" y="678" font-family="Arial Black, Arial, sans-serif" font-size="15" font-weight="bold" fill="#FFFFFF" text-anchor="end">$5,420</text>

  <rect x="20" y="712" width="350" height="60" rx="14" fill="url(#card1)"/>
  <text x="44" y="738" font-family="Arial, sans-serif" font-size="14" fill="#FFFFFF">Reefer</text>
  <text x="44" y="758" font-family="Arial, sans-serif" font-size="12" fill="#8FA8CC">6 loads  •  2,180 mi</text>
  <text x="340" y="748" font-family="Arial Black, Arial, sans-serif" font-size="15" font-weight="bold" fill="#FFFFFF" text-anchor="end">$2,640</text>

  <rect x="20" y="782" width="350" height="60" rx="14" fill="url(#card1)"/>
  <text x="44" y="808" font-family="Arial, sans-serif" font-size="14" fill="#FFFFFF">Flatbed</text>
  <text x="44" y="828" font-family="Arial, sans-serif" font-size="12" fill="#8FA8CC">4 loads  •  1,000 mi</text>
  <text x="340" y="818" font-family="Arial Black, Arial, sans-serif" font-size="15" font-weight="bold" fill="#FFFFFF" text-anchor="end">$1,180</text>

  <!-- Bottom Nav -->
  <rect x="0" y="800" width="390" height="44" fill="#0A1525"/>
  <rect x="0" y="800" width="390" height="1" fill="#243557"/>
  <text x="45" y="826" font-family="Arial, sans-serif" font-size="22" text-anchor="middle">🏠</text>
  <text x="130" y="826" font-family="Arial, sans-serif" font-size="22" text-anchor="middle">📦</text>
  <text x="215" y="826" font-family="Arial, sans-serif" font-size="22" text-anchor="middle">📍</text>
  <text x="300" y="826" font-family="Arial, sans-serif" font-size="22" text-anchor="middle">💰</text>
  <text x="360" y="826" font-family="Arial, sans-serif" font-size="22" text-anchor="middle">👤</text>
  <rect x="288" y="800" width="24" height="3" rx="1.5" fill="#FF6B2B"/>
</svg>
