<svg xmlns="http://www.w3.org/2000/svg" width="1920" height="1080" viewBox="0 0 1920 1080">
  <defs>
    <linearGradient id="bgGrad" x1="0%" y1="0%" x2="100%" y2="100%">
      <stop offset="0%" style="stop-color:#0D2137;stop-opacity:1" />
      <stop offset="100%" style="stop-color:#0A1A2E;stop-opacity:1" />
    </linearGradient>
    <linearGradient id="cardGrad" x1="0%" y1="0%" x2="0%" y2="100%">
      <stop offset="0%" style="stop-color:#1E3A5F;stop-opacity:1" />
      <stop offset="100%" style="stop-color:#162E4A;stop-opacity:1" />
    </linearGradient>
    <linearGradient id="lineGrad" x1="0%" y1="0%" x2="100%" y2="0%">
      <stop offset="0%" style="stop-color:#2B6CB0;stop-opacity:1" />
      <stop offset="100%" style="stop-color:#63B3ED;stop-opacity:1" />
    </linearGradient>
    <linearGradient id="areaGrad" x1="0%" y1="0%" x2="0%" y2="100%">
      <stop offset="0%" style="stop-color:#2B6CB0;stop-opacity:0.4" />
      <stop offset="100%" style="stop-color:#2B6CB0;stop-opacity:0" />
    </linearGradient>
    <linearGradient id="areaGrad2" x1="0%" y1="0%" x2="0%" y2="100%">
      <stop offset="0%" style="stop-color:#F5A623;stop-opacity:0.3" />
      <stop offset="100%" style="stop-color:#F5A623;stop-opacity:0" />
    </linearGradient>
    <linearGradient id="mapGrad2" x1="0%" y1="0%" x2="100%" y2="100%">
      <stop offset="0%" style="stop-color:#0A1829;stop-opacity:1" />
      <stop offset="100%" style="stop-color:#0D2137;stop-opacity:1" />
    </linearGradient>
    <filter id="shadow">
      <feDropShadow dx="0" dy="4" stdDeviation="8" flood-color="#000000" flood-opacity="0.4"/>
    </filter>
    <pattern id="gridPat" x="0" y="0" width="50" height="50" patternUnits="userSpaceOnUse">
      <rect width="50" height="50" fill="#0A1A2C"/>
      <path d="M 50 0 L 0 0 0 50" fill="none" stroke="#122030" stroke-width="0.5"/>
    </pattern>
    <pattern id="mapPat" x="0" y="0" width="60" height="60" patternUnits="userSpaceOnUse">
      <rect width="60" height="60" fill="#0D2137"/>
      <line x1="0" y1="30" x2="60" y2="30" stroke="#1A3A55" stroke-width="0.5"/>
      <line x1="30" y1="0" x2="30" y2="60" stroke="#1A3A55" stroke-width="0.5"/>
    </pattern>
  </defs>

  <!-- Chrome OS Desktop -->
  <rect width="1920" height="1080" fill="#1A2035"/>
  <rect width="1920" height="1080" fill="url(#bgGrad)" opacity="0.5"/>

  <!-- App Window -->
  <rect x="40" y="20" width="1840" height="1000" rx="10" fill="#0D1B2A" filter="url(#shadow)"/>

  <!-- Window Title Bar -->
  <rect x="40" y="20" width="1840" height="36" rx="10" fill="#0A1520"/>
  <rect x="40" y="44" width="1840" height="12" fill="#0A1520"/>
  <circle cx="64" cy="38" r="6" fill="#FF5F57"/>
  <circle cx="84" cy="38" r="6" fill="#FFBD2E"/>
  <circle cx="104" cy="38" r="6" fill="#28CA41"/>
  <text x="960" y="42" font-family="Arial, sans-serif" font-size="13" fill="#8B9EC8" text-anchor="middle">HaulWallet — Analytics</text>

  <!-- Sidebar -->
  <rect x="40" y="56" width="240" height="964" fill="#1A2B4A"/>
  <rect x="40" y="56" width="240" height="70" fill="#142038"/>
  <rect x="60" y="73" width="36" height="36" rx="8" fill="#2B6CB0"/>
  <text x="78" y="97" font-family="Arial, sans-serif" font-size="20" fill="white" text-anchor="middle" font-weight="bold">H</text>
  <text x="110" y="88" font-family="Arial, sans-serif" font-size="15" fill="white" font-weight="bold">HaulWallet</text>
  <text x="110" y="104" font-family="Arial, sans-serif" font-size="10" fill="#8B9EC8">Fleet Management</text>

  <!-- Nav -->
  <rect x="48" y="145" width="224" height="44" rx="8" fill="transparent"/>
  <text x="98" y="172" font-family="Arial, sans-serif" font-size="13" fill="#8B9EC8">Dashboard</text>
  <rect x="48" y="197" width="224" height="44" rx="8" fill="transparent"/>
  <text x="98" y="223" font-family="Arial, sans-serif" font-size="13" fill="#8B9EC8">My Routes</text>
  <rect x="48" y="249" width="224" height="44" rx="8" fill="transparent"/>
  <text x="98" y="271" font-family="Arial, sans-serif" font-size="13" fill="#8B9EC8">Loads</text>
  <rect x="48" y="301" width="224" height="44" rx="8" fill="transparent"/>
  <text x="98" y="323" font-family="Arial, sans-serif" font-size="13" fill="#8B9EC8">Earnings</text>
  <!-- Analytics (active) -->
  <rect x="48" y="353" width="224" height="44" rx="8" fill="#2B6CB0"/>
  <text x="98" y="379" font-family="Arial, sans-serif" font-size="13" fill="white" font-weight="600">Analytics</text>
  <rect x="48" y="405" width="224" height="44" rx="8" fill="transparent"/>
  <text x="98" y="431" font-family="Arial, sans-serif" font-size="13" fill="#8B9EC8">Documents</text>
  <rect x="48" y="457" width="224" height="44" rx="8" fill="transparent"/>
  <text x="98" y="483" font-family="Arial, sans-serif" font-size="13" fill="#8B9EC8">Expenses</text>
  <line x1="68" y1="540" x2="252" y2="540" stroke="#2B3F5E" stroke-width="1"/>
  <rect x="48" y="556" width="224" height="44" rx="8" fill="transparent"/>
  <text x="98" y="582" font-family="Arial, sans-serif" font-size="13" fill="#8B9EC8">Settings</text>

  <!-- User -->
  <rect x="40" y="960" width="240" height="60" fill="#142038"/>
  <circle cx="72" cy="990" r="18" fill="#2B6CB0"/>
  <text x="72" y="996" font-family="Arial, sans-serif" font-size="14" fill="white" text-anchor="middle" font-weight="bold">MJ</text>
  <text x="100" y="985" font-family="Arial, sans-serif" font-size="12" fill="white" font-weight="600">Mike Johnson</text>
  <text x="100" y="1001" font-family="Arial, sans-serif" font-size="11" fill="#8B9EC8">CDL-A Driver</text>

  <!-- Top Toolbar -->
  <rect x="280" y="56" width="1600" height="64" fill="#0F2035" opacity="0.9"/>
  <line x1="280" y1="120" x2="1880" y2="120" stroke="#1E3A5F" stroke-width="1"/>
  <text x="308" y="85" font-family="Arial, sans-serif" font-size="20" fill="white" font-weight="bold">Analytics</text>
  <text x="308" y="105" font-family="Arial, sans-serif" font-size="12" fill="#8B9EC8">Performance Overview</text>

  <!-- Date range selector -->
  <rect x="700" y="68" width="340" height="36" rx="8" fill="#1A2B4A" stroke="#2B3F5E" stroke-width="1"/>
  <text x="720" y="91" font-family="Arial, sans-serif" font-size="12" fill="#8B9EC8">Apr 1, 2026</text>
  <line x1="810" y1="78" x2="810" y2="98" stroke="#2B3F5E" stroke-width="1"/>
  <text x="825" y="84" font-family="Arial, sans-serif" font-size="10" fill="#5A7090">to</text>
  <text x="845" y="91" font-family="Arial, sans-serif" font-size="12" fill="#8B9EC8">Apr 17, 2026</text>
  <text x="1000" y="91" font-family="Arial, sans-serif" font-size="12" fill="#2B6CB0">▼</text>

  <!-- Period tabs -->
  <rect x="1060" y="68" width="300" height="36" rx="8" fill="#1A2B4A" stroke="#2B3F5E" stroke-width="1"/>
  <rect x="1062" y="70" width="70" height="32" rx="6" fill="#2B6CB0"/>
  <text x="1097" y="91" font-family="Arial, sans-serif" font-size="12" fill="white" text-anchor="middle">Week</text>
  <text x="1170" y="91" font-family="Arial, sans-serif" font-size="12" fill="#8B9EC8" text-anchor="middle">Month</text>
  <text x="1240" y="91" font-family="Arial, sans-serif" font-size="12" fill="#8B9EC8" text-anchor="middle">Quarter</text>
  <text x="1314" y="91" font-family="Arial, sans-serif" font-size="12" fill="#8B9EC8" text-anchor="middle">Year</text>

  <!-- Export button -->
  <rect x="1780" y="68" width="90" height="36" rx="8" fill="#2B6CB0"/>
  <text x="1825" y="91" font-family="Arial, sans-serif" font-size="12" fill="white" text-anchor="middle">Export</text>

  <!-- KPI Summary Row -->
  <rect x="300" y="136" width="240" height="88" rx="10" fill="url(#cardGrad)" stroke="#2B3F5E" stroke-width="1"/>
  <text x="320" y="162" font-family="Arial, sans-serif" font-size="11" fill="#8B9EC8">GROSS REVENUE</text>
  <text x="320" y="196" font-family="Arial, sans-serif" font-size="28" fill="white" font-weight="700">$48,240</text>
  <text x="320" y="214" font-family="Arial, sans-serif" font-size="11" fill="#48BB78">+12.4% ↑</text>

  <rect x="556" y="136" width="240" height="88" rx="10" fill="url(#cardGrad)" stroke="#2B3F5E" stroke-width="1"/>
  <text x="576" y="162" font-family="Arial, sans-serif" font-size="11" fill="#8B9EC8">NET PROFIT</text>
  <text x="576" y="196" font-family="Arial, sans-serif" font-size="28" fill="white" font-weight="700">$31,560</text>
  <text x="576" y="214" font-family="Arial, sans-serif" font-size="11" fill="#48BB78">+8.7% ↑</text>

  <rect x="812" y="136" width="240" height="88" rx="10" fill="url(#cardGrad)" stroke="#2B3F5E" stroke-width="1"/>
  <text x="832" y="162" font-family="Arial, sans-serif" font-size="11" fill="#8B9EC8">TOTAL MILES</text>
  <text x="832" y="196" font-family="Arial, sans-serif" font-size="28" fill="white" font-weight="700">18,432</text>
  <text x="832" y="214" font-family="Arial, sans-serif" font-size="11" fill="#8B9EC8">Avg $2.61/mi</text>

  <rect x="1068" y="136" width="240" height="88" rx="10" fill="url(#cardGrad)" stroke="#2B3F5E" stroke-width="1"/>
  <text x="1088" y="162" font-family="Arial, sans-serif" font-size="11" fill="#8B9EC8">LOADS COMPLETED</text>
  <text x="1088" y="196" font-family="Arial, sans-serif" font-size="28" fill="white" font-weight="700">34</text>
  <text x="1088" y="214" font-family="Arial, sans-serif" font-size="11" fill="#8B9EC8">100% on-time</text>

  <rect x="1324" y="136" width="240" height="88" rx="10" fill="url(#cardGrad)" stroke="#2B3F5E" stroke-width="1"/>
  <text x="1344" y="162" font-family="Arial, sans-serif" font-size="11" fill="#8B9EC8">FUEL EFFICIENCY</text>
  <text x="1344" y="196" font-family="Arial, sans-serif" font-size="28" fill="white" font-weight="700">6.4 MPG</text>
  <text x="1344" y="214" font-family="Arial, sans-serif" font-size="11" fill="#48BB78">+0.3 vs avg</text>

  <rect x="1580" y="136" width="280" height="88" rx="10" fill="url(#cardGrad)" stroke="#2B3F5E" stroke-width="1"/>
  <text x="1600" y="162" font-family="Arial, sans-serif" font-size="11" fill="#8B9EC8">HOS COMPLIANCE</text>
  <text x="1600" y="196" font-family="Arial, sans-serif" font-size="28" fill="white" font-weight="700">98.2%</text>
  <text x="1600" y="214" font-family="Arial, sans-serif" font-size="11" fill="#48BB78">Excellent</text>

  <!-- === THREE COLUMN LAYOUT === -->

  <!-- LEFT: Route Map -->
  <rect x="300" y="240" width="580" height="560" rx="12" fill="#0A1A2C" stroke="#2B3F5E" stroke-width="1"/>
  <rect x="300" y="240" width="580" height="44" rx="12" fill="#0F2035"/>
  <rect x="300" y="262" width="580" height="22" fill="#0F2035"/>
  <text x="322" y="267" font-family="Arial, sans-serif" font-size="14" fill="white" font-weight="600">Route Heatmap</text>
  <rect x="816" y="248" width="52" height="22" rx="11" fill="#142038" stroke="#2B3F5E" stroke-width="1"/>
  <text x="842" y="263" font-family="Arial, sans-serif" font-size="11" fill="#8B9EC8" text-anchor="middle">USA</text>

  <!-- Map background -->
  <rect x="300" y="284" width="580" height="516" fill="url(#mapPat)"/>

  <!-- US states outline (simplified) -->
  <path d="M 340 320 L 820 320 L 850 420 L 840 550 L 780 600 L 700 620 L 600 610 L 500 600 L 420 590 L 360 550 L 330 480 L 320 400 Z" fill="#0F2540" stroke="#1A3A55" stroke-width="0.8" opacity="0.6"/>

  <!-- State borders (simplified) -->
  <line x1="500" y1="320" x2="500" y2="600" stroke="#1A3A55" stroke-width="0.5"/>
  <line x1="650" y1="320" x2="650" y2="600" stroke="#1A3A55" stroke-width="0.5"/>
  <line x1="340" y1="450" x2="850" y2="450" stroke="#1A3A55" stroke-width="0.5"/>

  <!-- Route lines (frequent routes) -->
  <!-- Chicago - Dallas (thick = frequent) -->
  <path d="M 570 360 Q 560 430 555 510" stroke="#2B6CB0" stroke-width="4" fill="none" opacity="0.9"/>
  <!-- Chicago - Atlanta -->
  <path d="M 570 360 Q 640 410 670 480" stroke="#2B6CB0" stroke-width="3" fill="none" opacity="0.7"/>
  <!-- Dallas - Houston -->
  <path d="M 555 510 L 540 550" stroke="#F5A623" stroke-width="3" fill="none" opacity="0.8"/>
  <!-- Atlanta - Miami -->
  <path d="M 670 480 Q 710 530 720 580" stroke="#F5A623" stroke-width="2" fill="none" opacity="0.7"/>
  <!-- Denver - Seattle -->
  <path d="M 430 380 Q 380 340 360 330" stroke="#48BB78" stroke-width="2.5" fill="none" opacity="0.7"/>
  <!-- Houston - Phoenix -->
  <path d="M 540 550 Q 460 540 420 530" stroke="#48BB78" stroke-width="2" fill="none" opacity="0.6"/>
  <!-- More routes -->
  <path d="M 430 380 Q 500 360 570 360" stroke="#2B6CB0" stroke-width="2" fill="none" opacity="0.5"/>
  <path d="M 650 360 Q 700 380 730 400" stroke="#2B6CB0" stroke-width="1.5" fill="none" opacity="0.4"/>

  <!-- City dots -->
  <circle cx="570" cy="360" r="8" fill="#2B6CB0" opacity="0.8"/>
  <circle cx="570" cy="360" r="4" fill="white"/>
  <text x="572" y="352" font-family="Arial, sans-serif" font-size="10" fill="#C8D8E8">Chicago</text>

  <circle cx="555" cy="510" r="7" fill="#F5A623" opacity="0.9"/>
  <circle cx="555" cy="510" r="3" fill="white"/>
  <text x="557" y="502" font-family="Arial, sans-serif" font-size="10" fill="#C8D8E8">Dallas</text>

  <circle cx="670" cy="480" r="6" fill="#F5A623" opacity="0.7"/>
  <circle cx="670" cy="480" r="3" fill="white"/>
  <text x="672" y="472" font-family="Arial, sans-serif" font-size="10" fill="#C8D8E8">Atlanta</text>

  <circle cx="430" cy="380" r="6" fill="#48BB78" opacity="0.8"/>
  <circle cx="430" cy="380" r="3" fill="white"/>
  <text x="432" y="372" font-family="Arial, sans-serif" font-size="10" fill="#C8D8E8">Denver</text>

  <circle cx="360" cy="325" r="5" fill="#48BB78" opacity="0.7"/>
  <text x="362" y="317" font-family="Arial, sans-serif" font-size="10" fill="#C8D8E8">Seattle</text>

  <circle cx="540" cy="555" r="5" fill="#F5A623" opacity="0.6"/>
  <text x="542" y="547" font-family="Arial, sans-serif" font-size="10" fill="#C8D8E8">Houston</text>

  <circle cx="415" cy="530" r="5" fill="#48BB78" opacity="0.6"/>
  <text x="417" y="522" font-family="Arial, sans-serif" font-size="10" fill="#C8D8E8">Phoenix</text>

  <circle cx="720" cy="582" r="5" fill="#F5A623" opacity="0.6"/>
  <text x="722" y="574" font-family="Arial, sans-serif" font-size="10" fill="#C8D8E8">Miami</text>

  <!-- Map legend -->
  <rect x="316" y="736" width="248" height="56" rx="8" fill="#0F2035" stroke="#2B3F5E" stroke-width="1"/>
  <line x1="330" y1="754" x2="360" y2="754" stroke="#2B6CB0" stroke-width="3"/>
  <text x="368" y="758" font-family="Arial, sans-serif" font-size="11" fill="#8B9EC8">High frequency (&gt;5 runs)</text>
  <line x1="330" y1="776" x2="360" y2="776" stroke="#F5A623" stroke-width="2"/>
  <text x="368" y="780" font-family="Arial, sans-serif" font-size="11" fill="#8B9EC8">Medium (2-5 runs)</text>
  <line x1="450" y1="754" x2="480" y2="754" stroke="#48BB78" stroke-width="1.5"/>
  <text x="488" y="758" font-family="Arial, sans-serif" font-size="11" fill="#8B9EC8">Single runs</text>

  <!-- MIDDLE: Revenue Chart -->
  <rect x="900" y="240" width="580" height="270" rx="12" fill="url(#cardGrad)" stroke="#2B3F5E" stroke-width="1"/>
  <text x="922" y="268" font-family="Arial, sans-serif" font-size="14" fill="white" font-weight="600">Revenue vs Expenses</text>
  <text x="922" y="284" font-family="Arial, sans-serif" font-size="11" fill="#5A7090">Monthly · Last 6 months</text>

  <!-- Legend -->
  <line x1="1270" y1="262" x2="1294" y2="262" stroke="#2B6CB0" stroke-width="2"/>
  <text x="1298" y="266" font-family="Arial, sans-serif" font-size="11" fill="#8B9EC8">Revenue</text>
  <line x1="1358" y1="262" x2="1382" y2="262" stroke="#F5A623" stroke-width="2"/>
  <text x="1386" y="266" font-family="Arial, sans-serif" font-size="11" fill="#8B9EC8">Expenses</text>
  <line x1="1446" y1="262" x2="1470" y2="262" stroke="#48BB78" stroke-width="2"/>
  <text x="1474" y="266" font-family="Arial, sans-serif" font-size="11" fill="#8B9EC8">Profit</text>

  <!-- Chart grid -->
  <line x1="940" y1="305" x2="1460" y2="305" stroke="#1E3A5F" stroke-width="0.5"/>
  <line x1="940" y1="335" x2="1460" y2="335" stroke="#1E3A5F" stroke-width="0.5"/>
  <line x1="940" y1="365" x2="1460" y2="365" stroke="#1E3A5F" stroke-width="0.5"/>
  <line x1="940" y1="395" x2="1460" y2="395" stroke="#1E3A5F" stroke-width="0.5"/>
  <line x1="940" y1="425" x2="1460" y2="425" stroke="#1E3A5F" stroke-width="0.5"/>
  <line x1="940" y1="455" x2="1460" y2="455" stroke="#1E3A5F" stroke-width="0.5"/>
  <line x1="940" y1="485" x2="1460" y2="485" stroke="#1E3A5F" stroke-width="0.5"/>

  <!-- Y-axis labels -->
  <text x="918" y="309" font-family="Arial, sans-serif" font-size="10" fill="#5A7090">$60k</text>
  <text x="918" y="369" font-family="Arial, sans-serif" font-size="10" fill="#5A7090">$45k</text>
  <text x="918" y="429" font-family="Arial, sans-serif" font-size="10" fill="#5A7090">$30k</text>
  <text x="918" y="489" font-family="Arial, sans-serif" font-size="10" fill="#5A7090">$15k</text>

  <!-- Revenue area fill -->
  <path d="M 960 390 L 1046 370 L 1132 355 L 1218 340 L 1304 325 L 1390 315 L 1440 310 L 1440 485 L 960 485 Z" fill="url(#areaGrad)"/>
  <!-- Revenue line -->
  <path d="M 960 390 L 1046 370 L 1132 355 L 1218 340 L 1304 325 L 1390 315 L 1440 310" stroke="#2B6CB0" stroke-width="2.5" fill="none"/>

  <!-- Expense area fill -->
  <path d="M 960 430 L 1046 420 L 1132 415 L 1218 408 L 1304 400 L 1390 392 L 1440 388 L 1440 485 L 960 485 Z" fill="url(#areaGrad2)"/>
  <!-- Expense line -->
  <path d="M 960 430 L 1046 420 L 1132 415 L 1218 408 L 1304 400 L 1390 392 L 1440 388" stroke="#F5A623" stroke-width="2" fill="none"/>

  <!-- Profit line -->
  <path d="M 960 465 L 1046 450 L 1132 440 L 1218 428 L 1304 415 L 1390 403 L 1440 398" stroke="#48BB78" stroke-width="2" fill="none" stroke-dasharray="5,3"/>

  <!-- X-axis labels -->
  <text x="960" y="500" font-family="Arial, sans-serif" font-size="11" fill="#5A7090" text-anchor="middle">Nov</text>
  <text x="1046" y="500" font-family="Arial, sans-serif" font-size="11" fill="#5A7090" text-anchor="middle">Dec</text>
  <text x="1132" y="500" font-family="Arial, sans-serif" font-size="11" fill="#5A7090" text-anchor="middle">Jan</text>
  <text x="1218" y="500" font-family="Arial, sans-serif" font-size="11" fill="#5A7090" text-anchor="middle">Feb</text>
  <text x="1304" y="500" font-family="Arial, sans-serif" font-size="11" fill="#5A7090" text-anchor="middle">Mar</text>
  <text x="1390" y="500" font-family="Arial, sans-serif" font-size="11" fill="#F5A623" text-anchor="middle">Apr</text>

  <!-- Data points -->
  <circle cx="960" cy="390" r="4" fill="#2B6CB0"/>
  <circle cx="1046" cy="370" r="4" fill="#2B6CB0"/>
  <circle cx="1132" cy="355" r="4" fill="#2B6CB0"/>
  <circle cx="1218" cy="340" r="4" fill="#2B6CB0"/>
  <circle cx="1304" cy="325" r="4" fill="#2B6CB0"/>
  <circle cx="1390" cy="315" r="5" fill="#2B6CB0" stroke="white" stroke-width="2"/>

  <!-- RIGHT: Financial Stats Panel -->
  <rect x="1500" y="240" width="360" height="560" rx="12" fill="url(#cardGrad)" stroke="#2B3F5E" stroke-width="1"/>
  <text x="1522" y="270" font-family="Arial, sans-serif" font-size="14" fill="white" font-weight="600">Financial Breakdown</text>

  <!-- Donut chart area -->
  <text x="1680" y="296" font-family="Arial, sans-serif" font-size="11" fill="#5A7090" text-anchor="middle">April 2026</text>

  <!-- Donut chart -->
  <circle cx="1680" cy="380" r="80" fill="none" stroke="#0D1B2A" stroke-width="30"/>
  <!-- Segments (simplified as arcs using stroke-dasharray on circle) -->
  <circle cx="1680" cy="380" r="65" fill="none" stroke="#2B6CB0" stroke-width="30" stroke-dasharray="163 408" stroke-dashoffset="0" transform="rotate(-90 1680 380)"/>
  <circle cx="1680" cy="380" r="65" fill="none" stroke="#F5A623" stroke-width="30" stroke-dasharray="122 408" stroke-dashoffset="-163" transform="rotate(-90 1680 380)"/>
  <circle cx="1680" cy="380" r="65" fill="none" stroke="#48BB78" stroke-width="30" stroke-dasharray="82 408" stroke-dashoffset="-285" transform="rotate(-90 1680 380)"/>
  <circle cx="1680" cy="380" r="65" fill="none" stroke="#E53E3E" stroke-width="30" stroke-dasharray="41 408" stroke-dashoffset="-367" transform="rotate(-90 1680 380)"/>

  <!-- Center text -->
  <text x="1680" y="374" font-family="Arial, sans-serif" font-size="22" fill="white" font-weight="700" text-anchor="middle">$48.2k</text>
  <text x="1680" y="390" font-family="Arial, sans-serif" font-size="11" fill="#8B9EC8" text-anchor="middle">Gross</text>

  <!-- Legend items -->
  <rect x="1522" y="468" width="316" height="1" fill="#2B3F5E"/>
  <circle cx="1542" cy="490" r="6" fill="#2B6CB0"/>
  <text x="1556" y="494" font-family="Arial, sans-serif" font-size="13" fill="white">Freight Revenue</text>
  <text x="1830" y="494" font-family="Arial, sans-serif" font-size="13" fill="white" text-anchor="end" font-weight="600">$32,400</text>
  <text x="1830" y="510" font-family="Arial, sans-serif" font-size="11" fill="#5A7090" text-anchor="end">40%</text>

  <circle cx="1542" cy="528" r="6" fill="#F5A623"/>
  <text x="1556" y="532" font-family="Arial, sans-serif" font-size="13" fill="white">Fuel Surcharge</text>
  <text x="1830" y="532" font-family="Arial, sans-serif" font-size="13" fill="white" text-anchor="end" font-weight="600">$9,840</text>
  <text x="1830" y="548" font-family="Arial, sans-serif" font-size="11" fill="#5A7090" text-anchor="end">30%</text>

  <circle cx="1542" cy="566" r="6" fill="#48BB78"/>
  <text x="1556" y="570" font-family="Arial, sans-serif" font-size="13" fill="white">Accessorials</text>
  <text x="1830" y="570" font-family="Arial, sans-serif" font-size="13" fill="white" text-anchor="end" font-weight="600">$4,200</text>
  <text x="1830" y="586" font-family="Arial, sans-serif" font-size="11" fill="#5A7090" text-anchor="end">20%</text>

  <circle cx="1542" cy="604" r="6" fill="#E53E3E"/>
  <text x="1556" y="608" font-family="Arial, sans-serif" font-size="13" fill="white">Detention Pay</text>
  <text x="1830" y="608" font-family="Arial, sans-serif" font-size="13" fill="white" text-anchor="end" font-weight="600">$1,800</text>
  <text x="1830" y="624" font-family="Arial, sans-serif" font-size="11" fill="#5A7090" text-anchor="end">10%</text>

  <rect x="1522" y="634" width="316" height="1" fill="#2B3F5E"/>

  <!-- Expense breakdown -->
  <text x="1522" y="658" font-family="Arial, sans-serif" font-size="13" fill="#8B9EC8" font-weight="600">Expenses</text>
  <text x="1522" y="682" font-family="Arial, sans-serif" font-size="12" fill="#8B9EC8">Fuel</text>
  <text x="1830" y="682" font-family="Arial, sans-serif" font-size="12" fill="white" text-anchor="end">$8,640</text>
  <rect x="1522" y="686" width="280" height="6" rx="3" fill="#0D1B2A"/>
  <rect x="1522" y="686" width="168" height="6" rx="3" fill="#F5A623" opacity="0.7"/>

  <text x="1522" y="708" font-family="Arial, sans-serif" font-size="12" fill="#8B9EC8">Truck Payment</text>
  <text x="1830" y="708" font-family="Arial, sans-serif" font-size="12" fill="white" text-anchor="end">$3,200</text>
  <rect x="1522" y="712" width="280" height="6" rx="3" fill="#0D1B2A"/>
  <rect x="1522" y="712" width="84" height="6" rx="3" fill="#2B6CB0" opacity="0.7"/>

  <text x="1522" y="734" font-family="Arial, sans-serif" font-size="12" fill="#8B9EC8">Insurance</text>
  <text x="1830" y="734" font-family="Arial, sans-serif" font-size="12" fill="white" text-anchor="end">$1,800</text>
  <rect x="1522" y="738" width="280" height="6" rx="3" fill="#0D1B2A"/>
  <rect x="1522" y="738" width="56" height="6" rx="3" fill="#48BB78" opacity="0.7"/>

  <text x="1522" y="760" font-family="Arial, sans-serif" font-size="12" fill="#8B9EC8">Maintenance</text>
  <text x="1830" y="760" font-family="Arial, sans-serif" font-size="12" fill="white" text-anchor="end">$1,040</text>
  <rect x="1522" y="764" width="280" height="6" rx="3" fill="#0D1B2A"/>
  <rect x="1522" y="764" width="28" height="6" rx="3" fill="#9B59B6" opacity="0.7"/>

  <!-- Net profit highlight -->
  <rect x="1522" y="780" width="316" height="48" rx="8" fill="#1A3A1A"/>
  <text x="1542" y="800" font-family="Arial, sans-serif" font-size="12" fill="#48BB78">NET PROFIT (April)</text>
  <text x="1822" y="800" font-family="Arial, sans-serif" font-size="20" fill="#48BB78" font-weight="700" text-anchor="end">$14,680</text>
  <text x="1542" y="820" font-family="Arial, sans-serif" font-size="11" fill="#2A7A2A">After all deductions · 30.4% margin</text>

  <!-- Bottom: Chart 2 + Table -->
  <rect x="900" y="524" width="580" height="276" rx="12" fill="url(#cardGrad)" stroke="#2B3F5E" stroke-width="1"/>
  <text x="922" y="552" font-family="Arial, sans-serif" font-size="14" fill="white" font-weight="600">Miles Per Day</text>

  <!-- Mini bar chart -->
  <rect x="920" y="568" width="20" height="60" rx="3" fill="#2B6CB0" opacity="0.5"/>
  <rect x="948" y="548" width="20" height="80" rx="3" fill="#2B6CB0" opacity="0.6"/>
  <rect x="976" y="558" width="20" height="70" rx="3" fill="#2B6CB0" opacity="0.7"/>
  <rect x="1004" y="538" width="20" height="90" rx="3" fill="#2B6CB0" opacity="0.8"/>
  <rect x="1032" y="543" width="20" height="85" rx="3" fill="#2B6CB0"/>
  <rect x="1060" y="555" width="20" height="73" rx="3" fill="#2B6CB0" opacity="0.7"/>
  <rect x="1088" y="566" width="20" height="62" rx="3" fill="#2B6CB0" opacity="0.5"/>

  <text x="930" y="644" font-family="Arial, sans-serif" font-size="10" fill="#5A7090" text-anchor="middle">M</text>
  <text x="958" y="644" font-family="Arial, sans-serif" font-size="10" fill="#5A7090" text-anchor="middle">T</text>
  <text x="986" y="644" font-family="Arial, sans-serif" font-size="10" fill="#5A7090" text-anchor="middle">W</text>
  <text x="1014" y="644" font-family="Arial, sans-serif" font-size="10" fill="#5A7090" text-anchor="middle">T</text>
  <text x="1042" y="644" font-family="Arial, sans-serif" font-size="10" fill="#F5A623" text-anchor="middle">F</text>
  <text x="1070" y="644" font-family="Arial, sans-serif" font-size="10" fill="#5A7090" text-anchor="middle">S</text>
  <text x="1098" y="644" font-family="Arial, sans-serif" font-size="10" fill="#5A7090" text-anchor="middle">S</text>

  <!-- Per-mile rate line -->
  <text x="1150" y="572" font-family="Arial, sans-serif" font-size="11" fill="#8B9EC8">Per-mile rate</text>
  <text x="1150" y="590" font-family="Arial, sans-serif" font-size="24" fill="#F5A623" font-weight="700">$2.61</text>
  <text x="1150" y="608" font-family="Arial, sans-serif" font-size="11" fill="#48BB78">+0.12 vs last week</text>
  <text x="1150" y="630" font-family="Arial, sans-serif" font-size="11" fill="#5A7090">Industry avg: $2.43</text>

  <!-- Top routes table -->
  <rect x="920" y="656" width="540" height="24" fill="#0F2035" rx="4"/>
  <text x="930" y="672" font-family="Arial, sans-serif" font-size="11" fill="#5A7090" font-weight="600">ROUTE</text>
  <text x="1150" y="672" font-family="Arial, sans-serif" font-size="11" fill="#5A7090" font-weight="600">RUNS</text>
  <text x="1230" y="672" font-family="Arial, sans-serif" font-size="11" fill="#5A7090" font-weight="600">AVG RATE</text>
  <text x="1350" y="672" font-family="Arial, sans-serif" font-size="11" fill="#5A7090" font-weight="600">TOTAL</text>
  <text x="1440" y="672" font-family="Arial, sans-serif" font-size="11" fill="#5A7090" font-weight="600">TREND</text>

  <text x="930" y="692" font-family="Arial, sans-serif" font-size="12" fill="white">Chicago → Dallas</text>
  <text x="1150" y="692" font-family="Arial, sans-serif" font-size="12" fill="#8B9EC8">7</text>
  <text x="1230" y="692" font-family="Arial, sans-serif" font-size="12" fill="#8B9EC8">$2.84/mi</text>
  <text x="1350" y="692" font-family="Arial, sans-serif" font-size="12" fill="#48BB78" font-weight="600">$9,240</text>
  <text x="1440" y="692" font-family="Arial, sans-serif" font-size="12" fill="#48BB78">↑ 8%</text>

  <text x="930" y="712" font-family="Arial, sans-serif" font-size="12" fill="white">Atlanta → Miami</text>
  <text x="1150" y="712" font-family="Arial, sans-serif" font-size="12" fill="#8B9EC8">5</text>
  <text x="1230" y="712" font-family="Arial, sans-serif" font-size="12" fill="#8B9EC8">$2.78/mi</text>
  <text x="1350" y="712" font-family="Arial, sans-serif" font-size="12" fill="#48BB78" font-weight="600">$7,680</text>
  <text x="1440" y="712" font-family="Arial, sans-serif" font-size="12" fill="#48BB78">↑ 4%</text>

  <text x="930" y="732" font-family="Arial, sans-serif" font-size="12" fill="white">Houston → Phoenix</text>
  <text x="1150" y="732" font-family="Arial, sans-serif" font-size="12" fill="#8B9EC8">4</text>
  <text x="1230" y="732" font-family="Arial, sans-serif" font-size="12" fill="#8B9EC8">$2.25/mi</text>
  <text x="1350" y="732" font-family="Arial, sans-serif" font-size="12" fill="#48BB78" font-weight="600">$6,200</text>
  <text x="1440" y="732" font-family="Arial, sans-serif" font-size="12" fill="#E53E3E">↓ 2%</text>

  <text x="930" y="752" font-family="Arial, sans-serif" font-size="12" fill="white">Denver → Seattle</text>
  <text x="1150" y="752" font-family="Arial, sans-serif" font-size="12" fill="#8B9EC8">3</text>
  <text x="1230" y="752" font-family="Arial, sans-serif" font-size="12" fill="#8B9EC8">$2.42/mi</text>
  <text x="1350" y="752" font-family="Arial, sans-serif" font-size="12" fill="#48BB78" font-weight="600">$5,120</text>
  <text x="1440" y="752" font-family="Arial, sans-serif" font-size="12" fill="#48BB78">↑ 12%</text>

  <!-- History table below -->
  <rect x="300" y="816" width="1560" height="164" rx="12" fill="url(#cardGrad)" stroke="#2B3F5E" stroke-width="1"/>
  <text x="322" y="844" font-family="Arial, sans-serif" font-size="14" fill="white" font-weight="600">Recent Loads History</text>
  <rect x="1776" y="828" width="72" height="26" rx="6" fill="#1A2B4A" stroke="#2B3F5E" stroke-width="1"/>
  <text x="1812" y="846" font-family="Arial, sans-serif" font-size="12" fill="#8B9EC8" text-anchor="middle">View all</text>

  <!-- Table header -->
  <rect x="316" y="856" width="1528" height="24" fill="#0F2035" rx="4"/>
  <text x="330" y="872" font-family="Arial, sans-serif" font-size="11" fill="#5A7090" font-weight="600">DATE</text>
  <text x="460" y="872" font-family="Arial, sans-serif" font-size="11" fill="#5A7090" font-weight="600">ROUTE</text>
  <text x="720" y="872" font-family="Arial, sans-serif" font-size="11" fill="#5A7090" font-weight="600">LOAD TYPE</text>
  <text x="890" y="872" font-family="Arial, sans-serif" font-size="11" fill="#5A7090" font-weight="600">MILES</text>
  <text x="1000" y="872" font-family="Arial, sans-serif" font-size="11" fill="#5A7090" font-weight="600">EARNINGS</text>
  <text x="1130" y="872" font-family="Arial, sans-serif" font-size="11" fill="#5A7090" font-weight="600">$/MI</text>
  <text x="1240" y="872" font-family="Arial, sans-serif" font-size="11" fill="#5A7090" font-weight="600">BROKER</text>
  <text x="1420" y="872" font-family="Arial, sans-serif" font-size="11" fill="#5A7090" font-weight="600">STATUS</text>
  <text x="1620" y="872" font-family="Arial, sans-serif" font-size="11" fill="#5A7090" font-weight="600">INVOICE</text>

  <!-- Row 1 -->
  <text x="330" y="898" font-family="Arial, sans-serif" font-size="12" fill="#8B9EC8">Apr 16</text>
  <text x="460" y="898" font-family="Arial, sans-serif" font-size="12" fill="white">Memphis, TN → Nashville, TN</text>
  <text x="720" y="898" font-family="Arial, sans-serif" font-size="12" fill="#8B9EC8">Dry Van</text>
  <text x="890" y="898" font-family="Arial, sans-serif" font-size="12" fill="#8B9EC8">213 mi</text>
  <text x="1000" y="898" font-family="Arial, sans-serif" font-size="12" fill="#48BB78" font-weight="600">$1,240</text>
  <text x="1130" y="898" font-family="Arial, sans-serif" font-size="12" fill="#8B9EC8">$5.82</text>
  <text x="1240" y="898" font-family="Arial, sans-serif" font-size="12" fill="#8B9EC8">Echo Global</text>
  <rect x="1420" y="884" width="64" height="20" rx="10" fill="#1A4A1A"/>
  <text x="1452" y="898" font-family="Arial, sans-serif" font-size="11" fill="#48BB78" text-anchor="middle">Delivered</text>
  <text x="1620" y="898" font-family="Arial, sans-serif" font-size="12" fill="#2B6CB0">#INV-892</text>

  <!-- Row 2 -->
  <line x1="316" y1="906" x2="1844" y2="906" stroke="#1E3A5F" stroke-width="0.5"/>
  <text x="330" y="926" font-family="Arial, sans-serif" font-size="12" fill="#8B9EC8">Apr 14</text>
  <text x="460" y="926" font-family="Arial, sans-serif" font-size="12" fill="white">Chicago, IL → Atlanta, GA</text>
  <text x="720" y="926" font-family="Arial, sans-serif" font-size="12" fill="#8B9EC8">Reefer</text>
  <text x="890" y="926" font-family="Arial, sans-serif" font-size="12" fill="#8B9EC8">727 mi</text>
  <text x="1000" y="926" font-family="Arial, sans-serif" font-size="12" fill="#48BB78" font-weight="600">$2,840</text>
  <text x="1130" y="926" font-family="Arial, sans-serif" font-size="12" fill="#8B9EC8">$3.91</text>
  <text x="1240" y="926" font-family="Arial, sans-serif" font-size="12" fill="#8B9EC8">Coyote Logistics</text>
  <rect x="1420" y="912" width="64" height="20" rx="10" fill="#1A4A1A"/>
  <text x="1452" y="926" font-family="Arial, sans-serif" font-size="11" fill="#48BB78" text-anchor="middle">Paid</text>
  <text x="1620" y="926" font-family="Arial, sans-serif" font-size="12" fill="#2B6CB0">#INV-891</text>

  <!-- Row 3 -->
  <line x1="316" y1="934" x2="1844" y2="934" stroke="#1E3A5F" stroke-width="0.5"/>
  <text x="330" y="954" font-family="Arial, sans-serif" font-size="12" fill="#8B9EC8">Apr 11</text>
  <text x="460" y="954" font-family="Arial, sans-serif" font-size="12" fill="white">Dallas, TX → Houston, TX</text>
  <text x="720" y="954" font-family="Arial, sans-serif" font-size="12" fill="#8B9EC8">Flatbed</text>
  <text x="890" y="954" font-family="Arial, sans-serif" font-size="12" fill="#8B9EC8">239 mi</text>
  <text x="1000" y="954" font-family="Arial, sans-serif" font-size="12" fill="#48BB78" font-weight="600">$980</text>
  <text x="1130" y="954" font-family="Arial, sans-serif" font-size="12" fill="#8B9EC8">$4.10</text>
  <text x="1240" y="954" font-family="Arial, sans-serif" font-size="12" fill="#8B9EC8">CH Robinson</text>
  <rect x="1420" y="940" width="64" height="20" rx="10" fill="#1A4A1A"/>
  <text x="1452" y="954" font-family="Arial, sans-serif" font-size="11" fill="#48BB78" text-anchor="middle">Paid</text>
  <text x="1620" y="954" font-family="Arial, sans-serif" font-size="12" fill="#2B6CB0">#INV-890</text>

  <!-- Chrome OS Taskbar -->
  <rect x="0" y="1040" width="1920" height="40" fill="#1A2035"/>
  <rect x="8" y="1048" width="24" height="24" rx="6" fill="#2B6CB0"/>
  <text x="20" y="1065" font-family="Arial, sans-serif" font-size="12" fill="white" text-anchor="middle" font-weight="bold">H</text>
  <circle cx="56" cy="1060" r="10" fill="#4285F4"/>
  <circle cx="84" cy="1060" r="10" fill="#34A853"/>
  <text x="1750" y="1063" font-family="Arial, sans-serif" font-size="11" fill="#C8D8E8">WiFi</text>
  <text x="1800" y="1063" font-family="Arial, sans-serif" font-size="11" fill="#C8D8E8">100%</text>
  <text x="1856" y="1063" font-family="Arial, sans-serif" font-size="11" fill="#C8D8E8">12:47</text>
  <line x1="940" y1="1050" x2="980" y2="1050" stroke="#5A7090" stroke-width="2" stroke-linecap="round"/>
</svg>
