<svg width="1080" height="1920" viewBox="0 0 1080 1920" xmlns="http://www.w3.org/2000/svg" font-family="'SF Pro Display', 'Helvetica Neue', Arial, sans-serif">
  <defs>
    <linearGradient id="bgGrad" x1="0%" y1="0%" x2="0%" y2="100%">
      <stop offset="0%" style="stop-color:#0D1B2A;stop-opacity:1" />
      <stop offset="100%" style="stop-color:#0A1520;stop-opacity:1" />
    </linearGradient>
    <linearGradient id="cardGrad1" x1="0%" y1="0%" x2="100%" y2="100%">
      <stop offset="0%" style="stop-color:#1A3A5C;stop-opacity:1" />
      <stop offset="100%" style="stop-color:#0F2640;stop-opacity:1" />
    </linearGradient>
    <linearGradient id="cardGrad2" x1="0%" y1="0%" x2="100%" y2="100%">
      <stop offset="0%" style="stop-color:#1E4A6E;stop-opacity:1" />
      <stop offset="100%" style="stop-color:#123050;stop-opacity:1" />
    </linearGradient>
    <linearGradient id="heroGrad" x1="0%" y1="0%" x2="100%" y2="100%">
      <stop offset="0%" style="stop-color:#1565C0;stop-opacity:1" />
      <stop offset="100%" style="stop-color:#0D47A1;stop-opacity:1" />
    </linearGradient>
    <linearGradient id="earningsGrad" x1="0%" y1="0%" x2="100%" y2="100%">
      <stop offset="0%" style="stop-color:#F59E0B;stop-opacity:1" />
      <stop offset="100%" style="stop-color:#D97706;stop-opacity:1" />
    </linearGradient>
    <filter id="shadow" x="-10%" y="-10%" width="120%" height="130%">
      <feDropShadow dx="0" dy="4" stdDeviation="12" flood-color="#000000" flood-opacity="0.4"/>
    </filter>
    <filter id="glow">
      <feGaussianBlur stdDeviation="8" result="coloredBlur"/>
      <feMerge><feMergeNode in="coloredBlur"/><feMergeNode in="SourceGraphic"/></feMerge>
    </filter>
    <clipPath id="screenClip">
      <rect x="0" y="0" width="1080" height="1920" rx="0" ry="0"/>
    </clipPath>
  </defs>

  <!-- Background -->
  <rect width="1080" height="1920" fill="url(#bgGrad)"/>

  <!-- Status bar -->
  <rect width="1080" height="100" fill="#0A1520"/>
  <text x="80" y="68" font-size="32" fill="#FFFFFF" font-weight="600">9:41</text>
  <!-- Battery icon -->
  <rect x="940" y="38" width="66" height="30" rx="6" fill="none" stroke="#FFFFFF" stroke-width="3"/>
  <rect x="1006" y="46" width="6" height="14" rx="2" fill="#FFFFFF"/>
  <rect x="944" y="42" width="48" height="22" rx="4" fill="#4CAF50"/>
  <!-- Signal bars -->
  <rect x="860" y="52" width="8" height="16" rx="2" fill="#FFFFFF"/>
  <rect x="874" y="46" width="8" height="22" rx="2" fill="#FFFFFF"/>
  <rect x="888" y="40" width="8" height="28" rx="2" fill="#FFFFFF"/>
  <!-- WiFi -->
  <path d="M816 60 Q824 52 836 52 Q848 52 856 60" fill="none" stroke="#FFFFFF" stroke-width="4" stroke-linecap="round"/>
  <path d="M822 68 Q830 60 836 60 Q842 60 850 68" fill="none" stroke="#FFFFFF" stroke-width="4" stroke-linecap="round"/>
  <circle cx="836" cy="74" r="5" fill="#FFFFFF"/>

  <!-- Header section -->
  <rect x="0" y="100" width="1080" height="240" fill="#0D1B2A"/>

  <!-- Avatar circle -->
  <circle cx="90" cy="215" r="48" fill="#1565C0"/>
  <text x="90" y="228" font-size="36" fill="#FFFFFF" text-anchor="middle" font-weight="700">V</text>

  <!-- Greeting text -->
  <text x="162" y="200" font-size="28" fill="#8BA3BC" font-weight="400">Friday, April 17</text>
  <text x="162" y="244" font-size="44" fill="#FFFFFF" font-weight="700">Good morning, Vladimir</text>

  <!-- Truck emoji area -->
  <text x="820" y="244" font-size="56" fill="#F59E0B">🚛</text>

  <!-- Notification bell -->
  <rect x="960" y="160" width="68" height="68" rx="20" fill="#132235"/>
  <path d="M994 178 Q994 172 1000 170 Q1006 172 1006 178 L1006 186 Q1010 190 1010 196 L990 196 Q990 190 994 186 Z" fill="#8BA3BC"/>
  <path d="M997 196 Q997 200 1000 200 Q1003 200 1003 196" fill="#8BA3BC"/>
  <circle cx="1008" cy="174" r="7" fill="#EF4444"/>

  <!-- Divider -->
  <line x1="60" y1="340" x2="1020" y2="340" stroke="#1A3A5C" stroke-width="2"/>

  <!-- Section: Stats cards row -->
  <text x="60" y="400" font-size="32" fill="#8BA3BC" font-weight="500" letter-spacing="2">OVERVIEW</text>

  <!-- Card 1: Active Loads -->
  <rect x="60" y="424" width="300" height="200" rx="24" fill="url(#cardGrad1)" filter="url(#shadow)"/>
  <rect x="60" y="424" width="300" height="200" rx="24" fill="none" stroke="#1E4A6E" stroke-width="1.5"/>
  <!-- Icon circle -->
  <circle cx="140" cy="490" r="36" fill="#1565C0" opacity="0.3"/>
  <text x="140" y="502" font-size="30" text-anchor="middle" fill="#60A5FA">📦</text>
  <text x="100" y="556" font-size="58" fill="#FFFFFF" font-weight="800">3</text>
  <text x="100" y="594" font-size="28" fill="#8BA3BC" font-weight="400">Active Loads</text>
  <rect x="100" y="608" width="80" height="6" rx="3" fill="#1565C0" opacity="0.6"/>

  <!-- Card 2: This Week -->
  <rect x="390" y="424" width="300" height="200" rx="24" fill="url(#cardGrad2)" filter="url(#shadow)"/>
  <rect x="390" y="424" width="300" height="200" rx="24" fill="none" stroke="#1E4A6E" stroke-width="1.5"/>
  <circle cx="470" cy="490" r="36" fill="#F59E0B" opacity="0.2"/>
  <text x="470" y="502" font-size="30" text-anchor="middle" fill="#FCD34D">💰</text>
  <text x="400" y="556" font-size="46" fill="#F59E0B" font-weight="800">$1,240</text>
  <text x="400" y="594" font-size="28" fill="#8BA3BC" font-weight="400">This Week</text>
  <text x="400" y="614" font-size="22" fill="#4CAF50">▲ +8.2%</text>

  <!-- Card 3: Miles Today -->
  <rect x="720" y="424" width="300" height="200" rx="24" fill="url(#cardGrad1)" filter="url(#shadow)"/>
  <rect x="720" y="424" width="300" height="200" rx="24" fill="none" stroke="#1E4A6E" stroke-width="1.5"/>
  <circle cx="800" cy="490" r="36" fill="#10B981" opacity="0.2"/>
  <text x="800" y="502" font-size="30" text-anchor="middle" fill="#34D399">🗺️</text>
  <text x="730" y="556" font-size="52" fill="#FFFFFF" font-weight="800">847</text>
  <text x="730" y="594" font-size="28" fill="#8BA3BC" font-weight="400">Miles Today</text>
  <rect x="730" y="608" width="120" height="6" rx="3" fill="#10B981" opacity="0.6"/>

  <!-- Current Route Card -->
  <text x="60" y="690" font-size="32" fill="#8BA3BC" font-weight="500" letter-spacing="2">CURRENT ROUTE</text>
  <rect x="60" y="714" width="960" height="160" rx="24" fill="#132235" filter="url(#shadow)"/>
  <rect x="60" y="714" width="960" height="160" rx="24" fill="none" stroke="#1E4A6E" stroke-width="1.5"/>

  <!-- Route line -->
  <circle cx="130" cy="774" r="14" fill="#4CAF50"/>
  <line x1="130" y1="788" x2="130" y2="840" stroke="#4CAF50" stroke-width="3" stroke-dasharray="6,4"/>
  <circle cx="130" cy="854" r="14" fill="#EF4444"/>

  <text x="170" y="780" font-size="30" fill="#FFFFFF" font-weight="600">Charlotte, NC</text>
  <text x="170" y="816" font-size="26" fill="#8BA3BC">Departs 8:00 AM</text>
  <text x="170" y="860" font-size="30" fill="#FFFFFF" font-weight="600">Atlanta, GA</text>

  <!-- Route stats -->
  <text x="680" y="770" font-size="28" fill="#8BA3BC" text-anchor="middle">Distance</text>
  <text x="680" y="810" font-size="42" fill="#FFFFFF" font-weight="700" text-anchor="middle">346 mi</text>

  <text x="870" y="770" font-size="28" fill="#8BA3BC" text-anchor="middle">ETA</text>
  <text x="870" y="810" font-size="42" fill="#F59E0B" font-weight="700" text-anchor="middle">3:24 PM</text>

  <!-- Divider -->
  <line x1="620" y1="740" x2="620" y2="860" stroke="#1A3A5C" stroke-width="1.5"/>
  <line x1="770" y1="740" x2="770" y2="860" stroke="#1A3A5C" stroke-width="1.5"/>

  <!-- Recent Activity Section -->
  <text x="60" y="950" font-size="32" fill="#8BA3BC" font-weight="500" letter-spacing="2">RECENT ACTIVITY</text>

  <!-- Activity Item 1 -->
  <rect x="60" y="974" width="960" height="120" rx="20" fill="#0F1E30"/>
  <circle cx="120" cy="1034" r="30" fill="#1565C0" opacity="0.3"/>
  <text x="120" y="1044" font-size="26" text-anchor="middle" fill="#60A5FA">✓</text>
  <text x="180" y="1020" font-size="30" fill="#FFFFFF" font-weight="600">Load #HW-2847 Delivered</text>
  <text x="180" y="1056" font-size="26" fill="#8BA3BC">Nashville → Memphis • 212 miles</text>
  <text x="930" y="1020" font-size="26" fill="#4CAF50" text-anchor="end" font-weight="600">+$380</text>
  <text x="930" y="1056" font-size="24" fill="#8BA3BC" text-anchor="end">Today, 6:12 AM</text>

  <!-- Activity Item 2 -->
  <rect x="60" y="1110" width="960" height="120" rx="20" fill="#0F1E30"/>
  <circle cx="120" cy="1170" r="30" fill="#F59E0B" opacity="0.2"/>
  <text x="120" y="1180" font-size="26" text-anchor="middle" fill="#FCD34D">⛽</text>
  <text x="180" y="1156" font-size="30" fill="#FFFFFF" font-weight="600">Fuel Stop — Pilot J #4482</text>
  <text x="180" y="1192" font-size="26" fill="#8BA3BC">I-85 N Exit 48, Gastonia, NC</text>
  <text x="930" y="1156" font-size="26" fill="#EF4444" text-anchor="end" font-weight="600">-$124</text>
  <text x="930" y="1192" font-size="24" fill="#8BA3BC" text-anchor="end">Yesterday, 11:45 PM</text>

  <!-- Activity Item 3 -->
  <rect x="60" y="1246" width="960" height="120" rx="20" fill="#0F1E30"/>
  <circle cx="120" cy="1306" r="30" fill="#10B981" opacity="0.2"/>
  <text x="120" y="1316" font-size="26" text-anchor="middle" fill="#34D399">📍</text>
  <text x="180" y="1292" font-size="30" fill="#FFFFFF" font-weight="600">Load #HW-2846 Picked Up</text>
  <text x="180" y="1328" font-size="26" fill="#8BA3BC">Charlotte, NC → Atlanta, GA</text>
  <text x="930" y="1292" font-size="26" fill="#8BA3BC" text-anchor="end" font-weight="600">In Progress</text>
  <text x="930" y="1328" font-size="24" fill="#8BA3BC" text-anchor="end">Yesterday, 8:30 AM</text>

  <!-- Quick Actions -->
  <text x="60" y="1440" font-size="32" fill="#8BA3BC" font-weight="500" letter-spacing="2">QUICK ACTIONS</text>

  <rect x="60" y="1464" width="220" height="110" rx="20" fill="#132235"/>
  <text x="170" y="1516" font-size="32" text-anchor="middle" fill="#60A5FA">📋</text>
  <text x="170" y="1552" font-size="26" text-anchor="middle" fill="#FFFFFF" font-weight="500">Add Load</text>

  <rect x="300" y="1464" width="220" height="110" rx="20" fill="#132235"/>
  <text x="410" y="1516" font-size="32" text-anchor="middle" fill="#FCD34D">📸</text>
  <text x="410" y="1552" font-size="26" text-anchor="middle" fill="#FFFFFF" font-weight="500">Scan BOL</text>

  <rect x="540" y="1464" width="220" height="110" rx="20" fill="#132235"/>
  <text x="650" y="1516" font-size="32" text-anchor="middle" fill="#34D399">⏱️</text>
  <text x="650" y="1552" font-size="26" text-anchor="middle" fill="#FFFFFF" font-weight="500">Log Hours</text>

  <rect x="780" y="1464" width="240" height="110" rx="20" fill="#132235"/>
  <text x="900" y="1516" font-size="32" text-anchor="middle" fill="#F87171">🔧</text>
  <text x="900" y="1552" font-size="26" text-anchor="middle" fill="#FFFFFF" font-weight="500">Maintenance</text>

  <!-- Bottom Navigation Bar -->
  <rect x="0" y="1700" width="1080" height="220" fill="#0A1520"/>
  <line x1="0" y1="1700" x2="1080" y2="1700" stroke="#1A3A5C" stroke-width="1.5"/>

  <!-- Nav Items -->
  <!-- Home (active) -->
  <rect x="64" y="1720" width="168" height="100" rx="20" fill="#1565C0" opacity="0.2"/>
  <text x="148" y="1768" font-size="36" text-anchor="middle" fill="#2196F3">🏠</text>
  <text x="148" y="1800" font-size="26" text-anchor="middle" fill="#2196F3" font-weight="600">Home</text>

  <!-- Loads -->
  <text x="364" y="1768" font-size="36" text-anchor="middle" fill="#8BA3BC">📦</text>
  <text x="364" y="1800" font-size="26" text-anchor="middle" fill="#8BA3BC">Loads</text>

  <!-- Map (center FAB) -->
  <circle cx="540" cy="1660" r="58" fill="#1565C0" filter="url(#shadow)"/>
  <circle cx="540" cy="1660" r="48" fill="#1565C0"/>
  <text x="540" y="1678" font-size="40" text-anchor="middle" fill="#FFFFFF">🗺️</text>

  <!-- Earnings -->
  <text x="716" y="1768" font-size="36" text-anchor="middle" fill="#8BA3BC">💵</text>
  <text x="716" y="1800" font-size="26" text-anchor="middle" fill="#8BA3BC">Earnings</text>

  <!-- Profile -->
  <text x="932" y="1768" font-size="36" text-anchor="middle" fill="#8BA3BC">👤</text>
  <text x="932" y="1800" font-size="26" text-anchor="middle" fill="#8BA3BC">Profile</text>

  <!-- Home indicator bar -->
  <rect x="390" y="1880" width="300" height="8" rx="4" fill="#FFFFFF" opacity="0.3"/>
</svg>
