<svg xmlns="http://www.w3.org/2000/svg" viewBox="0 0 320 100" width="320" height="100">
  <!-- Background -->
  <rect width="320" height="100" fill="white" rx="8"/>

  <!-- Wrench icon -->
  <g transform="translate(14, 14)">
    <!-- Wrench body -->
    <path d="M18 2C13.6 2 10 5.6 10 10c0 1.2.3 2.4.8 3.4L2 22.2l-.2.2C1 23.3 1 24.1 1.5 24.8l-.1.1c-.9.9-.9 2.3 0 3.2L4.9 31c.9.9 2.3.9 3.2 0l.1-.1c.7.5 1.5.5 2.1-.1l.2-.2 8.8-8.8c1 .5 2.2.8 3.4.8 4.4 0 8-3.6 8-8s-3.6-8-8-8zm0 3c2.8 0 5 2.2 5 5 0 .6-.1 1.2-.3 1.7l-1.2-.3-3 3V16c-.8.3-1.6.5-2.5.4v-2.8l-3-3-.3-1.2C13.1 9.2 13 8.6 13 8c0-2.8 2.2-5 5-5z" fill="#1E40AF"/>
    <!-- Hammer head -->
    <rect x="24" y="1" width="10" height="8" rx="2" fill="#F97316"/>
    <rect x="26" y="9" width="6" height="14" rx="1" fill="#F97316"/>
  </g>

  <!-- FixCraft text -->
  <text x="75" y="42" font-family="'Arial Black', Arial, sans-serif" font-weight="900" font-size="32" fill="#1E40AF" letter-spacing="-1">FIX</text>
  <text x="145" y="42" font-family="'Arial Black', Arial, sans-serif" font-weight="900" font-size="32" fill="#F97316" letter-spacing="-1">CRAFT</text>

  <!-- Divider line -->
  <rect x="75" y="50" width="220" height="3" fill="#F97316" rx="2"/>

  <!-- Tagline -->
  <text x="75" y="72" font-family="Arial, sans-serif" font-size="13" fill="#64748B" letter-spacing="2" font-weight="500">TRUSTED HANDYMAN</text>

  <!-- Charlotte NC -->
  <text x="75" y="88" font-family="Arial, sans-serif" font-size="11" fill="#94A3B8" letter-spacing="1">CHARLOTTE, NC</text>
</svg>
