<svg xmlns="http://www.w3.org/2000/svg" viewBox="0 0 100 100" width="100" height="100">
  <!-- Circle background -->
  <circle cx="50" cy="50" r="50" fill="#1E40AF"/>

  <!-- Orange arc top -->
  <path d="M10 50 A40 40 0 0 1 90 50" fill="none" stroke="#F97316" stroke-width="6"/>

  <!-- FC monogram -->
  <text x="50" y="58" font-family="'Arial Black', Arial, sans-serif" font-weight="900" font-size="32" fill="white" text-anchor="middle" letter-spacing="-2">FC</text>

  <!-- Small wrench icon -->
  <g transform="translate(66, 20) scale(0.6)">
    <path d="M12 2C8.7 2 6 4.7 6 8c0 .9.2 1.8.6 2.6L0 17.2v.1c-.6.7-.6 1.7-.1 2.4l-.1.1c-.7.7-.7 1.7 0 2.4l2.5 2.5c.7.7 1.7.7 2.4 0l.1-.1c.5.4 1.1.4 1.6-.1l.1-.1 6.6-6.6c.8.4 1.7.6 2.6.6 3.3 0 6-2.7 6-6s-2.7-6-6-6z" fill="white" opacity="0.8"/>
  </g>
</svg>
