<svg xmlns="http://www.w3.org/2000/svg" width="1920" height="1080" viewBox="0 0 1920 1080">
  <defs>
    <linearGradient id="mapGrad" x1="0%" y1="0%" x2="100%" y2="100%">
      <stop offset="0%" style="stop-color:#0D2137;stop-opacity:1" />
      <stop offset="100%" style="stop-color:#0A1A2E;stop-opacity:1" />
    </linearGradient>
    <linearGradient id="cardGrad" x1="0%" y1="0%" x2="0%" y2="100%">
      <stop offset="0%" style="stop-color:#1E3A5F;stop-opacity:1" />
      <stop offset="100%" style="stop-color:#162E4A;stop-opacity:1" />
    </linearGradient>
    <linearGradient id="earningsGrad" x1="0%" y1="0%" x2="100%" y2="0%">
      <stop offset="0%" style="stop-color:#2B6CB0;stop-opacity:1" />
      <stop offset="100%" style="stop-color:#3182CE;stop-opacity:1" />
    </linearGradient>
    <linearGradient id="routeGrad" x1="0%" y1="0%" x2="100%" y2="100%">
      <stop offset="0%" style="stop-color:#F5A623;stop-opacity:1" />
      <stop offset="100%" style="stop-color:#E8961A;stop-opacity:1" />
    </linearGradient>
    <filter id="shadow" x="-5%" y="-5%" width="110%" height="110%">
      <feDropShadow dx="0" dy="4" stdDeviation="8" flood-color="#000000" flood-opacity="0.4"/>
    </filter>
    <filter id="glow">
      <feGaussianBlur stdDeviation="3" result="coloredBlur"/>
      <feMerge><feMergeNode in="coloredBlur"/><feMergeNode in="SourceGraphic"/></feMerge>
    </filter>
    <clipPath id="appWindow">
      <rect x="40" y="20" width="1840" height="1000" rx="10"/>
    </clipPath>
    <pattern id="mapPattern" x="0" y="0" width="60" height="60" patternUnits="userSpaceOnUse">
      <rect width="60" height="60" fill="#0D2137"/>
      <line x1="0" y1="30" x2="60" y2="30" stroke="#1A3A55" stroke-width="0.5"/>
      <line x1="30" y1="0" x2="30" y2="60" stroke="#1A3A55" stroke-width="0.5"/>
    </pattern>
  </defs>

  <!-- Chrome OS Desktop Background -->
  <rect width="1920" height="1080" fill="#1A2035"/>

  <!-- Desktop wallpaper subtle gradient -->
  <rect width="1920" height="1080" fill="url(#mapGrad)" opacity="0.6"/>

  <!-- App Window (windowed mode) -->
  <rect x="40" y="20" width="1840" height="1000" rx="10" fill="#0D1B2A" filter="url(#shadow)"/>

  <!-- Window Title Bar -->
  <rect x="40" y="20" width="1840" height="36" rx="10" fill="#0A1520"/>
  <rect x="40" y="44" width="1840" height="12" fill="#0A1520"/>

  <!-- Window Controls -->
  <circle cx="64" cy="38" r="6" fill="#FF5F57"/>
  <circle cx="84" cy="38" r="6" fill="#FFBD2E"/>
  <circle cx="104" cy="38" r="6" fill="#28CA41"/>

  <!-- Window Title -->
  <text x="960" y="42" font-family="Arial, sans-serif" font-size="13" fill="#8B9EC8" text-anchor="middle">HaulWallet — Dashboard</text>

  <!-- Main App Area (below title bar) -->
  <!-- Sidebar -->
  <rect x="40" y="56" width="240" height="964" fill="#1A2B4A"/>

  <!-- Logo area -->
  <rect x="40" y="56" width="240" height="70" fill="#142038"/>
  <!-- Logo icon -->
  <rect x="60" y="73" width="36" height="36" rx="8" fill="#2B6CB0"/>
  <text x="78" y="97" font-family="Arial, sans-serif" font-size="20" fill="white" text-anchor="middle" font-weight="bold">H</text>
  <text x="110" y="88" font-family="Arial, sans-serif" font-size="15" fill="white" font-weight="bold">HaulWallet</text>
  <text x="110" y="104" font-family="Arial, sans-serif" font-size="10" fill="#8B9EC8">Fleet Management</text>

  <!-- Nav Items -->
  <!-- Dashboard (active) -->
  <rect x="48" y="145" width="224" height="44" rx="8" fill="#2B6CB0"/>
  <rect x="68" y="158" width="20" height="18" rx="3" fill="white" opacity="0.9"/>
  <text x="98" y="172" font-family="Arial, sans-serif" font-size="13" fill="white" font-weight="600">Dashboard</text>

  <!-- Routes -->
  <rect x="48" y="197" width="224" height="44" rx="8" fill="transparent"/>
  <circle cx="78" cy="219" r="9" fill="none" stroke="#8B9EC8" stroke-width="1.5"/>
  <circle cx="78" cy="219" r="4" fill="#8B9EC8"/>
  <text x="98" y="223" font-family="Arial, sans-serif" font-size="13" fill="#8B9EC8">My Routes</text>

  <!-- Loads -->
  <rect x="48" y="249" width="224" height="44" rx="8" fill="transparent"/>
  <rect x="65" y="261" width="26" height="16" rx="3" fill="none" stroke="#8B9EC8" stroke-width="1.5"/>
  <line x1="68" y1="257" x2="74" y2="261" stroke="#8B9EC8" stroke-width="1.5"/>
  <line x1="84" y1="257" x2="88" y2="261" stroke="#8B9EC8" stroke-width="1.5"/>
  <text x="98" y="271" font-family="Arial, sans-serif" font-size="13" fill="#8B9EC8">Loads</text>
  <rect x="206" y="257" width="28" height="16" rx="8" fill="#F5A623"/>
  <text x="220" y="269" font-family="Arial, sans-serif" font-size="10" fill="white" text-anchor="middle" font-weight="bold">3</text>

  <!-- Earnings -->
  <rect x="48" y="301" width="224" height="44" rx="8" fill="transparent"/>
  <text x="78" y="323" font-family="Arial, sans-serif" font-size="16" fill="#8B9EC8" font-weight="bold">$</text>
  <text x="98" y="323" font-family="Arial, sans-serif" font-size="13" fill="#8B9EC8">Earnings</text>

  <!-- Analytics -->
  <rect x="48" y="353" width="224" height="44" rx="8" fill="transparent"/>
  <rect x="63" y="367" width="6" height="14" rx="2" fill="#8B9EC8"/>
  <rect x="72" y="361" width="6" height="20" rx="2" fill="#8B9EC8"/>
  <rect x="81" y="364" width="6" height="17" rx="2" fill="#8B9EC8"/>
  <text x="98" y="379" font-family="Arial, sans-serif" font-size="13" fill="#8B9EC8">Analytics</text>

  <!-- Documents -->
  <rect x="48" y="405" width="224" height="44" rx="8" fill="transparent"/>
  <rect x="64" y="417" width="18" height="22" rx="2" fill="none" stroke="#8B9EC8" stroke-width="1.5"/>
  <line x1="68" y1="424" x2="78" y2="424" stroke="#8B9EC8" stroke-width="1"/>
  <line x1="68" y1="429" x2="78" y2="429" stroke="#8B9EC8" stroke-width="1"/>
  <text x="98" y="431" font-family="Arial, sans-serif" font-size="13" fill="#8B9EC8">Documents</text>

  <!-- Expenses -->
  <rect x="48" y="457" width="224" height="44" rx="8" fill="transparent"/>
  <text x="98" y="483" font-family="Arial, sans-serif" font-size="13" fill="#8B9EC8">Expenses</text>

  <!-- Separator -->
  <line x1="68" y1="540" x2="252" y2="540" stroke="#2B3F5E" stroke-width="1"/>

  <!-- Settings -->
  <rect x="48" y="556" width="224" height="44" rx="8" fill="transparent"/>
  <text x="98" y="582" font-family="Arial, sans-serif" font-size="13" fill="#8B9EC8">Settings</text>

  <!-- User profile bottom of sidebar -->
  <rect x="40" y="960" width="240" height="60" fill="#142038"/>
  <circle cx="72" cy="990" r="18" fill="#2B6CB0"/>
  <text x="72" y="996" font-family="Arial, sans-serif" font-size="14" fill="white" text-anchor="middle" font-weight="bold">MJ</text>
  <text x="100" y="985" font-family="Arial, sans-serif" font-size="12" fill="white" font-weight="600">Mike Johnson</text>
  <text x="100" y="1001" font-family="Arial, sans-serif" font-size="11" fill="#8B9EC8">CDL-A Driver</text>

  <!-- Main Content Area -->
  <!-- Top Toolbar -->
  <rect x="280" y="56" width="1600" height="64" fill="#0F2035" opacity="0.9"/>
  <line x1="280" y1="120" x2="1880" y2="120" stroke="#1E3A5F" stroke-width="1"/>

  <!-- Page Title -->
  <text x="308" y="85" font-family="Arial, sans-serif" font-size="20" fill="white" font-weight="bold">Dashboard</text>
  <text x="308" y="105" font-family="Arial, sans-serif" font-size="12" fill="#8B9EC8">Friday, April 17, 2026</text>

  <!-- Search bar -->
  <rect x="700" y="70" width="320" height="36" rx="18" fill="#1A2B4A" stroke="#2B3F5E" stroke-width="1"/>
  <text x="724" y="93" font-family="Arial, sans-serif" font-size="13" fill="#5A7090">Search loads, routes...</text>
  <circle cx="716" cy="88" r="6" fill="none" stroke="#5A7090" stroke-width="1.5"/>
  <line x1="720" y1="92" x2="724" y2="96" stroke="#5A7090" stroke-width="1.5"/>

  <!-- Notification bell -->
  <circle cx="1760" cy="88" r="22" fill="#1A2B4A"/>
  <path d="M1753 83 Q1753 78 1760 78 Q1767 78 1767 83 L1768 92 Q1770 94 1771 96 L1749 96 Q1750 94 1752 92 Z" fill="#8B9EC8"/>
  <circle cx="1760" cy="99" r="3" fill="#8B9EC8"/>
  <circle cx="1766" cy="80" r="5" fill="#F5A623"/>

  <!-- User avatar top right -->
  <circle cx="1820" cy="88" r="22" fill="#2B6CB0"/>
  <text x="1820" y="94" font-family="Arial, sans-serif" font-size="14" fill="white" text-anchor="middle" font-weight="bold">MJ</text>

  <!-- Refresh/date indicator -->
  <rect x="1840" y="70" width="28" height="28" rx="6" fill="transparent"/>

  <!-- KPI Cards Row -->
  <rect x="300" y="136" width="340" height="120" rx="12" fill="url(#cardGrad)" stroke="#2B3F5E" stroke-width="1"/>
  <text x="324" y="166" font-family="Arial, sans-serif" font-size="12" fill="#8B9EC8" font-weight="600" letter-spacing="1">TOTAL EARNINGS</text>
  <text x="324" y="208" font-family="Arial, sans-serif" font-size="36" fill="white" font-weight="700">$12,840</text>
  <text x="324" y="232" font-family="Arial, sans-serif" font-size="12" fill="#48BB78">+18.4% vs last month</text>
  <rect x="580" y="148" width="50" height="30" rx="6" fill="#48BB78" opacity="0.2"/>
  <text x="605" y="168" font-family="Arial, sans-serif" font-size="11" fill="#48BB78" text-anchor="middle" font-weight="bold">+18%</text>

  <rect x="660" y="136" width="340" height="120" rx="12" fill="url(#cardGrad)" stroke="#2B3F5E" stroke-width="1"/>
  <text x="684" y="166" font-family="Arial, sans-serif" font-size="12" fill="#8B9EC8" font-weight="600" letter-spacing="1">ACTIVE LOADS</text>
  <text x="684" y="208" font-family="Arial, sans-serif" font-size="36" fill="white" font-weight="700">7</text>
  <text x="684" y="232" font-family="Arial, sans-serif" font-size="12" fill="#F5A623">3 pending dispatch</text>

  <rect x="1020" y="136" width="340" height="120" rx="12" fill="url(#cardGrad)" stroke="#2B3F5E" stroke-width="1"/>
  <text x="1044" y="166" font-family="Arial, sans-serif" font-size="12" fill="#8B9EC8" font-weight="600" letter-spacing="1">MILES THIS WEEK</text>
  <text x="1044" y="208" font-family="Arial, sans-serif" font-size="36" fill="white" font-weight="700">2,347</text>
  <text x="1044" y="232" font-family="Arial, sans-serif" font-size="12" fill="#8B9EC8">Avg 335 mi/day</text>

  <rect x="1380" y="136" width="480" height="120" rx="12" fill="url(#cardGrad)" stroke="#2B3F5E" stroke-width="1"/>
  <text x="1404" y="166" font-family="Arial, sans-serif" font-size="12" fill="#8B9EC8" font-weight="600" letter-spacing="1">NEXT DELIVERY</text>
  <text x="1404" y="196" font-family="Arial, sans-serif" font-size="18" fill="white" font-weight="700">Chicago, IL → Dallas, TX</text>
  <rect x="1404" y="206" width="80" height="20" rx="10" fill="#2B6CB0"/>
  <text x="1444" y="220" font-family="Arial, sans-serif" font-size="11" fill="white" text-anchor="middle">In Progress</text>
  <text x="1500" y="220" font-family="Arial, sans-serif" font-size="12" fill="#F5A623" font-weight="600">ETA: 6h 20m</text>
  <text x="1404" y="245" font-family="Arial, sans-serif" font-size="12" fill="#8B9EC8">Load #HL-2847 · Refrigerated · 920 mi</text>

  <!-- Map Section -->
  <rect x="300" y="272" width="860" height="520" rx="12" fill="#0A1A2C" stroke="#2B3F5E" stroke-width="1"/>
  <!-- Map Background -->
  <rect x="300" y="272" width="860" height="520" rx="12" fill="url(#mapPattern)"/>

  <!-- Map Header -->
  <rect x="300" y="272" width="860" height="44" rx="12" fill="#0F2035"/>
  <rect x="300" y="294" width="860" height="22" fill="#0F2035"/>
  <text x="322" y="299" font-family="Arial, sans-serif" font-size="14" fill="white" font-weight="600">Live Route Map</text>
  <rect x="1060" y="279" width="70" height="24" rx="12" fill="#2B6CB0"/>
  <text x="1095" y="296" font-family="Arial, sans-serif" font-size="11" fill="white" text-anchor="middle">Live</text>
  <circle cx="1077" cy="291" r="4" fill="#48BB78"/>

  <!-- Roads on map -->
  <path d="M 400 450 Q 600 380 800 420 Q 900 440 960 480 Q 1000 510 1050 500 Q 1090 490 1120 460" stroke="#2B6CB0" stroke-width="3" fill="none" opacity="0.7"/>
  <path d="M 350 550 Q 500 500 650 480 Q 750 465 800 420" stroke="#4A90D9" stroke-width="2" fill="none" opacity="0.4"/>
  <path d="M 500 350 Q 600 400 650 480 Q 700 560 720 620" stroke="#1A4A7A" stroke-width="1.5" fill="none" opacity="0.3"/>
  <path d="M 900 350 Q 950 400 1020 440 Q 1060 460 1100 480" stroke="#1A4A7A" stroke-width="1.5" fill="none" opacity="0.3"/>

  <!-- Current position truck -->
  <circle cx="800" cy="420" r="12" fill="#F5A623" opacity="0.3"/>
  <circle cx="800" cy="420" r="7" fill="#F5A623"/>
  <circle cx="800" cy="420" r="3" fill="white"/>

  <!-- Destination pin -->
  <ellipse cx="1120" cy="465" rx="5" ry="2" fill="#2B6CB0" opacity="0.5"/>
  <rect x="1115" y="440" width="10" height="20" rx="2" fill="#2B6CB0"/>
  <ellipse cx="1120" cy="440" rx="8" ry="8" fill="#2B6CB0"/>
  <circle cx="1120" cy="440" r="3" fill="white"/>

  <!-- Start pin -->
  <ellipse cx="400" cy="453" rx="5" ry="2" fill="#48BB78" opacity="0.5"/>
  <rect x="395" y="428" width="10" height="20" rx="2" fill="#48BB78"/>
  <ellipse cx="400" cy="428" rx="8" ry="8" fill="#48BB78"/>
  <circle cx="400" cy="428" r="3" fill="white"/>

  <!-- City labels -->
  <text x="385" y="418" font-family="Arial, sans-serif" font-size="10" fill="#8B9EC8">Chicago, IL</text>
  <text x="1102" y="432" font-family="Arial, sans-serif" font-size="10" fill="#8B9EC8">Dallas, TX</text>
  <text x="790" y="410" font-family="Arial, sans-serif" font-size="10" fill="#F5A623" font-weight="bold">YOU</text>

  <!-- Map controls -->
  <rect x="1108" y="530" width="36" height="72" rx="6" fill="#142038" stroke="#2B3F5E" stroke-width="1"/>
  <text x="1126" y="557" font-family="Arial, sans-serif" font-size="18" fill="#8B9EC8" text-anchor="middle">+</text>
  <line x1="1112" y1="570" x2="1140" y2="570" stroke="#2B3F5E" stroke-width="1"/>
  <text x="1126" y="593" font-family="Arial, sans-serif" font-size="18" fill="#8B9EC8" text-anchor="middle">−</text>

  <!-- Map legend -->
  <rect x="316" y="746" width="180" height="36" rx="8" fill="#0F2035" stroke="#2B3F5E" stroke-width="1"/>
  <circle cx="336" cy="764" r="5" fill="#F5A623"/>
  <text x="348" y="768" font-family="Arial, sans-serif" font-size="11" fill="#8B9EC8">Current Position</text>
  <circle cx="420" cy="764" r="5" fill="#2B6CB0"/>
  <text x="432" y="768" font-family="Arial, sans-serif" font-size="11" fill="#8B9EC8">Destination</text>

  <!-- Right Panel: Stats + Recent -->
  <rect x="1180" y="272" width="680" height="248" rx="12" fill="url(#cardGrad)" stroke="#2B3F5E" stroke-width="1"/>
  <text x="1204" y="302" font-family="Arial, sans-serif" font-size="14" fill="white" font-weight="600">Weekly Earnings</text>

  <!-- Bar chart -->
  <!-- Y axis labels -->
  <text x="1198" y="370" font-family="Arial, sans-serif" font-size="10" fill="#5A7090">$3k</text>
  <text x="1198" y="420" font-family="Arial, sans-serif" font-size="10" fill="#5A7090">$2k</text>
  <text x="1198" y="470" font-family="Arial, sans-serif" font-size="10" fill="#5A7090">$1k</text>
  <line x1="1216" y1="360" x2="1840" y2="360" stroke="#1E3A5F" stroke-width="0.5"/>
  <line x1="1216" y1="410" x2="1840" y2="410" stroke="#1E3A5F" stroke-width="0.5"/>
  <line x1="1216" y1="460" x2="1840" y2="460" stroke="#1E3A5F" stroke-width="0.5"/>

  <!-- Bars -->
  <rect x="1240" y="390" width="64" height="80" rx="4" fill="#2B6CB0" opacity="0.6"/>
  <rect x="1330" y="370" width="64" height="100" rx="4" fill="#2B6CB0" opacity="0.7"/>
  <rect x="1420" y="380" width="64" height="90" rx="4" fill="#2B6CB0" opacity="0.7"/>
  <rect x="1510" y="360" width="64" height="110" rx="4" fill="#2B6CB0" opacity="0.8"/>
  <rect x="1600" y="345" width="64" height="125" rx="4" fill="#2B6CB0"/>
  <rect x="1690" y="375" width="64" height="95" rx="4" fill="#F5A623" opacity="0.9"/>
  <rect x="1780" y="410" width="44" height="60" rx="4" fill="#2B6CB0" opacity="0.4"/>

  <!-- Day labels -->
  <text x="1272" y="486" font-family="Arial, sans-serif" font-size="11" fill="#5A7090" text-anchor="middle">Mon</text>
  <text x="1362" y="486" font-family="Arial, sans-serif" font-size="11" fill="#5A7090" text-anchor="middle">Tue</text>
  <text x="1452" y="486" font-family="Arial, sans-serif" font-size="11" fill="#5A7090" text-anchor="middle">Wed</text>
  <text x="1542" y="486" font-family="Arial, sans-serif" font-size="11" fill="#5A7090" text-anchor="middle">Thu</text>
  <text x="1632" y="486" font-family="Arial, sans-serif" font-size="11" fill="#5A7090" text-anchor="middle">Fri</text>
  <text x="1722" y="486" font-family="Arial, sans-serif" font-size="11" fill="#F5A623" text-anchor="middle">Today</text>
  <text x="1802" y="486" font-family="Arial, sans-serif" font-size="11" fill="#5A7090" text-anchor="middle">Sun</text>

  <!-- Fuel & Expenses card -->
  <rect x="1180" y="536" width="326" height="256" rx="12" fill="url(#cardGrad)" stroke="#2B3F5E" stroke-width="1"/>
  <text x="1204" y="566" font-family="Arial, sans-serif" font-size="14" fill="white" font-weight="600">Fuel Tracker</text>
  <text x="1204" y="610" font-family="Arial, sans-serif" font-size="30" fill="white" font-weight="700">$847</text>
  <text x="1204" y="630" font-family="Arial, sans-serif" font-size="12" fill="#8B9EC8">This week's fuel cost</text>
  <!-- Fuel gauge -->
  <rect x="1204" y="650" width="280" height="12" rx="6" fill="#0D1B2A"/>
  <rect x="1204" y="650" width="196" height="12" rx="6" fill="url(#earningsGrad)"/>
  <text x="1204" y="678" font-family="Arial, sans-serif" font-size="11" fill="#8B9EC8">MPG: 6.4</text>
  <text x="1360" y="678" font-family="Arial, sans-serif" font-size="11" fill="#8B9EC8">Gallons: 132</text>
  <!-- Fuel stations -->
  <text x="1204" y="706" font-family="Arial, sans-serif" font-size="12" fill="#8B9EC8">Best nearby price:</text>
  <text x="1204" y="726" font-family="Arial, sans-serif" font-size="18" fill="#48BB78" font-weight="700">$3.42/gal</text>
  <text x="1310" y="726" font-family="Arial, sans-serif" font-size="11" fill="#8B9EC8">Pilot — 2.3 mi</text>
  <text x="1204" y="748" font-family="Arial, sans-serif" font-size="11" fill="#5A7090">TA — 4.1 mi · $3.49/gal</text>
  <text x="1204" y="764" font-family="Arial, sans-serif" font-size="11" fill="#5A7090">Flying J — 5.8 mi · $3.51/gal</text>
  <text x="1204" y="780" font-family="Arial, sans-serif" font-size="11" fill="#5A7090">Love's — 7.2 mi · $3.55/gal</text>

  <!-- Upcoming loads card -->
  <rect x="1524" y="536" width="336" height="256" rx="12" fill="url(#cardGrad)" stroke="#2B3F5E" stroke-width="1"/>
  <text x="1548" y="566" font-family="Arial, sans-serif" font-size="14" fill="white" font-weight="600">Upcoming Loads</text>

  <!-- Load items -->
  <rect x="1540" y="578" width="304" height="56" rx="8" fill="#0F2035"/>
  <rect x="1540" y="578" width="4" height="56" rx="2" fill="#F5A623"/>
  <text x="1556" y="600" font-family="Arial, sans-serif" font-size="12" fill="white" font-weight="600">Atlanta → Miami</text>
  <text x="1556" y="618" font-family="Arial, sans-serif" font-size="11" fill="#8B9EC8">Apr 19 · 662 mi · Dry Van</text>
  <text x="1788" y="600" font-family="Arial, sans-serif" font-size="14" fill="#48BB78" font-weight="700" text-anchor="end">$1,840</text>
  <text x="1788" y="618" font-family="Arial, sans-serif" font-size="11" fill="#5A7090" text-anchor="end">$2.78/mi</text>

  <rect x="1540" y="644" width="304" height="56" rx="8" fill="#0F2035"/>
  <rect x="1540" y="644" width="4" height="56" rx="2" fill="#2B6CB0"/>
  <text x="1556" y="666" font-family="Arial, sans-serif" font-size="12" fill="white" font-weight="600">Houston → Phoenix</text>
  <text x="1556" y="684" font-family="Arial, sans-serif" font-size="11" fill="#8B9EC8">Apr 21 · 1,178 mi · Flatbed</text>
  <text x="1788" y="666" font-family="Arial, sans-serif" font-size="14" fill="#48BB78" font-weight="700" text-anchor="end">$2,650</text>
  <text x="1788" y="684" font-family="Arial, sans-serif" font-size="11" fill="#5A7090" text-anchor="end">$2.25/mi</text>

  <rect x="1540" y="710" width="304" height="56" rx="8" fill="#0F2035"/>
  <rect x="1540" y="710" width="4" height="56" rx="2" fill="#48BB78"/>
  <text x="1556" y="732" font-family="Arial, sans-serif" font-size="12" fill="white" font-weight="600">Denver → Seattle</text>
  <text x="1556" y="750" font-family="Arial, sans-serif" font-size="11" fill="#8B9EC8">Apr 24 · 1,321 mi · Reefer</text>
  <text x="1788" y="732" font-family="Arial, sans-serif" font-size="14" fill="#48BB78" font-weight="700" text-anchor="end">$3,200</text>
  <text x="1788" y="750" font-family="Arial, sans-serif" font-size="11" fill="#5A7090" text-anchor="end">$2.42/mi</text>

  <!-- Bottom status row -->
  <rect x="300" y="808" width="1560" height="196" rx="12" fill="url(#cardGrad)" stroke="#2B3F5E" stroke-width="1"/>
  <text x="324" y="836" font-family="Arial, sans-serif" font-size="14" fill="white" font-weight="600">Recent Activity</text>

  <!-- Activity items -->
  <rect x="316" y="850" width="360" height="48" rx="8" fill="#0F2035"/>
  <circle cx="342" cy="874" r="14" fill="#2B6CB0" opacity="0.3"/>
  <circle cx="342" cy="874" r="8" fill="#2B6CB0"/>
  <text x="364" y="870" font-family="Arial, sans-serif" font-size="12" fill="white">Load #HL-2844 Delivered</text>
  <text x="364" y="886" font-family="Arial, sans-serif" font-size="11" fill="#8B9EC8">Memphis → Nashville · $1,240</text>
  <text x="668" y="870" font-family="Arial, sans-serif" font-size="11" fill="#5A7090" text-anchor="end">2h ago</text>

  <rect x="696" y="850" width="360" height="48" rx="8" fill="#0F2035"/>
  <circle cx="722" cy="874" r="14" fill="#F5A623" opacity="0.3"/>
  <circle cx="722" cy="874" r="8" fill="#F5A623"/>
  <text x="744" y="870" font-family="Arial, sans-serif" font-size="12" fill="white">Fuel Stop — Pilot Travel</text>
  <text x="744" y="886" font-family="Arial, sans-serif" font-size="11" fill="#8B9EC8">Springfield, IL · $186 · 54.4 gal</text>
  <text x="1048" y="870" font-family="Arial, sans-serif" font-size="11" fill="#5A7090" text-anchor="end">5h ago</text>

  <rect x="1076" y="850" width="360" height="48" rx="8" fill="#0F2035"/>
  <circle cx="1102" cy="874" r="14" fill="#48BB78" opacity="0.3"/>
  <circle cx="1102" cy="874" r="8" fill="#48BB78"/>
  <text x="1124" y="870" font-family="Arial, sans-serif" font-size="12" fill="white">Invoice #INV-891 Paid</text>
  <text x="1124" y="886" font-family="Arial, sans-serif" font-size="11" fill="#8B9EC8">FreshFoods Co. · $3,840</text>
  <text x="1428" y="870" font-family="Arial, sans-serif" font-size="11" fill="#5A7090" text-anchor="end">Yesterday</text>

  <rect x="1456" y="850" width="388" height="48" rx="8" fill="#0F2035"/>
  <circle cx="1482" cy="874" r="14" fill="#9B59B6" opacity="0.3"/>
  <circle cx="1482" cy="874" r="8" fill="#9B59B6"/>
  <text x="1504" y="870" font-family="Arial, sans-serif" font-size="12" fill="white">HOS Reset Complete</text>
  <text x="1504" y="886" font-family="Arial, sans-serif" font-size="11" fill="#8B9EC8">10h sleeper berth · Ready to drive</text>
  <text x="1836" y="870" font-family="Arial, sans-serif" font-size="11" fill="#5A7090" text-anchor="end">Yesterday</text>

  <!-- Chrome OS Taskbar -->
  <rect x="0" y="1040" width="1920" height="40" fill="#1A2035"/>
  <!-- App icons in taskbar -->
  <rect x="8" y="1048" width="24" height="24" rx="6" fill="#2B6CB0"/>
  <text x="20" y="1065" font-family="Arial, sans-serif" font-size="12" fill="white" text-anchor="middle" font-weight="bold">H</text>
  <!-- Other taskbar apps -->
  <circle cx="56" cy="1060" r="10" fill="#4285F4"/>
  <circle cx="84" cy="1060" r="10" fill="#34A853"/>
  <circle cx="112" cy="1060" r="10" fill="#EA4335"/>

  <!-- System tray -->
  <text x="1750" y="1063" font-family="Arial, sans-serif" font-size="11" fill="#C8D8E8">WiFi</text>
  <text x="1800" y="1063" font-family="Arial, sans-serif" font-size="11" fill="#C8D8E8">100%</text>
  <text x="1856" y="1063" font-family="Arial, sans-serif" font-size="11" fill="#C8D8E8">12:47</text>

  <!-- Bottom center dash indicator (Chrome OS style) -->
  <line x1="940" y1="1050" x2="980" y2="1050" stroke="#5A7090" stroke-width="2" stroke-linecap="round"/>
</svg>
